G04 #@! TF.GenerationSoftware,KiCad,Pcbnew,(5.1.4)-1*
G04 #@! TF.CreationDate,2026-07-11T23:54:40-07:00*
G04 #@! TF.ProjectId,taro60,7461726f-3630-42e6-9b69-6361645f7063,rev?*
G04 #@! TF.SameCoordinates,Original*
G04 #@! TF.FileFunction,Legend,Bot*
G04 #@! TF.FilePolarity,Positive*
%FSLAX46Y46*%
G04 Gerber Fmt 4.6, Leading zero omitted, Abs format (unit mm)*
G04 Created by KiCad (PCBNEW (5.1.4)-1) date 2026-07-11 23:54:40*
%MOMM*%
%LPD*%
G04 APERTURE LIST*
%ADD10C,0.500000*%
%ADD11C,0.120000*%
%ADD12C,0.150000*%
%ADD13C,0.100000*%
%ADD14C,0.702000*%
%ADD15C,1.102000*%
%ADD16C,1.852000*%
%ADD17C,2.352000*%
%ADD18C,4.089800*%
%ADD19C,2.352000*%
%ADD20C,3.150000*%
%ADD21R,1.502000X1.302000*%
%ADD22R,0.652000X1.602000*%
%ADD23R,1.602000X0.652000*%
%ADD24R,1.202000X1.902000*%
%ADD25C,1.077000*%
%ADD26C,1.352000*%
%ADD27R,1.302000X1.002000*%
G04 APERTURE END LIST*
D10*
X232424107Y-163814285D02*
X230138392Y-163814285D01*
X231566964Y-161814285D02*
X231566964Y-166957142D01*
X231281250Y-167528571D01*
X230709821Y-167814285D01*
X230138392Y-167814285D01*
X225566964Y-167814285D02*
X225566964Y-164671428D01*
X225852678Y-164100000D01*
X226424107Y-163814285D01*
X227566964Y-163814285D01*
X228138392Y-164100000D01*
X225566964Y-167528571D02*
X226138392Y-167814285D01*
X227566964Y-167814285D01*
X228138392Y-167528571D01*
X228424107Y-166957142D01*
X228424107Y-166385714D01*
X228138392Y-165814285D01*
X227566964Y-165528571D01*
X226138392Y-165528571D01*
X225566964Y-165242857D01*
X222709821Y-167814285D02*
X222709821Y-163814285D01*
X222709821Y-164957142D02*
X222424107Y-164385714D01*
X222138392Y-164100000D01*
X221566964Y-163814285D01*
X220995535Y-163814285D01*
X218138392Y-167814285D02*
X218709821Y-167528571D01*
X218995535Y-167242857D01*
X219281250Y-166671428D01*
X219281250Y-164957142D01*
X218995535Y-164385714D01*
X218709821Y-164100000D01*
X218138392Y-163814285D01*
X217281250Y-163814285D01*
X216709821Y-164100000D01*
X216424107Y-164385714D01*
X216138392Y-164957142D01*
X216138392Y-166671428D01*
X216424107Y-167242857D01*
X216709821Y-167528571D01*
X217281250Y-167814285D01*
X218138392Y-167814285D01*
X210995535Y-161814285D02*
X212138392Y-161814285D01*
X212709821Y-162100000D01*
X212995535Y-162385714D01*
X213566964Y-163242857D01*
X213852678Y-164385714D01*
X213852678Y-166671428D01*
X213566964Y-167242857D01*
X213281250Y-167528571D01*
X212709821Y-167814285D01*
X211566964Y-167814285D01*
X210995535Y-167528571D01*
X210709821Y-167242857D01*
X210424107Y-166671428D01*
X210424107Y-165242857D01*
X210709821Y-164671428D01*
X210995535Y-164385714D01*
X211566964Y-164100000D01*
X212709821Y-164100000D01*
X213281250Y-164385714D01*
X213566964Y-164671428D01*
X213852678Y-165242857D01*
X206709821Y-161814285D02*
X206138392Y-161814285D01*
X205566964Y-162100000D01*
X205281250Y-162385714D01*
X204995535Y-162957142D01*
X204709821Y-164100000D01*
X204709821Y-165528571D01*
X204995535Y-166671428D01*
X205281250Y-167242857D01*
X205566964Y-167528571D01*
X206138392Y-167814285D01*
X206709821Y-167814285D01*
X207281250Y-167528571D01*
X207566964Y-167242857D01*
X207852678Y-166671428D01*
X208138392Y-165528571D01*
X208138392Y-164100000D01*
X207852678Y-162957142D01*
X207566964Y-162385714D01*
X207281250Y-162100000D01*
X206709821Y-161814285D01*
D11*
X84671250Y-121760000D02*
X82871250Y-121760000D01*
X82871250Y-121760000D02*
X82871250Y-119910000D01*
X82871250Y-119910000D02*
X82131250Y-119910000D01*
X84671250Y-113190000D02*
X82871250Y-113190000D01*
X82871250Y-113190000D02*
X82871250Y-115040000D01*
X87991250Y-121760000D02*
X88541250Y-121760000D01*
X88541250Y-121760000D02*
X88541250Y-113190000D01*
X88541250Y-113190000D02*
X87991250Y-113190000D01*
X153606250Y-154843750D02*
X149606250Y-154843750D01*
X153606250Y-151543750D02*
X153606250Y-154843750D01*
D12*
X153575000Y-168906250D02*
X152300000Y-168906250D01*
X163925000Y-169481250D02*
X163250000Y-169481250D01*
X163925000Y-159131250D02*
X163250000Y-159131250D01*
X153575000Y-159131250D02*
X154250000Y-159131250D01*
X153575000Y-169481250D02*
X154250000Y-169481250D01*
X153575000Y-159131250D02*
X153575000Y-159806250D01*
X163925000Y-159131250D02*
X163925000Y-159806250D01*
X163925000Y-169481250D02*
X163925000Y-168806250D01*
X153575000Y-169481250D02*
X153575000Y-168906250D01*
X63718750Y-133568750D02*
X63718750Y-128368750D01*
X63718750Y-128368750D02*
X58518750Y-128368750D01*
X58518750Y-128368750D02*
X58518750Y-133568750D01*
X58518750Y-133568750D02*
X63718750Y-133568750D01*
X62118750Y-130968750D02*
G75*
G03X62118750Y-130968750I-1000000J0D01*
G01*
D11*
X168016422Y-167565000D02*
X168533578Y-167565000D01*
X168016422Y-168985000D02*
X168533578Y-168985000D01*
X127083750Y-160596078D02*
X127083750Y-160078922D01*
X128503750Y-160596078D02*
X128503750Y-160078922D01*
X133266250Y-160078922D02*
X133266250Y-160596078D01*
X131846250Y-160078922D02*
X131846250Y-160596078D01*
X145340000Y-159802328D02*
X145340000Y-159285172D01*
X146760000Y-159802328D02*
X146760000Y-159285172D01*
X84815000Y-133952064D02*
X84815000Y-132747936D01*
X86635000Y-133952064D02*
X86635000Y-132747936D01*
X340725000Y-167350000D02*
X340725000Y-163450000D01*
X338725000Y-167350000D02*
X338725000Y-163450000D01*
X340725000Y-167350000D02*
X338725000Y-167350000D01*
X321675000Y-167350000D02*
X321675000Y-163450000D01*
X319675000Y-167350000D02*
X319675000Y-163450000D01*
X321675000Y-167350000D02*
X319675000Y-167350000D01*
X302625000Y-167350000D02*
X302625000Y-163450000D01*
X300625000Y-167350000D02*
X300625000Y-163450000D01*
X302625000Y-167350000D02*
X300625000Y-167350000D01*
X283575000Y-167350000D02*
X283575000Y-163450000D01*
X281575000Y-167350000D02*
X281575000Y-163450000D01*
X283575000Y-167350000D02*
X281575000Y-167350000D01*
X264525000Y-167350000D02*
X264525000Y-163450000D01*
X262525000Y-167350000D02*
X262525000Y-163450000D01*
X264525000Y-167350000D02*
X262525000Y-167350000D01*
X199437500Y-167350000D02*
X199437500Y-163450000D01*
X197437500Y-167350000D02*
X197437500Y-163450000D01*
X199437500Y-167350000D02*
X197437500Y-167350000D01*
X124825000Y-167350000D02*
X124825000Y-163450000D01*
X122825000Y-167350000D02*
X122825000Y-163450000D01*
X124825000Y-167350000D02*
X122825000Y-167350000D01*
X101012500Y-167350000D02*
X101012500Y-163450000D01*
X99012500Y-167350000D02*
X99012500Y-163450000D01*
X101012500Y-167350000D02*
X99012500Y-167350000D01*
X77200000Y-167350000D02*
X77200000Y-163450000D01*
X75200000Y-167350000D02*
X75200000Y-163450000D01*
X77200000Y-167350000D02*
X75200000Y-167350000D01*
X340725000Y-148300000D02*
X340725000Y-144400000D01*
X338725000Y-148300000D02*
X338725000Y-144400000D01*
X340725000Y-148300000D02*
X338725000Y-148300000D01*
X321675000Y-148300000D02*
X321675000Y-144400000D01*
X319675000Y-148300000D02*
X319675000Y-144400000D01*
X321675000Y-148300000D02*
X319675000Y-148300000D01*
X302625000Y-148300000D02*
X302625000Y-144400000D01*
X300625000Y-148300000D02*
X300625000Y-144400000D01*
X302625000Y-148300000D02*
X300625000Y-148300000D01*
X283575000Y-148300000D02*
X283575000Y-144400000D01*
X281575000Y-148300000D02*
X281575000Y-144400000D01*
X283575000Y-148300000D02*
X281575000Y-148300000D01*
X264525000Y-148300000D02*
X264525000Y-144400000D01*
X262525000Y-148300000D02*
X262525000Y-144400000D01*
X264525000Y-148300000D02*
X262525000Y-148300000D01*
X245475000Y-148300000D02*
X245475000Y-144400000D01*
X243475000Y-148300000D02*
X243475000Y-144400000D01*
X245475000Y-148300000D02*
X243475000Y-148300000D01*
X226425000Y-148300000D02*
X226425000Y-144400000D01*
X224425000Y-148300000D02*
X224425000Y-144400000D01*
X226425000Y-148300000D02*
X224425000Y-148300000D01*
X207375000Y-148300000D02*
X207375000Y-144400000D01*
X205375000Y-148300000D02*
X205375000Y-144400000D01*
X207375000Y-148300000D02*
X205375000Y-148300000D01*
X188325000Y-148300000D02*
X188325000Y-144400000D01*
X186325000Y-148300000D02*
X186325000Y-144400000D01*
X188325000Y-148300000D02*
X186325000Y-148300000D01*
X169275000Y-148300000D02*
X169275000Y-144400000D01*
X167275000Y-148300000D02*
X167275000Y-144400000D01*
X169275000Y-148300000D02*
X167275000Y-148300000D01*
X150225000Y-148300000D02*
X150225000Y-144400000D01*
X148225000Y-148300000D02*
X148225000Y-144400000D01*
X150225000Y-148300000D02*
X148225000Y-148300000D01*
X131175000Y-148300000D02*
X131175000Y-144400000D01*
X129175000Y-148300000D02*
X129175000Y-144400000D01*
X131175000Y-148300000D02*
X129175000Y-148300000D01*
X112125000Y-148300000D02*
X112125000Y-144400000D01*
X110125000Y-148300000D02*
X110125000Y-144400000D01*
X112125000Y-148300000D02*
X110125000Y-148300000D01*
X87518750Y-148300000D02*
X87518750Y-144400000D01*
X85518750Y-148300000D02*
X85518750Y-144400000D01*
X87518750Y-148300000D02*
X85518750Y-148300000D01*
X330406250Y-129250000D02*
X330406250Y-125350000D01*
X328406250Y-129250000D02*
X328406250Y-125350000D01*
X330406250Y-129250000D02*
X328406250Y-129250000D01*
X297862500Y-129250000D02*
X297862500Y-125350000D01*
X295862500Y-129250000D02*
X295862500Y-125350000D01*
X297862500Y-129250000D02*
X295862500Y-129250000D01*
X278812500Y-129250000D02*
X278812500Y-125350000D01*
X276812500Y-129250000D02*
X276812500Y-125350000D01*
X278812500Y-129250000D02*
X276812500Y-129250000D01*
X259762500Y-129250000D02*
X259762500Y-125350000D01*
X257762500Y-129250000D02*
X257762500Y-125350000D01*
X259762500Y-129250000D02*
X257762500Y-129250000D01*
X240712500Y-129250000D02*
X240712500Y-125350000D01*
X238712500Y-129250000D02*
X238712500Y-125350000D01*
X240712500Y-129250000D02*
X238712500Y-129250000D01*
X221662500Y-129250000D02*
X221662500Y-125350000D01*
X219662500Y-129250000D02*
X219662500Y-125350000D01*
X221662500Y-129250000D02*
X219662500Y-129250000D01*
X202612500Y-129250000D02*
X202612500Y-125350000D01*
X200612500Y-129250000D02*
X200612500Y-125350000D01*
X202612500Y-129250000D02*
X200612500Y-129250000D01*
X183562500Y-129250000D02*
X183562500Y-125350000D01*
X181562500Y-129250000D02*
X181562500Y-125350000D01*
X183562500Y-129250000D02*
X181562500Y-129250000D01*
X164512500Y-129250000D02*
X164512500Y-125350000D01*
X162512500Y-129250000D02*
X162512500Y-125350000D01*
X164512500Y-129250000D02*
X162512500Y-129250000D01*
X145462500Y-129250000D02*
X145462500Y-125350000D01*
X143462500Y-129250000D02*
X143462500Y-125350000D01*
X145462500Y-129250000D02*
X143462500Y-129250000D01*
X126412500Y-129250000D02*
X126412500Y-125350000D01*
X124412500Y-129250000D02*
X124412500Y-125350000D01*
X126412500Y-129250000D02*
X124412500Y-129250000D01*
X107362500Y-129250000D02*
X107362500Y-125350000D01*
X105362500Y-129250000D02*
X105362500Y-125350000D01*
X107362500Y-129250000D02*
X105362500Y-129250000D01*
X82756250Y-129250000D02*
X82756250Y-125350000D01*
X80756250Y-129250000D02*
X80756250Y-125350000D01*
X82756250Y-129250000D02*
X80756250Y-129250000D01*
X337550000Y-110137500D02*
X337550000Y-106237500D01*
X335550000Y-110137500D02*
X335550000Y-106237500D01*
X337550000Y-110137500D02*
X335550000Y-110137500D01*
X312150000Y-110200000D02*
X312150000Y-106300000D01*
X310150000Y-110200000D02*
X310150000Y-106300000D01*
X312150000Y-110200000D02*
X310150000Y-110200000D01*
X293100000Y-110200000D02*
X293100000Y-106300000D01*
X291100000Y-110200000D02*
X291100000Y-106300000D01*
X293100000Y-110200000D02*
X291100000Y-110200000D01*
X274050000Y-110200000D02*
X274050000Y-106300000D01*
X272050000Y-110200000D02*
X272050000Y-106300000D01*
X274050000Y-110200000D02*
X272050000Y-110200000D01*
X255000000Y-110200000D02*
X255000000Y-106300000D01*
X253000000Y-110200000D02*
X253000000Y-106300000D01*
X255000000Y-110200000D02*
X253000000Y-110200000D01*
X235950000Y-110200000D02*
X235950000Y-106300000D01*
X233950000Y-110200000D02*
X233950000Y-106300000D01*
X235950000Y-110200000D02*
X233950000Y-110200000D01*
X216900000Y-110200000D02*
X216900000Y-106300000D01*
X214900000Y-110200000D02*
X214900000Y-106300000D01*
X216900000Y-110200000D02*
X214900000Y-110200000D01*
X197850000Y-110200000D02*
X197850000Y-106300000D01*
X195850000Y-110200000D02*
X195850000Y-106300000D01*
X197850000Y-110200000D02*
X195850000Y-110200000D01*
X178800000Y-110200000D02*
X178800000Y-106300000D01*
X176800000Y-110200000D02*
X176800000Y-106300000D01*
X178800000Y-110200000D02*
X176800000Y-110200000D01*
X159750000Y-110200000D02*
X159750000Y-106300000D01*
X157750000Y-110200000D02*
X157750000Y-106300000D01*
X159750000Y-110200000D02*
X157750000Y-110200000D01*
X140700000Y-110200000D02*
X140700000Y-106300000D01*
X138700000Y-110200000D02*
X138700000Y-106300000D01*
X140700000Y-110200000D02*
X138700000Y-110200000D01*
X121650000Y-110200000D02*
X121650000Y-106300000D01*
X119650000Y-110200000D02*
X119650000Y-106300000D01*
X121650000Y-110200000D02*
X119650000Y-110200000D01*
X102600000Y-110200000D02*
X102600000Y-106300000D01*
X100600000Y-110200000D02*
X100600000Y-106300000D01*
X102600000Y-110200000D02*
X100600000Y-110200000D01*
X81168750Y-110200000D02*
X81168750Y-106300000D01*
X79168750Y-110200000D02*
X79168750Y-106300000D01*
X81168750Y-110200000D02*
X79168750Y-110200000D01*
X331993750Y-91150000D02*
X331993750Y-87250000D01*
X329993750Y-91150000D02*
X329993750Y-87250000D01*
X331993750Y-91150000D02*
X329993750Y-91150000D01*
X302625000Y-91150000D02*
X302625000Y-87250000D01*
X300625000Y-91150000D02*
X300625000Y-87250000D01*
X302625000Y-91150000D02*
X300625000Y-91150000D01*
X283575000Y-91150000D02*
X283575000Y-87250000D01*
X281575000Y-91150000D02*
X281575000Y-87250000D01*
X283575000Y-91150000D02*
X281575000Y-91150000D01*
X264525000Y-91150000D02*
X264525000Y-87250000D01*
X262525000Y-91150000D02*
X262525000Y-87250000D01*
X264525000Y-91150000D02*
X262525000Y-91150000D01*
X245475000Y-91150000D02*
X245475000Y-87250000D01*
X243475000Y-91150000D02*
X243475000Y-87250000D01*
X245475000Y-91150000D02*
X243475000Y-91150000D01*
X226425000Y-91150000D02*
X226425000Y-87250000D01*
X224425000Y-91150000D02*
X224425000Y-87250000D01*
X226425000Y-91150000D02*
X224425000Y-91150000D01*
X207375000Y-91150000D02*
X207375000Y-87250000D01*
X205375000Y-91150000D02*
X205375000Y-87250000D01*
X207375000Y-91150000D02*
X205375000Y-91150000D01*
X188325000Y-91150000D02*
X188325000Y-87250000D01*
X186325000Y-91150000D02*
X186325000Y-87250000D01*
X188325000Y-91150000D02*
X186325000Y-91150000D01*
X169275000Y-91150000D02*
X169275000Y-87250000D01*
X167275000Y-91150000D02*
X167275000Y-87250000D01*
X169275000Y-91150000D02*
X167275000Y-91150000D01*
X150225000Y-91150000D02*
X150225000Y-87250000D01*
X148225000Y-91150000D02*
X148225000Y-87250000D01*
X150225000Y-91150000D02*
X148225000Y-91150000D01*
X131175000Y-91150000D02*
X131175000Y-87250000D01*
X129175000Y-91150000D02*
X129175000Y-87250000D01*
X131175000Y-91150000D02*
X129175000Y-91150000D01*
X112125000Y-91150000D02*
X112125000Y-87250000D01*
X110125000Y-91150000D02*
X110125000Y-87250000D01*
X112125000Y-91150000D02*
X110125000Y-91150000D01*
X93075000Y-91150000D02*
X93075000Y-87250000D01*
X91075000Y-91150000D02*
X91075000Y-87250000D01*
X93075000Y-91150000D02*
X91075000Y-91150000D01*
X74025000Y-91150000D02*
X74025000Y-87250000D01*
X72025000Y-91150000D02*
X72025000Y-87250000D01*
X74025000Y-91150000D02*
X72025000Y-91150000D01*
X149935000Y-168810172D02*
X149935000Y-169327328D01*
X148515000Y-168810172D02*
X148515000Y-169327328D01*
X168533578Y-171366250D02*
X168016422Y-171366250D01*
X168533578Y-169946250D02*
X168016422Y-169946250D01*
X167565000Y-160596078D02*
X167565000Y-160078922D01*
X168985000Y-160596078D02*
X168985000Y-160078922D01*
X148515000Y-159802328D02*
X148515000Y-159285172D01*
X149935000Y-159802328D02*
X149935000Y-159285172D01*
X147553750Y-163253922D02*
X147553750Y-163771078D01*
X146133750Y-163253922D02*
X146133750Y-163771078D01*
X147553750Y-152935172D02*
X147553750Y-153452328D01*
X146133750Y-152935172D02*
X146133750Y-153452328D01*
X155658750Y-153452328D02*
X155658750Y-152935172D01*
X157078750Y-153452328D02*
X157078750Y-152935172D01*
D12*
X89083630Y-117141666D02*
X89797916Y-117141666D01*
X89940773Y-117094047D01*
X90036011Y-116998809D01*
X90083630Y-116855952D01*
X90083630Y-116760714D01*
X90083630Y-118141666D02*
X90083630Y-117570238D01*
X90083630Y-117855952D02*
X89083630Y-117855952D01*
X89226488Y-117760714D01*
X89321726Y-117665476D01*
X89369345Y-117570238D01*
X152082440Y-150719940D02*
X152082440Y-151196130D01*
X152415773Y-150196130D02*
X152082440Y-150719940D01*
X151749107Y-150196130D01*
X150891964Y-151196130D02*
X151463392Y-151196130D01*
X151177678Y-151196130D02*
X151177678Y-150196130D01*
X151272916Y-150338988D01*
X151368154Y-150434226D01*
X151463392Y-150481845D01*
X159511904Y-171208630D02*
X159511904Y-172018154D01*
X159464285Y-172113392D01*
X159416666Y-172161011D01*
X159321428Y-172208630D01*
X159130952Y-172208630D01*
X159035714Y-172161011D01*
X158988095Y-172113392D01*
X158940476Y-172018154D01*
X158940476Y-171208630D01*
X157940476Y-172208630D02*
X158511904Y-172208630D01*
X158226190Y-172208630D02*
X158226190Y-171208630D01*
X158321428Y-171351488D01*
X158416666Y-171446726D01*
X158511904Y-171494345D01*
X57459511Y-129635416D02*
X57507130Y-129778273D01*
X57507130Y-130016369D01*
X57459511Y-130111607D01*
X57411892Y-130159226D01*
X57316654Y-130206845D01*
X57221416Y-130206845D01*
X57126178Y-130159226D01*
X57078559Y-130111607D01*
X57030940Y-130016369D01*
X56983321Y-129825892D01*
X56935702Y-129730654D01*
X56888083Y-129683035D01*
X56792845Y-129635416D01*
X56697607Y-129635416D01*
X56602369Y-129683035D01*
X56554750Y-129730654D01*
X56507130Y-129825892D01*
X56507130Y-130063988D01*
X56554750Y-130206845D01*
X56507130Y-130540178D02*
X57507130Y-130778273D01*
X56792845Y-130968750D01*
X57507130Y-131159226D01*
X56507130Y-131397321D01*
X57507130Y-132302083D02*
X57507130Y-131730654D01*
X57507130Y-132016369D02*
X56507130Y-132016369D01*
X56649988Y-131921130D01*
X56745226Y-131825892D01*
X56792845Y-131730654D01*
X168441666Y-170377380D02*
X168775000Y-169901190D01*
X169013095Y-170377380D02*
X169013095Y-169377380D01*
X168632142Y-169377380D01*
X168536904Y-169425000D01*
X168489285Y-169472619D01*
X168441666Y-169567857D01*
X168441666Y-169710714D01*
X168489285Y-169805952D01*
X168536904Y-169853571D01*
X168632142Y-169901190D01*
X169013095Y-169901190D01*
X167584523Y-169710714D02*
X167584523Y-170377380D01*
X167822619Y-169329761D02*
X168060714Y-170044047D01*
X167441666Y-170044047D01*
X129896130Y-160170833D02*
X129419940Y-159837500D01*
X129896130Y-159599404D02*
X128896130Y-159599404D01*
X128896130Y-159980357D01*
X128943750Y-160075595D01*
X128991369Y-160123214D01*
X129086607Y-160170833D01*
X129229464Y-160170833D01*
X129324702Y-160123214D01*
X129372321Y-160075595D01*
X129419940Y-159980357D01*
X129419940Y-159599404D01*
X128896130Y-160504166D02*
X128896130Y-161123214D01*
X129277083Y-160789880D01*
X129277083Y-160932738D01*
X129324702Y-161027976D01*
X129372321Y-161075595D01*
X129467559Y-161123214D01*
X129705654Y-161123214D01*
X129800892Y-161075595D01*
X129848511Y-161027976D01*
X129896130Y-160932738D01*
X129896130Y-160647023D01*
X129848511Y-160551785D01*
X129800892Y-160504166D01*
X131358630Y-160170833D02*
X130882440Y-159837500D01*
X131358630Y-159599404D02*
X130358630Y-159599404D01*
X130358630Y-159980357D01*
X130406250Y-160075595D01*
X130453869Y-160123214D01*
X130549107Y-160170833D01*
X130691964Y-160170833D01*
X130787202Y-160123214D01*
X130834821Y-160075595D01*
X130882440Y-159980357D01*
X130882440Y-159599404D01*
X130453869Y-160551785D02*
X130406250Y-160599404D01*
X130358630Y-160694642D01*
X130358630Y-160932738D01*
X130406250Y-161027976D01*
X130453869Y-161075595D01*
X130549107Y-161123214D01*
X130644345Y-161123214D01*
X130787202Y-161075595D01*
X131358630Y-160504166D01*
X131358630Y-161123214D01*
X148152380Y-159377083D02*
X147676190Y-159043750D01*
X148152380Y-158805654D02*
X147152380Y-158805654D01*
X147152380Y-159186607D01*
X147200000Y-159281845D01*
X147247619Y-159329464D01*
X147342857Y-159377083D01*
X147485714Y-159377083D01*
X147580952Y-159329464D01*
X147628571Y-159281845D01*
X147676190Y-159186607D01*
X147676190Y-158805654D01*
X148152380Y-160329464D02*
X148152380Y-159758035D01*
X148152380Y-160043750D02*
X147152380Y-160043750D01*
X147295238Y-159948511D01*
X147390476Y-159853273D01*
X147438095Y-159758035D01*
X87473571Y-133016666D02*
X87473571Y-132683333D01*
X87997380Y-132683333D02*
X86997380Y-132683333D01*
X86997380Y-133159523D01*
X87997380Y-134064285D02*
X87997380Y-133492857D01*
X87997380Y-133778571D02*
X86997380Y-133778571D01*
X87140238Y-133683333D01*
X87235476Y-133588095D01*
X87283095Y-133492857D01*
X341272619Y-166314285D02*
X342272619Y-166314285D01*
X342272619Y-166076190D01*
X342225000Y-165933333D01*
X342129761Y-165838095D01*
X342034523Y-165790476D01*
X341844047Y-165742857D01*
X341701190Y-165742857D01*
X341510714Y-165790476D01*
X341415476Y-165838095D01*
X341320238Y-165933333D01*
X341272619Y-166076190D01*
X341272619Y-166314285D01*
X342272619Y-164885714D02*
X342272619Y-165076190D01*
X342225000Y-165171428D01*
X342177380Y-165219047D01*
X342034523Y-165314285D01*
X341844047Y-165361904D01*
X341463095Y-165361904D01*
X341367857Y-165314285D01*
X341320238Y-165266666D01*
X341272619Y-165171428D01*
X341272619Y-164980952D01*
X341320238Y-164885714D01*
X341367857Y-164838095D01*
X341463095Y-164790476D01*
X341701190Y-164790476D01*
X341796428Y-164838095D01*
X341844047Y-164885714D01*
X341891666Y-164980952D01*
X341891666Y-165171428D01*
X341844047Y-165266666D01*
X341796428Y-165314285D01*
X341701190Y-165361904D01*
X341939285Y-163933333D02*
X341272619Y-163933333D01*
X342320238Y-164171428D02*
X341605952Y-164409523D01*
X341605952Y-163790476D01*
X323127380Y-163885714D02*
X322127380Y-163885714D01*
X322127380Y-164123809D01*
X322175000Y-164266666D01*
X322270238Y-164361904D01*
X322365476Y-164409523D01*
X322555952Y-164457142D01*
X322698809Y-164457142D01*
X322889285Y-164409523D01*
X322984523Y-164361904D01*
X323079761Y-164266666D01*
X323127380Y-164123809D01*
X323127380Y-163885714D01*
X322127380Y-165314285D02*
X322127380Y-165123809D01*
X322175000Y-165028571D01*
X322222619Y-164980952D01*
X322365476Y-164885714D01*
X322555952Y-164838095D01*
X322936904Y-164838095D01*
X323032142Y-164885714D01*
X323079761Y-164933333D01*
X323127380Y-165028571D01*
X323127380Y-165219047D01*
X323079761Y-165314285D01*
X323032142Y-165361904D01*
X322936904Y-165409523D01*
X322698809Y-165409523D01*
X322603571Y-165361904D01*
X322555952Y-165314285D01*
X322508333Y-165219047D01*
X322508333Y-165028571D01*
X322555952Y-164933333D01*
X322603571Y-164885714D01*
X322698809Y-164838095D01*
X322127380Y-165742857D02*
X322127380Y-166361904D01*
X322508333Y-166028571D01*
X322508333Y-166171428D01*
X322555952Y-166266666D01*
X322603571Y-166314285D01*
X322698809Y-166361904D01*
X322936904Y-166361904D01*
X323032142Y-166314285D01*
X323079761Y-166266666D01*
X323127380Y-166171428D01*
X323127380Y-165885714D01*
X323079761Y-165790476D01*
X323032142Y-165742857D01*
X304077380Y-163885714D02*
X303077380Y-163885714D01*
X303077380Y-164123809D01*
X303125000Y-164266666D01*
X303220238Y-164361904D01*
X303315476Y-164409523D01*
X303505952Y-164457142D01*
X303648809Y-164457142D01*
X303839285Y-164409523D01*
X303934523Y-164361904D01*
X304029761Y-164266666D01*
X304077380Y-164123809D01*
X304077380Y-163885714D01*
X303077380Y-165314285D02*
X303077380Y-165123809D01*
X303125000Y-165028571D01*
X303172619Y-164980952D01*
X303315476Y-164885714D01*
X303505952Y-164838095D01*
X303886904Y-164838095D01*
X303982142Y-164885714D01*
X304029761Y-164933333D01*
X304077380Y-165028571D01*
X304077380Y-165219047D01*
X304029761Y-165314285D01*
X303982142Y-165361904D01*
X303886904Y-165409523D01*
X303648809Y-165409523D01*
X303553571Y-165361904D01*
X303505952Y-165314285D01*
X303458333Y-165219047D01*
X303458333Y-165028571D01*
X303505952Y-164933333D01*
X303553571Y-164885714D01*
X303648809Y-164838095D01*
X303172619Y-165790476D02*
X303125000Y-165838095D01*
X303077380Y-165933333D01*
X303077380Y-166171428D01*
X303125000Y-166266666D01*
X303172619Y-166314285D01*
X303267857Y-166361904D01*
X303363095Y-166361904D01*
X303505952Y-166314285D01*
X304077380Y-165742857D01*
X304077380Y-166361904D01*
X285027380Y-163885714D02*
X284027380Y-163885714D01*
X284027380Y-164123809D01*
X284075000Y-164266666D01*
X284170238Y-164361904D01*
X284265476Y-164409523D01*
X284455952Y-164457142D01*
X284598809Y-164457142D01*
X284789285Y-164409523D01*
X284884523Y-164361904D01*
X284979761Y-164266666D01*
X285027380Y-164123809D01*
X285027380Y-163885714D01*
X284027380Y-165314285D02*
X284027380Y-165123809D01*
X284075000Y-165028571D01*
X284122619Y-164980952D01*
X284265476Y-164885714D01*
X284455952Y-164838095D01*
X284836904Y-164838095D01*
X284932142Y-164885714D01*
X284979761Y-164933333D01*
X285027380Y-165028571D01*
X285027380Y-165219047D01*
X284979761Y-165314285D01*
X284932142Y-165361904D01*
X284836904Y-165409523D01*
X284598809Y-165409523D01*
X284503571Y-165361904D01*
X284455952Y-165314285D01*
X284408333Y-165219047D01*
X284408333Y-165028571D01*
X284455952Y-164933333D01*
X284503571Y-164885714D01*
X284598809Y-164838095D01*
X285027380Y-166361904D02*
X285027380Y-165790476D01*
X285027380Y-166076190D02*
X284027380Y-166076190D01*
X284170238Y-165980952D01*
X284265476Y-165885714D01*
X284313095Y-165790476D01*
X265977380Y-163885714D02*
X264977380Y-163885714D01*
X264977380Y-164123809D01*
X265025000Y-164266666D01*
X265120238Y-164361904D01*
X265215476Y-164409523D01*
X265405952Y-164457142D01*
X265548809Y-164457142D01*
X265739285Y-164409523D01*
X265834523Y-164361904D01*
X265929761Y-164266666D01*
X265977380Y-164123809D01*
X265977380Y-163885714D01*
X264977380Y-165314285D02*
X264977380Y-165123809D01*
X265025000Y-165028571D01*
X265072619Y-164980952D01*
X265215476Y-164885714D01*
X265405952Y-164838095D01*
X265786904Y-164838095D01*
X265882142Y-164885714D01*
X265929761Y-164933333D01*
X265977380Y-165028571D01*
X265977380Y-165219047D01*
X265929761Y-165314285D01*
X265882142Y-165361904D01*
X265786904Y-165409523D01*
X265548809Y-165409523D01*
X265453571Y-165361904D01*
X265405952Y-165314285D01*
X265358333Y-165219047D01*
X265358333Y-165028571D01*
X265405952Y-164933333D01*
X265453571Y-164885714D01*
X265548809Y-164838095D01*
X264977380Y-166028571D02*
X264977380Y-166123809D01*
X265025000Y-166219047D01*
X265072619Y-166266666D01*
X265167857Y-166314285D01*
X265358333Y-166361904D01*
X265596428Y-166361904D01*
X265786904Y-166314285D01*
X265882142Y-166266666D01*
X265929761Y-166219047D01*
X265977380Y-166123809D01*
X265977380Y-166028571D01*
X265929761Y-165933333D01*
X265882142Y-165885714D01*
X265786904Y-165838095D01*
X265596428Y-165790476D01*
X265358333Y-165790476D01*
X265167857Y-165838095D01*
X265072619Y-165885714D01*
X265025000Y-165933333D01*
X264977380Y-166028571D01*
X200889880Y-163885714D02*
X199889880Y-163885714D01*
X199889880Y-164123809D01*
X199937500Y-164266666D01*
X200032738Y-164361904D01*
X200127976Y-164409523D01*
X200318452Y-164457142D01*
X200461309Y-164457142D01*
X200651785Y-164409523D01*
X200747023Y-164361904D01*
X200842261Y-164266666D01*
X200889880Y-164123809D01*
X200889880Y-163885714D01*
X199889880Y-165361904D02*
X199889880Y-164885714D01*
X200366071Y-164838095D01*
X200318452Y-164885714D01*
X200270833Y-164980952D01*
X200270833Y-165219047D01*
X200318452Y-165314285D01*
X200366071Y-165361904D01*
X200461309Y-165409523D01*
X200699404Y-165409523D01*
X200794642Y-165361904D01*
X200842261Y-165314285D01*
X200889880Y-165219047D01*
X200889880Y-164980952D01*
X200842261Y-164885714D01*
X200794642Y-164838095D01*
X200889880Y-165885714D02*
X200889880Y-166076190D01*
X200842261Y-166171428D01*
X200794642Y-166219047D01*
X200651785Y-166314285D01*
X200461309Y-166361904D01*
X200080357Y-166361904D01*
X199985119Y-166314285D01*
X199937500Y-166266666D01*
X199889880Y-166171428D01*
X199889880Y-165980952D01*
X199937500Y-165885714D01*
X199985119Y-165838095D01*
X200080357Y-165790476D01*
X200318452Y-165790476D01*
X200413690Y-165838095D01*
X200461309Y-165885714D01*
X200508928Y-165980952D01*
X200508928Y-166171428D01*
X200461309Y-166266666D01*
X200413690Y-166314285D01*
X200318452Y-166361904D01*
X126277380Y-163885714D02*
X125277380Y-163885714D01*
X125277380Y-164123809D01*
X125325000Y-164266666D01*
X125420238Y-164361904D01*
X125515476Y-164409523D01*
X125705952Y-164457142D01*
X125848809Y-164457142D01*
X126039285Y-164409523D01*
X126134523Y-164361904D01*
X126229761Y-164266666D01*
X126277380Y-164123809D01*
X126277380Y-163885714D01*
X125277380Y-165361904D02*
X125277380Y-164885714D01*
X125753571Y-164838095D01*
X125705952Y-164885714D01*
X125658333Y-164980952D01*
X125658333Y-165219047D01*
X125705952Y-165314285D01*
X125753571Y-165361904D01*
X125848809Y-165409523D01*
X126086904Y-165409523D01*
X126182142Y-165361904D01*
X126229761Y-165314285D01*
X126277380Y-165219047D01*
X126277380Y-164980952D01*
X126229761Y-164885714D01*
X126182142Y-164838095D01*
X125705952Y-165980952D02*
X125658333Y-165885714D01*
X125610714Y-165838095D01*
X125515476Y-165790476D01*
X125467857Y-165790476D01*
X125372619Y-165838095D01*
X125325000Y-165885714D01*
X125277380Y-165980952D01*
X125277380Y-166171428D01*
X125325000Y-166266666D01*
X125372619Y-166314285D01*
X125467857Y-166361904D01*
X125515476Y-166361904D01*
X125610714Y-166314285D01*
X125658333Y-166266666D01*
X125705952Y-166171428D01*
X125705952Y-165980952D01*
X125753571Y-165885714D01*
X125801190Y-165838095D01*
X125896428Y-165790476D01*
X126086904Y-165790476D01*
X126182142Y-165838095D01*
X126229761Y-165885714D01*
X126277380Y-165980952D01*
X126277380Y-166171428D01*
X126229761Y-166266666D01*
X126182142Y-166314285D01*
X126086904Y-166361904D01*
X125896428Y-166361904D01*
X125801190Y-166314285D01*
X125753571Y-166266666D01*
X125705952Y-166171428D01*
X102464880Y-163885714D02*
X101464880Y-163885714D01*
X101464880Y-164123809D01*
X101512500Y-164266666D01*
X101607738Y-164361904D01*
X101702976Y-164409523D01*
X101893452Y-164457142D01*
X102036309Y-164457142D01*
X102226785Y-164409523D01*
X102322023Y-164361904D01*
X102417261Y-164266666D01*
X102464880Y-164123809D01*
X102464880Y-163885714D01*
X101464880Y-165361904D02*
X101464880Y-164885714D01*
X101941071Y-164838095D01*
X101893452Y-164885714D01*
X101845833Y-164980952D01*
X101845833Y-165219047D01*
X101893452Y-165314285D01*
X101941071Y-165361904D01*
X102036309Y-165409523D01*
X102274404Y-165409523D01*
X102369642Y-165361904D01*
X102417261Y-165314285D01*
X102464880Y-165219047D01*
X102464880Y-164980952D01*
X102417261Y-164885714D01*
X102369642Y-164838095D01*
X101464880Y-165742857D02*
X101464880Y-166409523D01*
X102464880Y-165980952D01*
X77747619Y-166314285D02*
X78747619Y-166314285D01*
X78747619Y-166076190D01*
X78700000Y-165933333D01*
X78604761Y-165838095D01*
X78509523Y-165790476D01*
X78319047Y-165742857D01*
X78176190Y-165742857D01*
X77985714Y-165790476D01*
X77890476Y-165838095D01*
X77795238Y-165933333D01*
X77747619Y-166076190D01*
X77747619Y-166314285D01*
X78747619Y-164838095D02*
X78747619Y-165314285D01*
X78271428Y-165361904D01*
X78319047Y-165314285D01*
X78366666Y-165219047D01*
X78366666Y-164980952D01*
X78319047Y-164885714D01*
X78271428Y-164838095D01*
X78176190Y-164790476D01*
X77938095Y-164790476D01*
X77842857Y-164838095D01*
X77795238Y-164885714D01*
X77747619Y-164980952D01*
X77747619Y-165219047D01*
X77795238Y-165314285D01*
X77842857Y-165361904D01*
X78747619Y-163933333D02*
X78747619Y-164123809D01*
X78700000Y-164219047D01*
X78652380Y-164266666D01*
X78509523Y-164361904D01*
X78319047Y-164409523D01*
X77938095Y-164409523D01*
X77842857Y-164361904D01*
X77795238Y-164314285D01*
X77747619Y-164219047D01*
X77747619Y-164028571D01*
X77795238Y-163933333D01*
X77842857Y-163885714D01*
X77938095Y-163838095D01*
X78176190Y-163838095D01*
X78271428Y-163885714D01*
X78319047Y-163933333D01*
X78366666Y-164028571D01*
X78366666Y-164219047D01*
X78319047Y-164314285D01*
X78271428Y-164361904D01*
X78176190Y-164409523D01*
X341272619Y-147264285D02*
X342272619Y-147264285D01*
X342272619Y-147026190D01*
X342225000Y-146883333D01*
X342129761Y-146788095D01*
X342034523Y-146740476D01*
X341844047Y-146692857D01*
X341701190Y-146692857D01*
X341510714Y-146740476D01*
X341415476Y-146788095D01*
X341320238Y-146883333D01*
X341272619Y-147026190D01*
X341272619Y-147264285D01*
X342272619Y-145788095D02*
X342272619Y-146264285D01*
X341796428Y-146311904D01*
X341844047Y-146264285D01*
X341891666Y-146169047D01*
X341891666Y-145930952D01*
X341844047Y-145835714D01*
X341796428Y-145788095D01*
X341701190Y-145740476D01*
X341463095Y-145740476D01*
X341367857Y-145788095D01*
X341320238Y-145835714D01*
X341272619Y-145930952D01*
X341272619Y-146169047D01*
X341320238Y-146264285D01*
X341367857Y-146311904D01*
X342272619Y-144835714D02*
X342272619Y-145311904D01*
X341796428Y-145359523D01*
X341844047Y-145311904D01*
X341891666Y-145216666D01*
X341891666Y-144978571D01*
X341844047Y-144883333D01*
X341796428Y-144835714D01*
X341701190Y-144788095D01*
X341463095Y-144788095D01*
X341367857Y-144835714D01*
X341320238Y-144883333D01*
X341272619Y-144978571D01*
X341272619Y-145216666D01*
X341320238Y-145311904D01*
X341367857Y-145359523D01*
X322222619Y-147264285D02*
X323222619Y-147264285D01*
X323222619Y-147026190D01*
X323175000Y-146883333D01*
X323079761Y-146788095D01*
X322984523Y-146740476D01*
X322794047Y-146692857D01*
X322651190Y-146692857D01*
X322460714Y-146740476D01*
X322365476Y-146788095D01*
X322270238Y-146883333D01*
X322222619Y-147026190D01*
X322222619Y-147264285D01*
X323222619Y-145788095D02*
X323222619Y-146264285D01*
X322746428Y-146311904D01*
X322794047Y-146264285D01*
X322841666Y-146169047D01*
X322841666Y-145930952D01*
X322794047Y-145835714D01*
X322746428Y-145788095D01*
X322651190Y-145740476D01*
X322413095Y-145740476D01*
X322317857Y-145788095D01*
X322270238Y-145835714D01*
X322222619Y-145930952D01*
X322222619Y-146169047D01*
X322270238Y-146264285D01*
X322317857Y-146311904D01*
X322889285Y-144883333D02*
X322222619Y-144883333D01*
X323270238Y-145121428D02*
X322555952Y-145359523D01*
X322555952Y-144740476D01*
X304077380Y-144835714D02*
X303077380Y-144835714D01*
X303077380Y-145073809D01*
X303125000Y-145216666D01*
X303220238Y-145311904D01*
X303315476Y-145359523D01*
X303505952Y-145407142D01*
X303648809Y-145407142D01*
X303839285Y-145359523D01*
X303934523Y-145311904D01*
X304029761Y-145216666D01*
X304077380Y-145073809D01*
X304077380Y-144835714D01*
X303077380Y-146311904D02*
X303077380Y-145835714D01*
X303553571Y-145788095D01*
X303505952Y-145835714D01*
X303458333Y-145930952D01*
X303458333Y-146169047D01*
X303505952Y-146264285D01*
X303553571Y-146311904D01*
X303648809Y-146359523D01*
X303886904Y-146359523D01*
X303982142Y-146311904D01*
X304029761Y-146264285D01*
X304077380Y-146169047D01*
X304077380Y-145930952D01*
X304029761Y-145835714D01*
X303982142Y-145788095D01*
X303077380Y-146692857D02*
X303077380Y-147311904D01*
X303458333Y-146978571D01*
X303458333Y-147121428D01*
X303505952Y-147216666D01*
X303553571Y-147264285D01*
X303648809Y-147311904D01*
X303886904Y-147311904D01*
X303982142Y-147264285D01*
X304029761Y-147216666D01*
X304077380Y-147121428D01*
X304077380Y-146835714D01*
X304029761Y-146740476D01*
X303982142Y-146692857D01*
X285027380Y-144835714D02*
X284027380Y-144835714D01*
X284027380Y-145073809D01*
X284075000Y-145216666D01*
X284170238Y-145311904D01*
X284265476Y-145359523D01*
X284455952Y-145407142D01*
X284598809Y-145407142D01*
X284789285Y-145359523D01*
X284884523Y-145311904D01*
X284979761Y-145216666D01*
X285027380Y-145073809D01*
X285027380Y-144835714D01*
X284027380Y-146311904D02*
X284027380Y-145835714D01*
X284503571Y-145788095D01*
X284455952Y-145835714D01*
X284408333Y-145930952D01*
X284408333Y-146169047D01*
X284455952Y-146264285D01*
X284503571Y-146311904D01*
X284598809Y-146359523D01*
X284836904Y-146359523D01*
X284932142Y-146311904D01*
X284979761Y-146264285D01*
X285027380Y-146169047D01*
X285027380Y-145930952D01*
X284979761Y-145835714D01*
X284932142Y-145788095D01*
X284122619Y-146740476D02*
X284075000Y-146788095D01*
X284027380Y-146883333D01*
X284027380Y-147121428D01*
X284075000Y-147216666D01*
X284122619Y-147264285D01*
X284217857Y-147311904D01*
X284313095Y-147311904D01*
X284455952Y-147264285D01*
X285027380Y-146692857D01*
X285027380Y-147311904D01*
X265977380Y-144835714D02*
X264977380Y-144835714D01*
X264977380Y-145073809D01*
X265025000Y-145216666D01*
X265120238Y-145311904D01*
X265215476Y-145359523D01*
X265405952Y-145407142D01*
X265548809Y-145407142D01*
X265739285Y-145359523D01*
X265834523Y-145311904D01*
X265929761Y-145216666D01*
X265977380Y-145073809D01*
X265977380Y-144835714D01*
X264977380Y-146311904D02*
X264977380Y-145835714D01*
X265453571Y-145788095D01*
X265405952Y-145835714D01*
X265358333Y-145930952D01*
X265358333Y-146169047D01*
X265405952Y-146264285D01*
X265453571Y-146311904D01*
X265548809Y-146359523D01*
X265786904Y-146359523D01*
X265882142Y-146311904D01*
X265929761Y-146264285D01*
X265977380Y-146169047D01*
X265977380Y-145930952D01*
X265929761Y-145835714D01*
X265882142Y-145788095D01*
X265977380Y-147311904D02*
X265977380Y-146740476D01*
X265977380Y-147026190D02*
X264977380Y-147026190D01*
X265120238Y-146930952D01*
X265215476Y-146835714D01*
X265263095Y-146740476D01*
X246927380Y-144835714D02*
X245927380Y-144835714D01*
X245927380Y-145073809D01*
X245975000Y-145216666D01*
X246070238Y-145311904D01*
X246165476Y-145359523D01*
X246355952Y-145407142D01*
X246498809Y-145407142D01*
X246689285Y-145359523D01*
X246784523Y-145311904D01*
X246879761Y-145216666D01*
X246927380Y-145073809D01*
X246927380Y-144835714D01*
X245927380Y-146311904D02*
X245927380Y-145835714D01*
X246403571Y-145788095D01*
X246355952Y-145835714D01*
X246308333Y-145930952D01*
X246308333Y-146169047D01*
X246355952Y-146264285D01*
X246403571Y-146311904D01*
X246498809Y-146359523D01*
X246736904Y-146359523D01*
X246832142Y-146311904D01*
X246879761Y-146264285D01*
X246927380Y-146169047D01*
X246927380Y-145930952D01*
X246879761Y-145835714D01*
X246832142Y-145788095D01*
X245927380Y-146978571D02*
X245927380Y-147073809D01*
X245975000Y-147169047D01*
X246022619Y-147216666D01*
X246117857Y-147264285D01*
X246308333Y-147311904D01*
X246546428Y-147311904D01*
X246736904Y-147264285D01*
X246832142Y-147216666D01*
X246879761Y-147169047D01*
X246927380Y-147073809D01*
X246927380Y-146978571D01*
X246879761Y-146883333D01*
X246832142Y-146835714D01*
X246736904Y-146788095D01*
X246546428Y-146740476D01*
X246308333Y-146740476D01*
X246117857Y-146788095D01*
X246022619Y-146835714D01*
X245975000Y-146883333D01*
X245927380Y-146978571D01*
X227877380Y-144835714D02*
X226877380Y-144835714D01*
X226877380Y-145073809D01*
X226925000Y-145216666D01*
X227020238Y-145311904D01*
X227115476Y-145359523D01*
X227305952Y-145407142D01*
X227448809Y-145407142D01*
X227639285Y-145359523D01*
X227734523Y-145311904D01*
X227829761Y-145216666D01*
X227877380Y-145073809D01*
X227877380Y-144835714D01*
X227210714Y-146264285D02*
X227877380Y-146264285D01*
X226829761Y-146026190D02*
X227544047Y-145788095D01*
X227544047Y-146407142D01*
X227877380Y-146835714D02*
X227877380Y-147026190D01*
X227829761Y-147121428D01*
X227782142Y-147169047D01*
X227639285Y-147264285D01*
X227448809Y-147311904D01*
X227067857Y-147311904D01*
X226972619Y-147264285D01*
X226925000Y-147216666D01*
X226877380Y-147121428D01*
X226877380Y-146930952D01*
X226925000Y-146835714D01*
X226972619Y-146788095D01*
X227067857Y-146740476D01*
X227305952Y-146740476D01*
X227401190Y-146788095D01*
X227448809Y-146835714D01*
X227496428Y-146930952D01*
X227496428Y-147121428D01*
X227448809Y-147216666D01*
X227401190Y-147264285D01*
X227305952Y-147311904D01*
X207922619Y-147264285D02*
X208922619Y-147264285D01*
X208922619Y-147026190D01*
X208875000Y-146883333D01*
X208779761Y-146788095D01*
X208684523Y-146740476D01*
X208494047Y-146692857D01*
X208351190Y-146692857D01*
X208160714Y-146740476D01*
X208065476Y-146788095D01*
X207970238Y-146883333D01*
X207922619Y-147026190D01*
X207922619Y-147264285D01*
X208589285Y-145835714D02*
X207922619Y-145835714D01*
X208970238Y-146073809D02*
X208255952Y-146311904D01*
X208255952Y-145692857D01*
X208494047Y-145169047D02*
X208541666Y-145264285D01*
X208589285Y-145311904D01*
X208684523Y-145359523D01*
X208732142Y-145359523D01*
X208827380Y-145311904D01*
X208875000Y-145264285D01*
X208922619Y-145169047D01*
X208922619Y-144978571D01*
X208875000Y-144883333D01*
X208827380Y-144835714D01*
X208732142Y-144788095D01*
X208684523Y-144788095D01*
X208589285Y-144835714D01*
X208541666Y-144883333D01*
X208494047Y-144978571D01*
X208494047Y-145169047D01*
X208446428Y-145264285D01*
X208398809Y-145311904D01*
X208303571Y-145359523D01*
X208113095Y-145359523D01*
X208017857Y-145311904D01*
X207970238Y-145264285D01*
X207922619Y-145169047D01*
X207922619Y-144978571D01*
X207970238Y-144883333D01*
X208017857Y-144835714D01*
X208113095Y-144788095D01*
X208303571Y-144788095D01*
X208398809Y-144835714D01*
X208446428Y-144883333D01*
X208494047Y-144978571D01*
X188872619Y-147264285D02*
X189872619Y-147264285D01*
X189872619Y-147026190D01*
X189825000Y-146883333D01*
X189729761Y-146788095D01*
X189634523Y-146740476D01*
X189444047Y-146692857D01*
X189301190Y-146692857D01*
X189110714Y-146740476D01*
X189015476Y-146788095D01*
X188920238Y-146883333D01*
X188872619Y-147026190D01*
X188872619Y-147264285D01*
X189539285Y-145835714D02*
X188872619Y-145835714D01*
X189920238Y-146073809D02*
X189205952Y-146311904D01*
X189205952Y-145692857D01*
X189872619Y-145407142D02*
X189872619Y-144740476D01*
X188872619Y-145169047D01*
X170727380Y-144835714D02*
X169727380Y-144835714D01*
X169727380Y-145073809D01*
X169775000Y-145216666D01*
X169870238Y-145311904D01*
X169965476Y-145359523D01*
X170155952Y-145407142D01*
X170298809Y-145407142D01*
X170489285Y-145359523D01*
X170584523Y-145311904D01*
X170679761Y-145216666D01*
X170727380Y-145073809D01*
X170727380Y-144835714D01*
X170060714Y-146264285D02*
X170727380Y-146264285D01*
X169679761Y-146026190D02*
X170394047Y-145788095D01*
X170394047Y-146407142D01*
X169727380Y-147216666D02*
X169727380Y-147026190D01*
X169775000Y-146930952D01*
X169822619Y-146883333D01*
X169965476Y-146788095D01*
X170155952Y-146740476D01*
X170536904Y-146740476D01*
X170632142Y-146788095D01*
X170679761Y-146835714D01*
X170727380Y-146930952D01*
X170727380Y-147121428D01*
X170679761Y-147216666D01*
X170632142Y-147264285D01*
X170536904Y-147311904D01*
X170298809Y-147311904D01*
X170203571Y-147264285D01*
X170155952Y-147216666D01*
X170108333Y-147121428D01*
X170108333Y-146930952D01*
X170155952Y-146835714D01*
X170203571Y-146788095D01*
X170298809Y-146740476D01*
X150772619Y-147264285D02*
X151772619Y-147264285D01*
X151772619Y-147026190D01*
X151725000Y-146883333D01*
X151629761Y-146788095D01*
X151534523Y-146740476D01*
X151344047Y-146692857D01*
X151201190Y-146692857D01*
X151010714Y-146740476D01*
X150915476Y-146788095D01*
X150820238Y-146883333D01*
X150772619Y-147026190D01*
X150772619Y-147264285D01*
X151439285Y-145835714D02*
X150772619Y-145835714D01*
X151820238Y-146073809D02*
X151105952Y-146311904D01*
X151105952Y-145692857D01*
X151772619Y-144835714D02*
X151772619Y-145311904D01*
X151296428Y-145359523D01*
X151344047Y-145311904D01*
X151391666Y-145216666D01*
X151391666Y-144978571D01*
X151344047Y-144883333D01*
X151296428Y-144835714D01*
X151201190Y-144788095D01*
X150963095Y-144788095D01*
X150867857Y-144835714D01*
X150820238Y-144883333D01*
X150772619Y-144978571D01*
X150772619Y-145216666D01*
X150820238Y-145311904D01*
X150867857Y-145359523D01*
X131722619Y-147264285D02*
X132722619Y-147264285D01*
X132722619Y-147026190D01*
X132675000Y-146883333D01*
X132579761Y-146788095D01*
X132484523Y-146740476D01*
X132294047Y-146692857D01*
X132151190Y-146692857D01*
X131960714Y-146740476D01*
X131865476Y-146788095D01*
X131770238Y-146883333D01*
X131722619Y-147026190D01*
X131722619Y-147264285D01*
X132389285Y-145835714D02*
X131722619Y-145835714D01*
X132770238Y-146073809D02*
X132055952Y-146311904D01*
X132055952Y-145692857D01*
X132389285Y-144883333D02*
X131722619Y-144883333D01*
X132770238Y-145121428D02*
X132055952Y-145359523D01*
X132055952Y-144740476D01*
X112672619Y-147264285D02*
X113672619Y-147264285D01*
X113672619Y-147026190D01*
X113625000Y-146883333D01*
X113529761Y-146788095D01*
X113434523Y-146740476D01*
X113244047Y-146692857D01*
X113101190Y-146692857D01*
X112910714Y-146740476D01*
X112815476Y-146788095D01*
X112720238Y-146883333D01*
X112672619Y-147026190D01*
X112672619Y-147264285D01*
X113339285Y-145835714D02*
X112672619Y-145835714D01*
X113720238Y-146073809D02*
X113005952Y-146311904D01*
X113005952Y-145692857D01*
X113672619Y-145407142D02*
X113672619Y-144788095D01*
X113291666Y-145121428D01*
X113291666Y-144978571D01*
X113244047Y-144883333D01*
X113196428Y-144835714D01*
X113101190Y-144788095D01*
X112863095Y-144788095D01*
X112767857Y-144835714D01*
X112720238Y-144883333D01*
X112672619Y-144978571D01*
X112672619Y-145264285D01*
X112720238Y-145359523D01*
X112767857Y-145407142D01*
X88066369Y-147264285D02*
X89066369Y-147264285D01*
X89066369Y-147026190D01*
X89018750Y-146883333D01*
X88923511Y-146788095D01*
X88828273Y-146740476D01*
X88637797Y-146692857D01*
X88494940Y-146692857D01*
X88304464Y-146740476D01*
X88209226Y-146788095D01*
X88113988Y-146883333D01*
X88066369Y-147026190D01*
X88066369Y-147264285D01*
X88733035Y-145835714D02*
X88066369Y-145835714D01*
X89113988Y-146073809D02*
X88399702Y-146311904D01*
X88399702Y-145692857D01*
X88971130Y-145359523D02*
X89018750Y-145311904D01*
X89066369Y-145216666D01*
X89066369Y-144978571D01*
X89018750Y-144883333D01*
X88971130Y-144835714D01*
X88875892Y-144788095D01*
X88780654Y-144788095D01*
X88637797Y-144835714D01*
X88066369Y-145407142D01*
X88066369Y-144788095D01*
X330953869Y-128214285D02*
X331953869Y-128214285D01*
X331953869Y-127976190D01*
X331906250Y-127833333D01*
X331811011Y-127738095D01*
X331715773Y-127690476D01*
X331525297Y-127642857D01*
X331382440Y-127642857D01*
X331191964Y-127690476D01*
X331096726Y-127738095D01*
X331001488Y-127833333D01*
X330953869Y-127976190D01*
X330953869Y-128214285D01*
X331620535Y-126785714D02*
X330953869Y-126785714D01*
X332001488Y-127023809D02*
X331287202Y-127261904D01*
X331287202Y-126642857D01*
X330953869Y-125738095D02*
X330953869Y-126309523D01*
X330953869Y-126023809D02*
X331953869Y-126023809D01*
X331811011Y-126119047D01*
X331715773Y-126214285D01*
X331668154Y-126309523D01*
X298410119Y-128214285D02*
X299410119Y-128214285D01*
X299410119Y-127976190D01*
X299362500Y-127833333D01*
X299267261Y-127738095D01*
X299172023Y-127690476D01*
X298981547Y-127642857D01*
X298838690Y-127642857D01*
X298648214Y-127690476D01*
X298552976Y-127738095D01*
X298457738Y-127833333D01*
X298410119Y-127976190D01*
X298410119Y-128214285D01*
X299076785Y-126785714D02*
X298410119Y-126785714D01*
X299457738Y-127023809D02*
X298743452Y-127261904D01*
X298743452Y-126642857D01*
X299410119Y-126071428D02*
X299410119Y-125976190D01*
X299362500Y-125880952D01*
X299314880Y-125833333D01*
X299219642Y-125785714D01*
X299029166Y-125738095D01*
X298791071Y-125738095D01*
X298600595Y-125785714D01*
X298505357Y-125833333D01*
X298457738Y-125880952D01*
X298410119Y-125976190D01*
X298410119Y-126071428D01*
X298457738Y-126166666D01*
X298505357Y-126214285D01*
X298600595Y-126261904D01*
X298791071Y-126309523D01*
X299029166Y-126309523D01*
X299219642Y-126261904D01*
X299314880Y-126214285D01*
X299362500Y-126166666D01*
X299410119Y-126071428D01*
X280264880Y-125785714D02*
X279264880Y-125785714D01*
X279264880Y-126023809D01*
X279312500Y-126166666D01*
X279407738Y-126261904D01*
X279502976Y-126309523D01*
X279693452Y-126357142D01*
X279836309Y-126357142D01*
X280026785Y-126309523D01*
X280122023Y-126261904D01*
X280217261Y-126166666D01*
X280264880Y-126023809D01*
X280264880Y-125785714D01*
X279264880Y-126690476D02*
X279264880Y-127309523D01*
X279645833Y-126976190D01*
X279645833Y-127119047D01*
X279693452Y-127214285D01*
X279741071Y-127261904D01*
X279836309Y-127309523D01*
X280074404Y-127309523D01*
X280169642Y-127261904D01*
X280217261Y-127214285D01*
X280264880Y-127119047D01*
X280264880Y-126833333D01*
X280217261Y-126738095D01*
X280169642Y-126690476D01*
X280264880Y-127785714D02*
X280264880Y-127976190D01*
X280217261Y-128071428D01*
X280169642Y-128119047D01*
X280026785Y-128214285D01*
X279836309Y-128261904D01*
X279455357Y-128261904D01*
X279360119Y-128214285D01*
X279312500Y-128166666D01*
X279264880Y-128071428D01*
X279264880Y-127880952D01*
X279312500Y-127785714D01*
X279360119Y-127738095D01*
X279455357Y-127690476D01*
X279693452Y-127690476D01*
X279788690Y-127738095D01*
X279836309Y-127785714D01*
X279883928Y-127880952D01*
X279883928Y-128071428D01*
X279836309Y-128166666D01*
X279788690Y-128214285D01*
X279693452Y-128261904D01*
X260310119Y-128214285D02*
X261310119Y-128214285D01*
X261310119Y-127976190D01*
X261262500Y-127833333D01*
X261167261Y-127738095D01*
X261072023Y-127690476D01*
X260881547Y-127642857D01*
X260738690Y-127642857D01*
X260548214Y-127690476D01*
X260452976Y-127738095D01*
X260357738Y-127833333D01*
X260310119Y-127976190D01*
X260310119Y-128214285D01*
X261310119Y-127309523D02*
X261310119Y-126690476D01*
X260929166Y-127023809D01*
X260929166Y-126880952D01*
X260881547Y-126785714D01*
X260833928Y-126738095D01*
X260738690Y-126690476D01*
X260500595Y-126690476D01*
X260405357Y-126738095D01*
X260357738Y-126785714D01*
X260310119Y-126880952D01*
X260310119Y-127166666D01*
X260357738Y-127261904D01*
X260405357Y-127309523D01*
X260881547Y-126119047D02*
X260929166Y-126214285D01*
X260976785Y-126261904D01*
X261072023Y-126309523D01*
X261119642Y-126309523D01*
X261214880Y-126261904D01*
X261262500Y-126214285D01*
X261310119Y-126119047D01*
X261310119Y-125928571D01*
X261262500Y-125833333D01*
X261214880Y-125785714D01*
X261119642Y-125738095D01*
X261072023Y-125738095D01*
X260976785Y-125785714D01*
X260929166Y-125833333D01*
X260881547Y-125928571D01*
X260881547Y-126119047D01*
X260833928Y-126214285D01*
X260786309Y-126261904D01*
X260691071Y-126309523D01*
X260500595Y-126309523D01*
X260405357Y-126261904D01*
X260357738Y-126214285D01*
X260310119Y-126119047D01*
X260310119Y-125928571D01*
X260357738Y-125833333D01*
X260405357Y-125785714D01*
X260500595Y-125738095D01*
X260691071Y-125738095D01*
X260786309Y-125785714D01*
X260833928Y-125833333D01*
X260881547Y-125928571D01*
X241260119Y-128214285D02*
X242260119Y-128214285D01*
X242260119Y-127976190D01*
X242212500Y-127833333D01*
X242117261Y-127738095D01*
X242022023Y-127690476D01*
X241831547Y-127642857D01*
X241688690Y-127642857D01*
X241498214Y-127690476D01*
X241402976Y-127738095D01*
X241307738Y-127833333D01*
X241260119Y-127976190D01*
X241260119Y-128214285D01*
X242260119Y-127309523D02*
X242260119Y-126690476D01*
X241879166Y-127023809D01*
X241879166Y-126880952D01*
X241831547Y-126785714D01*
X241783928Y-126738095D01*
X241688690Y-126690476D01*
X241450595Y-126690476D01*
X241355357Y-126738095D01*
X241307738Y-126785714D01*
X241260119Y-126880952D01*
X241260119Y-127166666D01*
X241307738Y-127261904D01*
X241355357Y-127309523D01*
X242260119Y-126357142D02*
X242260119Y-125690476D01*
X241260119Y-126119047D01*
X222210119Y-128214285D02*
X223210119Y-128214285D01*
X223210119Y-127976190D01*
X223162500Y-127833333D01*
X223067261Y-127738095D01*
X222972023Y-127690476D01*
X222781547Y-127642857D01*
X222638690Y-127642857D01*
X222448214Y-127690476D01*
X222352976Y-127738095D01*
X222257738Y-127833333D01*
X222210119Y-127976190D01*
X222210119Y-128214285D01*
X223210119Y-127309523D02*
X223210119Y-126690476D01*
X222829166Y-127023809D01*
X222829166Y-126880952D01*
X222781547Y-126785714D01*
X222733928Y-126738095D01*
X222638690Y-126690476D01*
X222400595Y-126690476D01*
X222305357Y-126738095D01*
X222257738Y-126785714D01*
X222210119Y-126880952D01*
X222210119Y-127166666D01*
X222257738Y-127261904D01*
X222305357Y-127309523D01*
X223210119Y-125833333D02*
X223210119Y-126023809D01*
X223162500Y-126119047D01*
X223114880Y-126166666D01*
X222972023Y-126261904D01*
X222781547Y-126309523D01*
X222400595Y-126309523D01*
X222305357Y-126261904D01*
X222257738Y-126214285D01*
X222210119Y-126119047D01*
X222210119Y-125928571D01*
X222257738Y-125833333D01*
X222305357Y-125785714D01*
X222400595Y-125738095D01*
X222638690Y-125738095D01*
X222733928Y-125785714D01*
X222781547Y-125833333D01*
X222829166Y-125928571D01*
X222829166Y-126119047D01*
X222781547Y-126214285D01*
X222733928Y-126261904D01*
X222638690Y-126309523D01*
X203160119Y-128214285D02*
X204160119Y-128214285D01*
X204160119Y-127976190D01*
X204112500Y-127833333D01*
X204017261Y-127738095D01*
X203922023Y-127690476D01*
X203731547Y-127642857D01*
X203588690Y-127642857D01*
X203398214Y-127690476D01*
X203302976Y-127738095D01*
X203207738Y-127833333D01*
X203160119Y-127976190D01*
X203160119Y-128214285D01*
X204160119Y-127309523D02*
X204160119Y-126690476D01*
X203779166Y-127023809D01*
X203779166Y-126880952D01*
X203731547Y-126785714D01*
X203683928Y-126738095D01*
X203588690Y-126690476D01*
X203350595Y-126690476D01*
X203255357Y-126738095D01*
X203207738Y-126785714D01*
X203160119Y-126880952D01*
X203160119Y-127166666D01*
X203207738Y-127261904D01*
X203255357Y-127309523D01*
X204160119Y-125785714D02*
X204160119Y-126261904D01*
X203683928Y-126309523D01*
X203731547Y-126261904D01*
X203779166Y-126166666D01*
X203779166Y-125928571D01*
X203731547Y-125833333D01*
X203683928Y-125785714D01*
X203588690Y-125738095D01*
X203350595Y-125738095D01*
X203255357Y-125785714D01*
X203207738Y-125833333D01*
X203160119Y-125928571D01*
X203160119Y-126166666D01*
X203207738Y-126261904D01*
X203255357Y-126309523D01*
X184110119Y-128214285D02*
X185110119Y-128214285D01*
X185110119Y-127976190D01*
X185062500Y-127833333D01*
X184967261Y-127738095D01*
X184872023Y-127690476D01*
X184681547Y-127642857D01*
X184538690Y-127642857D01*
X184348214Y-127690476D01*
X184252976Y-127738095D01*
X184157738Y-127833333D01*
X184110119Y-127976190D01*
X184110119Y-128214285D01*
X185110119Y-127309523D02*
X185110119Y-126690476D01*
X184729166Y-127023809D01*
X184729166Y-126880952D01*
X184681547Y-126785714D01*
X184633928Y-126738095D01*
X184538690Y-126690476D01*
X184300595Y-126690476D01*
X184205357Y-126738095D01*
X184157738Y-126785714D01*
X184110119Y-126880952D01*
X184110119Y-127166666D01*
X184157738Y-127261904D01*
X184205357Y-127309523D01*
X184776785Y-125833333D02*
X184110119Y-125833333D01*
X185157738Y-126071428D02*
X184443452Y-126309523D01*
X184443452Y-125690476D01*
X165060119Y-128214285D02*
X166060119Y-128214285D01*
X166060119Y-127976190D01*
X166012500Y-127833333D01*
X165917261Y-127738095D01*
X165822023Y-127690476D01*
X165631547Y-127642857D01*
X165488690Y-127642857D01*
X165298214Y-127690476D01*
X165202976Y-127738095D01*
X165107738Y-127833333D01*
X165060119Y-127976190D01*
X165060119Y-128214285D01*
X166060119Y-127309523D02*
X166060119Y-126690476D01*
X165679166Y-127023809D01*
X165679166Y-126880952D01*
X165631547Y-126785714D01*
X165583928Y-126738095D01*
X165488690Y-126690476D01*
X165250595Y-126690476D01*
X165155357Y-126738095D01*
X165107738Y-126785714D01*
X165060119Y-126880952D01*
X165060119Y-127166666D01*
X165107738Y-127261904D01*
X165155357Y-127309523D01*
X166060119Y-126357142D02*
X166060119Y-125738095D01*
X165679166Y-126071428D01*
X165679166Y-125928571D01*
X165631547Y-125833333D01*
X165583928Y-125785714D01*
X165488690Y-125738095D01*
X165250595Y-125738095D01*
X165155357Y-125785714D01*
X165107738Y-125833333D01*
X165060119Y-125928571D01*
X165060119Y-126214285D01*
X165107738Y-126309523D01*
X165155357Y-126357142D01*
X146914880Y-125785714D02*
X145914880Y-125785714D01*
X145914880Y-126023809D01*
X145962500Y-126166666D01*
X146057738Y-126261904D01*
X146152976Y-126309523D01*
X146343452Y-126357142D01*
X146486309Y-126357142D01*
X146676785Y-126309523D01*
X146772023Y-126261904D01*
X146867261Y-126166666D01*
X146914880Y-126023809D01*
X146914880Y-125785714D01*
X145914880Y-126690476D02*
X145914880Y-127309523D01*
X146295833Y-126976190D01*
X146295833Y-127119047D01*
X146343452Y-127214285D01*
X146391071Y-127261904D01*
X146486309Y-127309523D01*
X146724404Y-127309523D01*
X146819642Y-127261904D01*
X146867261Y-127214285D01*
X146914880Y-127119047D01*
X146914880Y-126833333D01*
X146867261Y-126738095D01*
X146819642Y-126690476D01*
X146010119Y-127690476D02*
X145962500Y-127738095D01*
X145914880Y-127833333D01*
X145914880Y-128071428D01*
X145962500Y-128166666D01*
X146010119Y-128214285D01*
X146105357Y-128261904D01*
X146200595Y-128261904D01*
X146343452Y-128214285D01*
X146914880Y-127642857D01*
X146914880Y-128261904D01*
X127864880Y-125785714D02*
X126864880Y-125785714D01*
X126864880Y-126023809D01*
X126912500Y-126166666D01*
X127007738Y-126261904D01*
X127102976Y-126309523D01*
X127293452Y-126357142D01*
X127436309Y-126357142D01*
X127626785Y-126309523D01*
X127722023Y-126261904D01*
X127817261Y-126166666D01*
X127864880Y-126023809D01*
X127864880Y-125785714D01*
X126864880Y-126690476D02*
X126864880Y-127309523D01*
X127245833Y-126976190D01*
X127245833Y-127119047D01*
X127293452Y-127214285D01*
X127341071Y-127261904D01*
X127436309Y-127309523D01*
X127674404Y-127309523D01*
X127769642Y-127261904D01*
X127817261Y-127214285D01*
X127864880Y-127119047D01*
X127864880Y-126833333D01*
X127817261Y-126738095D01*
X127769642Y-126690476D01*
X127864880Y-128261904D02*
X127864880Y-127690476D01*
X127864880Y-127976190D02*
X126864880Y-127976190D01*
X127007738Y-127880952D01*
X127102976Y-127785714D01*
X127150595Y-127690476D01*
X108814880Y-125785714D02*
X107814880Y-125785714D01*
X107814880Y-126023809D01*
X107862500Y-126166666D01*
X107957738Y-126261904D01*
X108052976Y-126309523D01*
X108243452Y-126357142D01*
X108386309Y-126357142D01*
X108576785Y-126309523D01*
X108672023Y-126261904D01*
X108767261Y-126166666D01*
X108814880Y-126023809D01*
X108814880Y-125785714D01*
X107814880Y-126690476D02*
X107814880Y-127309523D01*
X108195833Y-126976190D01*
X108195833Y-127119047D01*
X108243452Y-127214285D01*
X108291071Y-127261904D01*
X108386309Y-127309523D01*
X108624404Y-127309523D01*
X108719642Y-127261904D01*
X108767261Y-127214285D01*
X108814880Y-127119047D01*
X108814880Y-126833333D01*
X108767261Y-126738095D01*
X108719642Y-126690476D01*
X107814880Y-127928571D02*
X107814880Y-128023809D01*
X107862500Y-128119047D01*
X107910119Y-128166666D01*
X108005357Y-128214285D01*
X108195833Y-128261904D01*
X108433928Y-128261904D01*
X108624404Y-128214285D01*
X108719642Y-128166666D01*
X108767261Y-128119047D01*
X108814880Y-128023809D01*
X108814880Y-127928571D01*
X108767261Y-127833333D01*
X108719642Y-127785714D01*
X108624404Y-127738095D01*
X108433928Y-127690476D01*
X108195833Y-127690476D01*
X108005357Y-127738095D01*
X107910119Y-127785714D01*
X107862500Y-127833333D01*
X107814880Y-127928571D01*
X84208630Y-125785714D02*
X83208630Y-125785714D01*
X83208630Y-126023809D01*
X83256250Y-126166666D01*
X83351488Y-126261904D01*
X83446726Y-126309523D01*
X83637202Y-126357142D01*
X83780059Y-126357142D01*
X83970535Y-126309523D01*
X84065773Y-126261904D01*
X84161011Y-126166666D01*
X84208630Y-126023809D01*
X84208630Y-125785714D01*
X83303869Y-126738095D02*
X83256250Y-126785714D01*
X83208630Y-126880952D01*
X83208630Y-127119047D01*
X83256250Y-127214285D01*
X83303869Y-127261904D01*
X83399107Y-127309523D01*
X83494345Y-127309523D01*
X83637202Y-127261904D01*
X84208630Y-126690476D01*
X84208630Y-127309523D01*
X84208630Y-127785714D02*
X84208630Y-127976190D01*
X84161011Y-128071428D01*
X84113392Y-128119047D01*
X83970535Y-128214285D01*
X83780059Y-128261904D01*
X83399107Y-128261904D01*
X83303869Y-128214285D01*
X83256250Y-128166666D01*
X83208630Y-128071428D01*
X83208630Y-127880952D01*
X83256250Y-127785714D01*
X83303869Y-127738095D01*
X83399107Y-127690476D01*
X83637202Y-127690476D01*
X83732440Y-127738095D01*
X83780059Y-127785714D01*
X83827678Y-127880952D01*
X83827678Y-128071428D01*
X83780059Y-128166666D01*
X83732440Y-128214285D01*
X83637202Y-128261904D01*
X339002380Y-106673214D02*
X338002380Y-106673214D01*
X338002380Y-106911309D01*
X338050000Y-107054166D01*
X338145238Y-107149404D01*
X338240476Y-107197023D01*
X338430952Y-107244642D01*
X338573809Y-107244642D01*
X338764285Y-107197023D01*
X338859523Y-107149404D01*
X338954761Y-107054166D01*
X339002380Y-106911309D01*
X339002380Y-106673214D01*
X338097619Y-107625595D02*
X338050000Y-107673214D01*
X338002380Y-107768452D01*
X338002380Y-108006547D01*
X338050000Y-108101785D01*
X338097619Y-108149404D01*
X338192857Y-108197023D01*
X338288095Y-108197023D01*
X338430952Y-108149404D01*
X339002380Y-107577976D01*
X339002380Y-108197023D01*
X338430952Y-108768452D02*
X338383333Y-108673214D01*
X338335714Y-108625595D01*
X338240476Y-108577976D01*
X338192857Y-108577976D01*
X338097619Y-108625595D01*
X338050000Y-108673214D01*
X338002380Y-108768452D01*
X338002380Y-108958928D01*
X338050000Y-109054166D01*
X338097619Y-109101785D01*
X338192857Y-109149404D01*
X338240476Y-109149404D01*
X338335714Y-109101785D01*
X338383333Y-109054166D01*
X338430952Y-108958928D01*
X338430952Y-108768452D01*
X338478571Y-108673214D01*
X338526190Y-108625595D01*
X338621428Y-108577976D01*
X338811904Y-108577976D01*
X338907142Y-108625595D01*
X338954761Y-108673214D01*
X339002380Y-108768452D01*
X339002380Y-108958928D01*
X338954761Y-109054166D01*
X338907142Y-109101785D01*
X338811904Y-109149404D01*
X338621428Y-109149404D01*
X338526190Y-109101785D01*
X338478571Y-109054166D01*
X338430952Y-108958928D01*
X312697619Y-109164285D02*
X313697619Y-109164285D01*
X313697619Y-108926190D01*
X313650000Y-108783333D01*
X313554761Y-108688095D01*
X313459523Y-108640476D01*
X313269047Y-108592857D01*
X313126190Y-108592857D01*
X312935714Y-108640476D01*
X312840476Y-108688095D01*
X312745238Y-108783333D01*
X312697619Y-108926190D01*
X312697619Y-109164285D01*
X313602380Y-108211904D02*
X313650000Y-108164285D01*
X313697619Y-108069047D01*
X313697619Y-107830952D01*
X313650000Y-107735714D01*
X313602380Y-107688095D01*
X313507142Y-107640476D01*
X313411904Y-107640476D01*
X313269047Y-107688095D01*
X312697619Y-108259523D01*
X312697619Y-107640476D01*
X313697619Y-107307142D02*
X313697619Y-106640476D01*
X312697619Y-107069047D01*
X293647619Y-109164285D02*
X294647619Y-109164285D01*
X294647619Y-108926190D01*
X294600000Y-108783333D01*
X294504761Y-108688095D01*
X294409523Y-108640476D01*
X294219047Y-108592857D01*
X294076190Y-108592857D01*
X293885714Y-108640476D01*
X293790476Y-108688095D01*
X293695238Y-108783333D01*
X293647619Y-108926190D01*
X293647619Y-109164285D01*
X294552380Y-108211904D02*
X294600000Y-108164285D01*
X294647619Y-108069047D01*
X294647619Y-107830952D01*
X294600000Y-107735714D01*
X294552380Y-107688095D01*
X294457142Y-107640476D01*
X294361904Y-107640476D01*
X294219047Y-107688095D01*
X293647619Y-108259523D01*
X293647619Y-107640476D01*
X294647619Y-106783333D02*
X294647619Y-106973809D01*
X294600000Y-107069047D01*
X294552380Y-107116666D01*
X294409523Y-107211904D01*
X294219047Y-107259523D01*
X293838095Y-107259523D01*
X293742857Y-107211904D01*
X293695238Y-107164285D01*
X293647619Y-107069047D01*
X293647619Y-106878571D01*
X293695238Y-106783333D01*
X293742857Y-106735714D01*
X293838095Y-106688095D01*
X294076190Y-106688095D01*
X294171428Y-106735714D01*
X294219047Y-106783333D01*
X294266666Y-106878571D01*
X294266666Y-107069047D01*
X294219047Y-107164285D01*
X294171428Y-107211904D01*
X294076190Y-107259523D01*
X274597619Y-109164285D02*
X275597619Y-109164285D01*
X275597619Y-108926190D01*
X275550000Y-108783333D01*
X275454761Y-108688095D01*
X275359523Y-108640476D01*
X275169047Y-108592857D01*
X275026190Y-108592857D01*
X274835714Y-108640476D01*
X274740476Y-108688095D01*
X274645238Y-108783333D01*
X274597619Y-108926190D01*
X274597619Y-109164285D01*
X275502380Y-108211904D02*
X275550000Y-108164285D01*
X275597619Y-108069047D01*
X275597619Y-107830952D01*
X275550000Y-107735714D01*
X275502380Y-107688095D01*
X275407142Y-107640476D01*
X275311904Y-107640476D01*
X275169047Y-107688095D01*
X274597619Y-108259523D01*
X274597619Y-107640476D01*
X275597619Y-106735714D02*
X275597619Y-107211904D01*
X275121428Y-107259523D01*
X275169047Y-107211904D01*
X275216666Y-107116666D01*
X275216666Y-106878571D01*
X275169047Y-106783333D01*
X275121428Y-106735714D01*
X275026190Y-106688095D01*
X274788095Y-106688095D01*
X274692857Y-106735714D01*
X274645238Y-106783333D01*
X274597619Y-106878571D01*
X274597619Y-107116666D01*
X274645238Y-107211904D01*
X274692857Y-107259523D01*
X255547619Y-109164285D02*
X256547619Y-109164285D01*
X256547619Y-108926190D01*
X256500000Y-108783333D01*
X256404761Y-108688095D01*
X256309523Y-108640476D01*
X256119047Y-108592857D01*
X255976190Y-108592857D01*
X255785714Y-108640476D01*
X255690476Y-108688095D01*
X255595238Y-108783333D01*
X255547619Y-108926190D01*
X255547619Y-109164285D01*
X256452380Y-108211904D02*
X256500000Y-108164285D01*
X256547619Y-108069047D01*
X256547619Y-107830952D01*
X256500000Y-107735714D01*
X256452380Y-107688095D01*
X256357142Y-107640476D01*
X256261904Y-107640476D01*
X256119047Y-107688095D01*
X255547619Y-108259523D01*
X255547619Y-107640476D01*
X256214285Y-106783333D02*
X255547619Y-106783333D01*
X256595238Y-107021428D02*
X255880952Y-107259523D01*
X255880952Y-106640476D01*
X236497619Y-109164285D02*
X237497619Y-109164285D01*
X237497619Y-108926190D01*
X237450000Y-108783333D01*
X237354761Y-108688095D01*
X237259523Y-108640476D01*
X237069047Y-108592857D01*
X236926190Y-108592857D01*
X236735714Y-108640476D01*
X236640476Y-108688095D01*
X236545238Y-108783333D01*
X236497619Y-108926190D01*
X236497619Y-109164285D01*
X237402380Y-108211904D02*
X237450000Y-108164285D01*
X237497619Y-108069047D01*
X237497619Y-107830952D01*
X237450000Y-107735714D01*
X237402380Y-107688095D01*
X237307142Y-107640476D01*
X237211904Y-107640476D01*
X237069047Y-107688095D01*
X236497619Y-108259523D01*
X236497619Y-107640476D01*
X237497619Y-107307142D02*
X237497619Y-106688095D01*
X237116666Y-107021428D01*
X237116666Y-106878571D01*
X237069047Y-106783333D01*
X237021428Y-106735714D01*
X236926190Y-106688095D01*
X236688095Y-106688095D01*
X236592857Y-106735714D01*
X236545238Y-106783333D01*
X236497619Y-106878571D01*
X236497619Y-107164285D01*
X236545238Y-107259523D01*
X236592857Y-107307142D01*
X218352380Y-106735714D02*
X217352380Y-106735714D01*
X217352380Y-106973809D01*
X217400000Y-107116666D01*
X217495238Y-107211904D01*
X217590476Y-107259523D01*
X217780952Y-107307142D01*
X217923809Y-107307142D01*
X218114285Y-107259523D01*
X218209523Y-107211904D01*
X218304761Y-107116666D01*
X218352380Y-106973809D01*
X218352380Y-106735714D01*
X217447619Y-107688095D02*
X217400000Y-107735714D01*
X217352380Y-107830952D01*
X217352380Y-108069047D01*
X217400000Y-108164285D01*
X217447619Y-108211904D01*
X217542857Y-108259523D01*
X217638095Y-108259523D01*
X217780952Y-108211904D01*
X218352380Y-107640476D01*
X218352380Y-108259523D01*
X217447619Y-108640476D02*
X217400000Y-108688095D01*
X217352380Y-108783333D01*
X217352380Y-109021428D01*
X217400000Y-109116666D01*
X217447619Y-109164285D01*
X217542857Y-109211904D01*
X217638095Y-109211904D01*
X217780952Y-109164285D01*
X218352380Y-108592857D01*
X218352380Y-109211904D01*
X199302380Y-106735714D02*
X198302380Y-106735714D01*
X198302380Y-106973809D01*
X198350000Y-107116666D01*
X198445238Y-107211904D01*
X198540476Y-107259523D01*
X198730952Y-107307142D01*
X198873809Y-107307142D01*
X199064285Y-107259523D01*
X199159523Y-107211904D01*
X199254761Y-107116666D01*
X199302380Y-106973809D01*
X199302380Y-106735714D01*
X198397619Y-107688095D02*
X198350000Y-107735714D01*
X198302380Y-107830952D01*
X198302380Y-108069047D01*
X198350000Y-108164285D01*
X198397619Y-108211904D01*
X198492857Y-108259523D01*
X198588095Y-108259523D01*
X198730952Y-108211904D01*
X199302380Y-107640476D01*
X199302380Y-108259523D01*
X199302380Y-109211904D02*
X199302380Y-108640476D01*
X199302380Y-108926190D02*
X198302380Y-108926190D01*
X198445238Y-108830952D01*
X198540476Y-108735714D01*
X198588095Y-108640476D01*
X180252380Y-106735714D02*
X179252380Y-106735714D01*
X179252380Y-106973809D01*
X179300000Y-107116666D01*
X179395238Y-107211904D01*
X179490476Y-107259523D01*
X179680952Y-107307142D01*
X179823809Y-107307142D01*
X180014285Y-107259523D01*
X180109523Y-107211904D01*
X180204761Y-107116666D01*
X180252380Y-106973809D01*
X180252380Y-106735714D01*
X179347619Y-107688095D02*
X179300000Y-107735714D01*
X179252380Y-107830952D01*
X179252380Y-108069047D01*
X179300000Y-108164285D01*
X179347619Y-108211904D01*
X179442857Y-108259523D01*
X179538095Y-108259523D01*
X179680952Y-108211904D01*
X180252380Y-107640476D01*
X180252380Y-108259523D01*
X179252380Y-108878571D02*
X179252380Y-108973809D01*
X179300000Y-109069047D01*
X179347619Y-109116666D01*
X179442857Y-109164285D01*
X179633333Y-109211904D01*
X179871428Y-109211904D01*
X180061904Y-109164285D01*
X180157142Y-109116666D01*
X180204761Y-109069047D01*
X180252380Y-108973809D01*
X180252380Y-108878571D01*
X180204761Y-108783333D01*
X180157142Y-108735714D01*
X180061904Y-108688095D01*
X179871428Y-108640476D01*
X179633333Y-108640476D01*
X179442857Y-108688095D01*
X179347619Y-108735714D01*
X179300000Y-108783333D01*
X179252380Y-108878571D01*
X160297619Y-109164285D02*
X161297619Y-109164285D01*
X161297619Y-108926190D01*
X161250000Y-108783333D01*
X161154761Y-108688095D01*
X161059523Y-108640476D01*
X160869047Y-108592857D01*
X160726190Y-108592857D01*
X160535714Y-108640476D01*
X160440476Y-108688095D01*
X160345238Y-108783333D01*
X160297619Y-108926190D01*
X160297619Y-109164285D01*
X160297619Y-107640476D02*
X160297619Y-108211904D01*
X160297619Y-107926190D02*
X161297619Y-107926190D01*
X161154761Y-108021428D01*
X161059523Y-108116666D01*
X161011904Y-108211904D01*
X160297619Y-107164285D02*
X160297619Y-106973809D01*
X160345238Y-106878571D01*
X160392857Y-106830952D01*
X160535714Y-106735714D01*
X160726190Y-106688095D01*
X161107142Y-106688095D01*
X161202380Y-106735714D01*
X161250000Y-106783333D01*
X161297619Y-106878571D01*
X161297619Y-107069047D01*
X161250000Y-107164285D01*
X161202380Y-107211904D01*
X161107142Y-107259523D01*
X160869047Y-107259523D01*
X160773809Y-107211904D01*
X160726190Y-107164285D01*
X160678571Y-107069047D01*
X160678571Y-106878571D01*
X160726190Y-106783333D01*
X160773809Y-106735714D01*
X160869047Y-106688095D01*
X142152380Y-106735714D02*
X141152380Y-106735714D01*
X141152380Y-106973809D01*
X141200000Y-107116666D01*
X141295238Y-107211904D01*
X141390476Y-107259523D01*
X141580952Y-107307142D01*
X141723809Y-107307142D01*
X141914285Y-107259523D01*
X142009523Y-107211904D01*
X142104761Y-107116666D01*
X142152380Y-106973809D01*
X142152380Y-106735714D01*
X142152380Y-108259523D02*
X142152380Y-107688095D01*
X142152380Y-107973809D02*
X141152380Y-107973809D01*
X141295238Y-107878571D01*
X141390476Y-107783333D01*
X141438095Y-107688095D01*
X141580952Y-108830952D02*
X141533333Y-108735714D01*
X141485714Y-108688095D01*
X141390476Y-108640476D01*
X141342857Y-108640476D01*
X141247619Y-108688095D01*
X141200000Y-108735714D01*
X141152380Y-108830952D01*
X141152380Y-109021428D01*
X141200000Y-109116666D01*
X141247619Y-109164285D01*
X141342857Y-109211904D01*
X141390476Y-109211904D01*
X141485714Y-109164285D01*
X141533333Y-109116666D01*
X141580952Y-109021428D01*
X141580952Y-108830952D01*
X141628571Y-108735714D01*
X141676190Y-108688095D01*
X141771428Y-108640476D01*
X141961904Y-108640476D01*
X142057142Y-108688095D01*
X142104761Y-108735714D01*
X142152380Y-108830952D01*
X142152380Y-109021428D01*
X142104761Y-109116666D01*
X142057142Y-109164285D01*
X141961904Y-109211904D01*
X141771428Y-109211904D01*
X141676190Y-109164285D01*
X141628571Y-109116666D01*
X141580952Y-109021428D01*
X123102380Y-106735714D02*
X122102380Y-106735714D01*
X122102380Y-106973809D01*
X122150000Y-107116666D01*
X122245238Y-107211904D01*
X122340476Y-107259523D01*
X122530952Y-107307142D01*
X122673809Y-107307142D01*
X122864285Y-107259523D01*
X122959523Y-107211904D01*
X123054761Y-107116666D01*
X123102380Y-106973809D01*
X123102380Y-106735714D01*
X123102380Y-108259523D02*
X123102380Y-107688095D01*
X123102380Y-107973809D02*
X122102380Y-107973809D01*
X122245238Y-107878571D01*
X122340476Y-107783333D01*
X122388095Y-107688095D01*
X122102380Y-108592857D02*
X122102380Y-109259523D01*
X123102380Y-108830952D01*
X103147619Y-109164285D02*
X104147619Y-109164285D01*
X104147619Y-108926190D01*
X104100000Y-108783333D01*
X104004761Y-108688095D01*
X103909523Y-108640476D01*
X103719047Y-108592857D01*
X103576190Y-108592857D01*
X103385714Y-108640476D01*
X103290476Y-108688095D01*
X103195238Y-108783333D01*
X103147619Y-108926190D01*
X103147619Y-109164285D01*
X103147619Y-107640476D02*
X103147619Y-108211904D01*
X103147619Y-107926190D02*
X104147619Y-107926190D01*
X104004761Y-108021428D01*
X103909523Y-108116666D01*
X103861904Y-108211904D01*
X104147619Y-106783333D02*
X104147619Y-106973809D01*
X104100000Y-107069047D01*
X104052380Y-107116666D01*
X103909523Y-107211904D01*
X103719047Y-107259523D01*
X103338095Y-107259523D01*
X103242857Y-107211904D01*
X103195238Y-107164285D01*
X103147619Y-107069047D01*
X103147619Y-106878571D01*
X103195238Y-106783333D01*
X103242857Y-106735714D01*
X103338095Y-106688095D01*
X103576190Y-106688095D01*
X103671428Y-106735714D01*
X103719047Y-106783333D01*
X103766666Y-106878571D01*
X103766666Y-107069047D01*
X103719047Y-107164285D01*
X103671428Y-107211904D01*
X103576190Y-107259523D01*
X82621130Y-106735714D02*
X81621130Y-106735714D01*
X81621130Y-106973809D01*
X81668750Y-107116666D01*
X81763988Y-107211904D01*
X81859226Y-107259523D01*
X82049702Y-107307142D01*
X82192559Y-107307142D01*
X82383035Y-107259523D01*
X82478273Y-107211904D01*
X82573511Y-107116666D01*
X82621130Y-106973809D01*
X82621130Y-106735714D01*
X82621130Y-108259523D02*
X82621130Y-107688095D01*
X82621130Y-107973809D02*
X81621130Y-107973809D01*
X81763988Y-107878571D01*
X81859226Y-107783333D01*
X81906845Y-107688095D01*
X81621130Y-109164285D02*
X81621130Y-108688095D01*
X82097321Y-108640476D01*
X82049702Y-108688095D01*
X82002083Y-108783333D01*
X82002083Y-109021428D01*
X82049702Y-109116666D01*
X82097321Y-109164285D01*
X82192559Y-109211904D01*
X82430654Y-109211904D01*
X82525892Y-109164285D01*
X82573511Y-109116666D01*
X82621130Y-109021428D01*
X82621130Y-108783333D01*
X82573511Y-108688095D01*
X82525892Y-108640476D01*
X333446130Y-87685714D02*
X332446130Y-87685714D01*
X332446130Y-87923809D01*
X332493750Y-88066666D01*
X332588988Y-88161904D01*
X332684226Y-88209523D01*
X332874702Y-88257142D01*
X333017559Y-88257142D01*
X333208035Y-88209523D01*
X333303273Y-88161904D01*
X333398511Y-88066666D01*
X333446130Y-87923809D01*
X333446130Y-87685714D01*
X333446130Y-89209523D02*
X333446130Y-88638095D01*
X333446130Y-88923809D02*
X332446130Y-88923809D01*
X332588988Y-88828571D01*
X332684226Y-88733333D01*
X332731845Y-88638095D01*
X332779464Y-90066666D02*
X333446130Y-90066666D01*
X332398511Y-89828571D02*
X333112797Y-89590476D01*
X333112797Y-90209523D01*
X304077380Y-87685714D02*
X303077380Y-87685714D01*
X303077380Y-87923809D01*
X303125000Y-88066666D01*
X303220238Y-88161904D01*
X303315476Y-88209523D01*
X303505952Y-88257142D01*
X303648809Y-88257142D01*
X303839285Y-88209523D01*
X303934523Y-88161904D01*
X304029761Y-88066666D01*
X304077380Y-87923809D01*
X304077380Y-87685714D01*
X304077380Y-89209523D02*
X304077380Y-88638095D01*
X304077380Y-88923809D02*
X303077380Y-88923809D01*
X303220238Y-88828571D01*
X303315476Y-88733333D01*
X303363095Y-88638095D01*
X303077380Y-89542857D02*
X303077380Y-90161904D01*
X303458333Y-89828571D01*
X303458333Y-89971428D01*
X303505952Y-90066666D01*
X303553571Y-90114285D01*
X303648809Y-90161904D01*
X303886904Y-90161904D01*
X303982142Y-90114285D01*
X304029761Y-90066666D01*
X304077380Y-89971428D01*
X304077380Y-89685714D01*
X304029761Y-89590476D01*
X303982142Y-89542857D01*
X285027380Y-87685714D02*
X284027380Y-87685714D01*
X284027380Y-87923809D01*
X284075000Y-88066666D01*
X284170238Y-88161904D01*
X284265476Y-88209523D01*
X284455952Y-88257142D01*
X284598809Y-88257142D01*
X284789285Y-88209523D01*
X284884523Y-88161904D01*
X284979761Y-88066666D01*
X285027380Y-87923809D01*
X285027380Y-87685714D01*
X285027380Y-89209523D02*
X285027380Y-88638095D01*
X285027380Y-88923809D02*
X284027380Y-88923809D01*
X284170238Y-88828571D01*
X284265476Y-88733333D01*
X284313095Y-88638095D01*
X284122619Y-89590476D02*
X284075000Y-89638095D01*
X284027380Y-89733333D01*
X284027380Y-89971428D01*
X284075000Y-90066666D01*
X284122619Y-90114285D01*
X284217857Y-90161904D01*
X284313095Y-90161904D01*
X284455952Y-90114285D01*
X285027380Y-89542857D01*
X285027380Y-90161904D01*
X265977380Y-87685714D02*
X264977380Y-87685714D01*
X264977380Y-87923809D01*
X265025000Y-88066666D01*
X265120238Y-88161904D01*
X265215476Y-88209523D01*
X265405952Y-88257142D01*
X265548809Y-88257142D01*
X265739285Y-88209523D01*
X265834523Y-88161904D01*
X265929761Y-88066666D01*
X265977380Y-87923809D01*
X265977380Y-87685714D01*
X265977380Y-89209523D02*
X265977380Y-88638095D01*
X265977380Y-88923809D02*
X264977380Y-88923809D01*
X265120238Y-88828571D01*
X265215476Y-88733333D01*
X265263095Y-88638095D01*
X265977380Y-90161904D02*
X265977380Y-89590476D01*
X265977380Y-89876190D02*
X264977380Y-89876190D01*
X265120238Y-89780952D01*
X265215476Y-89685714D01*
X265263095Y-89590476D01*
X246927380Y-87685714D02*
X245927380Y-87685714D01*
X245927380Y-87923809D01*
X245975000Y-88066666D01*
X246070238Y-88161904D01*
X246165476Y-88209523D01*
X246355952Y-88257142D01*
X246498809Y-88257142D01*
X246689285Y-88209523D01*
X246784523Y-88161904D01*
X246879761Y-88066666D01*
X246927380Y-87923809D01*
X246927380Y-87685714D01*
X246927380Y-89209523D02*
X246927380Y-88638095D01*
X246927380Y-88923809D02*
X245927380Y-88923809D01*
X246070238Y-88828571D01*
X246165476Y-88733333D01*
X246213095Y-88638095D01*
X245927380Y-89828571D02*
X245927380Y-89923809D01*
X245975000Y-90019047D01*
X246022619Y-90066666D01*
X246117857Y-90114285D01*
X246308333Y-90161904D01*
X246546428Y-90161904D01*
X246736904Y-90114285D01*
X246832142Y-90066666D01*
X246879761Y-90019047D01*
X246927380Y-89923809D01*
X246927380Y-89828571D01*
X246879761Y-89733333D01*
X246832142Y-89685714D01*
X246736904Y-89638095D01*
X246546428Y-89590476D01*
X246308333Y-89590476D01*
X246117857Y-89638095D01*
X246022619Y-89685714D01*
X245975000Y-89733333D01*
X245927380Y-89828571D01*
X227877380Y-88161904D02*
X226877380Y-88161904D01*
X226877380Y-88400000D01*
X226925000Y-88542857D01*
X227020238Y-88638095D01*
X227115476Y-88685714D01*
X227305952Y-88733333D01*
X227448809Y-88733333D01*
X227639285Y-88685714D01*
X227734523Y-88638095D01*
X227829761Y-88542857D01*
X227877380Y-88400000D01*
X227877380Y-88161904D01*
X227877380Y-89209523D02*
X227877380Y-89400000D01*
X227829761Y-89495238D01*
X227782142Y-89542857D01*
X227639285Y-89638095D01*
X227448809Y-89685714D01*
X227067857Y-89685714D01*
X226972619Y-89638095D01*
X226925000Y-89590476D01*
X226877380Y-89495238D01*
X226877380Y-89304761D01*
X226925000Y-89209523D01*
X226972619Y-89161904D01*
X227067857Y-89114285D01*
X227305952Y-89114285D01*
X227401190Y-89161904D01*
X227448809Y-89209523D01*
X227496428Y-89304761D01*
X227496428Y-89495238D01*
X227448809Y-89590476D01*
X227401190Y-89638095D01*
X227305952Y-89685714D01*
X208827380Y-88161904D02*
X207827380Y-88161904D01*
X207827380Y-88400000D01*
X207875000Y-88542857D01*
X207970238Y-88638095D01*
X208065476Y-88685714D01*
X208255952Y-88733333D01*
X208398809Y-88733333D01*
X208589285Y-88685714D01*
X208684523Y-88638095D01*
X208779761Y-88542857D01*
X208827380Y-88400000D01*
X208827380Y-88161904D01*
X208255952Y-89304761D02*
X208208333Y-89209523D01*
X208160714Y-89161904D01*
X208065476Y-89114285D01*
X208017857Y-89114285D01*
X207922619Y-89161904D01*
X207875000Y-89209523D01*
X207827380Y-89304761D01*
X207827380Y-89495238D01*
X207875000Y-89590476D01*
X207922619Y-89638095D01*
X208017857Y-89685714D01*
X208065476Y-89685714D01*
X208160714Y-89638095D01*
X208208333Y-89590476D01*
X208255952Y-89495238D01*
X208255952Y-89304761D01*
X208303571Y-89209523D01*
X208351190Y-89161904D01*
X208446428Y-89114285D01*
X208636904Y-89114285D01*
X208732142Y-89161904D01*
X208779761Y-89209523D01*
X208827380Y-89304761D01*
X208827380Y-89495238D01*
X208779761Y-89590476D01*
X208732142Y-89638095D01*
X208636904Y-89685714D01*
X208446428Y-89685714D01*
X208351190Y-89638095D01*
X208303571Y-89590476D01*
X208255952Y-89495238D01*
X189777380Y-88161904D02*
X188777380Y-88161904D01*
X188777380Y-88400000D01*
X188825000Y-88542857D01*
X188920238Y-88638095D01*
X189015476Y-88685714D01*
X189205952Y-88733333D01*
X189348809Y-88733333D01*
X189539285Y-88685714D01*
X189634523Y-88638095D01*
X189729761Y-88542857D01*
X189777380Y-88400000D01*
X189777380Y-88161904D01*
X188777380Y-89066666D02*
X188777380Y-89733333D01*
X189777380Y-89304761D01*
X169822619Y-89638095D02*
X170822619Y-89638095D01*
X170822619Y-89400000D01*
X170775000Y-89257142D01*
X170679761Y-89161904D01*
X170584523Y-89114285D01*
X170394047Y-89066666D01*
X170251190Y-89066666D01*
X170060714Y-89114285D01*
X169965476Y-89161904D01*
X169870238Y-89257142D01*
X169822619Y-89400000D01*
X169822619Y-89638095D01*
X170822619Y-88209523D02*
X170822619Y-88400000D01*
X170775000Y-88495238D01*
X170727380Y-88542857D01*
X170584523Y-88638095D01*
X170394047Y-88685714D01*
X170013095Y-88685714D01*
X169917857Y-88638095D01*
X169870238Y-88590476D01*
X169822619Y-88495238D01*
X169822619Y-88304761D01*
X169870238Y-88209523D01*
X169917857Y-88161904D01*
X170013095Y-88114285D01*
X170251190Y-88114285D01*
X170346428Y-88161904D01*
X170394047Y-88209523D01*
X170441666Y-88304761D01*
X170441666Y-88495238D01*
X170394047Y-88590476D01*
X170346428Y-88638095D01*
X170251190Y-88685714D01*
X150772619Y-89638095D02*
X151772619Y-89638095D01*
X151772619Y-89400000D01*
X151725000Y-89257142D01*
X151629761Y-89161904D01*
X151534523Y-89114285D01*
X151344047Y-89066666D01*
X151201190Y-89066666D01*
X151010714Y-89114285D01*
X150915476Y-89161904D01*
X150820238Y-89257142D01*
X150772619Y-89400000D01*
X150772619Y-89638095D01*
X151772619Y-88161904D02*
X151772619Y-88638095D01*
X151296428Y-88685714D01*
X151344047Y-88638095D01*
X151391666Y-88542857D01*
X151391666Y-88304761D01*
X151344047Y-88209523D01*
X151296428Y-88161904D01*
X151201190Y-88114285D01*
X150963095Y-88114285D01*
X150867857Y-88161904D01*
X150820238Y-88209523D01*
X150772619Y-88304761D01*
X150772619Y-88542857D01*
X150820238Y-88638095D01*
X150867857Y-88685714D01*
X131722619Y-89638095D02*
X132722619Y-89638095D01*
X132722619Y-89400000D01*
X132675000Y-89257142D01*
X132579761Y-89161904D01*
X132484523Y-89114285D01*
X132294047Y-89066666D01*
X132151190Y-89066666D01*
X131960714Y-89114285D01*
X131865476Y-89161904D01*
X131770238Y-89257142D01*
X131722619Y-89400000D01*
X131722619Y-89638095D01*
X132389285Y-88209523D02*
X131722619Y-88209523D01*
X132770238Y-88447619D02*
X132055952Y-88685714D01*
X132055952Y-88066666D01*
X113577380Y-88161904D02*
X112577380Y-88161904D01*
X112577380Y-88400000D01*
X112625000Y-88542857D01*
X112720238Y-88638095D01*
X112815476Y-88685714D01*
X113005952Y-88733333D01*
X113148809Y-88733333D01*
X113339285Y-88685714D01*
X113434523Y-88638095D01*
X113529761Y-88542857D01*
X113577380Y-88400000D01*
X113577380Y-88161904D01*
X112577380Y-89066666D02*
X112577380Y-89685714D01*
X112958333Y-89352380D01*
X112958333Y-89495238D01*
X113005952Y-89590476D01*
X113053571Y-89638095D01*
X113148809Y-89685714D01*
X113386904Y-89685714D01*
X113482142Y-89638095D01*
X113529761Y-89590476D01*
X113577380Y-89495238D01*
X113577380Y-89209523D01*
X113529761Y-89114285D01*
X113482142Y-89066666D01*
X93622619Y-89638095D02*
X94622619Y-89638095D01*
X94622619Y-89400000D01*
X94575000Y-89257142D01*
X94479761Y-89161904D01*
X94384523Y-89114285D01*
X94194047Y-89066666D01*
X94051190Y-89066666D01*
X93860714Y-89114285D01*
X93765476Y-89161904D01*
X93670238Y-89257142D01*
X93622619Y-89400000D01*
X93622619Y-89638095D01*
X94527380Y-88685714D02*
X94575000Y-88638095D01*
X94622619Y-88542857D01*
X94622619Y-88304761D01*
X94575000Y-88209523D01*
X94527380Y-88161904D01*
X94432142Y-88114285D01*
X94336904Y-88114285D01*
X94194047Y-88161904D01*
X93622619Y-88733333D01*
X93622619Y-88114285D01*
X75477380Y-88161904D02*
X74477380Y-88161904D01*
X74477380Y-88400000D01*
X74525000Y-88542857D01*
X74620238Y-88638095D01*
X74715476Y-88685714D01*
X74905952Y-88733333D01*
X75048809Y-88733333D01*
X75239285Y-88685714D01*
X75334523Y-88638095D01*
X75429761Y-88542857D01*
X75477380Y-88400000D01*
X75477380Y-88161904D01*
X75477380Y-89685714D02*
X75477380Y-89114285D01*
X75477380Y-89400000D02*
X74477380Y-89400000D01*
X74620238Y-89304761D01*
X74715476Y-89209523D01*
X74763095Y-89114285D01*
X147932142Y-168902083D02*
X147979761Y-168854464D01*
X148027380Y-168711607D01*
X148027380Y-168616369D01*
X147979761Y-168473511D01*
X147884523Y-168378273D01*
X147789285Y-168330654D01*
X147598809Y-168283035D01*
X147455952Y-168283035D01*
X147265476Y-168330654D01*
X147170238Y-168378273D01*
X147075000Y-168473511D01*
X147027380Y-168616369D01*
X147027380Y-168711607D01*
X147075000Y-168854464D01*
X147122619Y-168902083D01*
X147027380Y-169235416D02*
X147027380Y-169902083D01*
X148027380Y-169473511D01*
X168441666Y-169363392D02*
X168489285Y-169411011D01*
X168632142Y-169458630D01*
X168727380Y-169458630D01*
X168870238Y-169411011D01*
X168965476Y-169315773D01*
X169013095Y-169220535D01*
X169060714Y-169030059D01*
X169060714Y-168887202D01*
X169013095Y-168696726D01*
X168965476Y-168601488D01*
X168870238Y-168506250D01*
X168727380Y-168458630D01*
X168632142Y-168458630D01*
X168489285Y-168506250D01*
X168441666Y-168553869D01*
X167584523Y-168458630D02*
X167775000Y-168458630D01*
X167870238Y-168506250D01*
X167917857Y-168553869D01*
X168013095Y-168696726D01*
X168060714Y-168887202D01*
X168060714Y-169268154D01*
X168013095Y-169363392D01*
X167965476Y-169411011D01*
X167870238Y-169458630D01*
X167679761Y-169458630D01*
X167584523Y-169411011D01*
X167536904Y-169363392D01*
X167489285Y-169268154D01*
X167489285Y-169030059D01*
X167536904Y-168934821D01*
X167584523Y-168887202D01*
X167679761Y-168839583D01*
X167870238Y-168839583D01*
X167965476Y-168887202D01*
X168013095Y-168934821D01*
X168060714Y-169030059D01*
X170282142Y-160170833D02*
X170329761Y-160123214D01*
X170377380Y-159980357D01*
X170377380Y-159885119D01*
X170329761Y-159742261D01*
X170234523Y-159647023D01*
X170139285Y-159599404D01*
X169948809Y-159551785D01*
X169805952Y-159551785D01*
X169615476Y-159599404D01*
X169520238Y-159647023D01*
X169425000Y-159742261D01*
X169377380Y-159885119D01*
X169377380Y-159980357D01*
X169425000Y-160123214D01*
X169472619Y-160170833D01*
X169377380Y-161075595D02*
X169377380Y-160599404D01*
X169853571Y-160551785D01*
X169805952Y-160599404D01*
X169758333Y-160694642D01*
X169758333Y-160932738D01*
X169805952Y-161027976D01*
X169853571Y-161075595D01*
X169948809Y-161123214D01*
X170186904Y-161123214D01*
X170282142Y-161075595D01*
X170329761Y-161027976D01*
X170377380Y-160932738D01*
X170377380Y-160694642D01*
X170329761Y-160599404D01*
X170282142Y-160551785D01*
X151232142Y-159377083D02*
X151279761Y-159329464D01*
X151327380Y-159186607D01*
X151327380Y-159091369D01*
X151279761Y-158948511D01*
X151184523Y-158853273D01*
X151089285Y-158805654D01*
X150898809Y-158758035D01*
X150755952Y-158758035D01*
X150565476Y-158805654D01*
X150470238Y-158853273D01*
X150375000Y-158948511D01*
X150327380Y-159091369D01*
X150327380Y-159186607D01*
X150375000Y-159329464D01*
X150422619Y-159377083D01*
X150660714Y-160234226D02*
X151327380Y-160234226D01*
X150279761Y-159996130D02*
X150994047Y-159758035D01*
X150994047Y-160377083D01*
X145550892Y-163345833D02*
X145598511Y-163298214D01*
X145646130Y-163155357D01*
X145646130Y-163060119D01*
X145598511Y-162917261D01*
X145503273Y-162822023D01*
X145408035Y-162774404D01*
X145217559Y-162726785D01*
X145074702Y-162726785D01*
X144884226Y-162774404D01*
X144788988Y-162822023D01*
X144693750Y-162917261D01*
X144646130Y-163060119D01*
X144646130Y-163155357D01*
X144693750Y-163298214D01*
X144741369Y-163345833D01*
X144646130Y-163679166D02*
X144646130Y-164298214D01*
X145027083Y-163964880D01*
X145027083Y-164107738D01*
X145074702Y-164202976D01*
X145122321Y-164250595D01*
X145217559Y-164298214D01*
X145455654Y-164298214D01*
X145550892Y-164250595D01*
X145598511Y-164202976D01*
X145646130Y-164107738D01*
X145646130Y-163822023D01*
X145598511Y-163726785D01*
X145550892Y-163679166D01*
X145550892Y-153027083D02*
X145598511Y-152979464D01*
X145646130Y-152836607D01*
X145646130Y-152741369D01*
X145598511Y-152598511D01*
X145503273Y-152503273D01*
X145408035Y-152455654D01*
X145217559Y-152408035D01*
X145074702Y-152408035D01*
X144884226Y-152455654D01*
X144788988Y-152503273D01*
X144693750Y-152598511D01*
X144646130Y-152741369D01*
X144646130Y-152836607D01*
X144693750Y-152979464D01*
X144741369Y-153027083D01*
X144741369Y-153408035D02*
X144693750Y-153455654D01*
X144646130Y-153550892D01*
X144646130Y-153788988D01*
X144693750Y-153884226D01*
X144741369Y-153931845D01*
X144836607Y-153979464D01*
X144931845Y-153979464D01*
X145074702Y-153931845D01*
X145646130Y-153360416D01*
X145646130Y-153979464D01*
X158375892Y-153027083D02*
X158423511Y-152979464D01*
X158471130Y-152836607D01*
X158471130Y-152741369D01*
X158423511Y-152598511D01*
X158328273Y-152503273D01*
X158233035Y-152455654D01*
X158042559Y-152408035D01*
X157899702Y-152408035D01*
X157709226Y-152455654D01*
X157613988Y-152503273D01*
X157518750Y-152598511D01*
X157471130Y-152741369D01*
X157471130Y-152836607D01*
X157518750Y-152979464D01*
X157566369Y-153027083D01*
X158471130Y-153979464D02*
X158471130Y-153408035D01*
X158471130Y-153693750D02*
X157471130Y-153693750D01*
X157613988Y-153598511D01*
X157709226Y-153503273D01*
X157756845Y-153408035D01*
%LPC*%
D13*
G36*
X83723952Y-118999845D02*
G01*
X83740988Y-119002372D01*
X83757695Y-119006557D01*
X83773911Y-119012359D01*
X83789480Y-119019723D01*
X83804253Y-119028577D01*
X83818086Y-119038837D01*
X83830847Y-119050403D01*
X83842413Y-119063164D01*
X83852673Y-119076997D01*
X83861527Y-119091770D01*
X83868891Y-119107339D01*
X83874693Y-119123555D01*
X83878878Y-119140262D01*
X83881405Y-119157298D01*
X83882250Y-119174500D01*
X83882250Y-119525500D01*
X83881405Y-119542702D01*
X83878878Y-119559738D01*
X83874693Y-119576445D01*
X83868891Y-119592661D01*
X83861527Y-119608230D01*
X83852673Y-119623003D01*
X83842413Y-119636836D01*
X83830847Y-119649597D01*
X83818086Y-119661163D01*
X83804253Y-119671423D01*
X83789480Y-119680277D01*
X83773911Y-119687641D01*
X83757695Y-119693443D01*
X83740988Y-119697628D01*
X83723952Y-119700155D01*
X83706750Y-119701000D01*
X82255750Y-119701000D01*
X82238548Y-119700155D01*
X82221512Y-119697628D01*
X82204805Y-119693443D01*
X82188589Y-119687641D01*
X82173020Y-119680277D01*
X82158247Y-119671423D01*
X82144414Y-119661163D01*
X82131653Y-119649597D01*
X82120087Y-119636836D01*
X82109827Y-119623003D01*
X82100973Y-119608230D01*
X82093609Y-119592661D01*
X82087807Y-119576445D01*
X82083622Y-119559738D01*
X82081095Y-119542702D01*
X82080250Y-119525500D01*
X82080250Y-119174500D01*
X82081095Y-119157298D01*
X82083622Y-119140262D01*
X82087807Y-119123555D01*
X82093609Y-119107339D01*
X82100973Y-119091770D01*
X82109827Y-119076997D01*
X82120087Y-119063164D01*
X82131653Y-119050403D01*
X82144414Y-119038837D01*
X82158247Y-119028577D01*
X82173020Y-119019723D01*
X82188589Y-119012359D01*
X82204805Y-119006557D01*
X82221512Y-119002372D01*
X82238548Y-118999845D01*
X82255750Y-118999000D01*
X83706750Y-118999000D01*
X83723952Y-118999845D01*
X83723952Y-118999845D01*
G37*
D14*
X82981250Y-119350000D03*
D13*
G36*
X83723952Y-117749845D02*
G01*
X83740988Y-117752372D01*
X83757695Y-117756557D01*
X83773911Y-117762359D01*
X83789480Y-117769723D01*
X83804253Y-117778577D01*
X83818086Y-117788837D01*
X83830847Y-117800403D01*
X83842413Y-117813164D01*
X83852673Y-117826997D01*
X83861527Y-117841770D01*
X83868891Y-117857339D01*
X83874693Y-117873555D01*
X83878878Y-117890262D01*
X83881405Y-117907298D01*
X83882250Y-117924500D01*
X83882250Y-118275500D01*
X83881405Y-118292702D01*
X83878878Y-118309738D01*
X83874693Y-118326445D01*
X83868891Y-118342661D01*
X83861527Y-118358230D01*
X83852673Y-118373003D01*
X83842413Y-118386836D01*
X83830847Y-118399597D01*
X83818086Y-118411163D01*
X83804253Y-118421423D01*
X83789480Y-118430277D01*
X83773911Y-118437641D01*
X83757695Y-118443443D01*
X83740988Y-118447628D01*
X83723952Y-118450155D01*
X83706750Y-118451000D01*
X82255750Y-118451000D01*
X82238548Y-118450155D01*
X82221512Y-118447628D01*
X82204805Y-118443443D01*
X82188589Y-118437641D01*
X82173020Y-118430277D01*
X82158247Y-118421423D01*
X82144414Y-118411163D01*
X82131653Y-118399597D01*
X82120087Y-118386836D01*
X82109827Y-118373003D01*
X82100973Y-118358230D01*
X82093609Y-118342661D01*
X82087807Y-118326445D01*
X82083622Y-118309738D01*
X82081095Y-118292702D01*
X82080250Y-118275500D01*
X82080250Y-117924500D01*
X82081095Y-117907298D01*
X82083622Y-117890262D01*
X82087807Y-117873555D01*
X82093609Y-117857339D01*
X82100973Y-117841770D01*
X82109827Y-117826997D01*
X82120087Y-117813164D01*
X82131653Y-117800403D01*
X82144414Y-117788837D01*
X82158247Y-117778577D01*
X82173020Y-117769723D01*
X82188589Y-117762359D01*
X82204805Y-117756557D01*
X82221512Y-117752372D01*
X82238548Y-117749845D01*
X82255750Y-117749000D01*
X83706750Y-117749000D01*
X83723952Y-117749845D01*
X83723952Y-117749845D01*
G37*
D14*
X82981250Y-118100000D03*
D13*
G36*
X83723952Y-116499845D02*
G01*
X83740988Y-116502372D01*
X83757695Y-116506557D01*
X83773911Y-116512359D01*
X83789480Y-116519723D01*
X83804253Y-116528577D01*
X83818086Y-116538837D01*
X83830847Y-116550403D01*
X83842413Y-116563164D01*
X83852673Y-116576997D01*
X83861527Y-116591770D01*
X83868891Y-116607339D01*
X83874693Y-116623555D01*
X83878878Y-116640262D01*
X83881405Y-116657298D01*
X83882250Y-116674500D01*
X83882250Y-117025500D01*
X83881405Y-117042702D01*
X83878878Y-117059738D01*
X83874693Y-117076445D01*
X83868891Y-117092661D01*
X83861527Y-117108230D01*
X83852673Y-117123003D01*
X83842413Y-117136836D01*
X83830847Y-117149597D01*
X83818086Y-117161163D01*
X83804253Y-117171423D01*
X83789480Y-117180277D01*
X83773911Y-117187641D01*
X83757695Y-117193443D01*
X83740988Y-117197628D01*
X83723952Y-117200155D01*
X83706750Y-117201000D01*
X82255750Y-117201000D01*
X82238548Y-117200155D01*
X82221512Y-117197628D01*
X82204805Y-117193443D01*
X82188589Y-117187641D01*
X82173020Y-117180277D01*
X82158247Y-117171423D01*
X82144414Y-117161163D01*
X82131653Y-117149597D01*
X82120087Y-117136836D01*
X82109827Y-117123003D01*
X82100973Y-117108230D01*
X82093609Y-117092661D01*
X82087807Y-117076445D01*
X82083622Y-117059738D01*
X82081095Y-117042702D01*
X82080250Y-117025500D01*
X82080250Y-116674500D01*
X82081095Y-116657298D01*
X82083622Y-116640262D01*
X82087807Y-116623555D01*
X82093609Y-116607339D01*
X82100973Y-116591770D01*
X82109827Y-116576997D01*
X82120087Y-116563164D01*
X82131653Y-116550403D01*
X82144414Y-116538837D01*
X82158247Y-116528577D01*
X82173020Y-116519723D01*
X82188589Y-116512359D01*
X82204805Y-116506557D01*
X82221512Y-116502372D01*
X82238548Y-116499845D01*
X82255750Y-116499000D01*
X83706750Y-116499000D01*
X83723952Y-116499845D01*
X83723952Y-116499845D01*
G37*
D14*
X82981250Y-116850000D03*
D13*
G36*
X83723952Y-115249845D02*
G01*
X83740988Y-115252372D01*
X83757695Y-115256557D01*
X83773911Y-115262359D01*
X83789480Y-115269723D01*
X83804253Y-115278577D01*
X83818086Y-115288837D01*
X83830847Y-115300403D01*
X83842413Y-115313164D01*
X83852673Y-115326997D01*
X83861527Y-115341770D01*
X83868891Y-115357339D01*
X83874693Y-115373555D01*
X83878878Y-115390262D01*
X83881405Y-115407298D01*
X83882250Y-115424500D01*
X83882250Y-115775500D01*
X83881405Y-115792702D01*
X83878878Y-115809738D01*
X83874693Y-115826445D01*
X83868891Y-115842661D01*
X83861527Y-115858230D01*
X83852673Y-115873003D01*
X83842413Y-115886836D01*
X83830847Y-115899597D01*
X83818086Y-115911163D01*
X83804253Y-115921423D01*
X83789480Y-115930277D01*
X83773911Y-115937641D01*
X83757695Y-115943443D01*
X83740988Y-115947628D01*
X83723952Y-115950155D01*
X83706750Y-115951000D01*
X82255750Y-115951000D01*
X82238548Y-115950155D01*
X82221512Y-115947628D01*
X82204805Y-115943443D01*
X82188589Y-115937641D01*
X82173020Y-115930277D01*
X82158247Y-115921423D01*
X82144414Y-115911163D01*
X82131653Y-115899597D01*
X82120087Y-115886836D01*
X82109827Y-115873003D01*
X82100973Y-115858230D01*
X82093609Y-115842661D01*
X82087807Y-115826445D01*
X82083622Y-115809738D01*
X82081095Y-115792702D01*
X82080250Y-115775500D01*
X82080250Y-115424500D01*
X82081095Y-115407298D01*
X82083622Y-115390262D01*
X82087807Y-115373555D01*
X82093609Y-115357339D01*
X82100973Y-115341770D01*
X82109827Y-115326997D01*
X82120087Y-115313164D01*
X82131653Y-115300403D01*
X82144414Y-115288837D01*
X82158247Y-115278577D01*
X82173020Y-115269723D01*
X82188589Y-115262359D01*
X82204805Y-115256557D01*
X82221512Y-115252372D01*
X82238548Y-115249845D01*
X82255750Y-115249000D01*
X83706750Y-115249000D01*
X83723952Y-115249845D01*
X83723952Y-115249845D01*
G37*
D14*
X82981250Y-115600000D03*
D13*
G36*
X87533754Y-120650327D02*
G01*
X87560497Y-120654294D01*
X87586723Y-120660863D01*
X87612179Y-120669971D01*
X87636620Y-120681531D01*
X87659810Y-120695430D01*
X87681525Y-120711536D01*
X87701558Y-120729692D01*
X87719714Y-120749725D01*
X87735820Y-120771440D01*
X87749719Y-120794630D01*
X87761279Y-120819071D01*
X87770387Y-120844527D01*
X87776956Y-120870753D01*
X87780923Y-120897496D01*
X87782250Y-120924500D01*
X87782250Y-121475500D01*
X87780923Y-121502504D01*
X87776956Y-121529247D01*
X87770387Y-121555473D01*
X87761279Y-121580929D01*
X87749719Y-121605370D01*
X87735820Y-121628560D01*
X87719714Y-121650275D01*
X87701558Y-121670308D01*
X87681525Y-121688464D01*
X87659810Y-121704570D01*
X87636620Y-121718469D01*
X87612179Y-121730029D01*
X87586723Y-121739137D01*
X87560497Y-121745706D01*
X87533754Y-121749673D01*
X87506750Y-121751000D01*
X85155750Y-121751000D01*
X85128746Y-121749673D01*
X85102003Y-121745706D01*
X85075777Y-121739137D01*
X85050321Y-121730029D01*
X85025880Y-121718469D01*
X85002690Y-121704570D01*
X84980975Y-121688464D01*
X84960942Y-121670308D01*
X84942786Y-121650275D01*
X84926680Y-121628560D01*
X84912781Y-121605370D01*
X84901221Y-121580929D01*
X84892113Y-121555473D01*
X84885544Y-121529247D01*
X84881577Y-121502504D01*
X84880250Y-121475500D01*
X84880250Y-120924500D01*
X84881577Y-120897496D01*
X84885544Y-120870753D01*
X84892113Y-120844527D01*
X84901221Y-120819071D01*
X84912781Y-120794630D01*
X84926680Y-120771440D01*
X84942786Y-120749725D01*
X84960942Y-120729692D01*
X84980975Y-120711536D01*
X85002690Y-120695430D01*
X85025880Y-120681531D01*
X85050321Y-120669971D01*
X85075777Y-120660863D01*
X85102003Y-120654294D01*
X85128746Y-120650327D01*
X85155750Y-120649000D01*
X87506750Y-120649000D01*
X87533754Y-120650327D01*
X87533754Y-120650327D01*
G37*
D15*
X86331250Y-121200000D03*
D13*
G36*
X87533754Y-113200327D02*
G01*
X87560497Y-113204294D01*
X87586723Y-113210863D01*
X87612179Y-113219971D01*
X87636620Y-113231531D01*
X87659810Y-113245430D01*
X87681525Y-113261536D01*
X87701558Y-113279692D01*
X87719714Y-113299725D01*
X87735820Y-113321440D01*
X87749719Y-113344630D01*
X87761279Y-113369071D01*
X87770387Y-113394527D01*
X87776956Y-113420753D01*
X87780923Y-113447496D01*
X87782250Y-113474500D01*
X87782250Y-114025500D01*
X87780923Y-114052504D01*
X87776956Y-114079247D01*
X87770387Y-114105473D01*
X87761279Y-114130929D01*
X87749719Y-114155370D01*
X87735820Y-114178560D01*
X87719714Y-114200275D01*
X87701558Y-114220308D01*
X87681525Y-114238464D01*
X87659810Y-114254570D01*
X87636620Y-114268469D01*
X87612179Y-114280029D01*
X87586723Y-114289137D01*
X87560497Y-114295706D01*
X87533754Y-114299673D01*
X87506750Y-114301000D01*
X85155750Y-114301000D01*
X85128746Y-114299673D01*
X85102003Y-114295706D01*
X85075777Y-114289137D01*
X85050321Y-114280029D01*
X85025880Y-114268469D01*
X85002690Y-114254570D01*
X84980975Y-114238464D01*
X84960942Y-114220308D01*
X84942786Y-114200275D01*
X84926680Y-114178560D01*
X84912781Y-114155370D01*
X84901221Y-114130929D01*
X84892113Y-114105473D01*
X84885544Y-114079247D01*
X84881577Y-114052504D01*
X84880250Y-114025500D01*
X84880250Y-113474500D01*
X84881577Y-113447496D01*
X84885544Y-113420753D01*
X84892113Y-113394527D01*
X84901221Y-113369071D01*
X84912781Y-113344630D01*
X84926680Y-113321440D01*
X84942786Y-113299725D01*
X84960942Y-113279692D01*
X84980975Y-113261536D01*
X85002690Y-113245430D01*
X85025880Y-113231531D01*
X85050321Y-113219971D01*
X85075777Y-113210863D01*
X85102003Y-113204294D01*
X85128746Y-113200327D01*
X85155750Y-113199000D01*
X87506750Y-113199000D01*
X87533754Y-113200327D01*
X87533754Y-113200327D01*
G37*
D15*
X86331250Y-113750000D03*
D16*
X89217500Y-88900000D03*
X79057500Y-88900000D03*
D17*
X81637500Y-84900000D03*
D18*
X84137500Y-88900000D03*
D17*
X80982501Y-85630000D03*
D19*
X80327500Y-86360000D02*
X81637502Y-84900000D01*
D17*
X86677500Y-83820000D03*
X86657500Y-84110000D03*
D19*
X86637500Y-84400000D02*
X86677500Y-83820000D01*
D18*
X236531150Y-156845000D03*
X136531350Y-156845000D03*
D20*
X236531150Y-172085000D03*
X136531350Y-172085000D03*
D16*
X191611250Y-165100000D03*
X181451250Y-165100000D03*
D17*
X184031250Y-161100000D03*
D18*
X186531250Y-165100000D03*
D17*
X183376251Y-161830000D03*
D19*
X182721250Y-162560000D02*
X184031252Y-161100000D01*
D17*
X189071250Y-160020000D03*
X189051250Y-160310000D03*
D19*
X189031250Y-160600000D02*
X189071250Y-160020000D01*
D16*
X279717500Y-88900000D03*
X269557500Y-88900000D03*
D17*
X272137500Y-84900000D03*
D18*
X274637500Y-88900000D03*
D17*
X271482501Y-85630000D03*
D19*
X270827500Y-86360000D02*
X272137502Y-84900000D01*
D17*
X277177500Y-83820000D03*
X277157500Y-84110000D03*
D19*
X277137500Y-84400000D02*
X277177500Y-83820000D01*
D21*
X152706250Y-152343750D03*
X150506250Y-152343750D03*
X150506250Y-154043750D03*
X152706250Y-154043750D03*
D22*
X154750000Y-170006250D03*
X155550000Y-170006250D03*
X156350000Y-170006250D03*
X157150000Y-170006250D03*
X157950000Y-170006250D03*
X158750000Y-170006250D03*
X159550000Y-170006250D03*
X160350000Y-170006250D03*
X161150000Y-170006250D03*
X161950000Y-170006250D03*
X162750000Y-170006250D03*
D23*
X164450000Y-168306250D03*
X164450000Y-167506250D03*
X164450000Y-166706250D03*
X164450000Y-165906250D03*
X164450000Y-165106250D03*
X164450000Y-164306250D03*
X164450000Y-163506250D03*
X164450000Y-162706250D03*
X164450000Y-161906250D03*
X164450000Y-161106250D03*
X164450000Y-160306250D03*
D22*
X162750000Y-158606250D03*
X161950000Y-158606250D03*
X161150000Y-158606250D03*
X160350000Y-158606250D03*
X159550000Y-158606250D03*
X158750000Y-158606250D03*
X157950000Y-158606250D03*
X157150000Y-158606250D03*
X156350000Y-158606250D03*
X155550000Y-158606250D03*
X154750000Y-158606250D03*
D23*
X153050000Y-160306250D03*
X153050000Y-161106250D03*
X153050000Y-161906250D03*
X153050000Y-162706250D03*
X153050000Y-163506250D03*
X153050000Y-164306250D03*
X153050000Y-165106250D03*
X153050000Y-165906250D03*
X153050000Y-166706250D03*
X153050000Y-167506250D03*
X153050000Y-168306250D03*
D24*
X59268750Y-134068750D03*
X62968750Y-127868750D03*
X62968750Y-134068750D03*
X59268750Y-127868750D03*
D13*
G36*
X169508141Y-167525297D02*
G01*
X169534278Y-167529174D01*
X169559909Y-167535594D01*
X169584788Y-167544495D01*
X169608674Y-167555793D01*
X169631337Y-167569377D01*
X169652560Y-167585117D01*
X169672139Y-167602861D01*
X169689883Y-167622440D01*
X169705623Y-167643663D01*
X169719207Y-167666326D01*
X169730505Y-167690212D01*
X169739406Y-167715091D01*
X169745826Y-167740722D01*
X169749703Y-167766859D01*
X169751000Y-167793250D01*
X169751000Y-168756750D01*
X169749703Y-168783141D01*
X169745826Y-168809278D01*
X169739406Y-168834909D01*
X169730505Y-168859788D01*
X169719207Y-168883674D01*
X169705623Y-168906337D01*
X169689883Y-168927560D01*
X169672139Y-168947139D01*
X169652560Y-168964883D01*
X169631337Y-168980623D01*
X169608674Y-168994207D01*
X169584788Y-169005505D01*
X169559909Y-169014406D01*
X169534278Y-169020826D01*
X169508141Y-169024703D01*
X169481750Y-169026000D01*
X168943250Y-169026000D01*
X168916859Y-169024703D01*
X168890722Y-169020826D01*
X168865091Y-169014406D01*
X168840212Y-169005505D01*
X168816326Y-168994207D01*
X168793663Y-168980623D01*
X168772440Y-168964883D01*
X168752861Y-168947139D01*
X168735117Y-168927560D01*
X168719377Y-168906337D01*
X168705793Y-168883674D01*
X168694495Y-168859788D01*
X168685594Y-168834909D01*
X168679174Y-168809278D01*
X168675297Y-168783141D01*
X168674000Y-168756750D01*
X168674000Y-167793250D01*
X168675297Y-167766859D01*
X168679174Y-167740722D01*
X168685594Y-167715091D01*
X168694495Y-167690212D01*
X168705793Y-167666326D01*
X168719377Y-167643663D01*
X168735117Y-167622440D01*
X168752861Y-167602861D01*
X168772440Y-167585117D01*
X168793663Y-167569377D01*
X168816326Y-167555793D01*
X168840212Y-167544495D01*
X168865091Y-167535594D01*
X168890722Y-167529174D01*
X168916859Y-167525297D01*
X168943250Y-167524000D01*
X169481750Y-167524000D01*
X169508141Y-167525297D01*
X169508141Y-167525297D01*
G37*
D25*
X169212500Y-168275000D03*
D13*
G36*
X167633141Y-167525297D02*
G01*
X167659278Y-167529174D01*
X167684909Y-167535594D01*
X167709788Y-167544495D01*
X167733674Y-167555793D01*
X167756337Y-167569377D01*
X167777560Y-167585117D01*
X167797139Y-167602861D01*
X167814883Y-167622440D01*
X167830623Y-167643663D01*
X167844207Y-167666326D01*
X167855505Y-167690212D01*
X167864406Y-167715091D01*
X167870826Y-167740722D01*
X167874703Y-167766859D01*
X167876000Y-167793250D01*
X167876000Y-168756750D01*
X167874703Y-168783141D01*
X167870826Y-168809278D01*
X167864406Y-168834909D01*
X167855505Y-168859788D01*
X167844207Y-168883674D01*
X167830623Y-168906337D01*
X167814883Y-168927560D01*
X167797139Y-168947139D01*
X167777560Y-168964883D01*
X167756337Y-168980623D01*
X167733674Y-168994207D01*
X167709788Y-169005505D01*
X167684909Y-169014406D01*
X167659278Y-169020826D01*
X167633141Y-169024703D01*
X167606750Y-169026000D01*
X167068250Y-169026000D01*
X167041859Y-169024703D01*
X167015722Y-169020826D01*
X166990091Y-169014406D01*
X166965212Y-169005505D01*
X166941326Y-168994207D01*
X166918663Y-168980623D01*
X166897440Y-168964883D01*
X166877861Y-168947139D01*
X166860117Y-168927560D01*
X166844377Y-168906337D01*
X166830793Y-168883674D01*
X166819495Y-168859788D01*
X166810594Y-168834909D01*
X166804174Y-168809278D01*
X166800297Y-168783141D01*
X166799000Y-168756750D01*
X166799000Y-167793250D01*
X166800297Y-167766859D01*
X166804174Y-167740722D01*
X166810594Y-167715091D01*
X166819495Y-167690212D01*
X166830793Y-167666326D01*
X166844377Y-167643663D01*
X166860117Y-167622440D01*
X166877861Y-167602861D01*
X166897440Y-167585117D01*
X166918663Y-167569377D01*
X166941326Y-167555793D01*
X166965212Y-167544495D01*
X166990091Y-167535594D01*
X167015722Y-167529174D01*
X167041859Y-167525297D01*
X167068250Y-167524000D01*
X167606750Y-167524000D01*
X167633141Y-167525297D01*
X167633141Y-167525297D01*
G37*
D25*
X167337500Y-168275000D03*
D13*
G36*
X128301891Y-158862797D02*
G01*
X128328028Y-158866674D01*
X128353659Y-158873094D01*
X128378538Y-158881995D01*
X128402424Y-158893293D01*
X128425087Y-158906877D01*
X128446310Y-158922617D01*
X128465889Y-158940361D01*
X128483633Y-158959940D01*
X128499373Y-158981163D01*
X128512957Y-159003826D01*
X128524255Y-159027712D01*
X128533156Y-159052591D01*
X128539576Y-159078222D01*
X128543453Y-159104359D01*
X128544750Y-159130750D01*
X128544750Y-159669250D01*
X128543453Y-159695641D01*
X128539576Y-159721778D01*
X128533156Y-159747409D01*
X128524255Y-159772288D01*
X128512957Y-159796174D01*
X128499373Y-159818837D01*
X128483633Y-159840060D01*
X128465889Y-159859639D01*
X128446310Y-159877383D01*
X128425087Y-159893123D01*
X128402424Y-159906707D01*
X128378538Y-159918005D01*
X128353659Y-159926906D01*
X128328028Y-159933326D01*
X128301891Y-159937203D01*
X128275500Y-159938500D01*
X127312000Y-159938500D01*
X127285609Y-159937203D01*
X127259472Y-159933326D01*
X127233841Y-159926906D01*
X127208962Y-159918005D01*
X127185076Y-159906707D01*
X127162413Y-159893123D01*
X127141190Y-159877383D01*
X127121611Y-159859639D01*
X127103867Y-159840060D01*
X127088127Y-159818837D01*
X127074543Y-159796174D01*
X127063245Y-159772288D01*
X127054344Y-159747409D01*
X127047924Y-159721778D01*
X127044047Y-159695641D01*
X127042750Y-159669250D01*
X127042750Y-159130750D01*
X127044047Y-159104359D01*
X127047924Y-159078222D01*
X127054344Y-159052591D01*
X127063245Y-159027712D01*
X127074543Y-159003826D01*
X127088127Y-158981163D01*
X127103867Y-158959940D01*
X127121611Y-158940361D01*
X127141190Y-158922617D01*
X127162413Y-158906877D01*
X127185076Y-158893293D01*
X127208962Y-158881995D01*
X127233841Y-158873094D01*
X127259472Y-158866674D01*
X127285609Y-158862797D01*
X127312000Y-158861500D01*
X128275500Y-158861500D01*
X128301891Y-158862797D01*
X128301891Y-158862797D01*
G37*
D25*
X127793750Y-159400000D03*
D13*
G36*
X128301891Y-160737797D02*
G01*
X128328028Y-160741674D01*
X128353659Y-160748094D01*
X128378538Y-160756995D01*
X128402424Y-160768293D01*
X128425087Y-160781877D01*
X128446310Y-160797617D01*
X128465889Y-160815361D01*
X128483633Y-160834940D01*
X128499373Y-160856163D01*
X128512957Y-160878826D01*
X128524255Y-160902712D01*
X128533156Y-160927591D01*
X128539576Y-160953222D01*
X128543453Y-160979359D01*
X128544750Y-161005750D01*
X128544750Y-161544250D01*
X128543453Y-161570641D01*
X128539576Y-161596778D01*
X128533156Y-161622409D01*
X128524255Y-161647288D01*
X128512957Y-161671174D01*
X128499373Y-161693837D01*
X128483633Y-161715060D01*
X128465889Y-161734639D01*
X128446310Y-161752383D01*
X128425087Y-161768123D01*
X128402424Y-161781707D01*
X128378538Y-161793005D01*
X128353659Y-161801906D01*
X128328028Y-161808326D01*
X128301891Y-161812203D01*
X128275500Y-161813500D01*
X127312000Y-161813500D01*
X127285609Y-161812203D01*
X127259472Y-161808326D01*
X127233841Y-161801906D01*
X127208962Y-161793005D01*
X127185076Y-161781707D01*
X127162413Y-161768123D01*
X127141190Y-161752383D01*
X127121611Y-161734639D01*
X127103867Y-161715060D01*
X127088127Y-161693837D01*
X127074543Y-161671174D01*
X127063245Y-161647288D01*
X127054344Y-161622409D01*
X127047924Y-161596778D01*
X127044047Y-161570641D01*
X127042750Y-161544250D01*
X127042750Y-161005750D01*
X127044047Y-160979359D01*
X127047924Y-160953222D01*
X127054344Y-160927591D01*
X127063245Y-160902712D01*
X127074543Y-160878826D01*
X127088127Y-160856163D01*
X127103867Y-160834940D01*
X127121611Y-160815361D01*
X127141190Y-160797617D01*
X127162413Y-160781877D01*
X127185076Y-160768293D01*
X127208962Y-160756995D01*
X127233841Y-160748094D01*
X127259472Y-160741674D01*
X127285609Y-160737797D01*
X127312000Y-160736500D01*
X128275500Y-160736500D01*
X128301891Y-160737797D01*
X128301891Y-160737797D01*
G37*
D25*
X127793750Y-161275000D03*
D13*
G36*
X133064391Y-160737797D02*
G01*
X133090528Y-160741674D01*
X133116159Y-160748094D01*
X133141038Y-160756995D01*
X133164924Y-160768293D01*
X133187587Y-160781877D01*
X133208810Y-160797617D01*
X133228389Y-160815361D01*
X133246133Y-160834940D01*
X133261873Y-160856163D01*
X133275457Y-160878826D01*
X133286755Y-160902712D01*
X133295656Y-160927591D01*
X133302076Y-160953222D01*
X133305953Y-160979359D01*
X133307250Y-161005750D01*
X133307250Y-161544250D01*
X133305953Y-161570641D01*
X133302076Y-161596778D01*
X133295656Y-161622409D01*
X133286755Y-161647288D01*
X133275457Y-161671174D01*
X133261873Y-161693837D01*
X133246133Y-161715060D01*
X133228389Y-161734639D01*
X133208810Y-161752383D01*
X133187587Y-161768123D01*
X133164924Y-161781707D01*
X133141038Y-161793005D01*
X133116159Y-161801906D01*
X133090528Y-161808326D01*
X133064391Y-161812203D01*
X133038000Y-161813500D01*
X132074500Y-161813500D01*
X132048109Y-161812203D01*
X132021972Y-161808326D01*
X131996341Y-161801906D01*
X131971462Y-161793005D01*
X131947576Y-161781707D01*
X131924913Y-161768123D01*
X131903690Y-161752383D01*
X131884111Y-161734639D01*
X131866367Y-161715060D01*
X131850627Y-161693837D01*
X131837043Y-161671174D01*
X131825745Y-161647288D01*
X131816844Y-161622409D01*
X131810424Y-161596778D01*
X131806547Y-161570641D01*
X131805250Y-161544250D01*
X131805250Y-161005750D01*
X131806547Y-160979359D01*
X131810424Y-160953222D01*
X131816844Y-160927591D01*
X131825745Y-160902712D01*
X131837043Y-160878826D01*
X131850627Y-160856163D01*
X131866367Y-160834940D01*
X131884111Y-160815361D01*
X131903690Y-160797617D01*
X131924913Y-160781877D01*
X131947576Y-160768293D01*
X131971462Y-160756995D01*
X131996341Y-160748094D01*
X132021972Y-160741674D01*
X132048109Y-160737797D01*
X132074500Y-160736500D01*
X133038000Y-160736500D01*
X133064391Y-160737797D01*
X133064391Y-160737797D01*
G37*
D25*
X132556250Y-161275000D03*
D13*
G36*
X133064391Y-158862797D02*
G01*
X133090528Y-158866674D01*
X133116159Y-158873094D01*
X133141038Y-158881995D01*
X133164924Y-158893293D01*
X133187587Y-158906877D01*
X133208810Y-158922617D01*
X133228389Y-158940361D01*
X133246133Y-158959940D01*
X133261873Y-158981163D01*
X133275457Y-159003826D01*
X133286755Y-159027712D01*
X133295656Y-159052591D01*
X133302076Y-159078222D01*
X133305953Y-159104359D01*
X133307250Y-159130750D01*
X133307250Y-159669250D01*
X133305953Y-159695641D01*
X133302076Y-159721778D01*
X133295656Y-159747409D01*
X133286755Y-159772288D01*
X133275457Y-159796174D01*
X133261873Y-159818837D01*
X133246133Y-159840060D01*
X133228389Y-159859639D01*
X133208810Y-159877383D01*
X133187587Y-159893123D01*
X133164924Y-159906707D01*
X133141038Y-159918005D01*
X133116159Y-159926906D01*
X133090528Y-159933326D01*
X133064391Y-159937203D01*
X133038000Y-159938500D01*
X132074500Y-159938500D01*
X132048109Y-159937203D01*
X132021972Y-159933326D01*
X131996341Y-159926906D01*
X131971462Y-159918005D01*
X131947576Y-159906707D01*
X131924913Y-159893123D01*
X131903690Y-159877383D01*
X131884111Y-159859639D01*
X131866367Y-159840060D01*
X131850627Y-159818837D01*
X131837043Y-159796174D01*
X131825745Y-159772288D01*
X131816844Y-159747409D01*
X131810424Y-159721778D01*
X131806547Y-159695641D01*
X131805250Y-159669250D01*
X131805250Y-159130750D01*
X131806547Y-159104359D01*
X131810424Y-159078222D01*
X131816844Y-159052591D01*
X131825745Y-159027712D01*
X131837043Y-159003826D01*
X131850627Y-158981163D01*
X131866367Y-158959940D01*
X131884111Y-158940361D01*
X131903690Y-158922617D01*
X131924913Y-158906877D01*
X131947576Y-158893293D01*
X131971462Y-158881995D01*
X131996341Y-158873094D01*
X132021972Y-158866674D01*
X132048109Y-158862797D01*
X132074500Y-158861500D01*
X133038000Y-158861500D01*
X133064391Y-158862797D01*
X133064391Y-158862797D01*
G37*
D25*
X132556250Y-159400000D03*
D13*
G36*
X146558141Y-158069047D02*
G01*
X146584278Y-158072924D01*
X146609909Y-158079344D01*
X146634788Y-158088245D01*
X146658674Y-158099543D01*
X146681337Y-158113127D01*
X146702560Y-158128867D01*
X146722139Y-158146611D01*
X146739883Y-158166190D01*
X146755623Y-158187413D01*
X146769207Y-158210076D01*
X146780505Y-158233962D01*
X146789406Y-158258841D01*
X146795826Y-158284472D01*
X146799703Y-158310609D01*
X146801000Y-158337000D01*
X146801000Y-158875500D01*
X146799703Y-158901891D01*
X146795826Y-158928028D01*
X146789406Y-158953659D01*
X146780505Y-158978538D01*
X146769207Y-159002424D01*
X146755623Y-159025087D01*
X146739883Y-159046310D01*
X146722139Y-159065889D01*
X146702560Y-159083633D01*
X146681337Y-159099373D01*
X146658674Y-159112957D01*
X146634788Y-159124255D01*
X146609909Y-159133156D01*
X146584278Y-159139576D01*
X146558141Y-159143453D01*
X146531750Y-159144750D01*
X145568250Y-159144750D01*
X145541859Y-159143453D01*
X145515722Y-159139576D01*
X145490091Y-159133156D01*
X145465212Y-159124255D01*
X145441326Y-159112957D01*
X145418663Y-159099373D01*
X145397440Y-159083633D01*
X145377861Y-159065889D01*
X145360117Y-159046310D01*
X145344377Y-159025087D01*
X145330793Y-159002424D01*
X145319495Y-158978538D01*
X145310594Y-158953659D01*
X145304174Y-158928028D01*
X145300297Y-158901891D01*
X145299000Y-158875500D01*
X145299000Y-158337000D01*
X145300297Y-158310609D01*
X145304174Y-158284472D01*
X145310594Y-158258841D01*
X145319495Y-158233962D01*
X145330793Y-158210076D01*
X145344377Y-158187413D01*
X145360117Y-158166190D01*
X145377861Y-158146611D01*
X145397440Y-158128867D01*
X145418663Y-158113127D01*
X145441326Y-158099543D01*
X145465212Y-158088245D01*
X145490091Y-158079344D01*
X145515722Y-158072924D01*
X145541859Y-158069047D01*
X145568250Y-158067750D01*
X146531750Y-158067750D01*
X146558141Y-158069047D01*
X146558141Y-158069047D01*
G37*
D25*
X146050000Y-158606250D03*
D13*
G36*
X146558141Y-159944047D02*
G01*
X146584278Y-159947924D01*
X146609909Y-159954344D01*
X146634788Y-159963245D01*
X146658674Y-159974543D01*
X146681337Y-159988127D01*
X146702560Y-160003867D01*
X146722139Y-160021611D01*
X146739883Y-160041190D01*
X146755623Y-160062413D01*
X146769207Y-160085076D01*
X146780505Y-160108962D01*
X146789406Y-160133841D01*
X146795826Y-160159472D01*
X146799703Y-160185609D01*
X146801000Y-160212000D01*
X146801000Y-160750500D01*
X146799703Y-160776891D01*
X146795826Y-160803028D01*
X146789406Y-160828659D01*
X146780505Y-160853538D01*
X146769207Y-160877424D01*
X146755623Y-160900087D01*
X146739883Y-160921310D01*
X146722139Y-160940889D01*
X146702560Y-160958633D01*
X146681337Y-160974373D01*
X146658674Y-160987957D01*
X146634788Y-160999255D01*
X146609909Y-161008156D01*
X146584278Y-161014576D01*
X146558141Y-161018453D01*
X146531750Y-161019750D01*
X145568250Y-161019750D01*
X145541859Y-161018453D01*
X145515722Y-161014576D01*
X145490091Y-161008156D01*
X145465212Y-160999255D01*
X145441326Y-160987957D01*
X145418663Y-160974373D01*
X145397440Y-160958633D01*
X145377861Y-160940889D01*
X145360117Y-160921310D01*
X145344377Y-160900087D01*
X145330793Y-160877424D01*
X145319495Y-160853538D01*
X145310594Y-160828659D01*
X145304174Y-160803028D01*
X145300297Y-160776891D01*
X145299000Y-160750500D01*
X145299000Y-160212000D01*
X145300297Y-160185609D01*
X145304174Y-160159472D01*
X145310594Y-160133841D01*
X145319495Y-160108962D01*
X145330793Y-160085076D01*
X145344377Y-160062413D01*
X145360117Y-160041190D01*
X145377861Y-160021611D01*
X145397440Y-160003867D01*
X145418663Y-159988127D01*
X145441326Y-159974543D01*
X145465212Y-159963245D01*
X145490091Y-159954344D01*
X145515722Y-159947924D01*
X145541859Y-159944047D01*
X145568250Y-159942750D01*
X146531750Y-159942750D01*
X146558141Y-159944047D01*
X146558141Y-159944047D01*
G37*
D25*
X146050000Y-160481250D03*
D16*
X336867500Y-165100000D03*
X326707500Y-165100000D03*
D17*
X329287500Y-161100000D03*
D18*
X331787500Y-165100000D03*
D17*
X328632501Y-161830000D03*
D19*
X327977500Y-162560000D02*
X329287502Y-161100000D01*
D17*
X334327500Y-160020000D03*
X334307500Y-160310000D03*
D19*
X334287500Y-160600000D02*
X334327500Y-160020000D01*
D16*
X317817500Y-165100000D03*
X307657500Y-165100000D03*
D17*
X310237500Y-161100000D03*
D18*
X312737500Y-165100000D03*
D17*
X309582501Y-161830000D03*
D19*
X308927500Y-162560000D02*
X310237502Y-161100000D01*
D17*
X315277500Y-160020000D03*
X315257500Y-160310000D03*
D19*
X315237500Y-160600000D02*
X315277500Y-160020000D01*
D16*
X298767500Y-165100000D03*
X288607500Y-165100000D03*
D17*
X291187500Y-161100000D03*
D18*
X293687500Y-165100000D03*
D17*
X290532501Y-161830000D03*
D19*
X289877500Y-162560000D02*
X291187502Y-161100000D01*
D17*
X296227500Y-160020000D03*
X296207500Y-160310000D03*
D19*
X296187500Y-160600000D02*
X296227500Y-160020000D01*
D16*
X279717500Y-165100000D03*
X269557500Y-165100000D03*
D17*
X272137500Y-161100000D03*
D18*
X274637500Y-165100000D03*
D17*
X271482501Y-161830000D03*
D19*
X270827500Y-162560000D02*
X272137502Y-161100000D01*
D17*
X277177500Y-160020000D03*
X277157500Y-160310000D03*
D19*
X277137500Y-160600000D02*
X277177500Y-160020000D01*
D16*
X260667500Y-165100000D03*
X250507500Y-165100000D03*
D17*
X253087500Y-161100000D03*
D18*
X255587500Y-165100000D03*
D17*
X252432501Y-161830000D03*
D19*
X251777500Y-162560000D02*
X253087502Y-161100000D01*
D17*
X258127500Y-160020000D03*
X258107500Y-160310000D03*
D19*
X258087500Y-160600000D02*
X258127500Y-160020000D01*
D16*
X120173750Y-165100000D03*
X110013750Y-165100000D03*
D17*
X112593750Y-161100000D03*
D18*
X115093750Y-165100000D03*
D17*
X111938751Y-161830000D03*
D19*
X111283750Y-162560000D02*
X112593752Y-161100000D01*
D17*
X117633750Y-160020000D03*
X117613750Y-160310000D03*
D19*
X117593750Y-160600000D02*
X117633750Y-160020000D01*
D16*
X96361250Y-165100000D03*
X86201250Y-165100000D03*
D17*
X88781250Y-161100000D03*
D18*
X91281250Y-165100000D03*
D17*
X88126251Y-161830000D03*
D19*
X87471250Y-162560000D02*
X88781252Y-161100000D01*
D17*
X93821250Y-160020000D03*
X93801250Y-160310000D03*
D19*
X93781250Y-160600000D02*
X93821250Y-160020000D01*
D16*
X72548750Y-165100000D03*
X62388750Y-165100000D03*
D17*
X64968750Y-161100000D03*
D18*
X67468750Y-165100000D03*
D17*
X64313751Y-161830000D03*
D19*
X63658750Y-162560000D02*
X64968752Y-161100000D01*
D17*
X70008750Y-160020000D03*
X69988750Y-160310000D03*
D19*
X69968750Y-160600000D02*
X70008750Y-160020000D01*
D16*
X336867500Y-146050000D03*
X326707500Y-146050000D03*
D17*
X329287500Y-142050000D03*
D18*
X331787500Y-146050000D03*
D17*
X328632501Y-142780000D03*
D19*
X327977500Y-143510000D02*
X329287502Y-142050000D01*
D17*
X334327500Y-140970000D03*
X334307500Y-141260000D03*
D19*
X334287500Y-141550000D02*
X334327500Y-140970000D01*
D16*
X317817500Y-146050000D03*
X307657500Y-146050000D03*
D17*
X310237500Y-142050000D03*
D18*
X312737500Y-146050000D03*
D17*
X309582501Y-142780000D03*
D19*
X308927500Y-143510000D02*
X310237502Y-142050000D01*
D17*
X315277500Y-140970000D03*
X315257500Y-141260000D03*
D19*
X315237500Y-141550000D02*
X315277500Y-140970000D01*
D16*
X298767500Y-146050000D03*
X288607500Y-146050000D03*
D17*
X291187500Y-142050000D03*
D18*
X293687500Y-146050000D03*
D17*
X290532501Y-142780000D03*
D19*
X289877500Y-143510000D02*
X291187502Y-142050000D01*
D17*
X296227500Y-140970000D03*
X296207500Y-141260000D03*
D19*
X296187500Y-141550000D02*
X296227500Y-140970000D01*
D16*
X279717500Y-146050000D03*
X269557500Y-146050000D03*
D17*
X272137500Y-142050000D03*
D18*
X274637500Y-146050000D03*
D17*
X271482501Y-142780000D03*
D19*
X270827500Y-143510000D02*
X272137502Y-142050000D01*
D17*
X277177500Y-140970000D03*
X277157500Y-141260000D03*
D19*
X277137500Y-141550000D02*
X277177500Y-140970000D01*
D16*
X260667500Y-146050000D03*
X250507500Y-146050000D03*
D17*
X253087500Y-142050000D03*
D18*
X255587500Y-146050000D03*
D17*
X252432501Y-142780000D03*
D19*
X251777500Y-143510000D02*
X253087502Y-142050000D01*
D17*
X258127500Y-140970000D03*
X258107500Y-141260000D03*
D19*
X258087500Y-141550000D02*
X258127500Y-140970000D01*
D16*
X241617500Y-146050000D03*
X231457500Y-146050000D03*
D17*
X234037500Y-142050000D03*
D18*
X236537500Y-146050000D03*
D17*
X233382501Y-142780000D03*
D19*
X232727500Y-143510000D02*
X234037502Y-142050000D01*
D17*
X239077500Y-140970000D03*
X239057500Y-141260000D03*
D19*
X239037500Y-141550000D02*
X239077500Y-140970000D01*
D16*
X222567500Y-146050000D03*
X212407500Y-146050000D03*
D17*
X214987500Y-142050000D03*
D18*
X217487500Y-146050000D03*
D17*
X214332501Y-142780000D03*
D19*
X213677500Y-143510000D02*
X214987502Y-142050000D01*
D17*
X220027500Y-140970000D03*
X220007500Y-141260000D03*
D19*
X219987500Y-141550000D02*
X220027500Y-140970000D01*
D16*
X203517500Y-146050000D03*
X193357500Y-146050000D03*
D17*
X195937500Y-142050000D03*
D18*
X198437500Y-146050000D03*
D17*
X195282501Y-142780000D03*
D19*
X194627500Y-143510000D02*
X195937502Y-142050000D01*
D17*
X200977500Y-140970000D03*
X200957500Y-141260000D03*
D19*
X200937500Y-141550000D02*
X200977500Y-140970000D01*
D16*
X184467500Y-146050000D03*
X174307500Y-146050000D03*
D17*
X176887500Y-142050000D03*
D18*
X179387500Y-146050000D03*
D17*
X176232501Y-142780000D03*
D19*
X175577500Y-143510000D02*
X176887502Y-142050000D01*
D17*
X181927500Y-140970000D03*
X181907500Y-141260000D03*
D19*
X181887500Y-141550000D02*
X181927500Y-140970000D01*
D16*
X165417500Y-146050000D03*
X155257500Y-146050000D03*
D17*
X157837500Y-142050000D03*
D18*
X160337500Y-146050000D03*
D17*
X157182501Y-142780000D03*
D19*
X156527500Y-143510000D02*
X157837502Y-142050000D01*
D17*
X162877500Y-140970000D03*
X162857500Y-141260000D03*
D19*
X162837500Y-141550000D02*
X162877500Y-140970000D01*
D16*
X146367500Y-146050000D03*
X136207500Y-146050000D03*
D17*
X138787500Y-142050000D03*
D18*
X141287500Y-146050000D03*
D17*
X138132501Y-142780000D03*
D19*
X137477500Y-143510000D02*
X138787502Y-142050000D01*
D17*
X143827500Y-140970000D03*
X143807500Y-141260000D03*
D19*
X143787500Y-141550000D02*
X143827500Y-140970000D01*
D16*
X127317500Y-146050000D03*
X117157500Y-146050000D03*
D17*
X119737500Y-142050000D03*
D18*
X122237500Y-146050000D03*
D17*
X119082501Y-142780000D03*
D19*
X118427500Y-143510000D02*
X119737502Y-142050000D01*
D17*
X124777500Y-140970000D03*
X124757500Y-141260000D03*
D19*
X124737500Y-141550000D02*
X124777500Y-140970000D01*
D16*
X108267500Y-146050000D03*
X98107500Y-146050000D03*
D17*
X100687500Y-142050000D03*
D18*
X103187500Y-146050000D03*
D17*
X100032501Y-142780000D03*
D19*
X99377500Y-143510000D02*
X100687502Y-142050000D01*
D17*
X105727500Y-140970000D03*
X105707500Y-141260000D03*
D19*
X105687500Y-141550000D02*
X105727500Y-140970000D01*
D18*
X86550500Y-154305000D03*
X62674500Y-154305000D03*
D20*
X86550500Y-139065000D03*
X62674500Y-139065000D03*
D16*
X79692500Y-146050000D03*
X69532500Y-146050000D03*
D17*
X72112500Y-142050000D03*
D18*
X74612500Y-146050000D03*
D17*
X71457501Y-142780000D03*
D19*
X70802500Y-143510000D02*
X72112502Y-142050000D01*
D17*
X77152500Y-140970000D03*
X77132500Y-141260000D03*
D19*
X77112500Y-141550000D02*
X77152500Y-140970000D01*
D18*
X331819250Y-135255000D03*
X307943250Y-135255000D03*
D20*
X331819250Y-120015000D03*
X307943250Y-120015000D03*
D16*
X324961250Y-127000000D03*
X314801250Y-127000000D03*
D17*
X317381250Y-123000000D03*
D18*
X319881250Y-127000000D03*
D17*
X316726251Y-123730000D03*
D19*
X316071250Y-124460000D02*
X317381252Y-123000000D01*
D17*
X322421250Y-121920000D03*
X322401250Y-122210000D03*
D19*
X322381250Y-122500000D02*
X322421250Y-121920000D01*
D16*
X294005000Y-127000000D03*
X283845000Y-127000000D03*
D17*
X286425000Y-123000000D03*
D18*
X288925000Y-127000000D03*
D17*
X285770001Y-123730000D03*
D19*
X285115000Y-124460000D02*
X286425002Y-123000000D01*
D17*
X291465000Y-121920000D03*
X291445000Y-122210000D03*
D19*
X291425000Y-122500000D02*
X291465000Y-121920000D01*
D16*
X274955000Y-127000000D03*
X264795000Y-127000000D03*
D17*
X267375000Y-123000000D03*
D18*
X269875000Y-127000000D03*
D17*
X266720001Y-123730000D03*
D19*
X266065000Y-124460000D02*
X267375002Y-123000000D01*
D17*
X272415000Y-121920000D03*
X272395000Y-122210000D03*
D19*
X272375000Y-122500000D02*
X272415000Y-121920000D01*
D16*
X255905000Y-127000000D03*
X245745000Y-127000000D03*
D17*
X248325000Y-123000000D03*
D18*
X250825000Y-127000000D03*
D17*
X247670001Y-123730000D03*
D19*
X247015000Y-124460000D02*
X248325002Y-123000000D01*
D17*
X253365000Y-121920000D03*
X253345000Y-122210000D03*
D19*
X253325000Y-122500000D02*
X253365000Y-121920000D01*
D16*
X236855000Y-127000000D03*
X226695000Y-127000000D03*
D17*
X229275000Y-123000000D03*
D18*
X231775000Y-127000000D03*
D17*
X228620001Y-123730000D03*
D19*
X227965000Y-124460000D02*
X229275002Y-123000000D01*
D17*
X234315000Y-121920000D03*
X234295000Y-122210000D03*
D19*
X234275000Y-122500000D02*
X234315000Y-121920000D01*
D16*
X217805000Y-127000000D03*
X207645000Y-127000000D03*
D17*
X210225000Y-123000000D03*
D18*
X212725000Y-127000000D03*
D17*
X209570001Y-123730000D03*
D19*
X208915000Y-124460000D02*
X210225002Y-123000000D01*
D17*
X215265000Y-121920000D03*
X215245000Y-122210000D03*
D19*
X215225000Y-122500000D02*
X215265000Y-121920000D01*
D16*
X198755000Y-127000000D03*
X188595000Y-127000000D03*
D17*
X191175000Y-123000000D03*
D18*
X193675000Y-127000000D03*
D17*
X190520001Y-123730000D03*
D19*
X189865000Y-124460000D02*
X191175002Y-123000000D01*
D17*
X196215000Y-121920000D03*
X196195000Y-122210000D03*
D19*
X196175000Y-122500000D02*
X196215000Y-121920000D01*
D16*
X179705000Y-127000000D03*
X169545000Y-127000000D03*
D17*
X172125000Y-123000000D03*
D18*
X174625000Y-127000000D03*
D17*
X171470001Y-123730000D03*
D19*
X170815000Y-124460000D02*
X172125002Y-123000000D01*
D17*
X177165000Y-121920000D03*
X177145000Y-122210000D03*
D19*
X177125000Y-122500000D02*
X177165000Y-121920000D01*
D16*
X160655000Y-127000000D03*
X150495000Y-127000000D03*
D17*
X153075000Y-123000000D03*
D18*
X155575000Y-127000000D03*
D17*
X152420001Y-123730000D03*
D19*
X151765000Y-124460000D02*
X153075002Y-123000000D01*
D17*
X158115000Y-121920000D03*
X158095000Y-122210000D03*
D19*
X158075000Y-122500000D02*
X158115000Y-121920000D01*
D16*
X141605000Y-127000000D03*
X131445000Y-127000000D03*
D17*
X134025000Y-123000000D03*
D18*
X136525000Y-127000000D03*
D17*
X133370001Y-123730000D03*
D19*
X132715000Y-124460000D02*
X134025002Y-123000000D01*
D17*
X139065000Y-121920000D03*
X139045000Y-122210000D03*
D19*
X139025000Y-122500000D02*
X139065000Y-121920000D01*
D16*
X122555000Y-127000000D03*
X112395000Y-127000000D03*
D17*
X114975000Y-123000000D03*
D18*
X117475000Y-127000000D03*
D17*
X114320001Y-123730000D03*
D19*
X113665000Y-124460000D02*
X114975002Y-123000000D01*
D17*
X120015000Y-121920000D03*
X119995000Y-122210000D03*
D19*
X119975000Y-122500000D02*
X120015000Y-121920000D01*
D16*
X103505000Y-127000000D03*
X93345000Y-127000000D03*
D17*
X95925000Y-123000000D03*
D18*
X98425000Y-127000000D03*
D17*
X95270001Y-123730000D03*
D19*
X94615000Y-124460000D02*
X95925002Y-123000000D01*
D17*
X100965000Y-121920000D03*
X100945000Y-122210000D03*
D19*
X100925000Y-122500000D02*
X100965000Y-121920000D01*
D16*
X77311250Y-127000000D03*
X67151250Y-127000000D03*
D17*
X69731250Y-123000000D03*
D18*
X72231250Y-127000000D03*
D17*
X69076251Y-123730000D03*
D19*
X68421250Y-124460000D02*
X69731252Y-123000000D01*
D17*
X74771250Y-121920000D03*
X74751250Y-122210000D03*
D19*
X74731250Y-122500000D02*
X74771250Y-121920000D01*
D16*
X332105000Y-107950000D03*
X321945000Y-107950000D03*
D17*
X324525000Y-103950000D03*
D18*
X327025000Y-107950000D03*
D17*
X323870001Y-104680000D03*
D19*
X323215000Y-105410000D02*
X324525002Y-103950000D01*
D17*
X329565000Y-102870000D03*
X329545000Y-103160000D03*
D19*
X329525000Y-103450000D02*
X329565000Y-102870000D01*
D16*
X308292500Y-107950000D03*
X298132500Y-107950000D03*
D17*
X300712500Y-103950000D03*
D18*
X303212500Y-107950000D03*
D17*
X300057501Y-104680000D03*
D19*
X299402500Y-105410000D02*
X300712502Y-103950000D01*
D17*
X305752500Y-102870000D03*
X305732500Y-103160000D03*
D19*
X305712500Y-103450000D02*
X305752500Y-102870000D01*
D16*
X289242500Y-107950000D03*
X279082500Y-107950000D03*
D17*
X281662500Y-103950000D03*
D18*
X284162500Y-107950000D03*
D17*
X281007501Y-104680000D03*
D19*
X280352500Y-105410000D02*
X281662502Y-103950000D01*
D17*
X286702500Y-102870000D03*
X286682500Y-103160000D03*
D19*
X286662500Y-103450000D02*
X286702500Y-102870000D01*
D16*
X270192500Y-107950000D03*
X260032500Y-107950000D03*
D17*
X262612500Y-103950000D03*
D18*
X265112500Y-107950000D03*
D17*
X261957501Y-104680000D03*
D19*
X261302500Y-105410000D02*
X262612502Y-103950000D01*
D17*
X267652500Y-102870000D03*
X267632500Y-103160000D03*
D19*
X267612500Y-103450000D02*
X267652500Y-102870000D01*
D16*
X251142500Y-107950000D03*
X240982500Y-107950000D03*
D17*
X243562500Y-103950000D03*
D18*
X246062500Y-107950000D03*
D17*
X242907501Y-104680000D03*
D19*
X242252500Y-105410000D02*
X243562502Y-103950000D01*
D17*
X248602500Y-102870000D03*
X248582500Y-103160000D03*
D19*
X248562500Y-103450000D02*
X248602500Y-102870000D01*
D16*
X232092500Y-107950000D03*
X221932500Y-107950000D03*
D17*
X224512500Y-103950000D03*
D18*
X227012500Y-107950000D03*
D17*
X223857501Y-104680000D03*
D19*
X223202500Y-105410000D02*
X224512502Y-103950000D01*
D17*
X229552500Y-102870000D03*
X229532500Y-103160000D03*
D19*
X229512500Y-103450000D02*
X229552500Y-102870000D01*
D16*
X213042500Y-107950000D03*
X202882500Y-107950000D03*
D17*
X205462500Y-103950000D03*
D18*
X207962500Y-107950000D03*
D17*
X204807501Y-104680000D03*
D19*
X204152500Y-105410000D02*
X205462502Y-103950000D01*
D17*
X210502500Y-102870000D03*
X210482500Y-103160000D03*
D19*
X210462500Y-103450000D02*
X210502500Y-102870000D01*
D16*
X193992500Y-107950000D03*
X183832500Y-107950000D03*
D17*
X186412500Y-103950000D03*
D18*
X188912500Y-107950000D03*
D17*
X185757501Y-104680000D03*
D19*
X185102500Y-105410000D02*
X186412502Y-103950000D01*
D17*
X191452500Y-102870000D03*
X191432500Y-103160000D03*
D19*
X191412500Y-103450000D02*
X191452500Y-102870000D01*
D16*
X174942500Y-107950000D03*
X164782500Y-107950000D03*
D17*
X167362500Y-103950000D03*
D18*
X169862500Y-107950000D03*
D17*
X166707501Y-104680000D03*
D19*
X166052500Y-105410000D02*
X167362502Y-103950000D01*
D17*
X172402500Y-102870000D03*
X172382500Y-103160000D03*
D19*
X172362500Y-103450000D02*
X172402500Y-102870000D01*
D16*
X155892500Y-107950000D03*
X145732500Y-107950000D03*
D17*
X148312500Y-103950000D03*
D18*
X150812500Y-107950000D03*
D17*
X147657501Y-104680000D03*
D19*
X147002500Y-105410000D02*
X148312502Y-103950000D01*
D17*
X153352500Y-102870000D03*
X153332500Y-103160000D03*
D19*
X153312500Y-103450000D02*
X153352500Y-102870000D01*
D16*
X136842500Y-107950000D03*
X126682500Y-107950000D03*
D17*
X129262500Y-103950000D03*
D18*
X131762500Y-107950000D03*
D17*
X128607501Y-104680000D03*
D19*
X127952500Y-105410000D02*
X129262502Y-103950000D01*
D17*
X134302500Y-102870000D03*
X134282500Y-103160000D03*
D19*
X134262500Y-103450000D02*
X134302500Y-102870000D01*
D16*
X117792500Y-107950000D03*
X107632500Y-107950000D03*
D17*
X110212500Y-103950000D03*
D18*
X112712500Y-107950000D03*
D17*
X109557501Y-104680000D03*
D19*
X108902500Y-105410000D02*
X110212502Y-103950000D01*
D17*
X115252500Y-102870000D03*
X115232500Y-103160000D03*
D19*
X115212500Y-103450000D02*
X115252500Y-102870000D01*
D16*
X98742500Y-107950000D03*
X88582500Y-107950000D03*
D17*
X91162500Y-103950000D03*
D18*
X93662500Y-107950000D03*
D17*
X90507501Y-104680000D03*
D19*
X89852500Y-105410000D02*
X91162502Y-103950000D01*
D17*
X96202500Y-102870000D03*
X96182500Y-103160000D03*
D19*
X96162500Y-103450000D02*
X96202500Y-102870000D01*
D16*
X74930000Y-107950000D03*
X64770000Y-107950000D03*
D17*
X67350000Y-103950000D03*
D18*
X69850000Y-107950000D03*
D17*
X66695001Y-104680000D03*
D19*
X66040000Y-105410000D02*
X67350002Y-103950000D01*
D17*
X72390000Y-102870000D03*
X72370000Y-103160000D03*
D19*
X72350000Y-103450000D02*
X72390000Y-102870000D01*
D18*
X334200500Y-97155000D03*
X310324500Y-97155000D03*
D20*
X334200500Y-81915000D03*
X310324500Y-81915000D03*
D16*
X327342500Y-88900000D03*
X317182500Y-88900000D03*
D17*
X319762500Y-84900000D03*
D18*
X322262500Y-88900000D03*
D17*
X319107501Y-85630000D03*
D19*
X318452500Y-86360000D02*
X319762502Y-84900000D01*
D17*
X324802500Y-83820000D03*
X324782500Y-84110000D03*
D19*
X324762500Y-84400000D02*
X324802500Y-83820000D01*
D16*
X298767500Y-88900000D03*
X288607500Y-88900000D03*
D17*
X291187500Y-84900000D03*
D18*
X293687500Y-88900000D03*
D17*
X290532501Y-85630000D03*
D19*
X289877500Y-86360000D02*
X291187502Y-84900000D01*
D17*
X296227500Y-83820000D03*
X296207500Y-84110000D03*
D19*
X296187500Y-84400000D02*
X296227500Y-83820000D01*
D16*
X260667500Y-88900000D03*
X250507500Y-88900000D03*
D17*
X253087500Y-84900000D03*
D18*
X255587500Y-88900000D03*
D17*
X252432501Y-85630000D03*
D19*
X251777500Y-86360000D02*
X253087502Y-84900000D01*
D17*
X258127500Y-83820000D03*
X258107500Y-84110000D03*
D19*
X258087500Y-84400000D02*
X258127500Y-83820000D01*
D16*
X241617500Y-88900000D03*
X231457500Y-88900000D03*
D17*
X234037500Y-84900000D03*
D18*
X236537500Y-88900000D03*
D17*
X233382501Y-85630000D03*
D19*
X232727500Y-86360000D02*
X234037502Y-84900000D01*
D17*
X239077500Y-83820000D03*
X239057500Y-84110000D03*
D19*
X239037500Y-84400000D02*
X239077500Y-83820000D01*
D16*
X222567500Y-88900000D03*
X212407500Y-88900000D03*
D17*
X214987500Y-84900000D03*
D18*
X217487500Y-88900000D03*
D17*
X214332501Y-85630000D03*
D19*
X213677500Y-86360000D02*
X214987502Y-84900000D01*
D17*
X220027500Y-83820000D03*
X220007500Y-84110000D03*
D19*
X219987500Y-84400000D02*
X220027500Y-83820000D01*
D16*
X203517500Y-88900000D03*
X193357500Y-88900000D03*
D17*
X195937500Y-84900000D03*
D18*
X198437500Y-88900000D03*
D17*
X195282501Y-85630000D03*
D19*
X194627500Y-86360000D02*
X195937502Y-84900000D01*
D17*
X200977500Y-83820000D03*
X200957500Y-84110000D03*
D19*
X200937500Y-84400000D02*
X200977500Y-83820000D01*
D16*
X184467500Y-88900000D03*
X174307500Y-88900000D03*
D17*
X176887500Y-84900000D03*
D18*
X179387500Y-88900000D03*
D17*
X176232501Y-85630000D03*
D19*
X175577500Y-86360000D02*
X176887502Y-84900000D01*
D17*
X181927500Y-83820000D03*
X181907500Y-84110000D03*
D19*
X181887500Y-84400000D02*
X181927500Y-83820000D01*
D16*
X165417500Y-88900000D03*
X155257500Y-88900000D03*
D17*
X157837500Y-84900000D03*
D18*
X160337500Y-88900000D03*
D17*
X157182501Y-85630000D03*
D19*
X156527500Y-86360000D02*
X157837502Y-84900000D01*
D17*
X162877500Y-83820000D03*
X162857500Y-84110000D03*
D19*
X162837500Y-84400000D02*
X162877500Y-83820000D01*
D16*
X146367500Y-88900000D03*
X136207500Y-88900000D03*
D17*
X138787500Y-84900000D03*
D18*
X141287500Y-88900000D03*
D17*
X138132501Y-85630000D03*
D19*
X137477500Y-86360000D02*
X138787502Y-84900000D01*
D17*
X143827500Y-83820000D03*
X143807500Y-84110000D03*
D19*
X143787500Y-84400000D02*
X143827500Y-83820000D01*
D16*
X127317500Y-88900000D03*
X117157500Y-88900000D03*
D17*
X119737500Y-84900000D03*
D18*
X122237500Y-88900000D03*
D17*
X119082501Y-85630000D03*
D19*
X118427500Y-86360000D02*
X119737502Y-84900000D01*
D17*
X124777500Y-83820000D03*
X124757500Y-84110000D03*
D19*
X124737500Y-84400000D02*
X124777500Y-83820000D01*
D16*
X108267500Y-88900000D03*
X98107500Y-88900000D03*
D17*
X100687500Y-84900000D03*
D18*
X103187500Y-88900000D03*
D17*
X100032501Y-85630000D03*
D19*
X99377500Y-86360000D02*
X100687502Y-84900000D01*
D17*
X105727500Y-83820000D03*
X105707500Y-84110000D03*
D19*
X105687500Y-84400000D02*
X105727500Y-83820000D01*
D16*
X70167500Y-88900000D03*
X60007500Y-88900000D03*
D17*
X62587500Y-84900000D03*
D18*
X65087500Y-88900000D03*
D17*
X61932501Y-85630000D03*
D19*
X61277500Y-86360000D02*
X62587502Y-84900000D01*
D17*
X67627500Y-83820000D03*
X67607500Y-84110000D03*
D19*
X67587500Y-84400000D02*
X67627500Y-83820000D01*
D13*
G36*
X86407104Y-131275302D02*
G01*
X86433352Y-131279196D01*
X86459093Y-131285643D01*
X86484078Y-131294583D01*
X86508066Y-131305928D01*
X86530826Y-131319571D01*
X86552140Y-131335378D01*
X86571802Y-131353198D01*
X86589622Y-131372860D01*
X86605429Y-131394174D01*
X86619072Y-131416934D01*
X86630417Y-131440922D01*
X86639357Y-131465907D01*
X86645804Y-131491648D01*
X86649698Y-131517896D01*
X86651000Y-131544400D01*
X86651000Y-132355600D01*
X86649698Y-132382104D01*
X86645804Y-132408352D01*
X86639357Y-132434093D01*
X86630417Y-132459078D01*
X86619072Y-132483066D01*
X86605429Y-132505826D01*
X86589622Y-132527140D01*
X86571802Y-132546802D01*
X86552140Y-132564622D01*
X86530826Y-132580429D01*
X86508066Y-132594072D01*
X86484078Y-132605417D01*
X86459093Y-132614357D01*
X86433352Y-132620804D01*
X86407104Y-132624698D01*
X86380600Y-132626000D01*
X85069400Y-132626000D01*
X85042896Y-132624698D01*
X85016648Y-132620804D01*
X84990907Y-132614357D01*
X84965922Y-132605417D01*
X84941934Y-132594072D01*
X84919174Y-132580429D01*
X84897860Y-132564622D01*
X84878198Y-132546802D01*
X84860378Y-132527140D01*
X84844571Y-132505826D01*
X84830928Y-132483066D01*
X84819583Y-132459078D01*
X84810643Y-132434093D01*
X84804196Y-132408352D01*
X84800302Y-132382104D01*
X84799000Y-132355600D01*
X84799000Y-131544400D01*
X84800302Y-131517896D01*
X84804196Y-131491648D01*
X84810643Y-131465907D01*
X84819583Y-131440922D01*
X84830928Y-131416934D01*
X84844571Y-131394174D01*
X84860378Y-131372860D01*
X84878198Y-131353198D01*
X84897860Y-131335378D01*
X84919174Y-131319571D01*
X84941934Y-131305928D01*
X84965922Y-131294583D01*
X84990907Y-131285643D01*
X85016648Y-131279196D01*
X85042896Y-131275302D01*
X85069400Y-131274000D01*
X86380600Y-131274000D01*
X86407104Y-131275302D01*
X86407104Y-131275302D01*
G37*
D26*
X85725000Y-131950000D03*
D13*
G36*
X86407104Y-134075302D02*
G01*
X86433352Y-134079196D01*
X86459093Y-134085643D01*
X86484078Y-134094583D01*
X86508066Y-134105928D01*
X86530826Y-134119571D01*
X86552140Y-134135378D01*
X86571802Y-134153198D01*
X86589622Y-134172860D01*
X86605429Y-134194174D01*
X86619072Y-134216934D01*
X86630417Y-134240922D01*
X86639357Y-134265907D01*
X86645804Y-134291648D01*
X86649698Y-134317896D01*
X86651000Y-134344400D01*
X86651000Y-135155600D01*
X86649698Y-135182104D01*
X86645804Y-135208352D01*
X86639357Y-135234093D01*
X86630417Y-135259078D01*
X86619072Y-135283066D01*
X86605429Y-135305826D01*
X86589622Y-135327140D01*
X86571802Y-135346802D01*
X86552140Y-135364622D01*
X86530826Y-135380429D01*
X86508066Y-135394072D01*
X86484078Y-135405417D01*
X86459093Y-135414357D01*
X86433352Y-135420804D01*
X86407104Y-135424698D01*
X86380600Y-135426000D01*
X85069400Y-135426000D01*
X85042896Y-135424698D01*
X85016648Y-135420804D01*
X84990907Y-135414357D01*
X84965922Y-135405417D01*
X84941934Y-135394072D01*
X84919174Y-135380429D01*
X84897860Y-135364622D01*
X84878198Y-135346802D01*
X84860378Y-135327140D01*
X84844571Y-135305826D01*
X84830928Y-135283066D01*
X84819583Y-135259078D01*
X84810643Y-135234093D01*
X84804196Y-135208352D01*
X84800302Y-135182104D01*
X84799000Y-135155600D01*
X84799000Y-134344400D01*
X84800302Y-134317896D01*
X84804196Y-134291648D01*
X84810643Y-134265907D01*
X84819583Y-134240922D01*
X84830928Y-134216934D01*
X84844571Y-134194174D01*
X84860378Y-134172860D01*
X84878198Y-134153198D01*
X84897860Y-134135378D01*
X84919174Y-134119571D01*
X84941934Y-134105928D01*
X84965922Y-134094583D01*
X84990907Y-134085643D01*
X85016648Y-134079196D01*
X85042896Y-134075302D01*
X85069400Y-134074000D01*
X86380600Y-134074000D01*
X86407104Y-134075302D01*
X86407104Y-134075302D01*
G37*
D26*
X85725000Y-134750000D03*
D27*
X339725000Y-163450000D03*
X339725000Y-166750000D03*
X320675000Y-163450000D03*
X320675000Y-166750000D03*
X301625000Y-163450000D03*
X301625000Y-166750000D03*
X282575000Y-163450000D03*
X282575000Y-166750000D03*
X263525000Y-163450000D03*
X263525000Y-166750000D03*
X198437500Y-163450000D03*
X198437500Y-166750000D03*
X123825000Y-163450000D03*
X123825000Y-166750000D03*
X100012500Y-163450000D03*
X100012500Y-166750000D03*
X76200000Y-163450000D03*
X76200000Y-166750000D03*
X339725000Y-144400000D03*
X339725000Y-147700000D03*
X320675000Y-144400000D03*
X320675000Y-147700000D03*
X301625000Y-144400000D03*
X301625000Y-147700000D03*
X282575000Y-144400000D03*
X282575000Y-147700000D03*
X263525000Y-144400000D03*
X263525000Y-147700000D03*
X244475000Y-144400000D03*
X244475000Y-147700000D03*
X225425000Y-144400000D03*
X225425000Y-147700000D03*
X206375000Y-144400000D03*
X206375000Y-147700000D03*
X187325000Y-144400000D03*
X187325000Y-147700000D03*
X168275000Y-144400000D03*
X168275000Y-147700000D03*
X149225000Y-144400000D03*
X149225000Y-147700000D03*
X130175000Y-144400000D03*
X130175000Y-147700000D03*
X111125000Y-144400000D03*
X111125000Y-147700000D03*
X86518750Y-144400000D03*
X86518750Y-147700000D03*
X329406250Y-125350000D03*
X329406250Y-128650000D03*
X296862500Y-125350000D03*
X296862500Y-128650000D03*
X277812500Y-125350000D03*
X277812500Y-128650000D03*
X258762500Y-125350000D03*
X258762500Y-128650000D03*
X239712500Y-125350000D03*
X239712500Y-128650000D03*
X220662500Y-125350000D03*
X220662500Y-128650000D03*
X201612500Y-125350000D03*
X201612500Y-128650000D03*
X182562500Y-125350000D03*
X182562500Y-128650000D03*
X163512500Y-125350000D03*
X163512500Y-128650000D03*
X144462500Y-125350000D03*
X144462500Y-128650000D03*
X125412500Y-125350000D03*
X125412500Y-128650000D03*
X106362500Y-125350000D03*
X106362500Y-128650000D03*
X81756250Y-125350000D03*
X81756250Y-128650000D03*
X336550000Y-106237500D03*
X336550000Y-109537500D03*
X311150000Y-106300000D03*
X311150000Y-109600000D03*
X292100000Y-106300000D03*
X292100000Y-109600000D03*
X273050000Y-106300000D03*
X273050000Y-109600000D03*
X254000000Y-106300000D03*
X254000000Y-109600000D03*
X234950000Y-106300000D03*
X234950000Y-109600000D03*
X215900000Y-106300000D03*
X215900000Y-109600000D03*
X196850000Y-106300000D03*
X196850000Y-109600000D03*
X177800000Y-106300000D03*
X177800000Y-109600000D03*
X158750000Y-106300000D03*
X158750000Y-109600000D03*
X139700000Y-106300000D03*
X139700000Y-109600000D03*
X120650000Y-106300000D03*
X120650000Y-109600000D03*
X101600000Y-106300000D03*
X101600000Y-109600000D03*
X80168750Y-106300000D03*
X80168750Y-109600000D03*
X330993750Y-87250000D03*
X330993750Y-90550000D03*
X301625000Y-87250000D03*
X301625000Y-90550000D03*
X282575000Y-87250000D03*
X282575000Y-90550000D03*
X263525000Y-87250000D03*
X263525000Y-90550000D03*
X244475000Y-87250000D03*
X244475000Y-90550000D03*
X225425000Y-87250000D03*
X225425000Y-90550000D03*
X206375000Y-87250000D03*
X206375000Y-90550000D03*
X187325000Y-87250000D03*
X187325000Y-90550000D03*
X168275000Y-87250000D03*
X168275000Y-90550000D03*
X149225000Y-87250000D03*
X149225000Y-90550000D03*
X130175000Y-87250000D03*
X130175000Y-90550000D03*
X111125000Y-87250000D03*
X111125000Y-90550000D03*
X92075000Y-87250000D03*
X92075000Y-90550000D03*
X73025000Y-87250000D03*
X73025000Y-90550000D03*
D13*
G36*
X149733141Y-169469047D02*
G01*
X149759278Y-169472924D01*
X149784909Y-169479344D01*
X149809788Y-169488245D01*
X149833674Y-169499543D01*
X149856337Y-169513127D01*
X149877560Y-169528867D01*
X149897139Y-169546611D01*
X149914883Y-169566190D01*
X149930623Y-169587413D01*
X149944207Y-169610076D01*
X149955505Y-169633962D01*
X149964406Y-169658841D01*
X149970826Y-169684472D01*
X149974703Y-169710609D01*
X149976000Y-169737000D01*
X149976000Y-170275500D01*
X149974703Y-170301891D01*
X149970826Y-170328028D01*
X149964406Y-170353659D01*
X149955505Y-170378538D01*
X149944207Y-170402424D01*
X149930623Y-170425087D01*
X149914883Y-170446310D01*
X149897139Y-170465889D01*
X149877560Y-170483633D01*
X149856337Y-170499373D01*
X149833674Y-170512957D01*
X149809788Y-170524255D01*
X149784909Y-170533156D01*
X149759278Y-170539576D01*
X149733141Y-170543453D01*
X149706750Y-170544750D01*
X148743250Y-170544750D01*
X148716859Y-170543453D01*
X148690722Y-170539576D01*
X148665091Y-170533156D01*
X148640212Y-170524255D01*
X148616326Y-170512957D01*
X148593663Y-170499373D01*
X148572440Y-170483633D01*
X148552861Y-170465889D01*
X148535117Y-170446310D01*
X148519377Y-170425087D01*
X148505793Y-170402424D01*
X148494495Y-170378538D01*
X148485594Y-170353659D01*
X148479174Y-170328028D01*
X148475297Y-170301891D01*
X148474000Y-170275500D01*
X148474000Y-169737000D01*
X148475297Y-169710609D01*
X148479174Y-169684472D01*
X148485594Y-169658841D01*
X148494495Y-169633962D01*
X148505793Y-169610076D01*
X148519377Y-169587413D01*
X148535117Y-169566190D01*
X148552861Y-169546611D01*
X148572440Y-169528867D01*
X148593663Y-169513127D01*
X148616326Y-169499543D01*
X148640212Y-169488245D01*
X148665091Y-169479344D01*
X148690722Y-169472924D01*
X148716859Y-169469047D01*
X148743250Y-169467750D01*
X149706750Y-169467750D01*
X149733141Y-169469047D01*
X149733141Y-169469047D01*
G37*
D25*
X149225000Y-170006250D03*
D13*
G36*
X149733141Y-167594047D02*
G01*
X149759278Y-167597924D01*
X149784909Y-167604344D01*
X149809788Y-167613245D01*
X149833674Y-167624543D01*
X149856337Y-167638127D01*
X149877560Y-167653867D01*
X149897139Y-167671611D01*
X149914883Y-167691190D01*
X149930623Y-167712413D01*
X149944207Y-167735076D01*
X149955505Y-167758962D01*
X149964406Y-167783841D01*
X149970826Y-167809472D01*
X149974703Y-167835609D01*
X149976000Y-167862000D01*
X149976000Y-168400500D01*
X149974703Y-168426891D01*
X149970826Y-168453028D01*
X149964406Y-168478659D01*
X149955505Y-168503538D01*
X149944207Y-168527424D01*
X149930623Y-168550087D01*
X149914883Y-168571310D01*
X149897139Y-168590889D01*
X149877560Y-168608633D01*
X149856337Y-168624373D01*
X149833674Y-168637957D01*
X149809788Y-168649255D01*
X149784909Y-168658156D01*
X149759278Y-168664576D01*
X149733141Y-168668453D01*
X149706750Y-168669750D01*
X148743250Y-168669750D01*
X148716859Y-168668453D01*
X148690722Y-168664576D01*
X148665091Y-168658156D01*
X148640212Y-168649255D01*
X148616326Y-168637957D01*
X148593663Y-168624373D01*
X148572440Y-168608633D01*
X148552861Y-168590889D01*
X148535117Y-168571310D01*
X148519377Y-168550087D01*
X148505793Y-168527424D01*
X148494495Y-168503538D01*
X148485594Y-168478659D01*
X148479174Y-168453028D01*
X148475297Y-168426891D01*
X148474000Y-168400500D01*
X148474000Y-167862000D01*
X148475297Y-167835609D01*
X148479174Y-167809472D01*
X148485594Y-167783841D01*
X148494495Y-167758962D01*
X148505793Y-167735076D01*
X148519377Y-167712413D01*
X148535117Y-167691190D01*
X148552861Y-167671611D01*
X148572440Y-167653867D01*
X148593663Y-167638127D01*
X148616326Y-167624543D01*
X148640212Y-167613245D01*
X148665091Y-167604344D01*
X148690722Y-167597924D01*
X148716859Y-167594047D01*
X148743250Y-167592750D01*
X149706750Y-167592750D01*
X149733141Y-167594047D01*
X149733141Y-167594047D01*
G37*
D25*
X149225000Y-168131250D03*
D13*
G36*
X167633141Y-169906547D02*
G01*
X167659278Y-169910424D01*
X167684909Y-169916844D01*
X167709788Y-169925745D01*
X167733674Y-169937043D01*
X167756337Y-169950627D01*
X167777560Y-169966367D01*
X167797139Y-169984111D01*
X167814883Y-170003690D01*
X167830623Y-170024913D01*
X167844207Y-170047576D01*
X167855505Y-170071462D01*
X167864406Y-170096341D01*
X167870826Y-170121972D01*
X167874703Y-170148109D01*
X167876000Y-170174500D01*
X167876000Y-171138000D01*
X167874703Y-171164391D01*
X167870826Y-171190528D01*
X167864406Y-171216159D01*
X167855505Y-171241038D01*
X167844207Y-171264924D01*
X167830623Y-171287587D01*
X167814883Y-171308810D01*
X167797139Y-171328389D01*
X167777560Y-171346133D01*
X167756337Y-171361873D01*
X167733674Y-171375457D01*
X167709788Y-171386755D01*
X167684909Y-171395656D01*
X167659278Y-171402076D01*
X167633141Y-171405953D01*
X167606750Y-171407250D01*
X167068250Y-171407250D01*
X167041859Y-171405953D01*
X167015722Y-171402076D01*
X166990091Y-171395656D01*
X166965212Y-171386755D01*
X166941326Y-171375457D01*
X166918663Y-171361873D01*
X166897440Y-171346133D01*
X166877861Y-171328389D01*
X166860117Y-171308810D01*
X166844377Y-171287587D01*
X166830793Y-171264924D01*
X166819495Y-171241038D01*
X166810594Y-171216159D01*
X166804174Y-171190528D01*
X166800297Y-171164391D01*
X166799000Y-171138000D01*
X166799000Y-170174500D01*
X166800297Y-170148109D01*
X166804174Y-170121972D01*
X166810594Y-170096341D01*
X166819495Y-170071462D01*
X166830793Y-170047576D01*
X166844377Y-170024913D01*
X166860117Y-170003690D01*
X166877861Y-169984111D01*
X166897440Y-169966367D01*
X166918663Y-169950627D01*
X166941326Y-169937043D01*
X166965212Y-169925745D01*
X166990091Y-169916844D01*
X167015722Y-169910424D01*
X167041859Y-169906547D01*
X167068250Y-169905250D01*
X167606750Y-169905250D01*
X167633141Y-169906547D01*
X167633141Y-169906547D01*
G37*
D25*
X167337500Y-170656250D03*
D13*
G36*
X169508141Y-169906547D02*
G01*
X169534278Y-169910424D01*
X169559909Y-169916844D01*
X169584788Y-169925745D01*
X169608674Y-169937043D01*
X169631337Y-169950627D01*
X169652560Y-169966367D01*
X169672139Y-169984111D01*
X169689883Y-170003690D01*
X169705623Y-170024913D01*
X169719207Y-170047576D01*
X169730505Y-170071462D01*
X169739406Y-170096341D01*
X169745826Y-170121972D01*
X169749703Y-170148109D01*
X169751000Y-170174500D01*
X169751000Y-171138000D01*
X169749703Y-171164391D01*
X169745826Y-171190528D01*
X169739406Y-171216159D01*
X169730505Y-171241038D01*
X169719207Y-171264924D01*
X169705623Y-171287587D01*
X169689883Y-171308810D01*
X169672139Y-171328389D01*
X169652560Y-171346133D01*
X169631337Y-171361873D01*
X169608674Y-171375457D01*
X169584788Y-171386755D01*
X169559909Y-171395656D01*
X169534278Y-171402076D01*
X169508141Y-171405953D01*
X169481750Y-171407250D01*
X168943250Y-171407250D01*
X168916859Y-171405953D01*
X168890722Y-171402076D01*
X168865091Y-171395656D01*
X168840212Y-171386755D01*
X168816326Y-171375457D01*
X168793663Y-171361873D01*
X168772440Y-171346133D01*
X168752861Y-171328389D01*
X168735117Y-171308810D01*
X168719377Y-171287587D01*
X168705793Y-171264924D01*
X168694495Y-171241038D01*
X168685594Y-171216159D01*
X168679174Y-171190528D01*
X168675297Y-171164391D01*
X168674000Y-171138000D01*
X168674000Y-170174500D01*
X168675297Y-170148109D01*
X168679174Y-170121972D01*
X168685594Y-170096341D01*
X168694495Y-170071462D01*
X168705793Y-170047576D01*
X168719377Y-170024913D01*
X168735117Y-170003690D01*
X168752861Y-169984111D01*
X168772440Y-169966367D01*
X168793663Y-169950627D01*
X168816326Y-169937043D01*
X168840212Y-169925745D01*
X168865091Y-169916844D01*
X168890722Y-169910424D01*
X168916859Y-169906547D01*
X168943250Y-169905250D01*
X169481750Y-169905250D01*
X169508141Y-169906547D01*
X169508141Y-169906547D01*
G37*
D25*
X169212500Y-170656250D03*
D13*
G36*
X168783141Y-158862797D02*
G01*
X168809278Y-158866674D01*
X168834909Y-158873094D01*
X168859788Y-158881995D01*
X168883674Y-158893293D01*
X168906337Y-158906877D01*
X168927560Y-158922617D01*
X168947139Y-158940361D01*
X168964883Y-158959940D01*
X168980623Y-158981163D01*
X168994207Y-159003826D01*
X169005505Y-159027712D01*
X169014406Y-159052591D01*
X169020826Y-159078222D01*
X169024703Y-159104359D01*
X169026000Y-159130750D01*
X169026000Y-159669250D01*
X169024703Y-159695641D01*
X169020826Y-159721778D01*
X169014406Y-159747409D01*
X169005505Y-159772288D01*
X168994207Y-159796174D01*
X168980623Y-159818837D01*
X168964883Y-159840060D01*
X168947139Y-159859639D01*
X168927560Y-159877383D01*
X168906337Y-159893123D01*
X168883674Y-159906707D01*
X168859788Y-159918005D01*
X168834909Y-159926906D01*
X168809278Y-159933326D01*
X168783141Y-159937203D01*
X168756750Y-159938500D01*
X167793250Y-159938500D01*
X167766859Y-159937203D01*
X167740722Y-159933326D01*
X167715091Y-159926906D01*
X167690212Y-159918005D01*
X167666326Y-159906707D01*
X167643663Y-159893123D01*
X167622440Y-159877383D01*
X167602861Y-159859639D01*
X167585117Y-159840060D01*
X167569377Y-159818837D01*
X167555793Y-159796174D01*
X167544495Y-159772288D01*
X167535594Y-159747409D01*
X167529174Y-159721778D01*
X167525297Y-159695641D01*
X167524000Y-159669250D01*
X167524000Y-159130750D01*
X167525297Y-159104359D01*
X167529174Y-159078222D01*
X167535594Y-159052591D01*
X167544495Y-159027712D01*
X167555793Y-159003826D01*
X167569377Y-158981163D01*
X167585117Y-158959940D01*
X167602861Y-158940361D01*
X167622440Y-158922617D01*
X167643663Y-158906877D01*
X167666326Y-158893293D01*
X167690212Y-158881995D01*
X167715091Y-158873094D01*
X167740722Y-158866674D01*
X167766859Y-158862797D01*
X167793250Y-158861500D01*
X168756750Y-158861500D01*
X168783141Y-158862797D01*
X168783141Y-158862797D01*
G37*
D25*
X168275000Y-159400000D03*
D13*
G36*
X168783141Y-160737797D02*
G01*
X168809278Y-160741674D01*
X168834909Y-160748094D01*
X168859788Y-160756995D01*
X168883674Y-160768293D01*
X168906337Y-160781877D01*
X168927560Y-160797617D01*
X168947139Y-160815361D01*
X168964883Y-160834940D01*
X168980623Y-160856163D01*
X168994207Y-160878826D01*
X169005505Y-160902712D01*
X169014406Y-160927591D01*
X169020826Y-160953222D01*
X169024703Y-160979359D01*
X169026000Y-161005750D01*
X169026000Y-161544250D01*
X169024703Y-161570641D01*
X169020826Y-161596778D01*
X169014406Y-161622409D01*
X169005505Y-161647288D01*
X168994207Y-161671174D01*
X168980623Y-161693837D01*
X168964883Y-161715060D01*
X168947139Y-161734639D01*
X168927560Y-161752383D01*
X168906337Y-161768123D01*
X168883674Y-161781707D01*
X168859788Y-161793005D01*
X168834909Y-161801906D01*
X168809278Y-161808326D01*
X168783141Y-161812203D01*
X168756750Y-161813500D01*
X167793250Y-161813500D01*
X167766859Y-161812203D01*
X167740722Y-161808326D01*
X167715091Y-161801906D01*
X167690212Y-161793005D01*
X167666326Y-161781707D01*
X167643663Y-161768123D01*
X167622440Y-161752383D01*
X167602861Y-161734639D01*
X167585117Y-161715060D01*
X167569377Y-161693837D01*
X167555793Y-161671174D01*
X167544495Y-161647288D01*
X167535594Y-161622409D01*
X167529174Y-161596778D01*
X167525297Y-161570641D01*
X167524000Y-161544250D01*
X167524000Y-161005750D01*
X167525297Y-160979359D01*
X167529174Y-160953222D01*
X167535594Y-160927591D01*
X167544495Y-160902712D01*
X167555793Y-160878826D01*
X167569377Y-160856163D01*
X167585117Y-160834940D01*
X167602861Y-160815361D01*
X167622440Y-160797617D01*
X167643663Y-160781877D01*
X167666326Y-160768293D01*
X167690212Y-160756995D01*
X167715091Y-160748094D01*
X167740722Y-160741674D01*
X167766859Y-160737797D01*
X167793250Y-160736500D01*
X168756750Y-160736500D01*
X168783141Y-160737797D01*
X168783141Y-160737797D01*
G37*
D25*
X168275000Y-161275000D03*
D13*
G36*
X149733141Y-158069047D02*
G01*
X149759278Y-158072924D01*
X149784909Y-158079344D01*
X149809788Y-158088245D01*
X149833674Y-158099543D01*
X149856337Y-158113127D01*
X149877560Y-158128867D01*
X149897139Y-158146611D01*
X149914883Y-158166190D01*
X149930623Y-158187413D01*
X149944207Y-158210076D01*
X149955505Y-158233962D01*
X149964406Y-158258841D01*
X149970826Y-158284472D01*
X149974703Y-158310609D01*
X149976000Y-158337000D01*
X149976000Y-158875500D01*
X149974703Y-158901891D01*
X149970826Y-158928028D01*
X149964406Y-158953659D01*
X149955505Y-158978538D01*
X149944207Y-159002424D01*
X149930623Y-159025087D01*
X149914883Y-159046310D01*
X149897139Y-159065889D01*
X149877560Y-159083633D01*
X149856337Y-159099373D01*
X149833674Y-159112957D01*
X149809788Y-159124255D01*
X149784909Y-159133156D01*
X149759278Y-159139576D01*
X149733141Y-159143453D01*
X149706750Y-159144750D01*
X148743250Y-159144750D01*
X148716859Y-159143453D01*
X148690722Y-159139576D01*
X148665091Y-159133156D01*
X148640212Y-159124255D01*
X148616326Y-159112957D01*
X148593663Y-159099373D01*
X148572440Y-159083633D01*
X148552861Y-159065889D01*
X148535117Y-159046310D01*
X148519377Y-159025087D01*
X148505793Y-159002424D01*
X148494495Y-158978538D01*
X148485594Y-158953659D01*
X148479174Y-158928028D01*
X148475297Y-158901891D01*
X148474000Y-158875500D01*
X148474000Y-158337000D01*
X148475297Y-158310609D01*
X148479174Y-158284472D01*
X148485594Y-158258841D01*
X148494495Y-158233962D01*
X148505793Y-158210076D01*
X148519377Y-158187413D01*
X148535117Y-158166190D01*
X148552861Y-158146611D01*
X148572440Y-158128867D01*
X148593663Y-158113127D01*
X148616326Y-158099543D01*
X148640212Y-158088245D01*
X148665091Y-158079344D01*
X148690722Y-158072924D01*
X148716859Y-158069047D01*
X148743250Y-158067750D01*
X149706750Y-158067750D01*
X149733141Y-158069047D01*
X149733141Y-158069047D01*
G37*
D25*
X149225000Y-158606250D03*
D13*
G36*
X149733141Y-159944047D02*
G01*
X149759278Y-159947924D01*
X149784909Y-159954344D01*
X149809788Y-159963245D01*
X149833674Y-159974543D01*
X149856337Y-159988127D01*
X149877560Y-160003867D01*
X149897139Y-160021611D01*
X149914883Y-160041190D01*
X149930623Y-160062413D01*
X149944207Y-160085076D01*
X149955505Y-160108962D01*
X149964406Y-160133841D01*
X149970826Y-160159472D01*
X149974703Y-160185609D01*
X149976000Y-160212000D01*
X149976000Y-160750500D01*
X149974703Y-160776891D01*
X149970826Y-160803028D01*
X149964406Y-160828659D01*
X149955505Y-160853538D01*
X149944207Y-160877424D01*
X149930623Y-160900087D01*
X149914883Y-160921310D01*
X149897139Y-160940889D01*
X149877560Y-160958633D01*
X149856337Y-160974373D01*
X149833674Y-160987957D01*
X149809788Y-160999255D01*
X149784909Y-161008156D01*
X149759278Y-161014576D01*
X149733141Y-161018453D01*
X149706750Y-161019750D01*
X148743250Y-161019750D01*
X148716859Y-161018453D01*
X148690722Y-161014576D01*
X148665091Y-161008156D01*
X148640212Y-160999255D01*
X148616326Y-160987957D01*
X148593663Y-160974373D01*
X148572440Y-160958633D01*
X148552861Y-160940889D01*
X148535117Y-160921310D01*
X148519377Y-160900087D01*
X148505793Y-160877424D01*
X148494495Y-160853538D01*
X148485594Y-160828659D01*
X148479174Y-160803028D01*
X148475297Y-160776891D01*
X148474000Y-160750500D01*
X148474000Y-160212000D01*
X148475297Y-160185609D01*
X148479174Y-160159472D01*
X148485594Y-160133841D01*
X148494495Y-160108962D01*
X148505793Y-160085076D01*
X148519377Y-160062413D01*
X148535117Y-160041190D01*
X148552861Y-160021611D01*
X148572440Y-160003867D01*
X148593663Y-159988127D01*
X148616326Y-159974543D01*
X148640212Y-159963245D01*
X148665091Y-159954344D01*
X148690722Y-159947924D01*
X148716859Y-159944047D01*
X148743250Y-159942750D01*
X149706750Y-159942750D01*
X149733141Y-159944047D01*
X149733141Y-159944047D01*
G37*
D25*
X149225000Y-160481250D03*
D13*
G36*
X147351891Y-163912797D02*
G01*
X147378028Y-163916674D01*
X147403659Y-163923094D01*
X147428538Y-163931995D01*
X147452424Y-163943293D01*
X147475087Y-163956877D01*
X147496310Y-163972617D01*
X147515889Y-163990361D01*
X147533633Y-164009940D01*
X147549373Y-164031163D01*
X147562957Y-164053826D01*
X147574255Y-164077712D01*
X147583156Y-164102591D01*
X147589576Y-164128222D01*
X147593453Y-164154359D01*
X147594750Y-164180750D01*
X147594750Y-164719250D01*
X147593453Y-164745641D01*
X147589576Y-164771778D01*
X147583156Y-164797409D01*
X147574255Y-164822288D01*
X147562957Y-164846174D01*
X147549373Y-164868837D01*
X147533633Y-164890060D01*
X147515889Y-164909639D01*
X147496310Y-164927383D01*
X147475087Y-164943123D01*
X147452424Y-164956707D01*
X147428538Y-164968005D01*
X147403659Y-164976906D01*
X147378028Y-164983326D01*
X147351891Y-164987203D01*
X147325500Y-164988500D01*
X146362000Y-164988500D01*
X146335609Y-164987203D01*
X146309472Y-164983326D01*
X146283841Y-164976906D01*
X146258962Y-164968005D01*
X146235076Y-164956707D01*
X146212413Y-164943123D01*
X146191190Y-164927383D01*
X146171611Y-164909639D01*
X146153867Y-164890060D01*
X146138127Y-164868837D01*
X146124543Y-164846174D01*
X146113245Y-164822288D01*
X146104344Y-164797409D01*
X146097924Y-164771778D01*
X146094047Y-164745641D01*
X146092750Y-164719250D01*
X146092750Y-164180750D01*
X146094047Y-164154359D01*
X146097924Y-164128222D01*
X146104344Y-164102591D01*
X146113245Y-164077712D01*
X146124543Y-164053826D01*
X146138127Y-164031163D01*
X146153867Y-164009940D01*
X146171611Y-163990361D01*
X146191190Y-163972617D01*
X146212413Y-163956877D01*
X146235076Y-163943293D01*
X146258962Y-163931995D01*
X146283841Y-163923094D01*
X146309472Y-163916674D01*
X146335609Y-163912797D01*
X146362000Y-163911500D01*
X147325500Y-163911500D01*
X147351891Y-163912797D01*
X147351891Y-163912797D01*
G37*
D25*
X146843750Y-164450000D03*
D13*
G36*
X147351891Y-162037797D02*
G01*
X147378028Y-162041674D01*
X147403659Y-162048094D01*
X147428538Y-162056995D01*
X147452424Y-162068293D01*
X147475087Y-162081877D01*
X147496310Y-162097617D01*
X147515889Y-162115361D01*
X147533633Y-162134940D01*
X147549373Y-162156163D01*
X147562957Y-162178826D01*
X147574255Y-162202712D01*
X147583156Y-162227591D01*
X147589576Y-162253222D01*
X147593453Y-162279359D01*
X147594750Y-162305750D01*
X147594750Y-162844250D01*
X147593453Y-162870641D01*
X147589576Y-162896778D01*
X147583156Y-162922409D01*
X147574255Y-162947288D01*
X147562957Y-162971174D01*
X147549373Y-162993837D01*
X147533633Y-163015060D01*
X147515889Y-163034639D01*
X147496310Y-163052383D01*
X147475087Y-163068123D01*
X147452424Y-163081707D01*
X147428538Y-163093005D01*
X147403659Y-163101906D01*
X147378028Y-163108326D01*
X147351891Y-163112203D01*
X147325500Y-163113500D01*
X146362000Y-163113500D01*
X146335609Y-163112203D01*
X146309472Y-163108326D01*
X146283841Y-163101906D01*
X146258962Y-163093005D01*
X146235076Y-163081707D01*
X146212413Y-163068123D01*
X146191190Y-163052383D01*
X146171611Y-163034639D01*
X146153867Y-163015060D01*
X146138127Y-162993837D01*
X146124543Y-162971174D01*
X146113245Y-162947288D01*
X146104344Y-162922409D01*
X146097924Y-162896778D01*
X146094047Y-162870641D01*
X146092750Y-162844250D01*
X146092750Y-162305750D01*
X146094047Y-162279359D01*
X146097924Y-162253222D01*
X146104344Y-162227591D01*
X146113245Y-162202712D01*
X146124543Y-162178826D01*
X146138127Y-162156163D01*
X146153867Y-162134940D01*
X146171611Y-162115361D01*
X146191190Y-162097617D01*
X146212413Y-162081877D01*
X146235076Y-162068293D01*
X146258962Y-162056995D01*
X146283841Y-162048094D01*
X146309472Y-162041674D01*
X146335609Y-162037797D01*
X146362000Y-162036500D01*
X147325500Y-162036500D01*
X147351891Y-162037797D01*
X147351891Y-162037797D01*
G37*
D25*
X146843750Y-162575000D03*
D13*
G36*
X147351891Y-153594047D02*
G01*
X147378028Y-153597924D01*
X147403659Y-153604344D01*
X147428538Y-153613245D01*
X147452424Y-153624543D01*
X147475087Y-153638127D01*
X147496310Y-153653867D01*
X147515889Y-153671611D01*
X147533633Y-153691190D01*
X147549373Y-153712413D01*
X147562957Y-153735076D01*
X147574255Y-153758962D01*
X147583156Y-153783841D01*
X147589576Y-153809472D01*
X147593453Y-153835609D01*
X147594750Y-153862000D01*
X147594750Y-154400500D01*
X147593453Y-154426891D01*
X147589576Y-154453028D01*
X147583156Y-154478659D01*
X147574255Y-154503538D01*
X147562957Y-154527424D01*
X147549373Y-154550087D01*
X147533633Y-154571310D01*
X147515889Y-154590889D01*
X147496310Y-154608633D01*
X147475087Y-154624373D01*
X147452424Y-154637957D01*
X147428538Y-154649255D01*
X147403659Y-154658156D01*
X147378028Y-154664576D01*
X147351891Y-154668453D01*
X147325500Y-154669750D01*
X146362000Y-154669750D01*
X146335609Y-154668453D01*
X146309472Y-154664576D01*
X146283841Y-154658156D01*
X146258962Y-154649255D01*
X146235076Y-154637957D01*
X146212413Y-154624373D01*
X146191190Y-154608633D01*
X146171611Y-154590889D01*
X146153867Y-154571310D01*
X146138127Y-154550087D01*
X146124543Y-154527424D01*
X146113245Y-154503538D01*
X146104344Y-154478659D01*
X146097924Y-154453028D01*
X146094047Y-154426891D01*
X146092750Y-154400500D01*
X146092750Y-153862000D01*
X146094047Y-153835609D01*
X146097924Y-153809472D01*
X146104344Y-153783841D01*
X146113245Y-153758962D01*
X146124543Y-153735076D01*
X146138127Y-153712413D01*
X146153867Y-153691190D01*
X146171611Y-153671611D01*
X146191190Y-153653867D01*
X146212413Y-153638127D01*
X146235076Y-153624543D01*
X146258962Y-153613245D01*
X146283841Y-153604344D01*
X146309472Y-153597924D01*
X146335609Y-153594047D01*
X146362000Y-153592750D01*
X147325500Y-153592750D01*
X147351891Y-153594047D01*
X147351891Y-153594047D01*
G37*
D25*
X146843750Y-154131250D03*
D13*
G36*
X147351891Y-151719047D02*
G01*
X147378028Y-151722924D01*
X147403659Y-151729344D01*
X147428538Y-151738245D01*
X147452424Y-151749543D01*
X147475087Y-151763127D01*
X147496310Y-151778867D01*
X147515889Y-151796611D01*
X147533633Y-151816190D01*
X147549373Y-151837413D01*
X147562957Y-151860076D01*
X147574255Y-151883962D01*
X147583156Y-151908841D01*
X147589576Y-151934472D01*
X147593453Y-151960609D01*
X147594750Y-151987000D01*
X147594750Y-152525500D01*
X147593453Y-152551891D01*
X147589576Y-152578028D01*
X147583156Y-152603659D01*
X147574255Y-152628538D01*
X147562957Y-152652424D01*
X147549373Y-152675087D01*
X147533633Y-152696310D01*
X147515889Y-152715889D01*
X147496310Y-152733633D01*
X147475087Y-152749373D01*
X147452424Y-152762957D01*
X147428538Y-152774255D01*
X147403659Y-152783156D01*
X147378028Y-152789576D01*
X147351891Y-152793453D01*
X147325500Y-152794750D01*
X146362000Y-152794750D01*
X146335609Y-152793453D01*
X146309472Y-152789576D01*
X146283841Y-152783156D01*
X146258962Y-152774255D01*
X146235076Y-152762957D01*
X146212413Y-152749373D01*
X146191190Y-152733633D01*
X146171611Y-152715889D01*
X146153867Y-152696310D01*
X146138127Y-152675087D01*
X146124543Y-152652424D01*
X146113245Y-152628538D01*
X146104344Y-152603659D01*
X146097924Y-152578028D01*
X146094047Y-152551891D01*
X146092750Y-152525500D01*
X146092750Y-151987000D01*
X146094047Y-151960609D01*
X146097924Y-151934472D01*
X146104344Y-151908841D01*
X146113245Y-151883962D01*
X146124543Y-151860076D01*
X146138127Y-151837413D01*
X146153867Y-151816190D01*
X146171611Y-151796611D01*
X146191190Y-151778867D01*
X146212413Y-151763127D01*
X146235076Y-151749543D01*
X146258962Y-151738245D01*
X146283841Y-151729344D01*
X146309472Y-151722924D01*
X146335609Y-151719047D01*
X146362000Y-151717750D01*
X147325500Y-151717750D01*
X147351891Y-151719047D01*
X147351891Y-151719047D01*
G37*
D25*
X146843750Y-152256250D03*
D13*
G36*
X156876891Y-151719047D02*
G01*
X156903028Y-151722924D01*
X156928659Y-151729344D01*
X156953538Y-151738245D01*
X156977424Y-151749543D01*
X157000087Y-151763127D01*
X157021310Y-151778867D01*
X157040889Y-151796611D01*
X157058633Y-151816190D01*
X157074373Y-151837413D01*
X157087957Y-151860076D01*
X157099255Y-151883962D01*
X157108156Y-151908841D01*
X157114576Y-151934472D01*
X157118453Y-151960609D01*
X157119750Y-151987000D01*
X157119750Y-152525500D01*
X157118453Y-152551891D01*
X157114576Y-152578028D01*
X157108156Y-152603659D01*
X157099255Y-152628538D01*
X157087957Y-152652424D01*
X157074373Y-152675087D01*
X157058633Y-152696310D01*
X157040889Y-152715889D01*
X157021310Y-152733633D01*
X157000087Y-152749373D01*
X156977424Y-152762957D01*
X156953538Y-152774255D01*
X156928659Y-152783156D01*
X156903028Y-152789576D01*
X156876891Y-152793453D01*
X156850500Y-152794750D01*
X155887000Y-152794750D01*
X155860609Y-152793453D01*
X155834472Y-152789576D01*
X155808841Y-152783156D01*
X155783962Y-152774255D01*
X155760076Y-152762957D01*
X155737413Y-152749373D01*
X155716190Y-152733633D01*
X155696611Y-152715889D01*
X155678867Y-152696310D01*
X155663127Y-152675087D01*
X155649543Y-152652424D01*
X155638245Y-152628538D01*
X155629344Y-152603659D01*
X155622924Y-152578028D01*
X155619047Y-152551891D01*
X155617750Y-152525500D01*
X155617750Y-151987000D01*
X155619047Y-151960609D01*
X155622924Y-151934472D01*
X155629344Y-151908841D01*
X155638245Y-151883962D01*
X155649543Y-151860076D01*
X155663127Y-151837413D01*
X155678867Y-151816190D01*
X155696611Y-151796611D01*
X155716190Y-151778867D01*
X155737413Y-151763127D01*
X155760076Y-151749543D01*
X155783962Y-151738245D01*
X155808841Y-151729344D01*
X155834472Y-151722924D01*
X155860609Y-151719047D01*
X155887000Y-151717750D01*
X156850500Y-151717750D01*
X156876891Y-151719047D01*
X156876891Y-151719047D01*
G37*
D25*
X156368750Y-152256250D03*
D13*
G36*
X156876891Y-153594047D02*
G01*
X156903028Y-153597924D01*
X156928659Y-153604344D01*
X156953538Y-153613245D01*
X156977424Y-153624543D01*
X157000087Y-153638127D01*
X157021310Y-153653867D01*
X157040889Y-153671611D01*
X157058633Y-153691190D01*
X157074373Y-153712413D01*
X157087957Y-153735076D01*
X157099255Y-153758962D01*
X157108156Y-153783841D01*
X157114576Y-153809472D01*
X157118453Y-153835609D01*
X157119750Y-153862000D01*
X157119750Y-154400500D01*
X157118453Y-154426891D01*
X157114576Y-154453028D01*
X157108156Y-154478659D01*
X157099255Y-154503538D01*
X157087957Y-154527424D01*
X157074373Y-154550087D01*
X157058633Y-154571310D01*
X157040889Y-154590889D01*
X157021310Y-154608633D01*
X157000087Y-154624373D01*
X156977424Y-154637957D01*
X156953538Y-154649255D01*
X156928659Y-154658156D01*
X156903028Y-154664576D01*
X156876891Y-154668453D01*
X156850500Y-154669750D01*
X155887000Y-154669750D01*
X155860609Y-154668453D01*
X155834472Y-154664576D01*
X155808841Y-154658156D01*
X155783962Y-154649255D01*
X155760076Y-154637957D01*
X155737413Y-154624373D01*
X155716190Y-154608633D01*
X155696611Y-154590889D01*
X155678867Y-154571310D01*
X155663127Y-154550087D01*
X155649543Y-154527424D01*
X155638245Y-154503538D01*
X155629344Y-154478659D01*
X155622924Y-154453028D01*
X155619047Y-154426891D01*
X155617750Y-154400500D01*
X155617750Y-153862000D01*
X155619047Y-153835609D01*
X155622924Y-153809472D01*
X155629344Y-153783841D01*
X155638245Y-153758962D01*
X155649543Y-153735076D01*
X155663127Y-153712413D01*
X155678867Y-153691190D01*
X155696611Y-153671611D01*
X155716190Y-153653867D01*
X155737413Y-153638127D01*
X155760076Y-153624543D01*
X155783962Y-153613245D01*
X155808841Y-153604344D01*
X155834472Y-153597924D01*
X155860609Y-153594047D01*
X155887000Y-153592750D01*
X156850500Y-153592750D01*
X156876891Y-153594047D01*
X156876891Y-153594047D01*
G37*
D25*
X156368750Y-154131250D03*
M02*
