G04 #@! TF.GenerationSoftware,KiCad,Pcbnew,(5.1.4)-1*
G04 #@! TF.CreationDate,2026-07-11T16:25:21-07:00*
G04 #@! TF.ProjectId,taro60,7461726f-3630-42e6-9b69-6361645f7063,rev?*
G04 #@! TF.SameCoordinates,Original*
G04 #@! TF.FileFunction,Copper,L1,Top*
G04 #@! TF.FilePolarity,Positive*
%FSLAX46Y46*%
G04 Gerber Fmt 4.6, Leading zero omitted, Abs format (unit mm)*
G04 Created by KiCad (PCBNEW (5.1.4)-1) date 2026-07-11 16:25:21*
%MOMM*%
%LPD*%
G04 APERTURE LIST*
%ADD10C,2.250000*%
%ADD11C,2.250000*%
%ADD12O,2.700000X1.700000*%
%ADD13C,0.800000*%
%ADD14C,0.381000*%
%ADD15C,0.254000*%
G04 APERTURE END LIST*
D10*
X81637500Y-84900000D03*
X80982501Y-85630000D03*
D11*
X80327500Y-86360000D02*
X81637502Y-84900000D01*
D10*
X86677500Y-83820000D03*
X86657500Y-84110000D03*
D11*
X86637500Y-84400000D02*
X86677500Y-83820000D01*
D10*
X184031250Y-161100000D03*
X183376251Y-161830000D03*
D11*
X182721250Y-162560000D02*
X184031252Y-161100000D01*
D10*
X189071250Y-160020000D03*
X189051250Y-160310000D03*
D11*
X189031250Y-160600000D02*
X189071250Y-160020000D01*
D10*
X272137500Y-84900000D03*
X271482501Y-85630000D03*
D11*
X270827500Y-86360000D02*
X272137502Y-84900000D01*
D10*
X277177500Y-83820000D03*
X277157500Y-84110000D03*
D11*
X277137500Y-84400000D02*
X277177500Y-83820000D01*
D12*
X86518750Y-113825000D03*
X86518750Y-121125000D03*
X82018750Y-121125000D03*
X82018750Y-113825000D03*
D10*
X329287500Y-161100000D03*
X328632501Y-161830000D03*
D11*
X327977500Y-162560000D02*
X329287502Y-161100000D01*
D10*
X334327500Y-160020000D03*
X334307500Y-160310000D03*
D11*
X334287500Y-160600000D02*
X334327500Y-160020000D01*
D10*
X310237500Y-161100000D03*
X309582501Y-161830000D03*
D11*
X308927500Y-162560000D02*
X310237502Y-161100000D01*
D10*
X315277500Y-160020000D03*
X315257500Y-160310000D03*
D11*
X315237500Y-160600000D02*
X315277500Y-160020000D01*
D10*
X291187500Y-161100000D03*
X290532501Y-161830000D03*
D11*
X289877500Y-162560000D02*
X291187502Y-161100000D01*
D10*
X296227500Y-160020000D03*
X296207500Y-160310000D03*
D11*
X296187500Y-160600000D02*
X296227500Y-160020000D01*
D10*
X272137500Y-161100000D03*
X271482501Y-161830000D03*
D11*
X270827500Y-162560000D02*
X272137502Y-161100000D01*
D10*
X277177500Y-160020000D03*
X277157500Y-160310000D03*
D11*
X277137500Y-160600000D02*
X277177500Y-160020000D01*
D10*
X253087500Y-161100000D03*
X252432501Y-161830000D03*
D11*
X251777500Y-162560000D02*
X253087502Y-161100000D01*
D10*
X258127500Y-160020000D03*
X258107500Y-160310000D03*
D11*
X258087500Y-160600000D02*
X258127500Y-160020000D01*
D10*
X112593750Y-161100000D03*
X111938751Y-161830000D03*
D11*
X111283750Y-162560000D02*
X112593752Y-161100000D01*
D10*
X117633750Y-160020000D03*
X117613750Y-160310000D03*
D11*
X117593750Y-160600000D02*
X117633750Y-160020000D01*
D10*
X88781250Y-161100000D03*
X88126251Y-161830000D03*
D11*
X87471250Y-162560000D02*
X88781252Y-161100000D01*
D10*
X93821250Y-160020000D03*
X93801250Y-160310000D03*
D11*
X93781250Y-160600000D02*
X93821250Y-160020000D01*
D10*
X64968750Y-161100000D03*
X64313751Y-161830000D03*
D11*
X63658750Y-162560000D02*
X64968752Y-161100000D01*
D10*
X70008750Y-160020000D03*
X69988750Y-160310000D03*
D11*
X69968750Y-160600000D02*
X70008750Y-160020000D01*
D10*
X329287500Y-142050000D03*
X328632501Y-142780000D03*
D11*
X327977500Y-143510000D02*
X329287502Y-142050000D01*
D10*
X334327500Y-140970000D03*
X334307500Y-141260000D03*
D11*
X334287500Y-141550000D02*
X334327500Y-140970000D01*
D10*
X310237500Y-142050000D03*
X309582501Y-142780000D03*
D11*
X308927500Y-143510000D02*
X310237502Y-142050000D01*
D10*
X315277500Y-140970000D03*
X315257500Y-141260000D03*
D11*
X315237500Y-141550000D02*
X315277500Y-140970000D01*
D10*
X291187500Y-142050000D03*
X290532501Y-142780000D03*
D11*
X289877500Y-143510000D02*
X291187502Y-142050000D01*
D10*
X296227500Y-140970000D03*
X296207500Y-141260000D03*
D11*
X296187500Y-141550000D02*
X296227500Y-140970000D01*
D10*
X272137500Y-142050000D03*
X271482501Y-142780000D03*
D11*
X270827500Y-143510000D02*
X272137502Y-142050000D01*
D10*
X277177500Y-140970000D03*
X277157500Y-141260000D03*
D11*
X277137500Y-141550000D02*
X277177500Y-140970000D01*
D10*
X253087500Y-142050000D03*
X252432501Y-142780000D03*
D11*
X251777500Y-143510000D02*
X253087502Y-142050000D01*
D10*
X258127500Y-140970000D03*
X258107500Y-141260000D03*
D11*
X258087500Y-141550000D02*
X258127500Y-140970000D01*
D10*
X234037500Y-142050000D03*
X233382501Y-142780000D03*
D11*
X232727500Y-143510000D02*
X234037502Y-142050000D01*
D10*
X239077500Y-140970000D03*
X239057500Y-141260000D03*
D11*
X239037500Y-141550000D02*
X239077500Y-140970000D01*
D10*
X214987500Y-142050000D03*
X214332501Y-142780000D03*
D11*
X213677500Y-143510000D02*
X214987502Y-142050000D01*
D10*
X220027500Y-140970000D03*
X220007500Y-141260000D03*
D11*
X219987500Y-141550000D02*
X220027500Y-140970000D01*
D10*
X195937500Y-142050000D03*
X195282501Y-142780000D03*
D11*
X194627500Y-143510000D02*
X195937502Y-142050000D01*
D10*
X200977500Y-140970000D03*
X200957500Y-141260000D03*
D11*
X200937500Y-141550000D02*
X200977500Y-140970000D01*
D10*
X176887500Y-142050000D03*
X176232501Y-142780000D03*
D11*
X175577500Y-143510000D02*
X176887502Y-142050000D01*
D10*
X181927500Y-140970000D03*
X181907500Y-141260000D03*
D11*
X181887500Y-141550000D02*
X181927500Y-140970000D01*
D10*
X157837500Y-142050000D03*
X157182501Y-142780000D03*
D11*
X156527500Y-143510000D02*
X157837502Y-142050000D01*
D10*
X162877500Y-140970000D03*
X162857500Y-141260000D03*
D11*
X162837500Y-141550000D02*
X162877500Y-140970000D01*
D10*
X138787500Y-142050000D03*
X138132501Y-142780000D03*
D11*
X137477500Y-143510000D02*
X138787502Y-142050000D01*
D10*
X143827500Y-140970000D03*
X143807500Y-141260000D03*
D11*
X143787500Y-141550000D02*
X143827500Y-140970000D01*
D10*
X119737500Y-142050000D03*
X119082501Y-142780000D03*
D11*
X118427500Y-143510000D02*
X119737502Y-142050000D01*
D10*
X124777500Y-140970000D03*
X124757500Y-141260000D03*
D11*
X124737500Y-141550000D02*
X124777500Y-140970000D01*
D10*
X100687500Y-142050000D03*
X100032501Y-142780000D03*
D11*
X99377500Y-143510000D02*
X100687502Y-142050000D01*
D10*
X105727500Y-140970000D03*
X105707500Y-141260000D03*
D11*
X105687500Y-141550000D02*
X105727500Y-140970000D01*
D10*
X72112500Y-142050000D03*
X71457501Y-142780000D03*
D11*
X70802500Y-143510000D02*
X72112502Y-142050000D01*
D10*
X77152500Y-140970000D03*
X77132500Y-141260000D03*
D11*
X77112500Y-141550000D02*
X77152500Y-140970000D01*
D10*
X317381250Y-123000000D03*
X316726251Y-123730000D03*
D11*
X316071250Y-124460000D02*
X317381252Y-123000000D01*
D10*
X322421250Y-121920000D03*
X322401250Y-122210000D03*
D11*
X322381250Y-122500000D02*
X322421250Y-121920000D01*
D10*
X286425000Y-123000000D03*
X285770001Y-123730000D03*
D11*
X285115000Y-124460000D02*
X286425002Y-123000000D01*
D10*
X291465000Y-121920000D03*
X291445000Y-122210000D03*
D11*
X291425000Y-122500000D02*
X291465000Y-121920000D01*
D10*
X267375000Y-123000000D03*
X266720001Y-123730000D03*
D11*
X266065000Y-124460000D02*
X267375002Y-123000000D01*
D10*
X272415000Y-121920000D03*
X272395000Y-122210000D03*
D11*
X272375000Y-122500000D02*
X272415000Y-121920000D01*
D10*
X248325000Y-123000000D03*
X247670001Y-123730000D03*
D11*
X247015000Y-124460000D02*
X248325002Y-123000000D01*
D10*
X253365000Y-121920000D03*
X253345000Y-122210000D03*
D11*
X253325000Y-122500000D02*
X253365000Y-121920000D01*
D10*
X229275000Y-123000000D03*
X228620001Y-123730000D03*
D11*
X227965000Y-124460000D02*
X229275002Y-123000000D01*
D10*
X234315000Y-121920000D03*
X234295000Y-122210000D03*
D11*
X234275000Y-122500000D02*
X234315000Y-121920000D01*
D10*
X210225000Y-123000000D03*
X209570001Y-123730000D03*
D11*
X208915000Y-124460000D02*
X210225002Y-123000000D01*
D10*
X215265000Y-121920000D03*
X215245000Y-122210000D03*
D11*
X215225000Y-122500000D02*
X215265000Y-121920000D01*
D10*
X191175000Y-123000000D03*
X190520001Y-123730000D03*
D11*
X189865000Y-124460000D02*
X191175002Y-123000000D01*
D10*
X196215000Y-121920000D03*
X196195000Y-122210000D03*
D11*
X196175000Y-122500000D02*
X196215000Y-121920000D01*
D10*
X172125000Y-123000000D03*
X171470001Y-123730000D03*
D11*
X170815000Y-124460000D02*
X172125002Y-123000000D01*
D10*
X177165000Y-121920000D03*
X177145000Y-122210000D03*
D11*
X177125000Y-122500000D02*
X177165000Y-121920000D01*
D10*
X153075000Y-123000000D03*
X152420001Y-123730000D03*
D11*
X151765000Y-124460000D02*
X153075002Y-123000000D01*
D10*
X158115000Y-121920000D03*
X158095000Y-122210000D03*
D11*
X158075000Y-122500000D02*
X158115000Y-121920000D01*
D10*
X134025000Y-123000000D03*
X133370001Y-123730000D03*
D11*
X132715000Y-124460000D02*
X134025002Y-123000000D01*
D10*
X139065000Y-121920000D03*
X139045000Y-122210000D03*
D11*
X139025000Y-122500000D02*
X139065000Y-121920000D01*
D10*
X114975000Y-123000000D03*
X114320001Y-123730000D03*
D11*
X113665000Y-124460000D02*
X114975002Y-123000000D01*
D10*
X120015000Y-121920000D03*
X119995000Y-122210000D03*
D11*
X119975000Y-122500000D02*
X120015000Y-121920000D01*
D10*
X95925000Y-123000000D03*
X95270001Y-123730000D03*
D11*
X94615000Y-124460000D02*
X95925002Y-123000000D01*
D10*
X100965000Y-121920000D03*
X100945000Y-122210000D03*
D11*
X100925000Y-122500000D02*
X100965000Y-121920000D01*
D10*
X69731250Y-123000000D03*
X69076251Y-123730000D03*
D11*
X68421250Y-124460000D02*
X69731252Y-123000000D01*
D10*
X74771250Y-121920000D03*
X74751250Y-122210000D03*
D11*
X74731250Y-122500000D02*
X74771250Y-121920000D01*
D10*
X324525000Y-103950000D03*
X323870001Y-104680000D03*
D11*
X323215000Y-105410000D02*
X324525002Y-103950000D01*
D10*
X329565000Y-102870000D03*
X329545000Y-103160000D03*
D11*
X329525000Y-103450000D02*
X329565000Y-102870000D01*
D10*
X300712500Y-103950000D03*
X300057501Y-104680000D03*
D11*
X299402500Y-105410000D02*
X300712502Y-103950000D01*
D10*
X305752500Y-102870000D03*
X305732500Y-103160000D03*
D11*
X305712500Y-103450000D02*
X305752500Y-102870000D01*
D10*
X281662500Y-103950000D03*
X281007501Y-104680000D03*
D11*
X280352500Y-105410000D02*
X281662502Y-103950000D01*
D10*
X286702500Y-102870000D03*
X286682500Y-103160000D03*
D11*
X286662500Y-103450000D02*
X286702500Y-102870000D01*
D10*
X262612500Y-103950000D03*
X261957501Y-104680000D03*
D11*
X261302500Y-105410000D02*
X262612502Y-103950000D01*
D10*
X267652500Y-102870000D03*
X267632500Y-103160000D03*
D11*
X267612500Y-103450000D02*
X267652500Y-102870000D01*
D10*
X243562500Y-103950000D03*
X242907501Y-104680000D03*
D11*
X242252500Y-105410000D02*
X243562502Y-103950000D01*
D10*
X248602500Y-102870000D03*
X248582500Y-103160000D03*
D11*
X248562500Y-103450000D02*
X248602500Y-102870000D01*
D10*
X224512500Y-103950000D03*
X223857501Y-104680000D03*
D11*
X223202500Y-105410000D02*
X224512502Y-103950000D01*
D10*
X229552500Y-102870000D03*
X229532500Y-103160000D03*
D11*
X229512500Y-103450000D02*
X229552500Y-102870000D01*
D10*
X205462500Y-103950000D03*
X204807501Y-104680000D03*
D11*
X204152500Y-105410000D02*
X205462502Y-103950000D01*
D10*
X210502500Y-102870000D03*
X210482500Y-103160000D03*
D11*
X210462500Y-103450000D02*
X210502500Y-102870000D01*
D10*
X186412500Y-103950000D03*
X185757501Y-104680000D03*
D11*
X185102500Y-105410000D02*
X186412502Y-103950000D01*
D10*
X191452500Y-102870000D03*
X191432500Y-103160000D03*
D11*
X191412500Y-103450000D02*
X191452500Y-102870000D01*
D10*
X167362500Y-103950000D03*
X166707501Y-104680000D03*
D11*
X166052500Y-105410000D02*
X167362502Y-103950000D01*
D10*
X172402500Y-102870000D03*
X172382500Y-103160000D03*
D11*
X172362500Y-103450000D02*
X172402500Y-102870000D01*
D10*
X148312500Y-103950000D03*
X147657501Y-104680000D03*
D11*
X147002500Y-105410000D02*
X148312502Y-103950000D01*
D10*
X153352500Y-102870000D03*
X153332500Y-103160000D03*
D11*
X153312500Y-103450000D02*
X153352500Y-102870000D01*
D10*
X129262500Y-103950000D03*
X128607501Y-104680000D03*
D11*
X127952500Y-105410000D02*
X129262502Y-103950000D01*
D10*
X134302500Y-102870000D03*
X134282500Y-103160000D03*
D11*
X134262500Y-103450000D02*
X134302500Y-102870000D01*
D10*
X110212500Y-103950000D03*
X109557501Y-104680000D03*
D11*
X108902500Y-105410000D02*
X110212502Y-103950000D01*
D10*
X115252500Y-102870000D03*
X115232500Y-103160000D03*
D11*
X115212500Y-103450000D02*
X115252500Y-102870000D01*
D10*
X91162500Y-103950000D03*
X90507501Y-104680000D03*
D11*
X89852500Y-105410000D02*
X91162502Y-103950000D01*
D10*
X96202500Y-102870000D03*
X96182500Y-103160000D03*
D11*
X96162500Y-103450000D02*
X96202500Y-102870000D01*
D10*
X67350000Y-103950000D03*
X66695001Y-104680000D03*
D11*
X66040000Y-105410000D02*
X67350002Y-103950000D01*
D10*
X72390000Y-102870000D03*
X72370000Y-103160000D03*
D11*
X72350000Y-103450000D02*
X72390000Y-102870000D01*
D10*
X319762500Y-84900000D03*
X319107501Y-85630000D03*
D11*
X318452500Y-86360000D02*
X319762502Y-84900000D01*
D10*
X324802500Y-83820000D03*
X324782500Y-84110000D03*
D11*
X324762500Y-84400000D02*
X324802500Y-83820000D01*
D10*
X291187500Y-84900000D03*
X290532501Y-85630000D03*
D11*
X289877500Y-86360000D02*
X291187502Y-84900000D01*
D10*
X296227500Y-83820000D03*
X296207500Y-84110000D03*
D11*
X296187500Y-84400000D02*
X296227500Y-83820000D01*
D10*
X253087500Y-84900000D03*
X252432501Y-85630000D03*
D11*
X251777500Y-86360000D02*
X253087502Y-84900000D01*
D10*
X258127500Y-83820000D03*
X258107500Y-84110000D03*
D11*
X258087500Y-84400000D02*
X258127500Y-83820000D01*
D10*
X234037500Y-84900000D03*
X233382501Y-85630000D03*
D11*
X232727500Y-86360000D02*
X234037502Y-84900000D01*
D10*
X239077500Y-83820000D03*
X239057500Y-84110000D03*
D11*
X239037500Y-84400000D02*
X239077500Y-83820000D01*
D10*
X214987500Y-84900000D03*
X214332501Y-85630000D03*
D11*
X213677500Y-86360000D02*
X214987502Y-84900000D01*
D10*
X220027500Y-83820000D03*
X220007500Y-84110000D03*
D11*
X219987500Y-84400000D02*
X220027500Y-83820000D01*
D10*
X195937500Y-84900000D03*
X195282501Y-85630000D03*
D11*
X194627500Y-86360000D02*
X195937502Y-84900000D01*
D10*
X200977500Y-83820000D03*
X200957500Y-84110000D03*
D11*
X200937500Y-84400000D02*
X200977500Y-83820000D01*
D10*
X176887500Y-84900000D03*
X176232501Y-85630000D03*
D11*
X175577500Y-86360000D02*
X176887502Y-84900000D01*
D10*
X181927500Y-83820000D03*
X181907500Y-84110000D03*
D11*
X181887500Y-84400000D02*
X181927500Y-83820000D01*
D10*
X157837500Y-84900000D03*
X157182501Y-85630000D03*
D11*
X156527500Y-86360000D02*
X157837502Y-84900000D01*
D10*
X162877500Y-83820000D03*
X162857500Y-84110000D03*
D11*
X162837500Y-84400000D02*
X162877500Y-83820000D01*
D10*
X138787500Y-84900000D03*
X138132501Y-85630000D03*
D11*
X137477500Y-86360000D02*
X138787502Y-84900000D01*
D10*
X143827500Y-83820000D03*
X143807500Y-84110000D03*
D11*
X143787500Y-84400000D02*
X143827500Y-83820000D01*
D10*
X119737500Y-84900000D03*
X119082501Y-85630000D03*
D11*
X118427500Y-86360000D02*
X119737502Y-84900000D01*
D10*
X124777500Y-83820000D03*
X124757500Y-84110000D03*
D11*
X124737500Y-84400000D02*
X124777500Y-83820000D01*
D10*
X100687500Y-84900000D03*
X100032501Y-85630000D03*
D11*
X99377500Y-86360000D02*
X100687502Y-84900000D01*
D10*
X105727500Y-83820000D03*
X105707500Y-84110000D03*
D11*
X105687500Y-84400000D02*
X105727500Y-83820000D01*
D10*
X62587500Y-84900000D03*
X61932501Y-85630000D03*
D11*
X61277500Y-86360000D02*
X62587502Y-84900000D01*
D10*
X67627500Y-83820000D03*
X67607500Y-84110000D03*
D11*
X67587500Y-84400000D02*
X67627500Y-83820000D01*
D13*
X142875000Y-156368750D03*
X128587500Y-173037500D03*
X139700000Y-161925000D03*
X154481250Y-165106250D03*
X155540499Y-168865749D03*
X98425000Y-150018750D03*
X93662500Y-145256250D03*
X145256250Y-172243750D03*
X167481250Y-172243750D03*
X154750000Y-172212500D03*
X161139988Y-157174457D03*
X161925000Y-100012500D03*
X160549971Y-156367064D03*
X159543750Y-111125000D03*
X159550000Y-156375000D03*
X161131250Y-130175000D03*
X151631250Y-161106250D03*
X150812500Y-149225000D03*
X150812500Y-162715750D03*
X140493750Y-172243750D03*
X76200000Y-117475000D03*
X75406250Y-131762500D03*
X150812500Y-161715747D03*
X150812500Y-160337500D03*
X150760382Y-157214618D03*
X153193750Y-157956250D03*
X161925000Y-160315750D03*
X162718750Y-157162500D03*
X153987500Y-150018750D03*
X140493750Y-150812500D03*
X157162500Y-150812500D03*
X170656250Y-162718750D03*
X170656250Y-162718750D03*
X196056250Y-165100000D03*
X192087500Y-170656250D03*
X192087500Y-170656250D03*
X190500000Y-171450000D03*
X190500000Y-171450000D03*
X165860623Y-166691873D03*
X202289058Y-168951558D03*
X165893750Y-169068750D03*
X161101782Y-168344968D03*
X203200000Y-167481250D03*
X157956250Y-168296750D03*
X210343750Y-156368750D03*
X127793750Y-164306250D03*
X139700000Y-158750000D03*
X80168750Y-117475000D03*
X96043750Y-150812500D03*
X78581250Y-117475000D03*
X82550000Y-145256250D03*
D14*
X142875000Y-156368750D02*
X142875000Y-158750000D01*
X142875000Y-158750000D02*
X139700000Y-161925000D01*
X139700000Y-161925000D02*
X128587500Y-173037500D01*
X154481250Y-165671935D02*
X155575000Y-166765685D01*
X154481250Y-165106250D02*
X154481250Y-165671935D01*
X155575000Y-166765685D02*
X155575000Y-168831248D01*
X155575000Y-168831248D02*
X155540499Y-168865749D01*
X93662500Y-145256250D02*
X98425000Y-150018750D01*
X145256250Y-172243750D02*
X167481250Y-172243750D01*
D15*
X165554010Y-110500472D02*
X161925000Y-106871462D01*
X165554010Y-120310260D02*
X165554010Y-110500472D01*
X166619501Y-121375751D02*
X165554010Y-120310260D01*
X161139988Y-157174457D02*
X166619501Y-151694944D01*
X166619501Y-151694944D02*
X166619501Y-121375751D01*
X161925000Y-106871462D02*
X161925000Y-100012500D01*
X162658401Y-154258634D02*
X160549971Y-156367064D01*
X162658401Y-143782283D02*
X162658401Y-154258634D01*
X162771934Y-143668750D02*
X162658401Y-143782283D01*
X165100000Y-143668750D02*
X162771934Y-143668750D01*
X159543750Y-111125000D02*
X165100000Y-116681250D01*
X165100000Y-116681250D02*
X165100000Y-143668750D01*
X158016599Y-144072029D02*
X161131250Y-140957378D01*
X159550000Y-156375000D02*
X158016599Y-154841599D01*
X158016599Y-154841599D02*
X158016599Y-144072029D01*
X161131250Y-140957378D02*
X161131250Y-130175000D01*
X151631250Y-161106250D02*
X151631250Y-150043750D01*
X151631250Y-150043750D02*
X150812500Y-149225000D01*
X150021750Y-162715750D02*
X140493750Y-172243750D01*
X150812500Y-162715750D02*
X150021750Y-162715750D01*
D14*
X76286751Y-121192559D02*
X76286751Y-124531999D01*
X76200000Y-117475000D02*
X76200000Y-121105808D01*
X76200000Y-121105808D02*
X76286751Y-121192559D01*
X76286751Y-124531999D02*
X75406250Y-125412500D01*
X75406250Y-125412500D02*
X75406250Y-131762500D01*
D15*
X61277500Y-97877500D02*
X67350000Y-103950000D01*
X61277500Y-86360000D02*
X61277500Y-97877500D01*
X66040000Y-119308750D02*
X69731250Y-123000000D01*
X66040000Y-105410000D02*
X66040000Y-119308750D01*
X70987501Y-140925001D02*
X72112500Y-142050000D01*
X69910349Y-139847849D02*
X70987501Y-140925001D01*
X69910349Y-125885967D02*
X69910349Y-139847849D01*
X68484382Y-124460000D02*
X69910349Y-125885967D01*
X68421250Y-124460000D02*
X68484382Y-124460000D01*
X63658750Y-162410000D02*
X63658750Y-162560000D01*
X70802500Y-155266250D02*
X63658750Y-162410000D01*
X70802500Y-143510000D02*
X70802500Y-155266250D01*
X144161121Y-161715747D02*
X132045618Y-173831250D01*
X150812500Y-161715747D02*
X144161121Y-161715747D01*
X63658750Y-164724934D02*
X63658750Y-162560000D01*
X72765066Y-173831250D02*
X63658750Y-164724934D01*
X132045618Y-173831250D02*
X72765066Y-173831250D01*
X80327500Y-93115000D02*
X91162500Y-103950000D01*
X80327500Y-86360000D02*
X80327500Y-93115000D01*
X89852500Y-116927500D02*
X95925000Y-123000000D01*
X89852500Y-105410000D02*
X89852500Y-116927500D01*
X94615000Y-135977500D02*
X100687500Y-142050000D01*
X94615000Y-124460000D02*
X94615000Y-135977500D01*
X89906249Y-159975001D02*
X88781250Y-161100000D01*
X99309501Y-143577999D02*
X99309501Y-150571749D01*
X99377500Y-143510000D02*
X99309501Y-143577999D01*
X99309501Y-150571749D02*
X89906249Y-159975001D01*
X142147999Y-158401039D02*
X128305288Y-172243750D01*
X142147999Y-156019789D02*
X142147999Y-158401039D01*
X144897302Y-160337500D02*
X143602001Y-161632801D01*
X143602001Y-161632801D02*
X143602001Y-156019789D01*
X150812500Y-160337500D02*
X144897302Y-160337500D01*
X143223961Y-155641749D02*
X142526039Y-155641749D01*
X143602001Y-156019789D02*
X143223961Y-155641749D01*
X142526039Y-155641749D02*
X142147999Y-156019789D01*
X87471250Y-164724934D02*
X87471250Y-162560000D01*
X94990066Y-172243750D02*
X87471250Y-164724934D01*
X128305288Y-172243750D02*
X94990066Y-172243750D01*
X99377500Y-93115000D02*
X110212500Y-103950000D01*
X99377500Y-86360000D02*
X99377500Y-93115000D01*
X108902500Y-116927500D02*
X114975000Y-123000000D01*
X108902500Y-105410000D02*
X108902500Y-116927500D01*
X113665000Y-135977500D02*
X119737500Y-142050000D01*
X113665000Y-124460000D02*
X113665000Y-135977500D01*
X118427500Y-143510000D02*
X118427500Y-155266250D01*
X134441416Y-155500000D02*
X135417317Y-154524099D01*
X118193750Y-155500000D02*
X134441416Y-155500000D01*
X118193750Y-155500000D02*
X112593750Y-161100000D01*
X118427500Y-155266250D02*
X118193750Y-155500000D01*
X146307151Y-154524099D02*
X146307151Y-156625901D01*
X135417317Y-154524099D02*
X146307151Y-154524099D01*
X146307151Y-156625901D02*
X146843750Y-157162500D01*
X146843750Y-157162500D02*
X150708264Y-157162500D01*
X150708264Y-157162500D02*
X150760382Y-157214618D01*
X161925000Y-160337500D02*
X161925000Y-160315750D01*
X156368750Y-162718750D02*
X159543750Y-162718750D01*
X153193750Y-159543750D02*
X156368750Y-162718750D01*
X159543750Y-162718750D02*
X161925000Y-160337500D01*
X153193750Y-157956250D02*
X153193750Y-159543750D01*
X118427500Y-93115000D02*
X129262500Y-103950000D01*
X118427500Y-86360000D02*
X118427500Y-93115000D01*
X127952500Y-116927500D02*
X134025000Y-123000000D01*
X127952500Y-105410000D02*
X127952500Y-116927500D01*
X132715000Y-135977500D02*
X138787500Y-142050000D01*
X132715000Y-124460000D02*
X132715000Y-135977500D01*
X162273961Y-159588749D02*
X158794999Y-159588749D01*
X162718750Y-157162500D02*
X162718750Y-160033538D01*
X162718750Y-160033538D02*
X162273961Y-159588749D01*
X158794999Y-159588749D02*
X153987500Y-154781250D01*
X153987500Y-154781250D02*
X153987500Y-150018750D01*
X137477500Y-147796250D02*
X137477500Y-143510000D01*
X140493750Y-150812500D02*
X137477500Y-147796250D01*
X137477500Y-93115000D02*
X148312500Y-103950000D01*
X137477500Y-86360000D02*
X137477500Y-93115000D01*
X147002500Y-116927500D02*
X153075000Y-123000000D01*
X147002500Y-105410000D02*
X147002500Y-116927500D01*
X151765000Y-135977500D02*
X157837500Y-142050000D01*
X151765000Y-124460000D02*
X151765000Y-135977500D01*
X156459501Y-143577999D02*
X156527500Y-143510000D01*
X156459501Y-150109501D02*
X156459501Y-143577999D01*
X157162500Y-150812500D02*
X156459501Y-150109501D01*
X156527500Y-93115000D02*
X167362500Y-103950000D01*
X156527500Y-86360000D02*
X156527500Y-93115000D01*
X166052500Y-116927500D02*
X172125000Y-123000000D01*
X166052500Y-105410000D02*
X166052500Y-116927500D01*
X170815000Y-135977500D02*
X176887500Y-142050000D01*
X170815000Y-124460000D02*
X170815000Y-135977500D01*
X170656250Y-162718750D02*
X172243750Y-162718750D01*
X175577500Y-159385000D02*
X175577500Y-143510000D01*
X172243750Y-162718750D02*
X175577500Y-159385000D01*
X175577500Y-93115000D02*
X186412500Y-103950000D01*
X175577500Y-86360000D02*
X175577500Y-93115000D01*
X185102500Y-116927500D02*
X191175000Y-123000000D01*
X185102500Y-105410000D02*
X185102500Y-116927500D01*
X189865000Y-135977500D02*
X195937500Y-142050000D01*
X189865000Y-124460000D02*
X189865000Y-135977500D01*
X194627500Y-143510000D02*
X192246250Y-143510000D01*
X192246250Y-143510000D02*
X189706250Y-146050000D01*
X189706250Y-155425000D02*
X184031250Y-161100000D01*
X189706250Y-146050000D02*
X189706250Y-155425000D01*
X194627500Y-93115000D02*
X205462500Y-103950000D01*
X194627500Y-86360000D02*
X194627500Y-93115000D01*
X204152500Y-116927500D02*
X210225000Y-123000000D01*
X204152500Y-105410000D02*
X204152500Y-116927500D01*
X208915000Y-135977500D02*
X214987500Y-142050000D01*
X208915000Y-124460000D02*
X208915000Y-135977500D01*
X196056250Y-165100000D02*
X203200000Y-157956250D01*
X203200000Y-157956250D02*
X211137500Y-157956250D01*
X213677500Y-155416250D02*
X213677500Y-143510000D01*
X211137500Y-157956250D02*
X213677500Y-155416250D01*
X213677500Y-93115000D02*
X223202500Y-102640000D01*
X223202500Y-102640000D02*
X223202500Y-105410000D01*
X213677500Y-86360000D02*
X213677500Y-93115000D01*
X223202500Y-116927500D02*
X229275000Y-123000000D01*
X223202500Y-105410000D02*
X223202500Y-116927500D01*
X232912501Y-140925001D02*
X234037500Y-142050000D01*
X229454099Y-137466599D02*
X232912501Y-140925001D01*
X229454099Y-127060349D02*
X229454099Y-137466599D01*
X227965000Y-125571250D02*
X229454099Y-127060349D01*
X227965000Y-124460000D02*
X227965000Y-125571250D01*
X192087500Y-170656250D02*
X201612500Y-170656250D01*
X201612500Y-170656250D02*
X207168750Y-165100000D01*
X207168750Y-165100000D02*
X207168750Y-161131250D01*
X232727500Y-146558962D02*
X232727500Y-143510000D01*
X218155212Y-161131250D02*
X232727500Y-146558962D01*
X207168750Y-161131250D02*
X218155212Y-161131250D01*
X232727500Y-93115000D02*
X243562500Y-103950000D01*
X232727500Y-86360000D02*
X232727500Y-93115000D01*
X242252500Y-116927500D02*
X248325000Y-123000000D01*
X242252500Y-105410000D02*
X242252500Y-116927500D01*
X247015000Y-135977500D02*
X253087500Y-142050000D01*
X247015000Y-124460000D02*
X247015000Y-135977500D01*
X251777500Y-159790000D02*
X253087500Y-161100000D01*
X251777500Y-143510000D02*
X251777500Y-159790000D01*
X190500000Y-171450000D02*
X229393750Y-171450000D01*
X229393750Y-171450000D02*
X238125000Y-162718750D01*
X251618750Y-162718750D02*
X251777500Y-162560000D01*
X238125000Y-162718750D02*
X251618750Y-162718750D01*
X251777500Y-93115000D02*
X262612500Y-103950000D01*
X251777500Y-86360000D02*
X251777500Y-93115000D01*
X261302500Y-116927500D02*
X267375000Y-123000000D01*
X261302500Y-105410000D02*
X261302500Y-116927500D01*
X266065000Y-135977500D02*
X272137500Y-142050000D01*
X266065000Y-124460000D02*
X266065000Y-135977500D01*
X271012501Y-159975001D02*
X272137500Y-161100000D01*
X270827500Y-159790000D02*
X271012501Y-159975001D01*
X270827500Y-143510000D02*
X270827500Y-159790000D01*
X165860623Y-166691873D02*
X168237500Y-169068750D01*
X168237500Y-169068750D02*
X202171866Y-169068750D01*
X202171866Y-169068750D02*
X202289058Y-168951558D01*
X280352500Y-116927500D02*
X286425000Y-123000000D01*
X280352500Y-105410000D02*
X280352500Y-116927500D01*
X290062501Y-140925001D02*
X291187500Y-142050000D01*
X285115000Y-135977500D02*
X290062501Y-140925001D01*
X285115000Y-124460000D02*
X285115000Y-135977500D01*
X289877500Y-159790000D02*
X291187500Y-161100000D01*
X289877500Y-143510000D02*
X289877500Y-159790000D01*
X270827500Y-93115000D02*
X281662500Y-103950000D01*
X270827500Y-86360000D02*
X270827500Y-93115000D01*
X169002001Y-172177001D02*
X232635499Y-172177001D01*
X165893750Y-169068750D02*
X169002001Y-172177001D01*
X234578501Y-170233999D02*
X288553501Y-170233999D01*
X232635499Y-172177001D02*
X234578501Y-170233999D01*
X289877500Y-168910000D02*
X289877500Y-162560000D01*
X288553501Y-170233999D02*
X289877500Y-168910000D01*
X299402500Y-131215000D02*
X310237500Y-142050000D01*
X299402500Y-105410000D02*
X299402500Y-131215000D01*
X308927500Y-159790000D02*
X310237500Y-161100000D01*
X308927500Y-143510000D02*
X308927500Y-159790000D01*
X299402500Y-102640000D02*
X299402500Y-105410000D01*
X289877500Y-93115000D02*
X299402500Y-102640000D01*
X289877500Y-86360000D02*
X289877500Y-93115000D01*
X173902372Y-165964872D02*
X175418750Y-167481250D01*
X161101782Y-168344968D02*
X163481878Y-165964872D01*
X163481878Y-165964872D02*
X173902372Y-165964872D01*
X175418750Y-167481250D02*
X203200000Y-167481250D01*
X323215000Y-105410000D02*
X318452500Y-105410000D01*
X317381250Y-106481250D02*
X317381250Y-123000000D01*
X318452500Y-105410000D02*
X317381250Y-106481250D01*
X326143750Y-138906250D02*
X329287500Y-142050000D01*
X318293750Y-138906250D02*
X326143750Y-138906250D01*
X311943750Y-132556250D02*
X318293750Y-138906250D01*
X311943750Y-125412500D02*
X311943750Y-132556250D01*
X316071250Y-124460000D02*
X312896250Y-124460000D01*
X312896250Y-124460000D02*
X311943750Y-125412500D01*
X327468538Y-143510000D02*
X327309788Y-143668750D01*
X327977500Y-143510000D02*
X327468538Y-143510000D01*
X318452500Y-97877500D02*
X324525000Y-103950000D01*
X318452500Y-86360000D02*
X318452500Y-97877500D01*
X327977500Y-159790000D02*
X329287500Y-161100000D01*
X327977500Y-143510000D02*
X327977500Y-159790000D01*
X160742138Y-165510862D02*
X171832888Y-165510862D01*
X157956250Y-168296750D02*
X160742138Y-165510862D01*
X185483251Y-161459037D02*
X190573538Y-156368750D01*
X171832888Y-165510862D02*
X173758187Y-163585563D01*
X185483251Y-161849127D02*
X185483251Y-161459037D01*
X190573538Y-156368750D02*
X210343750Y-156368750D01*
X185483251Y-161849127D02*
X185483251Y-162179249D01*
X185483251Y-162179249D02*
X183356250Y-164306250D01*
X183356250Y-164973962D02*
X181642712Y-166687500D01*
X183356250Y-164306250D02*
X183356250Y-164973962D01*
X181642712Y-166687500D02*
X177006250Y-166687500D01*
X177006250Y-166687500D02*
X173831250Y-163512500D01*
X127793750Y-164306250D02*
X133350000Y-164306250D01*
X133350000Y-164306250D02*
X134143750Y-164306250D01*
X134143750Y-164306250D02*
X139700000Y-158750000D01*
X80168750Y-117475000D02*
X80168750Y-137318750D01*
X80168750Y-137318750D02*
X85725000Y-142875000D01*
X85725000Y-142875000D02*
X88106250Y-142875000D01*
X88106250Y-142875000D02*
X96043750Y-150812500D01*
X78981249Y-117874999D02*
X78981249Y-141687499D01*
X78581250Y-117475000D02*
X78981249Y-117874999D01*
X78981249Y-141687499D02*
X82550000Y-145256250D01*
X86518750Y-113825000D02*
X82018750Y-113825000D01*
X82018750Y-114929000D02*
X82018750Y-121125000D01*
X82018750Y-113825000D02*
X82018750Y-114929000D01*
X82018750Y-121125000D02*
X86518750Y-121125000D01*
M02*
