G04 #@! TF.GenerationSoftware,KiCad,Pcbnew,(5.1.4)-1*
G04 #@! TF.CreationDate,2026-07-11T23:54:40-07:00*
G04 #@! TF.ProjectId,taro60,7461726f-3630-42e6-9b69-6361645f7063,rev?*
G04 #@! TF.SameCoordinates,Original*
G04 #@! TF.FileFunction,Copper,L2,Bot*
G04 #@! TF.FilePolarity,Positive*
%FSLAX46Y46*%
G04 Gerber Fmt 4.6, Leading zero omitted, Abs format (unit mm)*
G04 Created by KiCad (PCBNEW (5.1.4)-1) date 2026-07-11 23:54:40*
%MOMM*%
%LPD*%
G04 APERTURE LIST*
%ADD10C,0.100000*%
%ADD11C,0.600000*%
%ADD12C,1.000000*%
%ADD13C,2.250000*%
%ADD14C,2.250000*%
%ADD15R,1.400000X1.200000*%
%ADD16R,0.550000X1.500000*%
%ADD17R,1.500000X0.550000*%
%ADD18R,1.100000X1.800000*%
%ADD19C,0.975000*%
%ADD20C,1.250000*%
%ADD21R,1.200000X0.900000*%
%ADD22C,0.800000*%
%ADD23C,0.381000*%
%ADD24C,0.254000*%
G04 APERTURE END LIST*
D10*
G36*
X83695953Y-119050722D02*
G01*
X83710514Y-119052882D01*
X83724793Y-119056459D01*
X83738653Y-119061418D01*
X83751960Y-119067712D01*
X83764586Y-119075280D01*
X83776409Y-119084048D01*
X83787316Y-119093934D01*
X83797202Y-119104841D01*
X83805970Y-119116664D01*
X83813538Y-119129290D01*
X83819832Y-119142597D01*
X83824791Y-119156457D01*
X83828368Y-119170736D01*
X83830528Y-119185297D01*
X83831250Y-119200000D01*
X83831250Y-119500000D01*
X83830528Y-119514703D01*
X83828368Y-119529264D01*
X83824791Y-119543543D01*
X83819832Y-119557403D01*
X83813538Y-119570710D01*
X83805970Y-119583336D01*
X83797202Y-119595159D01*
X83787316Y-119606066D01*
X83776409Y-119615952D01*
X83764586Y-119624720D01*
X83751960Y-119632288D01*
X83738653Y-119638582D01*
X83724793Y-119643541D01*
X83710514Y-119647118D01*
X83695953Y-119649278D01*
X83681250Y-119650000D01*
X82281250Y-119650000D01*
X82266547Y-119649278D01*
X82251986Y-119647118D01*
X82237707Y-119643541D01*
X82223847Y-119638582D01*
X82210540Y-119632288D01*
X82197914Y-119624720D01*
X82186091Y-119615952D01*
X82175184Y-119606066D01*
X82165298Y-119595159D01*
X82156530Y-119583336D01*
X82148962Y-119570710D01*
X82142668Y-119557403D01*
X82137709Y-119543543D01*
X82134132Y-119529264D01*
X82131972Y-119514703D01*
X82131250Y-119500000D01*
X82131250Y-119200000D01*
X82131972Y-119185297D01*
X82134132Y-119170736D01*
X82137709Y-119156457D01*
X82142668Y-119142597D01*
X82148962Y-119129290D01*
X82156530Y-119116664D01*
X82165298Y-119104841D01*
X82175184Y-119093934D01*
X82186091Y-119084048D01*
X82197914Y-119075280D01*
X82210540Y-119067712D01*
X82223847Y-119061418D01*
X82237707Y-119056459D01*
X82251986Y-119052882D01*
X82266547Y-119050722D01*
X82281250Y-119050000D01*
X83681250Y-119050000D01*
X83695953Y-119050722D01*
X83695953Y-119050722D01*
G37*
D11*
X82981250Y-119350000D03*
D10*
G36*
X83695953Y-117800722D02*
G01*
X83710514Y-117802882D01*
X83724793Y-117806459D01*
X83738653Y-117811418D01*
X83751960Y-117817712D01*
X83764586Y-117825280D01*
X83776409Y-117834048D01*
X83787316Y-117843934D01*
X83797202Y-117854841D01*
X83805970Y-117866664D01*
X83813538Y-117879290D01*
X83819832Y-117892597D01*
X83824791Y-117906457D01*
X83828368Y-117920736D01*
X83830528Y-117935297D01*
X83831250Y-117950000D01*
X83831250Y-118250000D01*
X83830528Y-118264703D01*
X83828368Y-118279264D01*
X83824791Y-118293543D01*
X83819832Y-118307403D01*
X83813538Y-118320710D01*
X83805970Y-118333336D01*
X83797202Y-118345159D01*
X83787316Y-118356066D01*
X83776409Y-118365952D01*
X83764586Y-118374720D01*
X83751960Y-118382288D01*
X83738653Y-118388582D01*
X83724793Y-118393541D01*
X83710514Y-118397118D01*
X83695953Y-118399278D01*
X83681250Y-118400000D01*
X82281250Y-118400000D01*
X82266547Y-118399278D01*
X82251986Y-118397118D01*
X82237707Y-118393541D01*
X82223847Y-118388582D01*
X82210540Y-118382288D01*
X82197914Y-118374720D01*
X82186091Y-118365952D01*
X82175184Y-118356066D01*
X82165298Y-118345159D01*
X82156530Y-118333336D01*
X82148962Y-118320710D01*
X82142668Y-118307403D01*
X82137709Y-118293543D01*
X82134132Y-118279264D01*
X82131972Y-118264703D01*
X82131250Y-118250000D01*
X82131250Y-117950000D01*
X82131972Y-117935297D01*
X82134132Y-117920736D01*
X82137709Y-117906457D01*
X82142668Y-117892597D01*
X82148962Y-117879290D01*
X82156530Y-117866664D01*
X82165298Y-117854841D01*
X82175184Y-117843934D01*
X82186091Y-117834048D01*
X82197914Y-117825280D01*
X82210540Y-117817712D01*
X82223847Y-117811418D01*
X82237707Y-117806459D01*
X82251986Y-117802882D01*
X82266547Y-117800722D01*
X82281250Y-117800000D01*
X83681250Y-117800000D01*
X83695953Y-117800722D01*
X83695953Y-117800722D01*
G37*
D11*
X82981250Y-118100000D03*
D10*
G36*
X83695953Y-116550722D02*
G01*
X83710514Y-116552882D01*
X83724793Y-116556459D01*
X83738653Y-116561418D01*
X83751960Y-116567712D01*
X83764586Y-116575280D01*
X83776409Y-116584048D01*
X83787316Y-116593934D01*
X83797202Y-116604841D01*
X83805970Y-116616664D01*
X83813538Y-116629290D01*
X83819832Y-116642597D01*
X83824791Y-116656457D01*
X83828368Y-116670736D01*
X83830528Y-116685297D01*
X83831250Y-116700000D01*
X83831250Y-117000000D01*
X83830528Y-117014703D01*
X83828368Y-117029264D01*
X83824791Y-117043543D01*
X83819832Y-117057403D01*
X83813538Y-117070710D01*
X83805970Y-117083336D01*
X83797202Y-117095159D01*
X83787316Y-117106066D01*
X83776409Y-117115952D01*
X83764586Y-117124720D01*
X83751960Y-117132288D01*
X83738653Y-117138582D01*
X83724793Y-117143541D01*
X83710514Y-117147118D01*
X83695953Y-117149278D01*
X83681250Y-117150000D01*
X82281250Y-117150000D01*
X82266547Y-117149278D01*
X82251986Y-117147118D01*
X82237707Y-117143541D01*
X82223847Y-117138582D01*
X82210540Y-117132288D01*
X82197914Y-117124720D01*
X82186091Y-117115952D01*
X82175184Y-117106066D01*
X82165298Y-117095159D01*
X82156530Y-117083336D01*
X82148962Y-117070710D01*
X82142668Y-117057403D01*
X82137709Y-117043543D01*
X82134132Y-117029264D01*
X82131972Y-117014703D01*
X82131250Y-117000000D01*
X82131250Y-116700000D01*
X82131972Y-116685297D01*
X82134132Y-116670736D01*
X82137709Y-116656457D01*
X82142668Y-116642597D01*
X82148962Y-116629290D01*
X82156530Y-116616664D01*
X82165298Y-116604841D01*
X82175184Y-116593934D01*
X82186091Y-116584048D01*
X82197914Y-116575280D01*
X82210540Y-116567712D01*
X82223847Y-116561418D01*
X82237707Y-116556459D01*
X82251986Y-116552882D01*
X82266547Y-116550722D01*
X82281250Y-116550000D01*
X83681250Y-116550000D01*
X83695953Y-116550722D01*
X83695953Y-116550722D01*
G37*
D11*
X82981250Y-116850000D03*
D10*
G36*
X83695953Y-115300722D02*
G01*
X83710514Y-115302882D01*
X83724793Y-115306459D01*
X83738653Y-115311418D01*
X83751960Y-115317712D01*
X83764586Y-115325280D01*
X83776409Y-115334048D01*
X83787316Y-115343934D01*
X83797202Y-115354841D01*
X83805970Y-115366664D01*
X83813538Y-115379290D01*
X83819832Y-115392597D01*
X83824791Y-115406457D01*
X83828368Y-115420736D01*
X83830528Y-115435297D01*
X83831250Y-115450000D01*
X83831250Y-115750000D01*
X83830528Y-115764703D01*
X83828368Y-115779264D01*
X83824791Y-115793543D01*
X83819832Y-115807403D01*
X83813538Y-115820710D01*
X83805970Y-115833336D01*
X83797202Y-115845159D01*
X83787316Y-115856066D01*
X83776409Y-115865952D01*
X83764586Y-115874720D01*
X83751960Y-115882288D01*
X83738653Y-115888582D01*
X83724793Y-115893541D01*
X83710514Y-115897118D01*
X83695953Y-115899278D01*
X83681250Y-115900000D01*
X82281250Y-115900000D01*
X82266547Y-115899278D01*
X82251986Y-115897118D01*
X82237707Y-115893541D01*
X82223847Y-115888582D01*
X82210540Y-115882288D01*
X82197914Y-115874720D01*
X82186091Y-115865952D01*
X82175184Y-115856066D01*
X82165298Y-115845159D01*
X82156530Y-115833336D01*
X82148962Y-115820710D01*
X82142668Y-115807403D01*
X82137709Y-115793543D01*
X82134132Y-115779264D01*
X82131972Y-115764703D01*
X82131250Y-115750000D01*
X82131250Y-115450000D01*
X82131972Y-115435297D01*
X82134132Y-115420736D01*
X82137709Y-115406457D01*
X82142668Y-115392597D01*
X82148962Y-115379290D01*
X82156530Y-115366664D01*
X82165298Y-115354841D01*
X82175184Y-115343934D01*
X82186091Y-115334048D01*
X82197914Y-115325280D01*
X82210540Y-115317712D01*
X82223847Y-115311418D01*
X82237707Y-115306459D01*
X82251986Y-115302882D01*
X82266547Y-115300722D01*
X82281250Y-115300000D01*
X83681250Y-115300000D01*
X83695953Y-115300722D01*
X83695953Y-115300722D01*
G37*
D11*
X82981250Y-115600000D03*
D10*
G36*
X87505754Y-120701204D02*
G01*
X87530023Y-120704804D01*
X87553821Y-120710765D01*
X87576921Y-120719030D01*
X87599099Y-120729520D01*
X87620143Y-120742133D01*
X87639848Y-120756747D01*
X87658027Y-120773223D01*
X87674503Y-120791402D01*
X87689117Y-120811107D01*
X87701730Y-120832151D01*
X87712220Y-120854329D01*
X87720485Y-120877429D01*
X87726446Y-120901227D01*
X87730046Y-120925496D01*
X87731250Y-120950000D01*
X87731250Y-121450000D01*
X87730046Y-121474504D01*
X87726446Y-121498773D01*
X87720485Y-121522571D01*
X87712220Y-121545671D01*
X87701730Y-121567849D01*
X87689117Y-121588893D01*
X87674503Y-121608598D01*
X87658027Y-121626777D01*
X87639848Y-121643253D01*
X87620143Y-121657867D01*
X87599099Y-121670480D01*
X87576921Y-121680970D01*
X87553821Y-121689235D01*
X87530023Y-121695196D01*
X87505754Y-121698796D01*
X87481250Y-121700000D01*
X85181250Y-121700000D01*
X85156746Y-121698796D01*
X85132477Y-121695196D01*
X85108679Y-121689235D01*
X85085579Y-121680970D01*
X85063401Y-121670480D01*
X85042357Y-121657867D01*
X85022652Y-121643253D01*
X85004473Y-121626777D01*
X84987997Y-121608598D01*
X84973383Y-121588893D01*
X84960770Y-121567849D01*
X84950280Y-121545671D01*
X84942015Y-121522571D01*
X84936054Y-121498773D01*
X84932454Y-121474504D01*
X84931250Y-121450000D01*
X84931250Y-120950000D01*
X84932454Y-120925496D01*
X84936054Y-120901227D01*
X84942015Y-120877429D01*
X84950280Y-120854329D01*
X84960770Y-120832151D01*
X84973383Y-120811107D01*
X84987997Y-120791402D01*
X85004473Y-120773223D01*
X85022652Y-120756747D01*
X85042357Y-120742133D01*
X85063401Y-120729520D01*
X85085579Y-120719030D01*
X85108679Y-120710765D01*
X85132477Y-120704804D01*
X85156746Y-120701204D01*
X85181250Y-120700000D01*
X87481250Y-120700000D01*
X87505754Y-120701204D01*
X87505754Y-120701204D01*
G37*
D12*
X86331250Y-121200000D03*
D10*
G36*
X87505754Y-113251204D02*
G01*
X87530023Y-113254804D01*
X87553821Y-113260765D01*
X87576921Y-113269030D01*
X87599099Y-113279520D01*
X87620143Y-113292133D01*
X87639848Y-113306747D01*
X87658027Y-113323223D01*
X87674503Y-113341402D01*
X87689117Y-113361107D01*
X87701730Y-113382151D01*
X87712220Y-113404329D01*
X87720485Y-113427429D01*
X87726446Y-113451227D01*
X87730046Y-113475496D01*
X87731250Y-113500000D01*
X87731250Y-114000000D01*
X87730046Y-114024504D01*
X87726446Y-114048773D01*
X87720485Y-114072571D01*
X87712220Y-114095671D01*
X87701730Y-114117849D01*
X87689117Y-114138893D01*
X87674503Y-114158598D01*
X87658027Y-114176777D01*
X87639848Y-114193253D01*
X87620143Y-114207867D01*
X87599099Y-114220480D01*
X87576921Y-114230970D01*
X87553821Y-114239235D01*
X87530023Y-114245196D01*
X87505754Y-114248796D01*
X87481250Y-114250000D01*
X85181250Y-114250000D01*
X85156746Y-114248796D01*
X85132477Y-114245196D01*
X85108679Y-114239235D01*
X85085579Y-114230970D01*
X85063401Y-114220480D01*
X85042357Y-114207867D01*
X85022652Y-114193253D01*
X85004473Y-114176777D01*
X84987997Y-114158598D01*
X84973383Y-114138893D01*
X84960770Y-114117849D01*
X84950280Y-114095671D01*
X84942015Y-114072571D01*
X84936054Y-114048773D01*
X84932454Y-114024504D01*
X84931250Y-114000000D01*
X84931250Y-113500000D01*
X84932454Y-113475496D01*
X84936054Y-113451227D01*
X84942015Y-113427429D01*
X84950280Y-113404329D01*
X84960770Y-113382151D01*
X84973383Y-113361107D01*
X84987997Y-113341402D01*
X85004473Y-113323223D01*
X85022652Y-113306747D01*
X85042357Y-113292133D01*
X85063401Y-113279520D01*
X85085579Y-113269030D01*
X85108679Y-113260765D01*
X85132477Y-113254804D01*
X85156746Y-113251204D01*
X85181250Y-113250000D01*
X87481250Y-113250000D01*
X87505754Y-113251204D01*
X87505754Y-113251204D01*
G37*
D12*
X86331250Y-113750000D03*
D13*
X81637500Y-84900000D03*
X80982501Y-85630000D03*
D14*
X80327500Y-86360000D02*
X81637502Y-84900000D01*
D13*
X86677500Y-83820000D03*
X86657500Y-84110000D03*
D14*
X86637500Y-84400000D02*
X86677500Y-83820000D01*
D13*
X184031250Y-161100000D03*
X183376251Y-161830000D03*
D14*
X182721250Y-162560000D02*
X184031252Y-161100000D01*
D13*
X189071250Y-160020000D03*
X189051250Y-160310000D03*
D14*
X189031250Y-160600000D02*
X189071250Y-160020000D01*
D13*
X272137500Y-84900000D03*
X271482501Y-85630000D03*
D14*
X270827500Y-86360000D02*
X272137502Y-84900000D01*
D13*
X277177500Y-83820000D03*
X277157500Y-84110000D03*
D14*
X277137500Y-84400000D02*
X277177500Y-83820000D01*
D15*
X152706250Y-152343750D03*
X150506250Y-152343750D03*
X150506250Y-154043750D03*
X152706250Y-154043750D03*
D16*
X154750000Y-170006250D03*
X155550000Y-170006250D03*
X156350000Y-170006250D03*
X157150000Y-170006250D03*
X157950000Y-170006250D03*
X158750000Y-170006250D03*
X159550000Y-170006250D03*
X160350000Y-170006250D03*
X161150000Y-170006250D03*
X161950000Y-170006250D03*
X162750000Y-170006250D03*
D17*
X164450000Y-168306250D03*
X164450000Y-167506250D03*
X164450000Y-166706250D03*
X164450000Y-165906250D03*
X164450000Y-165106250D03*
X164450000Y-164306250D03*
X164450000Y-163506250D03*
X164450000Y-162706250D03*
X164450000Y-161906250D03*
X164450000Y-161106250D03*
X164450000Y-160306250D03*
D16*
X162750000Y-158606250D03*
X161950000Y-158606250D03*
X161150000Y-158606250D03*
X160350000Y-158606250D03*
X159550000Y-158606250D03*
X158750000Y-158606250D03*
X157950000Y-158606250D03*
X157150000Y-158606250D03*
X156350000Y-158606250D03*
X155550000Y-158606250D03*
X154750000Y-158606250D03*
D17*
X153050000Y-160306250D03*
X153050000Y-161106250D03*
X153050000Y-161906250D03*
X153050000Y-162706250D03*
X153050000Y-163506250D03*
X153050000Y-164306250D03*
X153050000Y-165106250D03*
X153050000Y-165906250D03*
X153050000Y-166706250D03*
X153050000Y-167506250D03*
X153050000Y-168306250D03*
D18*
X59268750Y-134068750D03*
X62968750Y-127868750D03*
X62968750Y-134068750D03*
X59268750Y-127868750D03*
D10*
G36*
X169480142Y-167576174D02*
G01*
X169503803Y-167579684D01*
X169527007Y-167585496D01*
X169549529Y-167593554D01*
X169571153Y-167603782D01*
X169591670Y-167616079D01*
X169610883Y-167630329D01*
X169628607Y-167646393D01*
X169644671Y-167664117D01*
X169658921Y-167683330D01*
X169671218Y-167703847D01*
X169681446Y-167725471D01*
X169689504Y-167747993D01*
X169695316Y-167771197D01*
X169698826Y-167794858D01*
X169700000Y-167818750D01*
X169700000Y-168731250D01*
X169698826Y-168755142D01*
X169695316Y-168778803D01*
X169689504Y-168802007D01*
X169681446Y-168824529D01*
X169671218Y-168846153D01*
X169658921Y-168866670D01*
X169644671Y-168885883D01*
X169628607Y-168903607D01*
X169610883Y-168919671D01*
X169591670Y-168933921D01*
X169571153Y-168946218D01*
X169549529Y-168956446D01*
X169527007Y-168964504D01*
X169503803Y-168970316D01*
X169480142Y-168973826D01*
X169456250Y-168975000D01*
X168968750Y-168975000D01*
X168944858Y-168973826D01*
X168921197Y-168970316D01*
X168897993Y-168964504D01*
X168875471Y-168956446D01*
X168853847Y-168946218D01*
X168833330Y-168933921D01*
X168814117Y-168919671D01*
X168796393Y-168903607D01*
X168780329Y-168885883D01*
X168766079Y-168866670D01*
X168753782Y-168846153D01*
X168743554Y-168824529D01*
X168735496Y-168802007D01*
X168729684Y-168778803D01*
X168726174Y-168755142D01*
X168725000Y-168731250D01*
X168725000Y-167818750D01*
X168726174Y-167794858D01*
X168729684Y-167771197D01*
X168735496Y-167747993D01*
X168743554Y-167725471D01*
X168753782Y-167703847D01*
X168766079Y-167683330D01*
X168780329Y-167664117D01*
X168796393Y-167646393D01*
X168814117Y-167630329D01*
X168833330Y-167616079D01*
X168853847Y-167603782D01*
X168875471Y-167593554D01*
X168897993Y-167585496D01*
X168921197Y-167579684D01*
X168944858Y-167576174D01*
X168968750Y-167575000D01*
X169456250Y-167575000D01*
X169480142Y-167576174D01*
X169480142Y-167576174D01*
G37*
D19*
X169212500Y-168275000D03*
D10*
G36*
X167605142Y-167576174D02*
G01*
X167628803Y-167579684D01*
X167652007Y-167585496D01*
X167674529Y-167593554D01*
X167696153Y-167603782D01*
X167716670Y-167616079D01*
X167735883Y-167630329D01*
X167753607Y-167646393D01*
X167769671Y-167664117D01*
X167783921Y-167683330D01*
X167796218Y-167703847D01*
X167806446Y-167725471D01*
X167814504Y-167747993D01*
X167820316Y-167771197D01*
X167823826Y-167794858D01*
X167825000Y-167818750D01*
X167825000Y-168731250D01*
X167823826Y-168755142D01*
X167820316Y-168778803D01*
X167814504Y-168802007D01*
X167806446Y-168824529D01*
X167796218Y-168846153D01*
X167783921Y-168866670D01*
X167769671Y-168885883D01*
X167753607Y-168903607D01*
X167735883Y-168919671D01*
X167716670Y-168933921D01*
X167696153Y-168946218D01*
X167674529Y-168956446D01*
X167652007Y-168964504D01*
X167628803Y-168970316D01*
X167605142Y-168973826D01*
X167581250Y-168975000D01*
X167093750Y-168975000D01*
X167069858Y-168973826D01*
X167046197Y-168970316D01*
X167022993Y-168964504D01*
X167000471Y-168956446D01*
X166978847Y-168946218D01*
X166958330Y-168933921D01*
X166939117Y-168919671D01*
X166921393Y-168903607D01*
X166905329Y-168885883D01*
X166891079Y-168866670D01*
X166878782Y-168846153D01*
X166868554Y-168824529D01*
X166860496Y-168802007D01*
X166854684Y-168778803D01*
X166851174Y-168755142D01*
X166850000Y-168731250D01*
X166850000Y-167818750D01*
X166851174Y-167794858D01*
X166854684Y-167771197D01*
X166860496Y-167747993D01*
X166868554Y-167725471D01*
X166878782Y-167703847D01*
X166891079Y-167683330D01*
X166905329Y-167664117D01*
X166921393Y-167646393D01*
X166939117Y-167630329D01*
X166958330Y-167616079D01*
X166978847Y-167603782D01*
X167000471Y-167593554D01*
X167022993Y-167585496D01*
X167046197Y-167579684D01*
X167069858Y-167576174D01*
X167093750Y-167575000D01*
X167581250Y-167575000D01*
X167605142Y-167576174D01*
X167605142Y-167576174D01*
G37*
D19*
X167337500Y-168275000D03*
D10*
G36*
X128273892Y-158913674D02*
G01*
X128297553Y-158917184D01*
X128320757Y-158922996D01*
X128343279Y-158931054D01*
X128364903Y-158941282D01*
X128385420Y-158953579D01*
X128404633Y-158967829D01*
X128422357Y-158983893D01*
X128438421Y-159001617D01*
X128452671Y-159020830D01*
X128464968Y-159041347D01*
X128475196Y-159062971D01*
X128483254Y-159085493D01*
X128489066Y-159108697D01*
X128492576Y-159132358D01*
X128493750Y-159156250D01*
X128493750Y-159643750D01*
X128492576Y-159667642D01*
X128489066Y-159691303D01*
X128483254Y-159714507D01*
X128475196Y-159737029D01*
X128464968Y-159758653D01*
X128452671Y-159779170D01*
X128438421Y-159798383D01*
X128422357Y-159816107D01*
X128404633Y-159832171D01*
X128385420Y-159846421D01*
X128364903Y-159858718D01*
X128343279Y-159868946D01*
X128320757Y-159877004D01*
X128297553Y-159882816D01*
X128273892Y-159886326D01*
X128250000Y-159887500D01*
X127337500Y-159887500D01*
X127313608Y-159886326D01*
X127289947Y-159882816D01*
X127266743Y-159877004D01*
X127244221Y-159868946D01*
X127222597Y-159858718D01*
X127202080Y-159846421D01*
X127182867Y-159832171D01*
X127165143Y-159816107D01*
X127149079Y-159798383D01*
X127134829Y-159779170D01*
X127122532Y-159758653D01*
X127112304Y-159737029D01*
X127104246Y-159714507D01*
X127098434Y-159691303D01*
X127094924Y-159667642D01*
X127093750Y-159643750D01*
X127093750Y-159156250D01*
X127094924Y-159132358D01*
X127098434Y-159108697D01*
X127104246Y-159085493D01*
X127112304Y-159062971D01*
X127122532Y-159041347D01*
X127134829Y-159020830D01*
X127149079Y-159001617D01*
X127165143Y-158983893D01*
X127182867Y-158967829D01*
X127202080Y-158953579D01*
X127222597Y-158941282D01*
X127244221Y-158931054D01*
X127266743Y-158922996D01*
X127289947Y-158917184D01*
X127313608Y-158913674D01*
X127337500Y-158912500D01*
X128250000Y-158912500D01*
X128273892Y-158913674D01*
X128273892Y-158913674D01*
G37*
D19*
X127793750Y-159400000D03*
D10*
G36*
X128273892Y-160788674D02*
G01*
X128297553Y-160792184D01*
X128320757Y-160797996D01*
X128343279Y-160806054D01*
X128364903Y-160816282D01*
X128385420Y-160828579D01*
X128404633Y-160842829D01*
X128422357Y-160858893D01*
X128438421Y-160876617D01*
X128452671Y-160895830D01*
X128464968Y-160916347D01*
X128475196Y-160937971D01*
X128483254Y-160960493D01*
X128489066Y-160983697D01*
X128492576Y-161007358D01*
X128493750Y-161031250D01*
X128493750Y-161518750D01*
X128492576Y-161542642D01*
X128489066Y-161566303D01*
X128483254Y-161589507D01*
X128475196Y-161612029D01*
X128464968Y-161633653D01*
X128452671Y-161654170D01*
X128438421Y-161673383D01*
X128422357Y-161691107D01*
X128404633Y-161707171D01*
X128385420Y-161721421D01*
X128364903Y-161733718D01*
X128343279Y-161743946D01*
X128320757Y-161752004D01*
X128297553Y-161757816D01*
X128273892Y-161761326D01*
X128250000Y-161762500D01*
X127337500Y-161762500D01*
X127313608Y-161761326D01*
X127289947Y-161757816D01*
X127266743Y-161752004D01*
X127244221Y-161743946D01*
X127222597Y-161733718D01*
X127202080Y-161721421D01*
X127182867Y-161707171D01*
X127165143Y-161691107D01*
X127149079Y-161673383D01*
X127134829Y-161654170D01*
X127122532Y-161633653D01*
X127112304Y-161612029D01*
X127104246Y-161589507D01*
X127098434Y-161566303D01*
X127094924Y-161542642D01*
X127093750Y-161518750D01*
X127093750Y-161031250D01*
X127094924Y-161007358D01*
X127098434Y-160983697D01*
X127104246Y-160960493D01*
X127112304Y-160937971D01*
X127122532Y-160916347D01*
X127134829Y-160895830D01*
X127149079Y-160876617D01*
X127165143Y-160858893D01*
X127182867Y-160842829D01*
X127202080Y-160828579D01*
X127222597Y-160816282D01*
X127244221Y-160806054D01*
X127266743Y-160797996D01*
X127289947Y-160792184D01*
X127313608Y-160788674D01*
X127337500Y-160787500D01*
X128250000Y-160787500D01*
X128273892Y-160788674D01*
X128273892Y-160788674D01*
G37*
D19*
X127793750Y-161275000D03*
D10*
G36*
X133036392Y-160788674D02*
G01*
X133060053Y-160792184D01*
X133083257Y-160797996D01*
X133105779Y-160806054D01*
X133127403Y-160816282D01*
X133147920Y-160828579D01*
X133167133Y-160842829D01*
X133184857Y-160858893D01*
X133200921Y-160876617D01*
X133215171Y-160895830D01*
X133227468Y-160916347D01*
X133237696Y-160937971D01*
X133245754Y-160960493D01*
X133251566Y-160983697D01*
X133255076Y-161007358D01*
X133256250Y-161031250D01*
X133256250Y-161518750D01*
X133255076Y-161542642D01*
X133251566Y-161566303D01*
X133245754Y-161589507D01*
X133237696Y-161612029D01*
X133227468Y-161633653D01*
X133215171Y-161654170D01*
X133200921Y-161673383D01*
X133184857Y-161691107D01*
X133167133Y-161707171D01*
X133147920Y-161721421D01*
X133127403Y-161733718D01*
X133105779Y-161743946D01*
X133083257Y-161752004D01*
X133060053Y-161757816D01*
X133036392Y-161761326D01*
X133012500Y-161762500D01*
X132100000Y-161762500D01*
X132076108Y-161761326D01*
X132052447Y-161757816D01*
X132029243Y-161752004D01*
X132006721Y-161743946D01*
X131985097Y-161733718D01*
X131964580Y-161721421D01*
X131945367Y-161707171D01*
X131927643Y-161691107D01*
X131911579Y-161673383D01*
X131897329Y-161654170D01*
X131885032Y-161633653D01*
X131874804Y-161612029D01*
X131866746Y-161589507D01*
X131860934Y-161566303D01*
X131857424Y-161542642D01*
X131856250Y-161518750D01*
X131856250Y-161031250D01*
X131857424Y-161007358D01*
X131860934Y-160983697D01*
X131866746Y-160960493D01*
X131874804Y-160937971D01*
X131885032Y-160916347D01*
X131897329Y-160895830D01*
X131911579Y-160876617D01*
X131927643Y-160858893D01*
X131945367Y-160842829D01*
X131964580Y-160828579D01*
X131985097Y-160816282D01*
X132006721Y-160806054D01*
X132029243Y-160797996D01*
X132052447Y-160792184D01*
X132076108Y-160788674D01*
X132100000Y-160787500D01*
X133012500Y-160787500D01*
X133036392Y-160788674D01*
X133036392Y-160788674D01*
G37*
D19*
X132556250Y-161275000D03*
D10*
G36*
X133036392Y-158913674D02*
G01*
X133060053Y-158917184D01*
X133083257Y-158922996D01*
X133105779Y-158931054D01*
X133127403Y-158941282D01*
X133147920Y-158953579D01*
X133167133Y-158967829D01*
X133184857Y-158983893D01*
X133200921Y-159001617D01*
X133215171Y-159020830D01*
X133227468Y-159041347D01*
X133237696Y-159062971D01*
X133245754Y-159085493D01*
X133251566Y-159108697D01*
X133255076Y-159132358D01*
X133256250Y-159156250D01*
X133256250Y-159643750D01*
X133255076Y-159667642D01*
X133251566Y-159691303D01*
X133245754Y-159714507D01*
X133237696Y-159737029D01*
X133227468Y-159758653D01*
X133215171Y-159779170D01*
X133200921Y-159798383D01*
X133184857Y-159816107D01*
X133167133Y-159832171D01*
X133147920Y-159846421D01*
X133127403Y-159858718D01*
X133105779Y-159868946D01*
X133083257Y-159877004D01*
X133060053Y-159882816D01*
X133036392Y-159886326D01*
X133012500Y-159887500D01*
X132100000Y-159887500D01*
X132076108Y-159886326D01*
X132052447Y-159882816D01*
X132029243Y-159877004D01*
X132006721Y-159868946D01*
X131985097Y-159858718D01*
X131964580Y-159846421D01*
X131945367Y-159832171D01*
X131927643Y-159816107D01*
X131911579Y-159798383D01*
X131897329Y-159779170D01*
X131885032Y-159758653D01*
X131874804Y-159737029D01*
X131866746Y-159714507D01*
X131860934Y-159691303D01*
X131857424Y-159667642D01*
X131856250Y-159643750D01*
X131856250Y-159156250D01*
X131857424Y-159132358D01*
X131860934Y-159108697D01*
X131866746Y-159085493D01*
X131874804Y-159062971D01*
X131885032Y-159041347D01*
X131897329Y-159020830D01*
X131911579Y-159001617D01*
X131927643Y-158983893D01*
X131945367Y-158967829D01*
X131964580Y-158953579D01*
X131985097Y-158941282D01*
X132006721Y-158931054D01*
X132029243Y-158922996D01*
X132052447Y-158917184D01*
X132076108Y-158913674D01*
X132100000Y-158912500D01*
X133012500Y-158912500D01*
X133036392Y-158913674D01*
X133036392Y-158913674D01*
G37*
D19*
X132556250Y-159400000D03*
D10*
G36*
X146530142Y-158119924D02*
G01*
X146553803Y-158123434D01*
X146577007Y-158129246D01*
X146599529Y-158137304D01*
X146621153Y-158147532D01*
X146641670Y-158159829D01*
X146660883Y-158174079D01*
X146678607Y-158190143D01*
X146694671Y-158207867D01*
X146708921Y-158227080D01*
X146721218Y-158247597D01*
X146731446Y-158269221D01*
X146739504Y-158291743D01*
X146745316Y-158314947D01*
X146748826Y-158338608D01*
X146750000Y-158362500D01*
X146750000Y-158850000D01*
X146748826Y-158873892D01*
X146745316Y-158897553D01*
X146739504Y-158920757D01*
X146731446Y-158943279D01*
X146721218Y-158964903D01*
X146708921Y-158985420D01*
X146694671Y-159004633D01*
X146678607Y-159022357D01*
X146660883Y-159038421D01*
X146641670Y-159052671D01*
X146621153Y-159064968D01*
X146599529Y-159075196D01*
X146577007Y-159083254D01*
X146553803Y-159089066D01*
X146530142Y-159092576D01*
X146506250Y-159093750D01*
X145593750Y-159093750D01*
X145569858Y-159092576D01*
X145546197Y-159089066D01*
X145522993Y-159083254D01*
X145500471Y-159075196D01*
X145478847Y-159064968D01*
X145458330Y-159052671D01*
X145439117Y-159038421D01*
X145421393Y-159022357D01*
X145405329Y-159004633D01*
X145391079Y-158985420D01*
X145378782Y-158964903D01*
X145368554Y-158943279D01*
X145360496Y-158920757D01*
X145354684Y-158897553D01*
X145351174Y-158873892D01*
X145350000Y-158850000D01*
X145350000Y-158362500D01*
X145351174Y-158338608D01*
X145354684Y-158314947D01*
X145360496Y-158291743D01*
X145368554Y-158269221D01*
X145378782Y-158247597D01*
X145391079Y-158227080D01*
X145405329Y-158207867D01*
X145421393Y-158190143D01*
X145439117Y-158174079D01*
X145458330Y-158159829D01*
X145478847Y-158147532D01*
X145500471Y-158137304D01*
X145522993Y-158129246D01*
X145546197Y-158123434D01*
X145569858Y-158119924D01*
X145593750Y-158118750D01*
X146506250Y-158118750D01*
X146530142Y-158119924D01*
X146530142Y-158119924D01*
G37*
D19*
X146050000Y-158606250D03*
D10*
G36*
X146530142Y-159994924D02*
G01*
X146553803Y-159998434D01*
X146577007Y-160004246D01*
X146599529Y-160012304D01*
X146621153Y-160022532D01*
X146641670Y-160034829D01*
X146660883Y-160049079D01*
X146678607Y-160065143D01*
X146694671Y-160082867D01*
X146708921Y-160102080D01*
X146721218Y-160122597D01*
X146731446Y-160144221D01*
X146739504Y-160166743D01*
X146745316Y-160189947D01*
X146748826Y-160213608D01*
X146750000Y-160237500D01*
X146750000Y-160725000D01*
X146748826Y-160748892D01*
X146745316Y-160772553D01*
X146739504Y-160795757D01*
X146731446Y-160818279D01*
X146721218Y-160839903D01*
X146708921Y-160860420D01*
X146694671Y-160879633D01*
X146678607Y-160897357D01*
X146660883Y-160913421D01*
X146641670Y-160927671D01*
X146621153Y-160939968D01*
X146599529Y-160950196D01*
X146577007Y-160958254D01*
X146553803Y-160964066D01*
X146530142Y-160967576D01*
X146506250Y-160968750D01*
X145593750Y-160968750D01*
X145569858Y-160967576D01*
X145546197Y-160964066D01*
X145522993Y-160958254D01*
X145500471Y-160950196D01*
X145478847Y-160939968D01*
X145458330Y-160927671D01*
X145439117Y-160913421D01*
X145421393Y-160897357D01*
X145405329Y-160879633D01*
X145391079Y-160860420D01*
X145378782Y-160839903D01*
X145368554Y-160818279D01*
X145360496Y-160795757D01*
X145354684Y-160772553D01*
X145351174Y-160748892D01*
X145350000Y-160725000D01*
X145350000Y-160237500D01*
X145351174Y-160213608D01*
X145354684Y-160189947D01*
X145360496Y-160166743D01*
X145368554Y-160144221D01*
X145378782Y-160122597D01*
X145391079Y-160102080D01*
X145405329Y-160082867D01*
X145421393Y-160065143D01*
X145439117Y-160049079D01*
X145458330Y-160034829D01*
X145478847Y-160022532D01*
X145500471Y-160012304D01*
X145522993Y-160004246D01*
X145546197Y-159998434D01*
X145569858Y-159994924D01*
X145593750Y-159993750D01*
X146506250Y-159993750D01*
X146530142Y-159994924D01*
X146530142Y-159994924D01*
G37*
D19*
X146050000Y-160481250D03*
D13*
X329287500Y-161100000D03*
X328632501Y-161830000D03*
D14*
X327977500Y-162560000D02*
X329287502Y-161100000D01*
D13*
X334327500Y-160020000D03*
X334307500Y-160310000D03*
D14*
X334287500Y-160600000D02*
X334327500Y-160020000D01*
D13*
X310237500Y-161100000D03*
X309582501Y-161830000D03*
D14*
X308927500Y-162560000D02*
X310237502Y-161100000D01*
D13*
X315277500Y-160020000D03*
X315257500Y-160310000D03*
D14*
X315237500Y-160600000D02*
X315277500Y-160020000D01*
D13*
X291187500Y-161100000D03*
X290532501Y-161830000D03*
D14*
X289877500Y-162560000D02*
X291187502Y-161100000D01*
D13*
X296227500Y-160020000D03*
X296207500Y-160310000D03*
D14*
X296187500Y-160600000D02*
X296227500Y-160020000D01*
D13*
X272137500Y-161100000D03*
X271482501Y-161830000D03*
D14*
X270827500Y-162560000D02*
X272137502Y-161100000D01*
D13*
X277177500Y-160020000D03*
X277157500Y-160310000D03*
D14*
X277137500Y-160600000D02*
X277177500Y-160020000D01*
D13*
X253087500Y-161100000D03*
X252432501Y-161830000D03*
D14*
X251777500Y-162560000D02*
X253087502Y-161100000D01*
D13*
X258127500Y-160020000D03*
X258107500Y-160310000D03*
D14*
X258087500Y-160600000D02*
X258127500Y-160020000D01*
D13*
X112593750Y-161100000D03*
X111938751Y-161830000D03*
D14*
X111283750Y-162560000D02*
X112593752Y-161100000D01*
D13*
X117633750Y-160020000D03*
X117613750Y-160310000D03*
D14*
X117593750Y-160600000D02*
X117633750Y-160020000D01*
D13*
X88781250Y-161100000D03*
X88126251Y-161830000D03*
D14*
X87471250Y-162560000D02*
X88781252Y-161100000D01*
D13*
X93821250Y-160020000D03*
X93801250Y-160310000D03*
D14*
X93781250Y-160600000D02*
X93821250Y-160020000D01*
D13*
X64968750Y-161100000D03*
X64313751Y-161830000D03*
D14*
X63658750Y-162560000D02*
X64968752Y-161100000D01*
D13*
X70008750Y-160020000D03*
X69988750Y-160310000D03*
D14*
X69968750Y-160600000D02*
X70008750Y-160020000D01*
D13*
X329287500Y-142050000D03*
X328632501Y-142780000D03*
D14*
X327977500Y-143510000D02*
X329287502Y-142050000D01*
D13*
X334327500Y-140970000D03*
X334307500Y-141260000D03*
D14*
X334287500Y-141550000D02*
X334327500Y-140970000D01*
D13*
X310237500Y-142050000D03*
X309582501Y-142780000D03*
D14*
X308927500Y-143510000D02*
X310237502Y-142050000D01*
D13*
X315277500Y-140970000D03*
X315257500Y-141260000D03*
D14*
X315237500Y-141550000D02*
X315277500Y-140970000D01*
D13*
X291187500Y-142050000D03*
X290532501Y-142780000D03*
D14*
X289877500Y-143510000D02*
X291187502Y-142050000D01*
D13*
X296227500Y-140970000D03*
X296207500Y-141260000D03*
D14*
X296187500Y-141550000D02*
X296227500Y-140970000D01*
D13*
X272137500Y-142050000D03*
X271482501Y-142780000D03*
D14*
X270827500Y-143510000D02*
X272137502Y-142050000D01*
D13*
X277177500Y-140970000D03*
X277157500Y-141260000D03*
D14*
X277137500Y-141550000D02*
X277177500Y-140970000D01*
D13*
X253087500Y-142050000D03*
X252432501Y-142780000D03*
D14*
X251777500Y-143510000D02*
X253087502Y-142050000D01*
D13*
X258127500Y-140970000D03*
X258107500Y-141260000D03*
D14*
X258087500Y-141550000D02*
X258127500Y-140970000D01*
D13*
X234037500Y-142050000D03*
X233382501Y-142780000D03*
D14*
X232727500Y-143510000D02*
X234037502Y-142050000D01*
D13*
X239077500Y-140970000D03*
X239057500Y-141260000D03*
D14*
X239037500Y-141550000D02*
X239077500Y-140970000D01*
D13*
X214987500Y-142050000D03*
X214332501Y-142780000D03*
D14*
X213677500Y-143510000D02*
X214987502Y-142050000D01*
D13*
X220027500Y-140970000D03*
X220007500Y-141260000D03*
D14*
X219987500Y-141550000D02*
X220027500Y-140970000D01*
D13*
X195937500Y-142050000D03*
X195282501Y-142780000D03*
D14*
X194627500Y-143510000D02*
X195937502Y-142050000D01*
D13*
X200977500Y-140970000D03*
X200957500Y-141260000D03*
D14*
X200937500Y-141550000D02*
X200977500Y-140970000D01*
D13*
X176887500Y-142050000D03*
X176232501Y-142780000D03*
D14*
X175577500Y-143510000D02*
X176887502Y-142050000D01*
D13*
X181927500Y-140970000D03*
X181907500Y-141260000D03*
D14*
X181887500Y-141550000D02*
X181927500Y-140970000D01*
D13*
X157837500Y-142050000D03*
X157182501Y-142780000D03*
D14*
X156527500Y-143510000D02*
X157837502Y-142050000D01*
D13*
X162877500Y-140970000D03*
X162857500Y-141260000D03*
D14*
X162837500Y-141550000D02*
X162877500Y-140970000D01*
D13*
X138787500Y-142050000D03*
X138132501Y-142780000D03*
D14*
X137477500Y-143510000D02*
X138787502Y-142050000D01*
D13*
X143827500Y-140970000D03*
X143807500Y-141260000D03*
D14*
X143787500Y-141550000D02*
X143827500Y-140970000D01*
D13*
X119737500Y-142050000D03*
X119082501Y-142780000D03*
D14*
X118427500Y-143510000D02*
X119737502Y-142050000D01*
D13*
X124777500Y-140970000D03*
X124757500Y-141260000D03*
D14*
X124737500Y-141550000D02*
X124777500Y-140970000D01*
D13*
X100687500Y-142050000D03*
X100032501Y-142780000D03*
D14*
X99377500Y-143510000D02*
X100687502Y-142050000D01*
D13*
X105727500Y-140970000D03*
X105707500Y-141260000D03*
D14*
X105687500Y-141550000D02*
X105727500Y-140970000D01*
D13*
X72112500Y-142050000D03*
X71457501Y-142780000D03*
D14*
X70802500Y-143510000D02*
X72112502Y-142050000D01*
D13*
X77152500Y-140970000D03*
X77132500Y-141260000D03*
D14*
X77112500Y-141550000D02*
X77152500Y-140970000D01*
D13*
X317381250Y-123000000D03*
X316726251Y-123730000D03*
D14*
X316071250Y-124460000D02*
X317381252Y-123000000D01*
D13*
X322421250Y-121920000D03*
X322401250Y-122210000D03*
D14*
X322381250Y-122500000D02*
X322421250Y-121920000D01*
D13*
X286425000Y-123000000D03*
X285770001Y-123730000D03*
D14*
X285115000Y-124460000D02*
X286425002Y-123000000D01*
D13*
X291465000Y-121920000D03*
X291445000Y-122210000D03*
D14*
X291425000Y-122500000D02*
X291465000Y-121920000D01*
D13*
X267375000Y-123000000D03*
X266720001Y-123730000D03*
D14*
X266065000Y-124460000D02*
X267375002Y-123000000D01*
D13*
X272415000Y-121920000D03*
X272395000Y-122210000D03*
D14*
X272375000Y-122500000D02*
X272415000Y-121920000D01*
D13*
X248325000Y-123000000D03*
X247670001Y-123730000D03*
D14*
X247015000Y-124460000D02*
X248325002Y-123000000D01*
D13*
X253365000Y-121920000D03*
X253345000Y-122210000D03*
D14*
X253325000Y-122500000D02*
X253365000Y-121920000D01*
D13*
X229275000Y-123000000D03*
X228620001Y-123730000D03*
D14*
X227965000Y-124460000D02*
X229275002Y-123000000D01*
D13*
X234315000Y-121920000D03*
X234295000Y-122210000D03*
D14*
X234275000Y-122500000D02*
X234315000Y-121920000D01*
D13*
X210225000Y-123000000D03*
X209570001Y-123730000D03*
D14*
X208915000Y-124460000D02*
X210225002Y-123000000D01*
D13*
X215265000Y-121920000D03*
X215245000Y-122210000D03*
D14*
X215225000Y-122500000D02*
X215265000Y-121920000D01*
D13*
X191175000Y-123000000D03*
X190520001Y-123730000D03*
D14*
X189865000Y-124460000D02*
X191175002Y-123000000D01*
D13*
X196215000Y-121920000D03*
X196195000Y-122210000D03*
D14*
X196175000Y-122500000D02*
X196215000Y-121920000D01*
D13*
X172125000Y-123000000D03*
X171470001Y-123730000D03*
D14*
X170815000Y-124460000D02*
X172125002Y-123000000D01*
D13*
X177165000Y-121920000D03*
X177145000Y-122210000D03*
D14*
X177125000Y-122500000D02*
X177165000Y-121920000D01*
D13*
X153075000Y-123000000D03*
X152420001Y-123730000D03*
D14*
X151765000Y-124460000D02*
X153075002Y-123000000D01*
D13*
X158115000Y-121920000D03*
X158095000Y-122210000D03*
D14*
X158075000Y-122500000D02*
X158115000Y-121920000D01*
D13*
X134025000Y-123000000D03*
X133370001Y-123730000D03*
D14*
X132715000Y-124460000D02*
X134025002Y-123000000D01*
D13*
X139065000Y-121920000D03*
X139045000Y-122210000D03*
D14*
X139025000Y-122500000D02*
X139065000Y-121920000D01*
D13*
X114975000Y-123000000D03*
X114320001Y-123730000D03*
D14*
X113665000Y-124460000D02*
X114975002Y-123000000D01*
D13*
X120015000Y-121920000D03*
X119995000Y-122210000D03*
D14*
X119975000Y-122500000D02*
X120015000Y-121920000D01*
D13*
X95925000Y-123000000D03*
X95270001Y-123730000D03*
D14*
X94615000Y-124460000D02*
X95925002Y-123000000D01*
D13*
X100965000Y-121920000D03*
X100945000Y-122210000D03*
D14*
X100925000Y-122500000D02*
X100965000Y-121920000D01*
D13*
X69731250Y-123000000D03*
X69076251Y-123730000D03*
D14*
X68421250Y-124460000D02*
X69731252Y-123000000D01*
D13*
X74771250Y-121920000D03*
X74751250Y-122210000D03*
D14*
X74731250Y-122500000D02*
X74771250Y-121920000D01*
D13*
X324525000Y-103950000D03*
X323870001Y-104680000D03*
D14*
X323215000Y-105410000D02*
X324525002Y-103950000D01*
D13*
X329565000Y-102870000D03*
X329545000Y-103160000D03*
D14*
X329525000Y-103450000D02*
X329565000Y-102870000D01*
D13*
X300712500Y-103950000D03*
X300057501Y-104680000D03*
D14*
X299402500Y-105410000D02*
X300712502Y-103950000D01*
D13*
X305752500Y-102870000D03*
X305732500Y-103160000D03*
D14*
X305712500Y-103450000D02*
X305752500Y-102870000D01*
D13*
X281662500Y-103950000D03*
X281007501Y-104680000D03*
D14*
X280352500Y-105410000D02*
X281662502Y-103950000D01*
D13*
X286702500Y-102870000D03*
X286682500Y-103160000D03*
D14*
X286662500Y-103450000D02*
X286702500Y-102870000D01*
D13*
X262612500Y-103950000D03*
X261957501Y-104680000D03*
D14*
X261302500Y-105410000D02*
X262612502Y-103950000D01*
D13*
X267652500Y-102870000D03*
X267632500Y-103160000D03*
D14*
X267612500Y-103450000D02*
X267652500Y-102870000D01*
D13*
X243562500Y-103950000D03*
X242907501Y-104680000D03*
D14*
X242252500Y-105410000D02*
X243562502Y-103950000D01*
D13*
X248602500Y-102870000D03*
X248582500Y-103160000D03*
D14*
X248562500Y-103450000D02*
X248602500Y-102870000D01*
D13*
X224512500Y-103950000D03*
X223857501Y-104680000D03*
D14*
X223202500Y-105410000D02*
X224512502Y-103950000D01*
D13*
X229552500Y-102870000D03*
X229532500Y-103160000D03*
D14*
X229512500Y-103450000D02*
X229552500Y-102870000D01*
D13*
X205462500Y-103950000D03*
X204807501Y-104680000D03*
D14*
X204152500Y-105410000D02*
X205462502Y-103950000D01*
D13*
X210502500Y-102870000D03*
X210482500Y-103160000D03*
D14*
X210462500Y-103450000D02*
X210502500Y-102870000D01*
D13*
X186412500Y-103950000D03*
X185757501Y-104680000D03*
D14*
X185102500Y-105410000D02*
X186412502Y-103950000D01*
D13*
X191452500Y-102870000D03*
X191432500Y-103160000D03*
D14*
X191412500Y-103450000D02*
X191452500Y-102870000D01*
D13*
X167362500Y-103950000D03*
X166707501Y-104680000D03*
D14*
X166052500Y-105410000D02*
X167362502Y-103950000D01*
D13*
X172402500Y-102870000D03*
X172382500Y-103160000D03*
D14*
X172362500Y-103450000D02*
X172402500Y-102870000D01*
D13*
X148312500Y-103950000D03*
X147657501Y-104680000D03*
D14*
X147002500Y-105410000D02*
X148312502Y-103950000D01*
D13*
X153352500Y-102870000D03*
X153332500Y-103160000D03*
D14*
X153312500Y-103450000D02*
X153352500Y-102870000D01*
D13*
X129262500Y-103950000D03*
X128607501Y-104680000D03*
D14*
X127952500Y-105410000D02*
X129262502Y-103950000D01*
D13*
X134302500Y-102870000D03*
X134282500Y-103160000D03*
D14*
X134262500Y-103450000D02*
X134302500Y-102870000D01*
D13*
X110212500Y-103950000D03*
X109557501Y-104680000D03*
D14*
X108902500Y-105410000D02*
X110212502Y-103950000D01*
D13*
X115252500Y-102870000D03*
X115232500Y-103160000D03*
D14*
X115212500Y-103450000D02*
X115252500Y-102870000D01*
D13*
X91162500Y-103950000D03*
X90507501Y-104680000D03*
D14*
X89852500Y-105410000D02*
X91162502Y-103950000D01*
D13*
X96202500Y-102870000D03*
X96182500Y-103160000D03*
D14*
X96162500Y-103450000D02*
X96202500Y-102870000D01*
D13*
X67350000Y-103950000D03*
X66695001Y-104680000D03*
D14*
X66040000Y-105410000D02*
X67350002Y-103950000D01*
D13*
X72390000Y-102870000D03*
X72370000Y-103160000D03*
D14*
X72350000Y-103450000D02*
X72390000Y-102870000D01*
D13*
X319762500Y-84900000D03*
X319107501Y-85630000D03*
D14*
X318452500Y-86360000D02*
X319762502Y-84900000D01*
D13*
X324802500Y-83820000D03*
X324782500Y-84110000D03*
D14*
X324762500Y-84400000D02*
X324802500Y-83820000D01*
D13*
X291187500Y-84900000D03*
X290532501Y-85630000D03*
D14*
X289877500Y-86360000D02*
X291187502Y-84900000D01*
D13*
X296227500Y-83820000D03*
X296207500Y-84110000D03*
D14*
X296187500Y-84400000D02*
X296227500Y-83820000D01*
D13*
X253087500Y-84900000D03*
X252432501Y-85630000D03*
D14*
X251777500Y-86360000D02*
X253087502Y-84900000D01*
D13*
X258127500Y-83820000D03*
X258107500Y-84110000D03*
D14*
X258087500Y-84400000D02*
X258127500Y-83820000D01*
D13*
X234037500Y-84900000D03*
X233382501Y-85630000D03*
D14*
X232727500Y-86360000D02*
X234037502Y-84900000D01*
D13*
X239077500Y-83820000D03*
X239057500Y-84110000D03*
D14*
X239037500Y-84400000D02*
X239077500Y-83820000D01*
D13*
X214987500Y-84900000D03*
X214332501Y-85630000D03*
D14*
X213677500Y-86360000D02*
X214987502Y-84900000D01*
D13*
X220027500Y-83820000D03*
X220007500Y-84110000D03*
D14*
X219987500Y-84400000D02*
X220027500Y-83820000D01*
D13*
X195937500Y-84900000D03*
X195282501Y-85630000D03*
D14*
X194627500Y-86360000D02*
X195937502Y-84900000D01*
D13*
X200977500Y-83820000D03*
X200957500Y-84110000D03*
D14*
X200937500Y-84400000D02*
X200977500Y-83820000D01*
D13*
X176887500Y-84900000D03*
X176232501Y-85630000D03*
D14*
X175577500Y-86360000D02*
X176887502Y-84900000D01*
D13*
X181927500Y-83820000D03*
X181907500Y-84110000D03*
D14*
X181887500Y-84400000D02*
X181927500Y-83820000D01*
D13*
X157837500Y-84900000D03*
X157182501Y-85630000D03*
D14*
X156527500Y-86360000D02*
X157837502Y-84900000D01*
D13*
X162877500Y-83820000D03*
X162857500Y-84110000D03*
D14*
X162837500Y-84400000D02*
X162877500Y-83820000D01*
D13*
X138787500Y-84900000D03*
X138132501Y-85630000D03*
D14*
X137477500Y-86360000D02*
X138787502Y-84900000D01*
D13*
X143827500Y-83820000D03*
X143807500Y-84110000D03*
D14*
X143787500Y-84400000D02*
X143827500Y-83820000D01*
D13*
X119737500Y-84900000D03*
X119082501Y-85630000D03*
D14*
X118427500Y-86360000D02*
X119737502Y-84900000D01*
D13*
X124777500Y-83820000D03*
X124757500Y-84110000D03*
D14*
X124737500Y-84400000D02*
X124777500Y-83820000D01*
D13*
X100687500Y-84900000D03*
X100032501Y-85630000D03*
D14*
X99377500Y-86360000D02*
X100687502Y-84900000D01*
D13*
X105727500Y-83820000D03*
X105707500Y-84110000D03*
D14*
X105687500Y-84400000D02*
X105727500Y-83820000D01*
D13*
X62587500Y-84900000D03*
X61932501Y-85630000D03*
D14*
X61277500Y-86360000D02*
X62587502Y-84900000D01*
D13*
X67627500Y-83820000D03*
X67607500Y-84110000D03*
D14*
X67587500Y-84400000D02*
X67627500Y-83820000D01*
D10*
G36*
X86374504Y-131326204D02*
G01*
X86398773Y-131329804D01*
X86422571Y-131335765D01*
X86445671Y-131344030D01*
X86467849Y-131354520D01*
X86488893Y-131367133D01*
X86508598Y-131381747D01*
X86526777Y-131398223D01*
X86543253Y-131416402D01*
X86557867Y-131436107D01*
X86570480Y-131457151D01*
X86580970Y-131479329D01*
X86589235Y-131502429D01*
X86595196Y-131526227D01*
X86598796Y-131550496D01*
X86600000Y-131575000D01*
X86600000Y-132325000D01*
X86598796Y-132349504D01*
X86595196Y-132373773D01*
X86589235Y-132397571D01*
X86580970Y-132420671D01*
X86570480Y-132442849D01*
X86557867Y-132463893D01*
X86543253Y-132483598D01*
X86526777Y-132501777D01*
X86508598Y-132518253D01*
X86488893Y-132532867D01*
X86467849Y-132545480D01*
X86445671Y-132555970D01*
X86422571Y-132564235D01*
X86398773Y-132570196D01*
X86374504Y-132573796D01*
X86350000Y-132575000D01*
X85100000Y-132575000D01*
X85075496Y-132573796D01*
X85051227Y-132570196D01*
X85027429Y-132564235D01*
X85004329Y-132555970D01*
X84982151Y-132545480D01*
X84961107Y-132532867D01*
X84941402Y-132518253D01*
X84923223Y-132501777D01*
X84906747Y-132483598D01*
X84892133Y-132463893D01*
X84879520Y-132442849D01*
X84869030Y-132420671D01*
X84860765Y-132397571D01*
X84854804Y-132373773D01*
X84851204Y-132349504D01*
X84850000Y-132325000D01*
X84850000Y-131575000D01*
X84851204Y-131550496D01*
X84854804Y-131526227D01*
X84860765Y-131502429D01*
X84869030Y-131479329D01*
X84879520Y-131457151D01*
X84892133Y-131436107D01*
X84906747Y-131416402D01*
X84923223Y-131398223D01*
X84941402Y-131381747D01*
X84961107Y-131367133D01*
X84982151Y-131354520D01*
X85004329Y-131344030D01*
X85027429Y-131335765D01*
X85051227Y-131329804D01*
X85075496Y-131326204D01*
X85100000Y-131325000D01*
X86350000Y-131325000D01*
X86374504Y-131326204D01*
X86374504Y-131326204D01*
G37*
D20*
X85725000Y-131950000D03*
D10*
G36*
X86374504Y-134126204D02*
G01*
X86398773Y-134129804D01*
X86422571Y-134135765D01*
X86445671Y-134144030D01*
X86467849Y-134154520D01*
X86488893Y-134167133D01*
X86508598Y-134181747D01*
X86526777Y-134198223D01*
X86543253Y-134216402D01*
X86557867Y-134236107D01*
X86570480Y-134257151D01*
X86580970Y-134279329D01*
X86589235Y-134302429D01*
X86595196Y-134326227D01*
X86598796Y-134350496D01*
X86600000Y-134375000D01*
X86600000Y-135125000D01*
X86598796Y-135149504D01*
X86595196Y-135173773D01*
X86589235Y-135197571D01*
X86580970Y-135220671D01*
X86570480Y-135242849D01*
X86557867Y-135263893D01*
X86543253Y-135283598D01*
X86526777Y-135301777D01*
X86508598Y-135318253D01*
X86488893Y-135332867D01*
X86467849Y-135345480D01*
X86445671Y-135355970D01*
X86422571Y-135364235D01*
X86398773Y-135370196D01*
X86374504Y-135373796D01*
X86350000Y-135375000D01*
X85100000Y-135375000D01*
X85075496Y-135373796D01*
X85051227Y-135370196D01*
X85027429Y-135364235D01*
X85004329Y-135355970D01*
X84982151Y-135345480D01*
X84961107Y-135332867D01*
X84941402Y-135318253D01*
X84923223Y-135301777D01*
X84906747Y-135283598D01*
X84892133Y-135263893D01*
X84879520Y-135242849D01*
X84869030Y-135220671D01*
X84860765Y-135197571D01*
X84854804Y-135173773D01*
X84851204Y-135149504D01*
X84850000Y-135125000D01*
X84850000Y-134375000D01*
X84851204Y-134350496D01*
X84854804Y-134326227D01*
X84860765Y-134302429D01*
X84869030Y-134279329D01*
X84879520Y-134257151D01*
X84892133Y-134236107D01*
X84906747Y-134216402D01*
X84923223Y-134198223D01*
X84941402Y-134181747D01*
X84961107Y-134167133D01*
X84982151Y-134154520D01*
X85004329Y-134144030D01*
X85027429Y-134135765D01*
X85051227Y-134129804D01*
X85075496Y-134126204D01*
X85100000Y-134125000D01*
X86350000Y-134125000D01*
X86374504Y-134126204D01*
X86374504Y-134126204D01*
G37*
D20*
X85725000Y-134750000D03*
D21*
X339725000Y-163450000D03*
X339725000Y-166750000D03*
X320675000Y-163450000D03*
X320675000Y-166750000D03*
X301625000Y-163450000D03*
X301625000Y-166750000D03*
X282575000Y-163450000D03*
X282575000Y-166750000D03*
X263525000Y-163450000D03*
X263525000Y-166750000D03*
X198437500Y-163450000D03*
X198437500Y-166750000D03*
X123825000Y-163450000D03*
X123825000Y-166750000D03*
X100012500Y-163450000D03*
X100012500Y-166750000D03*
X76200000Y-163450000D03*
X76200000Y-166750000D03*
X339725000Y-144400000D03*
X339725000Y-147700000D03*
X320675000Y-144400000D03*
X320675000Y-147700000D03*
X301625000Y-144400000D03*
X301625000Y-147700000D03*
X282575000Y-144400000D03*
X282575000Y-147700000D03*
X263525000Y-144400000D03*
X263525000Y-147700000D03*
X244475000Y-144400000D03*
X244475000Y-147700000D03*
X225425000Y-144400000D03*
X225425000Y-147700000D03*
X206375000Y-144400000D03*
X206375000Y-147700000D03*
X187325000Y-144400000D03*
X187325000Y-147700000D03*
X168275000Y-144400000D03*
X168275000Y-147700000D03*
X149225000Y-144400000D03*
X149225000Y-147700000D03*
X130175000Y-144400000D03*
X130175000Y-147700000D03*
X111125000Y-144400000D03*
X111125000Y-147700000D03*
X86518750Y-144400000D03*
X86518750Y-147700000D03*
X329406250Y-125350000D03*
X329406250Y-128650000D03*
X296862500Y-125350000D03*
X296862500Y-128650000D03*
X277812500Y-125350000D03*
X277812500Y-128650000D03*
X258762500Y-125350000D03*
X258762500Y-128650000D03*
X239712500Y-125350000D03*
X239712500Y-128650000D03*
X220662500Y-125350000D03*
X220662500Y-128650000D03*
X201612500Y-125350000D03*
X201612500Y-128650000D03*
X182562500Y-125350000D03*
X182562500Y-128650000D03*
X163512500Y-125350000D03*
X163512500Y-128650000D03*
X144462500Y-125350000D03*
X144462500Y-128650000D03*
X125412500Y-125350000D03*
X125412500Y-128650000D03*
X106362500Y-125350000D03*
X106362500Y-128650000D03*
X81756250Y-125350000D03*
X81756250Y-128650000D03*
X336550000Y-106237500D03*
X336550000Y-109537500D03*
X311150000Y-106300000D03*
X311150000Y-109600000D03*
X292100000Y-106300000D03*
X292100000Y-109600000D03*
X273050000Y-106300000D03*
X273050000Y-109600000D03*
X254000000Y-106300000D03*
X254000000Y-109600000D03*
X234950000Y-106300000D03*
X234950000Y-109600000D03*
X215900000Y-106300000D03*
X215900000Y-109600000D03*
X196850000Y-106300000D03*
X196850000Y-109600000D03*
X177800000Y-106300000D03*
X177800000Y-109600000D03*
X158750000Y-106300000D03*
X158750000Y-109600000D03*
X139700000Y-106300000D03*
X139700000Y-109600000D03*
X120650000Y-106300000D03*
X120650000Y-109600000D03*
X101600000Y-106300000D03*
X101600000Y-109600000D03*
X80168750Y-106300000D03*
X80168750Y-109600000D03*
X330993750Y-87250000D03*
X330993750Y-90550000D03*
X301625000Y-87250000D03*
X301625000Y-90550000D03*
X282575000Y-87250000D03*
X282575000Y-90550000D03*
X263525000Y-87250000D03*
X263525000Y-90550000D03*
X244475000Y-87250000D03*
X244475000Y-90550000D03*
X225425000Y-87250000D03*
X225425000Y-90550000D03*
X206375000Y-87250000D03*
X206375000Y-90550000D03*
X187325000Y-87250000D03*
X187325000Y-90550000D03*
X168275000Y-87250000D03*
X168275000Y-90550000D03*
X149225000Y-87250000D03*
X149225000Y-90550000D03*
X130175000Y-87250000D03*
X130175000Y-90550000D03*
X111125000Y-87250000D03*
X111125000Y-90550000D03*
X92075000Y-87250000D03*
X92075000Y-90550000D03*
X73025000Y-87250000D03*
X73025000Y-90550000D03*
D10*
G36*
X149705142Y-169519924D02*
G01*
X149728803Y-169523434D01*
X149752007Y-169529246D01*
X149774529Y-169537304D01*
X149796153Y-169547532D01*
X149816670Y-169559829D01*
X149835883Y-169574079D01*
X149853607Y-169590143D01*
X149869671Y-169607867D01*
X149883921Y-169627080D01*
X149896218Y-169647597D01*
X149906446Y-169669221D01*
X149914504Y-169691743D01*
X149920316Y-169714947D01*
X149923826Y-169738608D01*
X149925000Y-169762500D01*
X149925000Y-170250000D01*
X149923826Y-170273892D01*
X149920316Y-170297553D01*
X149914504Y-170320757D01*
X149906446Y-170343279D01*
X149896218Y-170364903D01*
X149883921Y-170385420D01*
X149869671Y-170404633D01*
X149853607Y-170422357D01*
X149835883Y-170438421D01*
X149816670Y-170452671D01*
X149796153Y-170464968D01*
X149774529Y-170475196D01*
X149752007Y-170483254D01*
X149728803Y-170489066D01*
X149705142Y-170492576D01*
X149681250Y-170493750D01*
X148768750Y-170493750D01*
X148744858Y-170492576D01*
X148721197Y-170489066D01*
X148697993Y-170483254D01*
X148675471Y-170475196D01*
X148653847Y-170464968D01*
X148633330Y-170452671D01*
X148614117Y-170438421D01*
X148596393Y-170422357D01*
X148580329Y-170404633D01*
X148566079Y-170385420D01*
X148553782Y-170364903D01*
X148543554Y-170343279D01*
X148535496Y-170320757D01*
X148529684Y-170297553D01*
X148526174Y-170273892D01*
X148525000Y-170250000D01*
X148525000Y-169762500D01*
X148526174Y-169738608D01*
X148529684Y-169714947D01*
X148535496Y-169691743D01*
X148543554Y-169669221D01*
X148553782Y-169647597D01*
X148566079Y-169627080D01*
X148580329Y-169607867D01*
X148596393Y-169590143D01*
X148614117Y-169574079D01*
X148633330Y-169559829D01*
X148653847Y-169547532D01*
X148675471Y-169537304D01*
X148697993Y-169529246D01*
X148721197Y-169523434D01*
X148744858Y-169519924D01*
X148768750Y-169518750D01*
X149681250Y-169518750D01*
X149705142Y-169519924D01*
X149705142Y-169519924D01*
G37*
D19*
X149225000Y-170006250D03*
D10*
G36*
X149705142Y-167644924D02*
G01*
X149728803Y-167648434D01*
X149752007Y-167654246D01*
X149774529Y-167662304D01*
X149796153Y-167672532D01*
X149816670Y-167684829D01*
X149835883Y-167699079D01*
X149853607Y-167715143D01*
X149869671Y-167732867D01*
X149883921Y-167752080D01*
X149896218Y-167772597D01*
X149906446Y-167794221D01*
X149914504Y-167816743D01*
X149920316Y-167839947D01*
X149923826Y-167863608D01*
X149925000Y-167887500D01*
X149925000Y-168375000D01*
X149923826Y-168398892D01*
X149920316Y-168422553D01*
X149914504Y-168445757D01*
X149906446Y-168468279D01*
X149896218Y-168489903D01*
X149883921Y-168510420D01*
X149869671Y-168529633D01*
X149853607Y-168547357D01*
X149835883Y-168563421D01*
X149816670Y-168577671D01*
X149796153Y-168589968D01*
X149774529Y-168600196D01*
X149752007Y-168608254D01*
X149728803Y-168614066D01*
X149705142Y-168617576D01*
X149681250Y-168618750D01*
X148768750Y-168618750D01*
X148744858Y-168617576D01*
X148721197Y-168614066D01*
X148697993Y-168608254D01*
X148675471Y-168600196D01*
X148653847Y-168589968D01*
X148633330Y-168577671D01*
X148614117Y-168563421D01*
X148596393Y-168547357D01*
X148580329Y-168529633D01*
X148566079Y-168510420D01*
X148553782Y-168489903D01*
X148543554Y-168468279D01*
X148535496Y-168445757D01*
X148529684Y-168422553D01*
X148526174Y-168398892D01*
X148525000Y-168375000D01*
X148525000Y-167887500D01*
X148526174Y-167863608D01*
X148529684Y-167839947D01*
X148535496Y-167816743D01*
X148543554Y-167794221D01*
X148553782Y-167772597D01*
X148566079Y-167752080D01*
X148580329Y-167732867D01*
X148596393Y-167715143D01*
X148614117Y-167699079D01*
X148633330Y-167684829D01*
X148653847Y-167672532D01*
X148675471Y-167662304D01*
X148697993Y-167654246D01*
X148721197Y-167648434D01*
X148744858Y-167644924D01*
X148768750Y-167643750D01*
X149681250Y-167643750D01*
X149705142Y-167644924D01*
X149705142Y-167644924D01*
G37*
D19*
X149225000Y-168131250D03*
D10*
G36*
X167605142Y-169957424D02*
G01*
X167628803Y-169960934D01*
X167652007Y-169966746D01*
X167674529Y-169974804D01*
X167696153Y-169985032D01*
X167716670Y-169997329D01*
X167735883Y-170011579D01*
X167753607Y-170027643D01*
X167769671Y-170045367D01*
X167783921Y-170064580D01*
X167796218Y-170085097D01*
X167806446Y-170106721D01*
X167814504Y-170129243D01*
X167820316Y-170152447D01*
X167823826Y-170176108D01*
X167825000Y-170200000D01*
X167825000Y-171112500D01*
X167823826Y-171136392D01*
X167820316Y-171160053D01*
X167814504Y-171183257D01*
X167806446Y-171205779D01*
X167796218Y-171227403D01*
X167783921Y-171247920D01*
X167769671Y-171267133D01*
X167753607Y-171284857D01*
X167735883Y-171300921D01*
X167716670Y-171315171D01*
X167696153Y-171327468D01*
X167674529Y-171337696D01*
X167652007Y-171345754D01*
X167628803Y-171351566D01*
X167605142Y-171355076D01*
X167581250Y-171356250D01*
X167093750Y-171356250D01*
X167069858Y-171355076D01*
X167046197Y-171351566D01*
X167022993Y-171345754D01*
X167000471Y-171337696D01*
X166978847Y-171327468D01*
X166958330Y-171315171D01*
X166939117Y-171300921D01*
X166921393Y-171284857D01*
X166905329Y-171267133D01*
X166891079Y-171247920D01*
X166878782Y-171227403D01*
X166868554Y-171205779D01*
X166860496Y-171183257D01*
X166854684Y-171160053D01*
X166851174Y-171136392D01*
X166850000Y-171112500D01*
X166850000Y-170200000D01*
X166851174Y-170176108D01*
X166854684Y-170152447D01*
X166860496Y-170129243D01*
X166868554Y-170106721D01*
X166878782Y-170085097D01*
X166891079Y-170064580D01*
X166905329Y-170045367D01*
X166921393Y-170027643D01*
X166939117Y-170011579D01*
X166958330Y-169997329D01*
X166978847Y-169985032D01*
X167000471Y-169974804D01*
X167022993Y-169966746D01*
X167046197Y-169960934D01*
X167069858Y-169957424D01*
X167093750Y-169956250D01*
X167581250Y-169956250D01*
X167605142Y-169957424D01*
X167605142Y-169957424D01*
G37*
D19*
X167337500Y-170656250D03*
D10*
G36*
X169480142Y-169957424D02*
G01*
X169503803Y-169960934D01*
X169527007Y-169966746D01*
X169549529Y-169974804D01*
X169571153Y-169985032D01*
X169591670Y-169997329D01*
X169610883Y-170011579D01*
X169628607Y-170027643D01*
X169644671Y-170045367D01*
X169658921Y-170064580D01*
X169671218Y-170085097D01*
X169681446Y-170106721D01*
X169689504Y-170129243D01*
X169695316Y-170152447D01*
X169698826Y-170176108D01*
X169700000Y-170200000D01*
X169700000Y-171112500D01*
X169698826Y-171136392D01*
X169695316Y-171160053D01*
X169689504Y-171183257D01*
X169681446Y-171205779D01*
X169671218Y-171227403D01*
X169658921Y-171247920D01*
X169644671Y-171267133D01*
X169628607Y-171284857D01*
X169610883Y-171300921D01*
X169591670Y-171315171D01*
X169571153Y-171327468D01*
X169549529Y-171337696D01*
X169527007Y-171345754D01*
X169503803Y-171351566D01*
X169480142Y-171355076D01*
X169456250Y-171356250D01*
X168968750Y-171356250D01*
X168944858Y-171355076D01*
X168921197Y-171351566D01*
X168897993Y-171345754D01*
X168875471Y-171337696D01*
X168853847Y-171327468D01*
X168833330Y-171315171D01*
X168814117Y-171300921D01*
X168796393Y-171284857D01*
X168780329Y-171267133D01*
X168766079Y-171247920D01*
X168753782Y-171227403D01*
X168743554Y-171205779D01*
X168735496Y-171183257D01*
X168729684Y-171160053D01*
X168726174Y-171136392D01*
X168725000Y-171112500D01*
X168725000Y-170200000D01*
X168726174Y-170176108D01*
X168729684Y-170152447D01*
X168735496Y-170129243D01*
X168743554Y-170106721D01*
X168753782Y-170085097D01*
X168766079Y-170064580D01*
X168780329Y-170045367D01*
X168796393Y-170027643D01*
X168814117Y-170011579D01*
X168833330Y-169997329D01*
X168853847Y-169985032D01*
X168875471Y-169974804D01*
X168897993Y-169966746D01*
X168921197Y-169960934D01*
X168944858Y-169957424D01*
X168968750Y-169956250D01*
X169456250Y-169956250D01*
X169480142Y-169957424D01*
X169480142Y-169957424D01*
G37*
D19*
X169212500Y-170656250D03*
D10*
G36*
X168755142Y-158913674D02*
G01*
X168778803Y-158917184D01*
X168802007Y-158922996D01*
X168824529Y-158931054D01*
X168846153Y-158941282D01*
X168866670Y-158953579D01*
X168885883Y-158967829D01*
X168903607Y-158983893D01*
X168919671Y-159001617D01*
X168933921Y-159020830D01*
X168946218Y-159041347D01*
X168956446Y-159062971D01*
X168964504Y-159085493D01*
X168970316Y-159108697D01*
X168973826Y-159132358D01*
X168975000Y-159156250D01*
X168975000Y-159643750D01*
X168973826Y-159667642D01*
X168970316Y-159691303D01*
X168964504Y-159714507D01*
X168956446Y-159737029D01*
X168946218Y-159758653D01*
X168933921Y-159779170D01*
X168919671Y-159798383D01*
X168903607Y-159816107D01*
X168885883Y-159832171D01*
X168866670Y-159846421D01*
X168846153Y-159858718D01*
X168824529Y-159868946D01*
X168802007Y-159877004D01*
X168778803Y-159882816D01*
X168755142Y-159886326D01*
X168731250Y-159887500D01*
X167818750Y-159887500D01*
X167794858Y-159886326D01*
X167771197Y-159882816D01*
X167747993Y-159877004D01*
X167725471Y-159868946D01*
X167703847Y-159858718D01*
X167683330Y-159846421D01*
X167664117Y-159832171D01*
X167646393Y-159816107D01*
X167630329Y-159798383D01*
X167616079Y-159779170D01*
X167603782Y-159758653D01*
X167593554Y-159737029D01*
X167585496Y-159714507D01*
X167579684Y-159691303D01*
X167576174Y-159667642D01*
X167575000Y-159643750D01*
X167575000Y-159156250D01*
X167576174Y-159132358D01*
X167579684Y-159108697D01*
X167585496Y-159085493D01*
X167593554Y-159062971D01*
X167603782Y-159041347D01*
X167616079Y-159020830D01*
X167630329Y-159001617D01*
X167646393Y-158983893D01*
X167664117Y-158967829D01*
X167683330Y-158953579D01*
X167703847Y-158941282D01*
X167725471Y-158931054D01*
X167747993Y-158922996D01*
X167771197Y-158917184D01*
X167794858Y-158913674D01*
X167818750Y-158912500D01*
X168731250Y-158912500D01*
X168755142Y-158913674D01*
X168755142Y-158913674D01*
G37*
D19*
X168275000Y-159400000D03*
D10*
G36*
X168755142Y-160788674D02*
G01*
X168778803Y-160792184D01*
X168802007Y-160797996D01*
X168824529Y-160806054D01*
X168846153Y-160816282D01*
X168866670Y-160828579D01*
X168885883Y-160842829D01*
X168903607Y-160858893D01*
X168919671Y-160876617D01*
X168933921Y-160895830D01*
X168946218Y-160916347D01*
X168956446Y-160937971D01*
X168964504Y-160960493D01*
X168970316Y-160983697D01*
X168973826Y-161007358D01*
X168975000Y-161031250D01*
X168975000Y-161518750D01*
X168973826Y-161542642D01*
X168970316Y-161566303D01*
X168964504Y-161589507D01*
X168956446Y-161612029D01*
X168946218Y-161633653D01*
X168933921Y-161654170D01*
X168919671Y-161673383D01*
X168903607Y-161691107D01*
X168885883Y-161707171D01*
X168866670Y-161721421D01*
X168846153Y-161733718D01*
X168824529Y-161743946D01*
X168802007Y-161752004D01*
X168778803Y-161757816D01*
X168755142Y-161761326D01*
X168731250Y-161762500D01*
X167818750Y-161762500D01*
X167794858Y-161761326D01*
X167771197Y-161757816D01*
X167747993Y-161752004D01*
X167725471Y-161743946D01*
X167703847Y-161733718D01*
X167683330Y-161721421D01*
X167664117Y-161707171D01*
X167646393Y-161691107D01*
X167630329Y-161673383D01*
X167616079Y-161654170D01*
X167603782Y-161633653D01*
X167593554Y-161612029D01*
X167585496Y-161589507D01*
X167579684Y-161566303D01*
X167576174Y-161542642D01*
X167575000Y-161518750D01*
X167575000Y-161031250D01*
X167576174Y-161007358D01*
X167579684Y-160983697D01*
X167585496Y-160960493D01*
X167593554Y-160937971D01*
X167603782Y-160916347D01*
X167616079Y-160895830D01*
X167630329Y-160876617D01*
X167646393Y-160858893D01*
X167664117Y-160842829D01*
X167683330Y-160828579D01*
X167703847Y-160816282D01*
X167725471Y-160806054D01*
X167747993Y-160797996D01*
X167771197Y-160792184D01*
X167794858Y-160788674D01*
X167818750Y-160787500D01*
X168731250Y-160787500D01*
X168755142Y-160788674D01*
X168755142Y-160788674D01*
G37*
D19*
X168275000Y-161275000D03*
D10*
G36*
X149705142Y-158119924D02*
G01*
X149728803Y-158123434D01*
X149752007Y-158129246D01*
X149774529Y-158137304D01*
X149796153Y-158147532D01*
X149816670Y-158159829D01*
X149835883Y-158174079D01*
X149853607Y-158190143D01*
X149869671Y-158207867D01*
X149883921Y-158227080D01*
X149896218Y-158247597D01*
X149906446Y-158269221D01*
X149914504Y-158291743D01*
X149920316Y-158314947D01*
X149923826Y-158338608D01*
X149925000Y-158362500D01*
X149925000Y-158850000D01*
X149923826Y-158873892D01*
X149920316Y-158897553D01*
X149914504Y-158920757D01*
X149906446Y-158943279D01*
X149896218Y-158964903D01*
X149883921Y-158985420D01*
X149869671Y-159004633D01*
X149853607Y-159022357D01*
X149835883Y-159038421D01*
X149816670Y-159052671D01*
X149796153Y-159064968D01*
X149774529Y-159075196D01*
X149752007Y-159083254D01*
X149728803Y-159089066D01*
X149705142Y-159092576D01*
X149681250Y-159093750D01*
X148768750Y-159093750D01*
X148744858Y-159092576D01*
X148721197Y-159089066D01*
X148697993Y-159083254D01*
X148675471Y-159075196D01*
X148653847Y-159064968D01*
X148633330Y-159052671D01*
X148614117Y-159038421D01*
X148596393Y-159022357D01*
X148580329Y-159004633D01*
X148566079Y-158985420D01*
X148553782Y-158964903D01*
X148543554Y-158943279D01*
X148535496Y-158920757D01*
X148529684Y-158897553D01*
X148526174Y-158873892D01*
X148525000Y-158850000D01*
X148525000Y-158362500D01*
X148526174Y-158338608D01*
X148529684Y-158314947D01*
X148535496Y-158291743D01*
X148543554Y-158269221D01*
X148553782Y-158247597D01*
X148566079Y-158227080D01*
X148580329Y-158207867D01*
X148596393Y-158190143D01*
X148614117Y-158174079D01*
X148633330Y-158159829D01*
X148653847Y-158147532D01*
X148675471Y-158137304D01*
X148697993Y-158129246D01*
X148721197Y-158123434D01*
X148744858Y-158119924D01*
X148768750Y-158118750D01*
X149681250Y-158118750D01*
X149705142Y-158119924D01*
X149705142Y-158119924D01*
G37*
D19*
X149225000Y-158606250D03*
D10*
G36*
X149705142Y-159994924D02*
G01*
X149728803Y-159998434D01*
X149752007Y-160004246D01*
X149774529Y-160012304D01*
X149796153Y-160022532D01*
X149816670Y-160034829D01*
X149835883Y-160049079D01*
X149853607Y-160065143D01*
X149869671Y-160082867D01*
X149883921Y-160102080D01*
X149896218Y-160122597D01*
X149906446Y-160144221D01*
X149914504Y-160166743D01*
X149920316Y-160189947D01*
X149923826Y-160213608D01*
X149925000Y-160237500D01*
X149925000Y-160725000D01*
X149923826Y-160748892D01*
X149920316Y-160772553D01*
X149914504Y-160795757D01*
X149906446Y-160818279D01*
X149896218Y-160839903D01*
X149883921Y-160860420D01*
X149869671Y-160879633D01*
X149853607Y-160897357D01*
X149835883Y-160913421D01*
X149816670Y-160927671D01*
X149796153Y-160939968D01*
X149774529Y-160950196D01*
X149752007Y-160958254D01*
X149728803Y-160964066D01*
X149705142Y-160967576D01*
X149681250Y-160968750D01*
X148768750Y-160968750D01*
X148744858Y-160967576D01*
X148721197Y-160964066D01*
X148697993Y-160958254D01*
X148675471Y-160950196D01*
X148653847Y-160939968D01*
X148633330Y-160927671D01*
X148614117Y-160913421D01*
X148596393Y-160897357D01*
X148580329Y-160879633D01*
X148566079Y-160860420D01*
X148553782Y-160839903D01*
X148543554Y-160818279D01*
X148535496Y-160795757D01*
X148529684Y-160772553D01*
X148526174Y-160748892D01*
X148525000Y-160725000D01*
X148525000Y-160237500D01*
X148526174Y-160213608D01*
X148529684Y-160189947D01*
X148535496Y-160166743D01*
X148543554Y-160144221D01*
X148553782Y-160122597D01*
X148566079Y-160102080D01*
X148580329Y-160082867D01*
X148596393Y-160065143D01*
X148614117Y-160049079D01*
X148633330Y-160034829D01*
X148653847Y-160022532D01*
X148675471Y-160012304D01*
X148697993Y-160004246D01*
X148721197Y-159998434D01*
X148744858Y-159994924D01*
X148768750Y-159993750D01*
X149681250Y-159993750D01*
X149705142Y-159994924D01*
X149705142Y-159994924D01*
G37*
D19*
X149225000Y-160481250D03*
D10*
G36*
X147323892Y-163963674D02*
G01*
X147347553Y-163967184D01*
X147370757Y-163972996D01*
X147393279Y-163981054D01*
X147414903Y-163991282D01*
X147435420Y-164003579D01*
X147454633Y-164017829D01*
X147472357Y-164033893D01*
X147488421Y-164051617D01*
X147502671Y-164070830D01*
X147514968Y-164091347D01*
X147525196Y-164112971D01*
X147533254Y-164135493D01*
X147539066Y-164158697D01*
X147542576Y-164182358D01*
X147543750Y-164206250D01*
X147543750Y-164693750D01*
X147542576Y-164717642D01*
X147539066Y-164741303D01*
X147533254Y-164764507D01*
X147525196Y-164787029D01*
X147514968Y-164808653D01*
X147502671Y-164829170D01*
X147488421Y-164848383D01*
X147472357Y-164866107D01*
X147454633Y-164882171D01*
X147435420Y-164896421D01*
X147414903Y-164908718D01*
X147393279Y-164918946D01*
X147370757Y-164927004D01*
X147347553Y-164932816D01*
X147323892Y-164936326D01*
X147300000Y-164937500D01*
X146387500Y-164937500D01*
X146363608Y-164936326D01*
X146339947Y-164932816D01*
X146316743Y-164927004D01*
X146294221Y-164918946D01*
X146272597Y-164908718D01*
X146252080Y-164896421D01*
X146232867Y-164882171D01*
X146215143Y-164866107D01*
X146199079Y-164848383D01*
X146184829Y-164829170D01*
X146172532Y-164808653D01*
X146162304Y-164787029D01*
X146154246Y-164764507D01*
X146148434Y-164741303D01*
X146144924Y-164717642D01*
X146143750Y-164693750D01*
X146143750Y-164206250D01*
X146144924Y-164182358D01*
X146148434Y-164158697D01*
X146154246Y-164135493D01*
X146162304Y-164112971D01*
X146172532Y-164091347D01*
X146184829Y-164070830D01*
X146199079Y-164051617D01*
X146215143Y-164033893D01*
X146232867Y-164017829D01*
X146252080Y-164003579D01*
X146272597Y-163991282D01*
X146294221Y-163981054D01*
X146316743Y-163972996D01*
X146339947Y-163967184D01*
X146363608Y-163963674D01*
X146387500Y-163962500D01*
X147300000Y-163962500D01*
X147323892Y-163963674D01*
X147323892Y-163963674D01*
G37*
D19*
X146843750Y-164450000D03*
D10*
G36*
X147323892Y-162088674D02*
G01*
X147347553Y-162092184D01*
X147370757Y-162097996D01*
X147393279Y-162106054D01*
X147414903Y-162116282D01*
X147435420Y-162128579D01*
X147454633Y-162142829D01*
X147472357Y-162158893D01*
X147488421Y-162176617D01*
X147502671Y-162195830D01*
X147514968Y-162216347D01*
X147525196Y-162237971D01*
X147533254Y-162260493D01*
X147539066Y-162283697D01*
X147542576Y-162307358D01*
X147543750Y-162331250D01*
X147543750Y-162818750D01*
X147542576Y-162842642D01*
X147539066Y-162866303D01*
X147533254Y-162889507D01*
X147525196Y-162912029D01*
X147514968Y-162933653D01*
X147502671Y-162954170D01*
X147488421Y-162973383D01*
X147472357Y-162991107D01*
X147454633Y-163007171D01*
X147435420Y-163021421D01*
X147414903Y-163033718D01*
X147393279Y-163043946D01*
X147370757Y-163052004D01*
X147347553Y-163057816D01*
X147323892Y-163061326D01*
X147300000Y-163062500D01*
X146387500Y-163062500D01*
X146363608Y-163061326D01*
X146339947Y-163057816D01*
X146316743Y-163052004D01*
X146294221Y-163043946D01*
X146272597Y-163033718D01*
X146252080Y-163021421D01*
X146232867Y-163007171D01*
X146215143Y-162991107D01*
X146199079Y-162973383D01*
X146184829Y-162954170D01*
X146172532Y-162933653D01*
X146162304Y-162912029D01*
X146154246Y-162889507D01*
X146148434Y-162866303D01*
X146144924Y-162842642D01*
X146143750Y-162818750D01*
X146143750Y-162331250D01*
X146144924Y-162307358D01*
X146148434Y-162283697D01*
X146154246Y-162260493D01*
X146162304Y-162237971D01*
X146172532Y-162216347D01*
X146184829Y-162195830D01*
X146199079Y-162176617D01*
X146215143Y-162158893D01*
X146232867Y-162142829D01*
X146252080Y-162128579D01*
X146272597Y-162116282D01*
X146294221Y-162106054D01*
X146316743Y-162097996D01*
X146339947Y-162092184D01*
X146363608Y-162088674D01*
X146387500Y-162087500D01*
X147300000Y-162087500D01*
X147323892Y-162088674D01*
X147323892Y-162088674D01*
G37*
D19*
X146843750Y-162575000D03*
D10*
G36*
X147323892Y-153644924D02*
G01*
X147347553Y-153648434D01*
X147370757Y-153654246D01*
X147393279Y-153662304D01*
X147414903Y-153672532D01*
X147435420Y-153684829D01*
X147454633Y-153699079D01*
X147472357Y-153715143D01*
X147488421Y-153732867D01*
X147502671Y-153752080D01*
X147514968Y-153772597D01*
X147525196Y-153794221D01*
X147533254Y-153816743D01*
X147539066Y-153839947D01*
X147542576Y-153863608D01*
X147543750Y-153887500D01*
X147543750Y-154375000D01*
X147542576Y-154398892D01*
X147539066Y-154422553D01*
X147533254Y-154445757D01*
X147525196Y-154468279D01*
X147514968Y-154489903D01*
X147502671Y-154510420D01*
X147488421Y-154529633D01*
X147472357Y-154547357D01*
X147454633Y-154563421D01*
X147435420Y-154577671D01*
X147414903Y-154589968D01*
X147393279Y-154600196D01*
X147370757Y-154608254D01*
X147347553Y-154614066D01*
X147323892Y-154617576D01*
X147300000Y-154618750D01*
X146387500Y-154618750D01*
X146363608Y-154617576D01*
X146339947Y-154614066D01*
X146316743Y-154608254D01*
X146294221Y-154600196D01*
X146272597Y-154589968D01*
X146252080Y-154577671D01*
X146232867Y-154563421D01*
X146215143Y-154547357D01*
X146199079Y-154529633D01*
X146184829Y-154510420D01*
X146172532Y-154489903D01*
X146162304Y-154468279D01*
X146154246Y-154445757D01*
X146148434Y-154422553D01*
X146144924Y-154398892D01*
X146143750Y-154375000D01*
X146143750Y-153887500D01*
X146144924Y-153863608D01*
X146148434Y-153839947D01*
X146154246Y-153816743D01*
X146162304Y-153794221D01*
X146172532Y-153772597D01*
X146184829Y-153752080D01*
X146199079Y-153732867D01*
X146215143Y-153715143D01*
X146232867Y-153699079D01*
X146252080Y-153684829D01*
X146272597Y-153672532D01*
X146294221Y-153662304D01*
X146316743Y-153654246D01*
X146339947Y-153648434D01*
X146363608Y-153644924D01*
X146387500Y-153643750D01*
X147300000Y-153643750D01*
X147323892Y-153644924D01*
X147323892Y-153644924D01*
G37*
D19*
X146843750Y-154131250D03*
D10*
G36*
X147323892Y-151769924D02*
G01*
X147347553Y-151773434D01*
X147370757Y-151779246D01*
X147393279Y-151787304D01*
X147414903Y-151797532D01*
X147435420Y-151809829D01*
X147454633Y-151824079D01*
X147472357Y-151840143D01*
X147488421Y-151857867D01*
X147502671Y-151877080D01*
X147514968Y-151897597D01*
X147525196Y-151919221D01*
X147533254Y-151941743D01*
X147539066Y-151964947D01*
X147542576Y-151988608D01*
X147543750Y-152012500D01*
X147543750Y-152500000D01*
X147542576Y-152523892D01*
X147539066Y-152547553D01*
X147533254Y-152570757D01*
X147525196Y-152593279D01*
X147514968Y-152614903D01*
X147502671Y-152635420D01*
X147488421Y-152654633D01*
X147472357Y-152672357D01*
X147454633Y-152688421D01*
X147435420Y-152702671D01*
X147414903Y-152714968D01*
X147393279Y-152725196D01*
X147370757Y-152733254D01*
X147347553Y-152739066D01*
X147323892Y-152742576D01*
X147300000Y-152743750D01*
X146387500Y-152743750D01*
X146363608Y-152742576D01*
X146339947Y-152739066D01*
X146316743Y-152733254D01*
X146294221Y-152725196D01*
X146272597Y-152714968D01*
X146252080Y-152702671D01*
X146232867Y-152688421D01*
X146215143Y-152672357D01*
X146199079Y-152654633D01*
X146184829Y-152635420D01*
X146172532Y-152614903D01*
X146162304Y-152593279D01*
X146154246Y-152570757D01*
X146148434Y-152547553D01*
X146144924Y-152523892D01*
X146143750Y-152500000D01*
X146143750Y-152012500D01*
X146144924Y-151988608D01*
X146148434Y-151964947D01*
X146154246Y-151941743D01*
X146162304Y-151919221D01*
X146172532Y-151897597D01*
X146184829Y-151877080D01*
X146199079Y-151857867D01*
X146215143Y-151840143D01*
X146232867Y-151824079D01*
X146252080Y-151809829D01*
X146272597Y-151797532D01*
X146294221Y-151787304D01*
X146316743Y-151779246D01*
X146339947Y-151773434D01*
X146363608Y-151769924D01*
X146387500Y-151768750D01*
X147300000Y-151768750D01*
X147323892Y-151769924D01*
X147323892Y-151769924D01*
G37*
D19*
X146843750Y-152256250D03*
D10*
G36*
X156848892Y-151769924D02*
G01*
X156872553Y-151773434D01*
X156895757Y-151779246D01*
X156918279Y-151787304D01*
X156939903Y-151797532D01*
X156960420Y-151809829D01*
X156979633Y-151824079D01*
X156997357Y-151840143D01*
X157013421Y-151857867D01*
X157027671Y-151877080D01*
X157039968Y-151897597D01*
X157050196Y-151919221D01*
X157058254Y-151941743D01*
X157064066Y-151964947D01*
X157067576Y-151988608D01*
X157068750Y-152012500D01*
X157068750Y-152500000D01*
X157067576Y-152523892D01*
X157064066Y-152547553D01*
X157058254Y-152570757D01*
X157050196Y-152593279D01*
X157039968Y-152614903D01*
X157027671Y-152635420D01*
X157013421Y-152654633D01*
X156997357Y-152672357D01*
X156979633Y-152688421D01*
X156960420Y-152702671D01*
X156939903Y-152714968D01*
X156918279Y-152725196D01*
X156895757Y-152733254D01*
X156872553Y-152739066D01*
X156848892Y-152742576D01*
X156825000Y-152743750D01*
X155912500Y-152743750D01*
X155888608Y-152742576D01*
X155864947Y-152739066D01*
X155841743Y-152733254D01*
X155819221Y-152725196D01*
X155797597Y-152714968D01*
X155777080Y-152702671D01*
X155757867Y-152688421D01*
X155740143Y-152672357D01*
X155724079Y-152654633D01*
X155709829Y-152635420D01*
X155697532Y-152614903D01*
X155687304Y-152593279D01*
X155679246Y-152570757D01*
X155673434Y-152547553D01*
X155669924Y-152523892D01*
X155668750Y-152500000D01*
X155668750Y-152012500D01*
X155669924Y-151988608D01*
X155673434Y-151964947D01*
X155679246Y-151941743D01*
X155687304Y-151919221D01*
X155697532Y-151897597D01*
X155709829Y-151877080D01*
X155724079Y-151857867D01*
X155740143Y-151840143D01*
X155757867Y-151824079D01*
X155777080Y-151809829D01*
X155797597Y-151797532D01*
X155819221Y-151787304D01*
X155841743Y-151779246D01*
X155864947Y-151773434D01*
X155888608Y-151769924D01*
X155912500Y-151768750D01*
X156825000Y-151768750D01*
X156848892Y-151769924D01*
X156848892Y-151769924D01*
G37*
D19*
X156368750Y-152256250D03*
D10*
G36*
X156848892Y-153644924D02*
G01*
X156872553Y-153648434D01*
X156895757Y-153654246D01*
X156918279Y-153662304D01*
X156939903Y-153672532D01*
X156960420Y-153684829D01*
X156979633Y-153699079D01*
X156997357Y-153715143D01*
X157013421Y-153732867D01*
X157027671Y-153752080D01*
X157039968Y-153772597D01*
X157050196Y-153794221D01*
X157058254Y-153816743D01*
X157064066Y-153839947D01*
X157067576Y-153863608D01*
X157068750Y-153887500D01*
X157068750Y-154375000D01*
X157067576Y-154398892D01*
X157064066Y-154422553D01*
X157058254Y-154445757D01*
X157050196Y-154468279D01*
X157039968Y-154489903D01*
X157027671Y-154510420D01*
X157013421Y-154529633D01*
X156997357Y-154547357D01*
X156979633Y-154563421D01*
X156960420Y-154577671D01*
X156939903Y-154589968D01*
X156918279Y-154600196D01*
X156895757Y-154608254D01*
X156872553Y-154614066D01*
X156848892Y-154617576D01*
X156825000Y-154618750D01*
X155912500Y-154618750D01*
X155888608Y-154617576D01*
X155864947Y-154614066D01*
X155841743Y-154608254D01*
X155819221Y-154600196D01*
X155797597Y-154589968D01*
X155777080Y-154577671D01*
X155757867Y-154563421D01*
X155740143Y-154547357D01*
X155724079Y-154529633D01*
X155709829Y-154510420D01*
X155697532Y-154489903D01*
X155687304Y-154468279D01*
X155679246Y-154445757D01*
X155673434Y-154422553D01*
X155669924Y-154398892D01*
X155668750Y-154375000D01*
X155668750Y-153887500D01*
X155669924Y-153863608D01*
X155673434Y-153839947D01*
X155679246Y-153816743D01*
X155687304Y-153794221D01*
X155697532Y-153772597D01*
X155709829Y-153752080D01*
X155724079Y-153732867D01*
X155740143Y-153715143D01*
X155757867Y-153699079D01*
X155777080Y-153684829D01*
X155797597Y-153672532D01*
X155819221Y-153662304D01*
X155841743Y-153654246D01*
X155864947Y-153648434D01*
X155888608Y-153644924D01*
X155912500Y-153643750D01*
X156825000Y-153643750D01*
X156848892Y-153644924D01*
X156848892Y-153644924D01*
G37*
D19*
X156368750Y-154131250D03*
D22*
X142875000Y-156368750D03*
X128587500Y-173037500D03*
X139700000Y-161925000D03*
X154481250Y-165106250D03*
X155540499Y-168865749D03*
X98425000Y-150018750D03*
X93662500Y-145256250D03*
X145256250Y-172243750D03*
X167481250Y-172243750D03*
X154750000Y-172212500D03*
X161139988Y-157174457D03*
X161925000Y-100012500D03*
X160549971Y-156367064D03*
X159543750Y-111125000D03*
X159550000Y-156375000D03*
X161131250Y-130175000D03*
X151631250Y-161106250D03*
X150812500Y-149225000D03*
X150812500Y-162715750D03*
X140493750Y-172243750D03*
X75406250Y-131762500D03*
X150812500Y-161715747D03*
X150812500Y-160337500D03*
X150760382Y-157214618D03*
X153193750Y-157956250D03*
X161925000Y-160315750D03*
X162718750Y-157162500D03*
X153987500Y-150018750D03*
X140493750Y-150812500D03*
X157162500Y-150812500D03*
X170656250Y-162718750D03*
X170656250Y-162718750D03*
X196056250Y-165100000D03*
X192087500Y-170656250D03*
X192087500Y-170656250D03*
X190500000Y-171450000D03*
X190500000Y-171450000D03*
X165860623Y-166691873D03*
X202289058Y-168951558D03*
X165893750Y-169068750D03*
X161101782Y-168344968D03*
X203200000Y-167481250D03*
X157956250Y-168296750D03*
X210343750Y-156368750D03*
X127793750Y-164306250D03*
X139700000Y-158750000D03*
X80168750Y-117475000D03*
X96043750Y-150812500D03*
X82550000Y-145256250D03*
X79375000Y-119062500D03*
X76993750Y-121173538D03*
D23*
X59268750Y-124087500D02*
X59268750Y-127868750D01*
X64281250Y-119075000D02*
X59268750Y-124087500D01*
X147500000Y-165106250D02*
X153050000Y-165106250D01*
X146843750Y-164450000D02*
X147500000Y-165106250D01*
X154162599Y-168865749D02*
X155540499Y-168865749D01*
X153022098Y-170006250D02*
X154162599Y-168865749D01*
X155550000Y-168875250D02*
X155550000Y-170006250D01*
X155540499Y-168865749D02*
X155550000Y-168875250D01*
X149225000Y-170006250D02*
X153022098Y-170006250D01*
X146843750Y-156225000D02*
X149225000Y-158606250D01*
X146843750Y-154131250D02*
X146843750Y-156225000D01*
X152706250Y-152343750D02*
X152509152Y-152343750D01*
X146931250Y-154043750D02*
X146843750Y-154131250D01*
X152706250Y-152343750D02*
X152432882Y-152343750D01*
X150809152Y-154043750D02*
X150506250Y-154043750D01*
X151596751Y-153256151D02*
X150809152Y-154043750D01*
X146149771Y-151353249D02*
X151518651Y-151353249D01*
X151518651Y-151353249D02*
X151596751Y-151431349D01*
X151596751Y-151431349D02*
X151596751Y-153256151D01*
X152606250Y-152343750D02*
X151606250Y-151343750D01*
X152706250Y-152343750D02*
X152606250Y-152343750D01*
X146287513Y-153575013D02*
X146843750Y-154131250D01*
X145753240Y-151749780D02*
X145753240Y-153040740D01*
X145753240Y-153040740D02*
X146287513Y-153575013D01*
X146159270Y-151343750D02*
X145753240Y-151749780D01*
X151606250Y-151343750D02*
X146159270Y-151343750D01*
X164450000Y-159650250D02*
X164450000Y-160306250D01*
X164700250Y-159400000D02*
X164450000Y-159650250D01*
X168275000Y-159400000D02*
X164700250Y-159400000D01*
X167481250Y-170512500D02*
X167337500Y-170656250D01*
X167893737Y-171212487D02*
X167337500Y-170656250D01*
X168428010Y-171746760D02*
X167893737Y-171212487D01*
X169718970Y-171746760D02*
X168428010Y-171746760D01*
X170090510Y-171375220D02*
X169718970Y-171746760D01*
X146843750Y-154131250D02*
X145112500Y-154131250D01*
X128587500Y-173037500D02*
X59531250Y-173037500D01*
X59531250Y-173037500D02*
X57150000Y-170656250D01*
X59268750Y-129149750D02*
X59268750Y-127868750D01*
X57150000Y-131268500D02*
X59268750Y-129149750D01*
X57150000Y-170656250D02*
X57150000Y-131268500D01*
X166781263Y-171212487D02*
X162025237Y-171212487D01*
X167337500Y-170656250D02*
X166781263Y-171212487D01*
X152793750Y-152256250D02*
X152706250Y-152343750D01*
X156368750Y-152256250D02*
X152793750Y-152256250D01*
X161131250Y-152256250D02*
X168275000Y-159400000D01*
X156368750Y-152256250D02*
X161131250Y-152256250D01*
X145112500Y-154131250D02*
X142875000Y-156368750D01*
X146843750Y-164450000D02*
X142225000Y-164450000D01*
X142225000Y-164450000D02*
X139700000Y-161925000D01*
X155559501Y-171146751D02*
X161940499Y-171146751D01*
X161940499Y-171146751D02*
X161950000Y-171137250D01*
X155550000Y-171137250D02*
X155559501Y-171146751D01*
X155550000Y-170006250D02*
X155550000Y-171137250D01*
X153050000Y-165106250D02*
X154684490Y-165106250D01*
X154684490Y-165106250D02*
X154481250Y-165106250D01*
X154781250Y-168309598D02*
X154119097Y-168971751D01*
X155540501Y-169068849D02*
X154781250Y-168309598D01*
X155098191Y-173034251D02*
X155540501Y-172591941D01*
X144876809Y-173034251D02*
X155098191Y-173034251D01*
X132145530Y-167223760D02*
X139066318Y-167223760D01*
X139066318Y-167223760D02*
X144876809Y-173034251D01*
X137984480Y-165106250D02*
X133275220Y-160396990D01*
X133275220Y-160396990D02*
X127074780Y-160396990D01*
X151065502Y-168971751D02*
X150315510Y-168221759D01*
X155540501Y-172591941D02*
X155540501Y-169068849D01*
X154481250Y-165106250D02*
X137984480Y-165106250D01*
X127074780Y-160396990D02*
X126703240Y-160768530D01*
X154119097Y-168971751D02*
X151065502Y-168971751D01*
X126703240Y-160768530D02*
X126703240Y-161781470D01*
X126703240Y-161781470D02*
X132145530Y-167223760D01*
X168334490Y-171375220D02*
X168706030Y-171746760D01*
X166896550Y-171375220D02*
X168334490Y-171375220D01*
X144876809Y-173034251D02*
X165237519Y-173034251D01*
X165237519Y-173034251D02*
X166896550Y-171375220D01*
X167337500Y-168275000D02*
X167337500Y-170656250D01*
X157150000Y-157534118D02*
X157150000Y-158606250D01*
X157081631Y-157465749D02*
X157150000Y-157534118D01*
X154095311Y-157465749D02*
X157081631Y-157465749D01*
X153984251Y-157576809D02*
X154095311Y-157465749D01*
X153984251Y-158335691D02*
X153984251Y-157576809D01*
X153573191Y-158746751D02*
X153984251Y-158335691D01*
X151122573Y-158746751D02*
X153573191Y-158746751D01*
X145753240Y-153377418D02*
X151122573Y-158746751D01*
X145753240Y-151749780D02*
X145753240Y-153377418D01*
X146149771Y-151353249D02*
X145753240Y-151749780D01*
X155465749Y-151353249D02*
X146149771Y-151353249D01*
X156368750Y-152256250D02*
X155465749Y-151353249D01*
X161950000Y-171137250D02*
X162025237Y-171212487D01*
X161950000Y-170006250D02*
X161950000Y-171137250D01*
D24*
X156281250Y-154043750D02*
X156368750Y-154131250D01*
X152706250Y-154043750D02*
X156281250Y-154043750D01*
X158750000Y-156512500D02*
X158750000Y-158606250D01*
X156368750Y-154131250D02*
X158750000Y-156512500D01*
X150418750Y-152256250D02*
X150506250Y-152343750D01*
X157950000Y-157602250D02*
X157950000Y-158606250D01*
X157295989Y-156948239D02*
X157950000Y-157602250D01*
X151522137Y-156948239D02*
X157295989Y-156948239D01*
X149479249Y-154905351D02*
X151522137Y-156948239D01*
X149479249Y-152416751D02*
X149479249Y-154905351D01*
X149552250Y-152343750D02*
X149479249Y-152416751D01*
X150506250Y-152343750D02*
X149552250Y-152343750D01*
X146931250Y-152343750D02*
X146843750Y-152256250D01*
X150506250Y-152343750D02*
X146931250Y-152343750D01*
X148575000Y-164306250D02*
X153050000Y-164306250D01*
X146843750Y-162575000D02*
X148575000Y-164306250D01*
D23*
X149225000Y-160481250D02*
X149225000Y-162718750D01*
X150012500Y-163506250D02*
X153050000Y-163506250D01*
X149225000Y-162718750D02*
X150012500Y-163506250D01*
X149850000Y-167506250D02*
X149225000Y-168131250D01*
X153050000Y-167506250D02*
X149850000Y-167506250D01*
X165581000Y-161106250D02*
X164450000Y-161106250D01*
X167306250Y-161106250D02*
X165581000Y-161106250D01*
X167475000Y-161275000D02*
X167306250Y-161106250D01*
X168275000Y-161275000D02*
X167475000Y-161275000D01*
X135234480Y-160481250D02*
X124771980Y-150018750D01*
X146050000Y-160481250D02*
X135234480Y-160481250D01*
X124771980Y-150018750D02*
X98425000Y-150018750D01*
X85725000Y-134750000D02*
X93662500Y-142687500D01*
X93662500Y-142687500D02*
X93662500Y-145256250D01*
X156350000Y-159737250D02*
X156368750Y-159756000D01*
X156350000Y-158606250D02*
X156350000Y-159737250D01*
X154181000Y-163506250D02*
X153050000Y-163506250D01*
X156368750Y-159756000D02*
X156368750Y-161318500D01*
X155271750Y-162415500D02*
X155271750Y-166415500D01*
X155271750Y-166415500D02*
X154181000Y-167506250D01*
X155271750Y-162415500D02*
X154181000Y-163506250D01*
X156368750Y-161318500D02*
X155271750Y-162415500D01*
X149225000Y-168131250D02*
X146987500Y-168131250D01*
X146987500Y-168131250D02*
X145256250Y-169862500D01*
X145256250Y-169862500D02*
X145256250Y-172243750D01*
X169800000Y-170656250D02*
X169212500Y-170656250D01*
X170193212Y-170656250D02*
X169800000Y-170656250D01*
X170671519Y-171134557D02*
X170193212Y-170656250D01*
X170671519Y-171615883D02*
X170671519Y-171134557D01*
X169959633Y-172327769D02*
X170671519Y-171615883D01*
X168103328Y-172243750D02*
X168187348Y-172327770D01*
X168187348Y-172327770D02*
X169959633Y-172327769D01*
X167481250Y-172243750D02*
X168103328Y-172243750D01*
X156581000Y-161106250D02*
X164450000Y-161106250D01*
X156368750Y-161318500D02*
X156581000Y-161106250D01*
X154750000Y-170006250D02*
X154750000Y-172212500D01*
X154094000Y-170006250D02*
X154750000Y-170006250D01*
X153215990Y-170884260D02*
X154094000Y-170006250D01*
X148506030Y-170884260D02*
X153215990Y-170884260D01*
X148134490Y-170512720D02*
X148506030Y-170884260D01*
X148134490Y-169499780D02*
X148134490Y-170512720D01*
X149993521Y-167640749D02*
X148134490Y-169499780D01*
X154181000Y-167506250D02*
X153050000Y-167506250D01*
X161381000Y-167506250D02*
X154181000Y-167506250D01*
X162750000Y-168875250D02*
X161381000Y-167506250D01*
X162750000Y-170006250D02*
X162750000Y-168875250D01*
X149225000Y-160481250D02*
X146050000Y-160481250D01*
D24*
X67587500Y-84400000D02*
X71175000Y-84400000D01*
X73025000Y-86250000D02*
X73025000Y-87250000D01*
X71175000Y-84400000D02*
X73025000Y-86250000D01*
X73025000Y-91254000D02*
X73846000Y-92075000D01*
X73025000Y-90550000D02*
X73025000Y-91254000D01*
X73846000Y-92075000D02*
X90487500Y-92075000D01*
X91925000Y-90550000D02*
X92075000Y-90550000D01*
X90487500Y-91987500D02*
X91925000Y-90550000D01*
X90487500Y-92075000D02*
X90487500Y-91987500D01*
X92075000Y-91254000D02*
X92896000Y-92075000D01*
X92075000Y-90550000D02*
X92075000Y-91254000D01*
X92896000Y-92075000D02*
X109537500Y-92075000D01*
X110975000Y-90550000D02*
X111125000Y-90550000D01*
X109537500Y-91987500D02*
X110975000Y-90550000D01*
X109537500Y-92075000D02*
X109537500Y-91987500D01*
X111125000Y-91254000D02*
X111946000Y-92075000D01*
X111125000Y-90550000D02*
X111125000Y-91254000D01*
X129321000Y-90550000D02*
X130175000Y-90550000D01*
X127796000Y-92075000D02*
X129321000Y-90550000D01*
X111946000Y-92075000D02*
X127796000Y-92075000D01*
X130175000Y-91254000D02*
X130996000Y-92075000D01*
X130175000Y-90550000D02*
X130175000Y-91254000D01*
X148371000Y-90550000D02*
X149225000Y-90550000D01*
X146846000Y-92075000D02*
X148371000Y-90550000D01*
X130996000Y-92075000D02*
X146846000Y-92075000D01*
X149225000Y-91254000D02*
X150046000Y-92075000D01*
X149225000Y-90550000D02*
X149225000Y-91254000D01*
X167421000Y-90550000D02*
X168275000Y-90550000D01*
X165896000Y-92075000D02*
X167421000Y-90550000D01*
X168275000Y-91254000D02*
X169096000Y-92075000D01*
X168275000Y-90550000D02*
X168275000Y-91254000D01*
X186471000Y-90550000D02*
X187325000Y-90550000D01*
X184946000Y-92075000D02*
X186471000Y-90550000D01*
X169096000Y-92075000D02*
X184946000Y-92075000D01*
X187325000Y-91254000D02*
X188146000Y-92075000D01*
X187325000Y-90550000D02*
X187325000Y-91254000D01*
X205521000Y-90550000D02*
X206375000Y-90550000D01*
X203996000Y-92075000D02*
X205521000Y-90550000D01*
X188146000Y-92075000D02*
X203996000Y-92075000D01*
X206375000Y-91254000D02*
X207196000Y-92075000D01*
X206375000Y-90550000D02*
X206375000Y-91254000D01*
X224571000Y-90550000D02*
X225425000Y-90550000D01*
X223046000Y-92075000D02*
X224571000Y-90550000D01*
X207196000Y-92075000D02*
X223046000Y-92075000D01*
X225425000Y-91254000D02*
X226246000Y-92075000D01*
X225425000Y-90550000D02*
X225425000Y-91254000D01*
X242096000Y-92075000D02*
X243621000Y-90550000D01*
X243621000Y-90550000D02*
X244475000Y-90550000D01*
X226246000Y-92075000D02*
X242096000Y-92075000D01*
X244475000Y-91254000D02*
X245296000Y-92075000D01*
X244475000Y-90550000D02*
X244475000Y-91254000D01*
X262671000Y-90550000D02*
X263525000Y-90550000D01*
X261146000Y-92075000D02*
X262671000Y-90550000D01*
X245296000Y-92075000D02*
X261146000Y-92075000D01*
X263525000Y-91254000D02*
X264346000Y-92075000D01*
X263525000Y-90550000D02*
X263525000Y-91254000D01*
X281721000Y-90550000D02*
X282575000Y-90550000D01*
X280196000Y-92075000D02*
X281721000Y-90550000D01*
X264346000Y-92075000D02*
X280196000Y-92075000D01*
X282575000Y-91254000D02*
X283396000Y-92075000D01*
X282575000Y-90550000D02*
X282575000Y-91254000D01*
X300771000Y-90550000D02*
X301625000Y-90550000D01*
X299246000Y-92075000D02*
X300771000Y-90550000D01*
X283396000Y-92075000D02*
X299246000Y-92075000D01*
X301625000Y-91254000D02*
X302446000Y-92075000D01*
X301625000Y-90550000D02*
X301625000Y-91254000D01*
X330139750Y-90550000D02*
X330993750Y-90550000D01*
X328614750Y-92075000D02*
X330139750Y-90550000D01*
X302446000Y-92075000D02*
X328614750Y-92075000D01*
X161150000Y-158606250D02*
X161150000Y-157181250D01*
X161150000Y-157181250D02*
X161143207Y-157174457D01*
X161143207Y-157174457D02*
X161139988Y-157174457D01*
X161925000Y-96043750D02*
X165893750Y-92075000D01*
X150046000Y-92075000D02*
X165893750Y-92075000D01*
X161925000Y-100012500D02*
X161925000Y-96043750D01*
X165893750Y-92075000D02*
X165896000Y-92075000D01*
X86637500Y-84400000D02*
X90225000Y-84400000D01*
X92075000Y-86250000D02*
X92075000Y-87250000D01*
X90225000Y-84400000D02*
X92075000Y-86250000D01*
X105687500Y-84400000D02*
X109275000Y-84400000D01*
X111125000Y-86250000D02*
X111125000Y-87250000D01*
X109275000Y-84400000D02*
X111125000Y-86250000D01*
X124737500Y-84400000D02*
X128325000Y-84400000D01*
X130175000Y-86250000D02*
X130175000Y-87250000D01*
X128325000Y-84400000D02*
X130175000Y-86250000D01*
X143787500Y-84400000D02*
X147106250Y-84400000D01*
X149225000Y-86518750D02*
X149225000Y-87250000D01*
X147106250Y-84400000D02*
X149225000Y-86518750D01*
X162837500Y-84400000D02*
X166156250Y-84400000D01*
X168275000Y-86518750D02*
X168275000Y-87250000D01*
X166156250Y-84400000D02*
X168275000Y-86518750D01*
X181887500Y-84400000D02*
X185206250Y-84400000D01*
X187325000Y-86518750D02*
X187325000Y-87250000D01*
X185206250Y-84400000D02*
X187325000Y-86518750D01*
X200937500Y-84400000D02*
X204256250Y-84400000D01*
X206375000Y-86518750D02*
X206375000Y-87250000D01*
X204256250Y-84400000D02*
X206375000Y-86518750D01*
X219987500Y-84400000D02*
X224100000Y-84400000D01*
X225425000Y-85725000D02*
X225425000Y-87250000D01*
X224100000Y-84400000D02*
X225425000Y-85725000D01*
X239037500Y-84400000D02*
X242356250Y-84400000D01*
X244475000Y-86518750D02*
X244475000Y-87250000D01*
X242356250Y-84400000D02*
X244475000Y-86518750D01*
X258087500Y-84400000D02*
X261406250Y-84400000D01*
X263525000Y-86518750D02*
X263525000Y-87250000D01*
X261406250Y-84400000D02*
X263525000Y-86518750D01*
X277137500Y-84400000D02*
X280456250Y-84400000D01*
X282575000Y-86518750D02*
X282575000Y-87250000D01*
X280456250Y-84400000D02*
X282575000Y-86518750D01*
X296187500Y-84400000D02*
X299506250Y-84400000D01*
X301625000Y-86518750D02*
X301625000Y-87250000D01*
X299506250Y-84400000D02*
X301625000Y-86518750D01*
X324762500Y-84400000D02*
X328875000Y-84400000D01*
X330993750Y-86518750D02*
X330993750Y-87250000D01*
X328875000Y-84400000D02*
X330993750Y-86518750D01*
X72350000Y-103450000D02*
X77256250Y-103450000D01*
X80018750Y-106300000D02*
X80168750Y-106300000D01*
X77256250Y-103537500D02*
X80018750Y-106300000D01*
X77256250Y-103450000D02*
X77256250Y-103537500D01*
X80168750Y-110304000D02*
X80989750Y-111125000D01*
X80168750Y-109600000D02*
X80168750Y-110304000D01*
X99221000Y-111125000D02*
X100746000Y-109600000D01*
X100746000Y-109600000D02*
X101600000Y-109600000D01*
X80989750Y-111125000D02*
X99221000Y-111125000D01*
X101600000Y-110304000D02*
X102421000Y-111125000D01*
X101600000Y-109600000D02*
X101600000Y-110304000D01*
X119796000Y-109600000D02*
X120650000Y-109600000D01*
X118271000Y-111125000D02*
X119796000Y-109600000D01*
X102421000Y-111125000D02*
X118271000Y-111125000D01*
X120650000Y-110304000D02*
X121471000Y-111125000D01*
X120650000Y-109600000D02*
X120650000Y-110304000D01*
X138846000Y-109600000D02*
X139700000Y-109600000D01*
X137321000Y-111125000D02*
X138846000Y-109600000D01*
X121471000Y-111125000D02*
X137321000Y-111125000D01*
X139700000Y-110304000D02*
X140521000Y-111125000D01*
X139700000Y-109600000D02*
X139700000Y-110304000D01*
X157896000Y-109600000D02*
X158750000Y-109600000D01*
X156371000Y-111125000D02*
X157896000Y-109600000D01*
X140521000Y-111125000D02*
X156371000Y-111125000D01*
X158750000Y-109600000D02*
X158750000Y-110331250D01*
X158750000Y-110331250D02*
X159543750Y-111125000D01*
X175421000Y-111125000D02*
X176946000Y-109600000D01*
X176946000Y-109600000D02*
X177800000Y-109600000D01*
X159543750Y-111125000D02*
X175421000Y-111125000D01*
X196850000Y-110304000D02*
X197671000Y-111125000D01*
X196850000Y-109600000D02*
X196850000Y-110304000D01*
X215046000Y-109600000D02*
X215900000Y-109600000D01*
X213521000Y-111125000D02*
X215046000Y-109600000D01*
X197671000Y-111125000D02*
X213521000Y-111125000D01*
X215900000Y-110304000D02*
X216721000Y-111125000D01*
X215900000Y-109600000D02*
X215900000Y-110304000D01*
X234096000Y-109600000D02*
X234950000Y-109600000D01*
X232571000Y-111125000D02*
X234096000Y-109600000D01*
X216721000Y-111125000D02*
X232571000Y-111125000D01*
X234950000Y-110304000D02*
X235771000Y-111125000D01*
X234950000Y-109600000D02*
X234950000Y-110304000D01*
X253146000Y-109600000D02*
X254000000Y-109600000D01*
X251621000Y-111125000D02*
X253146000Y-109600000D01*
X235771000Y-111125000D02*
X251621000Y-111125000D01*
X254000000Y-110304000D02*
X254821000Y-111125000D01*
X254000000Y-109600000D02*
X254000000Y-110304000D01*
X272196000Y-109600000D02*
X273050000Y-109600000D01*
X270671000Y-111125000D02*
X272196000Y-109600000D01*
X254821000Y-111125000D02*
X270671000Y-111125000D01*
X273050000Y-110304000D02*
X273871000Y-111125000D01*
X273050000Y-109600000D02*
X273050000Y-110304000D01*
X291246000Y-109600000D02*
X292100000Y-109600000D01*
X289721000Y-111125000D02*
X291246000Y-109600000D01*
X273871000Y-111125000D02*
X289721000Y-111125000D01*
X292100000Y-110304000D02*
X292921000Y-111125000D01*
X292100000Y-109600000D02*
X292100000Y-110304000D01*
X310296000Y-109600000D02*
X311150000Y-109600000D01*
X308771000Y-111125000D02*
X310296000Y-109600000D01*
X292921000Y-111125000D02*
X308771000Y-111125000D01*
X311150000Y-110304000D02*
X311971000Y-111125000D01*
X311150000Y-109600000D02*
X311150000Y-110304000D01*
X335696000Y-109537500D02*
X336550000Y-109537500D01*
X334108500Y-111125000D02*
X335696000Y-109537500D01*
X311971000Y-111125000D02*
X334108500Y-111125000D01*
X177800000Y-110304000D02*
X178621000Y-111125000D01*
X177800000Y-109600000D02*
X177800000Y-110304000D01*
X195996000Y-109600000D02*
X196850000Y-109600000D01*
X194471000Y-111125000D02*
X195996000Y-109600000D01*
X178621000Y-111125000D02*
X194471000Y-111125000D01*
X160350000Y-157602250D02*
X160337500Y-157589750D01*
X160350000Y-158606250D02*
X160350000Y-157602250D01*
X160337500Y-157589750D02*
X160337500Y-156579535D01*
X160337500Y-156579535D02*
X160549971Y-156367064D01*
X96162500Y-103450000D02*
X99481250Y-103450000D01*
X101600000Y-105568750D02*
X101600000Y-106300000D01*
X99481250Y-103450000D02*
X101600000Y-105568750D01*
X115212500Y-103450000D02*
X118531250Y-103450000D01*
X120650000Y-105568750D02*
X120650000Y-106300000D01*
X118531250Y-103450000D02*
X120650000Y-105568750D01*
X134262500Y-103450000D02*
X137581250Y-103450000D01*
X139700000Y-105568750D02*
X139700000Y-106300000D01*
X137581250Y-103450000D02*
X139700000Y-105568750D01*
X153312500Y-103450000D02*
X156631250Y-103450000D01*
X158750000Y-105568750D02*
X158750000Y-106300000D01*
X156631250Y-103450000D02*
X158750000Y-105568750D01*
X172362500Y-103450000D02*
X175681250Y-103450000D01*
X177800000Y-105568750D02*
X177800000Y-106300000D01*
X175681250Y-103450000D02*
X177800000Y-105568750D01*
X191412500Y-103450000D02*
X194731250Y-103450000D01*
X196850000Y-105568750D02*
X196850000Y-106300000D01*
X194731250Y-103450000D02*
X196850000Y-105568750D01*
X210462500Y-103450000D02*
X213781250Y-103450000D01*
X215900000Y-105568750D02*
X215900000Y-106300000D01*
X213781250Y-103450000D02*
X215900000Y-105568750D01*
X229512500Y-103450000D02*
X232831250Y-103450000D01*
X234950000Y-105568750D02*
X234950000Y-106300000D01*
X232831250Y-103450000D02*
X234950000Y-105568750D01*
X248562500Y-103450000D02*
X251881250Y-103450000D01*
X254000000Y-105568750D02*
X254000000Y-106300000D01*
X251881250Y-103450000D02*
X254000000Y-105568750D01*
X267612500Y-103450000D02*
X270931250Y-103450000D01*
X273050000Y-105568750D02*
X273050000Y-106300000D01*
X270931250Y-103450000D02*
X273050000Y-105568750D01*
X286662500Y-103450000D02*
X289981250Y-103450000D01*
X292100000Y-105568750D02*
X292100000Y-106300000D01*
X289981250Y-103450000D02*
X292100000Y-105568750D01*
X305712500Y-103450000D02*
X309031250Y-103450000D01*
X311150000Y-105568750D02*
X311150000Y-106300000D01*
X309031250Y-103450000D02*
X311150000Y-105568750D01*
X334466500Y-103450000D02*
X336550000Y-105533500D01*
X336550000Y-105533500D02*
X336550000Y-106237500D01*
X329525000Y-103450000D02*
X334466500Y-103450000D01*
X74731250Y-122500000D02*
X77256250Y-122500000D01*
X80106250Y-125350000D02*
X81756250Y-125350000D01*
X77256250Y-122500000D02*
X80106250Y-125350000D01*
X81756250Y-129354000D02*
X82577250Y-130175000D01*
X81756250Y-128650000D02*
X81756250Y-129354000D01*
X105508500Y-128650000D02*
X106362500Y-128650000D01*
X103983500Y-130175000D02*
X105508500Y-128650000D01*
X82577250Y-130175000D02*
X103983500Y-130175000D01*
X106362500Y-129354000D02*
X107183500Y-130175000D01*
X106362500Y-128650000D02*
X106362500Y-129354000D01*
X123033500Y-130175000D02*
X124558500Y-128650000D01*
X124558500Y-128650000D02*
X125412500Y-128650000D01*
X107183500Y-130175000D02*
X123033500Y-130175000D01*
X125412500Y-129354000D02*
X126233500Y-130175000D01*
X125412500Y-128650000D02*
X125412500Y-129354000D01*
X143608500Y-128650000D02*
X144462500Y-128650000D01*
X142083500Y-130175000D02*
X143608500Y-128650000D01*
X126233500Y-130175000D02*
X142083500Y-130175000D01*
X144462500Y-129354000D02*
X145283500Y-130175000D01*
X144462500Y-128650000D02*
X144462500Y-129354000D01*
X162658500Y-128650000D02*
X163512500Y-128650000D01*
X161133500Y-130175000D02*
X162658500Y-128650000D01*
X145283500Y-130175000D02*
X161133500Y-130175000D01*
X163512500Y-129354000D02*
X164333500Y-130175000D01*
X163512500Y-128650000D02*
X163512500Y-129354000D01*
X181708500Y-128650000D02*
X182562500Y-128650000D01*
X180183500Y-130175000D02*
X181708500Y-128650000D01*
X164333500Y-130175000D02*
X180183500Y-130175000D01*
X182562500Y-129354000D02*
X183383500Y-130175000D01*
X182562500Y-128650000D02*
X182562500Y-129354000D01*
X200758500Y-128650000D02*
X201612500Y-128650000D01*
X199233500Y-130175000D02*
X200758500Y-128650000D01*
X183383500Y-130175000D02*
X199233500Y-130175000D01*
X201612500Y-129354000D02*
X202433500Y-130175000D01*
X201612500Y-128650000D02*
X201612500Y-129354000D01*
X219808500Y-128650000D02*
X220662500Y-128650000D01*
X218283500Y-130175000D02*
X219808500Y-128650000D01*
X202433500Y-130175000D02*
X218283500Y-130175000D01*
X220662500Y-129354000D02*
X221483500Y-130175000D01*
X220662500Y-128650000D02*
X220662500Y-129354000D01*
X238858500Y-128650000D02*
X239712500Y-128650000D01*
X237333500Y-130175000D02*
X238858500Y-128650000D01*
X221483500Y-130175000D02*
X237333500Y-130175000D01*
X239712500Y-129354000D02*
X240533500Y-130175000D01*
X239712500Y-128650000D02*
X239712500Y-129354000D01*
X257908500Y-128650000D02*
X258762500Y-128650000D01*
X256383500Y-130175000D02*
X257908500Y-128650000D01*
X240533500Y-130175000D02*
X256383500Y-130175000D01*
X258762500Y-129354000D02*
X259583500Y-130175000D01*
X258762500Y-128650000D02*
X258762500Y-129354000D01*
X276958500Y-128650000D02*
X277812500Y-128650000D01*
X275433500Y-130175000D02*
X276958500Y-128650000D01*
X259583500Y-130175000D02*
X275433500Y-130175000D01*
X277812500Y-129354000D02*
X278633500Y-130175000D01*
X277812500Y-128650000D02*
X277812500Y-129354000D01*
X296008500Y-128650000D02*
X296862500Y-128650000D01*
X294483500Y-130175000D02*
X296008500Y-128650000D01*
X278633500Y-130175000D02*
X294483500Y-130175000D01*
X296862500Y-129354000D02*
X297683500Y-130175000D01*
X296862500Y-128650000D02*
X296862500Y-129354000D01*
X328552250Y-128650000D02*
X329406250Y-128650000D01*
X327027250Y-130175000D02*
X328552250Y-128650000D01*
X297683500Y-130175000D02*
X327027250Y-130175000D01*
X159550000Y-158606250D02*
X159550000Y-156375000D01*
X100925000Y-122500000D02*
X104243750Y-122500000D01*
X106362500Y-124618750D02*
X106362500Y-125350000D01*
X104243750Y-122500000D02*
X106362500Y-124618750D01*
X119975000Y-122500000D02*
X123293750Y-122500000D01*
X125412500Y-124618750D02*
X125412500Y-125350000D01*
X123293750Y-122500000D02*
X125412500Y-124618750D01*
X139025000Y-122500000D02*
X142343750Y-122500000D01*
X144462500Y-124618750D02*
X144462500Y-125350000D01*
X142343750Y-122500000D02*
X144462500Y-124618750D01*
X158075000Y-122500000D02*
X161393750Y-122500000D01*
X163512500Y-124618750D02*
X163512500Y-125350000D01*
X161393750Y-122500000D02*
X163512500Y-124618750D01*
X177125000Y-122500000D02*
X180443750Y-122500000D01*
X182562500Y-124618750D02*
X182562500Y-125350000D01*
X180443750Y-122500000D02*
X182562500Y-124618750D01*
X196175000Y-122500000D02*
X199493750Y-122500000D01*
X201612500Y-124618750D02*
X201612500Y-125350000D01*
X199493750Y-122500000D02*
X201612500Y-124618750D01*
X215225000Y-122500000D02*
X218543750Y-122500000D01*
X220662500Y-124618750D02*
X220662500Y-125350000D01*
X218543750Y-122500000D02*
X220662500Y-124618750D01*
X234275000Y-122500000D02*
X237593750Y-122500000D01*
X239712500Y-124618750D02*
X239712500Y-125350000D01*
X237593750Y-122500000D02*
X239712500Y-124618750D01*
X253325000Y-122500000D02*
X256643750Y-122500000D01*
X258762500Y-124618750D02*
X258762500Y-125350000D01*
X256643750Y-122500000D02*
X258762500Y-124618750D01*
X272375000Y-122500000D02*
X275693750Y-122500000D01*
X277812500Y-124618750D02*
X277812500Y-125350000D01*
X275693750Y-122500000D02*
X277812500Y-124618750D01*
X291425000Y-122500000D02*
X295537500Y-122500000D01*
X296862500Y-123825000D02*
X296862500Y-125350000D01*
X295537500Y-122500000D02*
X296862500Y-123825000D01*
X322381250Y-122500000D02*
X327287500Y-122500000D01*
X329406250Y-124618750D02*
X329406250Y-125350000D01*
X327287500Y-122500000D02*
X329406250Y-124618750D01*
X77112500Y-141550000D02*
X82018750Y-141550000D01*
X84868750Y-144400000D02*
X86518750Y-144400000D01*
X82018750Y-141550000D02*
X84868750Y-144400000D01*
X86518750Y-148404000D02*
X87339750Y-149225000D01*
X86518750Y-147700000D02*
X86518750Y-148404000D01*
X110271000Y-147700000D02*
X111125000Y-147700000D01*
X108746000Y-149225000D02*
X110271000Y-147700000D01*
X87339750Y-149225000D02*
X108746000Y-149225000D01*
X111125000Y-148404000D02*
X111946000Y-149225000D01*
X111125000Y-147700000D02*
X111125000Y-148404000D01*
X129321000Y-147700000D02*
X130175000Y-147700000D01*
X127796000Y-149225000D02*
X129321000Y-147700000D01*
X111946000Y-149225000D02*
X127796000Y-149225000D01*
X130175000Y-148404000D02*
X130996000Y-149225000D01*
X130175000Y-147700000D02*
X130175000Y-148404000D01*
X148371000Y-147700000D02*
X149225000Y-147700000D01*
X146846000Y-149225000D02*
X148371000Y-147700000D01*
X130996000Y-149225000D02*
X146846000Y-149225000D01*
X149225000Y-148404000D02*
X150046000Y-149225000D01*
X149225000Y-147700000D02*
X149225000Y-148404000D01*
X167421000Y-147700000D02*
X168275000Y-147700000D01*
X165896000Y-149225000D02*
X167421000Y-147700000D01*
X168275000Y-148404000D02*
X169096000Y-149225000D01*
X168275000Y-147700000D02*
X168275000Y-148404000D01*
X186471000Y-147700000D02*
X187325000Y-147700000D01*
X184946000Y-149225000D02*
X186471000Y-147700000D01*
X169096000Y-149225000D02*
X184946000Y-149225000D01*
X187325000Y-148404000D02*
X188146000Y-149225000D01*
X187325000Y-147700000D02*
X187325000Y-148404000D01*
X205521000Y-147700000D02*
X206375000Y-147700000D01*
X203996000Y-149225000D02*
X205521000Y-147700000D01*
X188146000Y-149225000D02*
X203996000Y-149225000D01*
X206375000Y-148404000D02*
X207196000Y-149225000D01*
X206375000Y-147700000D02*
X206375000Y-148404000D01*
X224571000Y-147700000D02*
X225425000Y-147700000D01*
X223046000Y-149225000D02*
X224571000Y-147700000D01*
X207196000Y-149225000D02*
X223046000Y-149225000D01*
X225425000Y-148404000D02*
X226246000Y-149225000D01*
X225425000Y-147700000D02*
X225425000Y-148404000D01*
X243621000Y-147700000D02*
X244475000Y-147700000D01*
X242096000Y-149225000D02*
X243621000Y-147700000D01*
X226246000Y-149225000D02*
X242096000Y-149225000D01*
X244475000Y-148404000D02*
X245296000Y-149225000D01*
X244475000Y-147700000D02*
X244475000Y-148404000D01*
X262671000Y-147700000D02*
X263525000Y-147700000D01*
X261146000Y-149225000D02*
X262671000Y-147700000D01*
X245296000Y-149225000D02*
X261146000Y-149225000D01*
X263525000Y-148404000D02*
X264346000Y-149225000D01*
X263525000Y-147700000D02*
X263525000Y-148404000D01*
X281721000Y-147700000D02*
X282575000Y-147700000D01*
X280196000Y-149225000D02*
X281721000Y-147700000D01*
X264346000Y-149225000D02*
X280196000Y-149225000D01*
X282575000Y-148404000D02*
X283396000Y-149225000D01*
X282575000Y-147700000D02*
X282575000Y-148404000D01*
X300771000Y-147700000D02*
X301625000Y-147700000D01*
X299246000Y-149225000D02*
X300771000Y-147700000D01*
X283396000Y-149225000D02*
X299246000Y-149225000D01*
X301625000Y-148404000D02*
X302446000Y-149225000D01*
X301625000Y-147700000D02*
X301625000Y-148404000D01*
X319821000Y-147700000D02*
X320675000Y-147700000D01*
X318296000Y-149225000D02*
X319821000Y-147700000D01*
X302446000Y-149225000D02*
X318296000Y-149225000D01*
X320675000Y-148404000D02*
X321496000Y-149225000D01*
X320675000Y-147700000D02*
X320675000Y-148404000D01*
X338871000Y-147700000D02*
X339725000Y-147700000D01*
X337346000Y-149225000D02*
X338871000Y-147700000D01*
X321496000Y-149225000D02*
X337346000Y-149225000D01*
X153050000Y-161106250D02*
X151631250Y-161106250D01*
X150046000Y-149225000D02*
X150812500Y-149225000D01*
X150812500Y-149225000D02*
X165896000Y-149225000D01*
X105687500Y-141550000D02*
X109006250Y-141550000D01*
X111125000Y-143668750D02*
X111125000Y-144400000D01*
X109006250Y-141550000D02*
X111125000Y-143668750D01*
X124737500Y-141550000D02*
X128056250Y-141550000D01*
X130175000Y-143668750D02*
X130175000Y-144400000D01*
X128056250Y-141550000D02*
X130175000Y-143668750D01*
X143787500Y-141550000D02*
X147106250Y-141550000D01*
X149225000Y-143668750D02*
X149225000Y-144400000D01*
X147106250Y-141550000D02*
X149225000Y-143668750D01*
X162837500Y-141550000D02*
X166156250Y-141550000D01*
X168275000Y-143668750D02*
X168275000Y-144400000D01*
X166156250Y-141550000D02*
X168275000Y-143668750D01*
X181887500Y-141550000D02*
X186000000Y-141550000D01*
X187325000Y-142875000D02*
X187325000Y-144400000D01*
X186000000Y-141550000D02*
X187325000Y-142875000D01*
X200937500Y-141550000D02*
X204256250Y-141550000D01*
X206375000Y-143668750D02*
X206375000Y-144400000D01*
X204256250Y-141550000D02*
X206375000Y-143668750D01*
X219987500Y-141550000D02*
X223306250Y-141550000D01*
X225425000Y-143668750D02*
X225425000Y-144400000D01*
X223306250Y-141550000D02*
X225425000Y-143668750D01*
X239037500Y-141550000D02*
X242356250Y-141550000D01*
X244475000Y-143668750D02*
X244475000Y-144400000D01*
X242356250Y-141550000D02*
X244475000Y-143668750D01*
X258087500Y-141550000D02*
X261406250Y-141550000D01*
X263525000Y-143668750D02*
X263525000Y-144400000D01*
X261406250Y-141550000D02*
X263525000Y-143668750D01*
X277137500Y-141550000D02*
X279662500Y-141550000D01*
X282425000Y-144400000D02*
X282575000Y-144400000D01*
X279662500Y-141637500D02*
X282425000Y-144400000D01*
X279662500Y-141550000D02*
X279662500Y-141637500D01*
X296187500Y-141550000D02*
X299506250Y-141550000D01*
X301625000Y-143668750D02*
X301625000Y-144400000D01*
X299506250Y-141550000D02*
X301625000Y-143668750D01*
X315237500Y-141550000D02*
X318556250Y-141550000D01*
X320675000Y-143668750D02*
X320675000Y-144400000D01*
X318556250Y-141550000D02*
X320675000Y-143668750D01*
X334287500Y-141550000D02*
X337606250Y-141550000D01*
X339725000Y-143668750D02*
X339725000Y-144400000D01*
X337606250Y-141550000D02*
X339725000Y-143668750D01*
X69968750Y-160600000D02*
X73287500Y-160600000D01*
X76050000Y-163450000D02*
X76200000Y-163450000D01*
X73287500Y-160687500D02*
X76050000Y-163450000D01*
X73287500Y-160600000D02*
X73287500Y-160687500D01*
X76200000Y-167454000D02*
X77814750Y-169068750D01*
X76200000Y-166750000D02*
X76200000Y-167454000D01*
X99158500Y-166750000D02*
X100012500Y-166750000D01*
X96839750Y-169068750D02*
X99158500Y-166750000D01*
X77814750Y-169068750D02*
X96839750Y-169068750D01*
X100866500Y-166750000D02*
X102391500Y-168275000D01*
X100012500Y-166750000D02*
X100866500Y-166750000D01*
X122971000Y-166750000D02*
X123825000Y-166750000D01*
X121446000Y-168275000D02*
X122971000Y-166750000D01*
X102391500Y-168275000D02*
X121446000Y-168275000D01*
X197583500Y-166750000D02*
X198437500Y-166750000D01*
X190502250Y-173831250D02*
X197583500Y-166750000D01*
X123825000Y-166750000D02*
X128650000Y-166750000D01*
X128650000Y-166750000D02*
X128650000Y-167543750D01*
X142081250Y-173831250D02*
X190502250Y-173831250D01*
X128650000Y-167543750D02*
X130968750Y-169862500D01*
X130968750Y-169862500D02*
X138112500Y-169862500D01*
X198437500Y-167454000D02*
X200846000Y-169862500D01*
X198437500Y-166750000D02*
X198437500Y-167454000D01*
X259558500Y-169862500D02*
X262671000Y-166750000D01*
X262671000Y-166750000D02*
X263525000Y-166750000D01*
X200846000Y-169862500D02*
X259558500Y-169862500D01*
X263525000Y-167454000D02*
X264346000Y-168275000D01*
X263525000Y-166750000D02*
X263525000Y-167454000D01*
X281721000Y-166750000D02*
X282575000Y-166750000D01*
X280196000Y-168275000D02*
X281721000Y-166750000D01*
X264346000Y-168275000D02*
X280196000Y-168275000D01*
X282575000Y-167454000D02*
X283396000Y-168275000D01*
X282575000Y-166750000D02*
X282575000Y-167454000D01*
X300771000Y-166750000D02*
X301625000Y-166750000D01*
X299246000Y-168275000D02*
X300771000Y-166750000D01*
X283396000Y-168275000D02*
X299246000Y-168275000D01*
X301625000Y-167454000D02*
X302446000Y-168275000D01*
X301625000Y-166750000D02*
X301625000Y-167454000D01*
X318296000Y-168275000D02*
X319821000Y-166750000D01*
X319821000Y-166750000D02*
X320675000Y-166750000D01*
X302446000Y-168275000D02*
X318296000Y-168275000D01*
X320825000Y-166750000D02*
X322262500Y-168187500D01*
X320675000Y-166750000D02*
X320825000Y-166750000D01*
X338871000Y-166750000D02*
X339725000Y-166750000D01*
X337433500Y-168187500D02*
X338871000Y-166750000D01*
X322262500Y-168187500D02*
X337433500Y-168187500D01*
X153050000Y-162706250D02*
X150825000Y-162706250D01*
X150825000Y-162706250D02*
X150815500Y-162715750D01*
X150815500Y-162715750D02*
X150812500Y-162715750D01*
X138112500Y-169862500D02*
X140493750Y-172243750D01*
X140493750Y-172243750D02*
X142081250Y-173831250D01*
X93781250Y-160600000D02*
X97100000Y-160600000D01*
X99862500Y-163450000D02*
X100012500Y-163450000D01*
X97100000Y-160687500D02*
X99862500Y-163450000D01*
X97100000Y-160600000D02*
X97100000Y-160687500D01*
X117593750Y-160600000D02*
X120912500Y-160600000D01*
X123675000Y-163450000D02*
X123825000Y-163450000D01*
X120912500Y-160687500D02*
X123675000Y-163450000D01*
X120912500Y-160600000D02*
X120912500Y-160687500D01*
X189031250Y-160600000D02*
X194731250Y-160600000D01*
X197581250Y-163450000D02*
X198437500Y-163450000D01*
X194731250Y-160600000D02*
X197581250Y-163450000D01*
X258087500Y-160600000D02*
X261406250Y-160600000D01*
X263525000Y-162718750D02*
X263525000Y-163450000D01*
X261406250Y-160600000D02*
X263525000Y-162718750D01*
X277137500Y-160600000D02*
X280456250Y-160600000D01*
X282575000Y-162718750D02*
X282575000Y-163450000D01*
X280456250Y-160600000D02*
X282575000Y-162718750D01*
X296187500Y-160600000D02*
X299506250Y-160600000D01*
X301625000Y-162718750D02*
X301625000Y-163450000D01*
X299506250Y-160600000D02*
X301625000Y-162718750D01*
X315237500Y-160600000D02*
X317762500Y-160600000D01*
X320525000Y-163450000D02*
X320675000Y-163450000D01*
X317762500Y-160687500D02*
X320525000Y-163450000D01*
X317762500Y-160600000D02*
X317762500Y-160687500D01*
X334287500Y-160600000D02*
X337606250Y-160600000D01*
X339725000Y-162718750D02*
X339725000Y-163450000D01*
X337606250Y-160600000D02*
X339725000Y-162718750D01*
D23*
X85537500Y-131762500D02*
X85725000Y-131950000D01*
X75406250Y-131762500D02*
X85537500Y-131762500D01*
D24*
X153050000Y-161906250D02*
X150831250Y-161906250D01*
X150831250Y-161906250D02*
X150812500Y-161887500D01*
X150812500Y-161887500D02*
X150812500Y-161715747D01*
X150812500Y-161925000D02*
X150812500Y-161715747D01*
X153050000Y-160306250D02*
X150843750Y-160306250D01*
X150843750Y-160306250D02*
X150812500Y-160337500D01*
X150760382Y-157214618D02*
X151502014Y-157956250D01*
X151502014Y-157956250D02*
X153193750Y-157956250D01*
X161950000Y-158606250D02*
X161950000Y-160312500D01*
X162750000Y-158606250D02*
X162750000Y-157193750D01*
X162750000Y-157193750D02*
X162718750Y-157162500D01*
X153987500Y-150018750D02*
X141287500Y-150018750D01*
X141287500Y-150018750D02*
X140493750Y-150812500D01*
X169302010Y-161755168D02*
X169302010Y-158919832D01*
X168967668Y-162089510D02*
X169302010Y-161755168D01*
X165637260Y-162089510D02*
X168967668Y-162089510D01*
X169302010Y-158919832D02*
X161194678Y-150812500D01*
X164450000Y-161906250D02*
X165454000Y-161906250D01*
X165454000Y-161906250D02*
X165637260Y-162089510D01*
X161194678Y-150812500D02*
X157162500Y-150812500D01*
X168992995Y-162706250D02*
X169005495Y-162718750D01*
X164450000Y-162706250D02*
X168992995Y-162706250D01*
X169005495Y-162718750D02*
X170656250Y-162718750D01*
X181775000Y-163506250D02*
X182721250Y-162560000D01*
X164450000Y-163506250D02*
X181775000Y-163506250D01*
X164450000Y-164306250D02*
X173037500Y-164306250D01*
X173037500Y-164306250D02*
X177800000Y-169068750D01*
X177800000Y-169068750D02*
X192087500Y-169068750D01*
X192087500Y-169068750D02*
X196056250Y-165100000D01*
X173195434Y-165106250D02*
X178745434Y-170656250D01*
X164450000Y-165106250D02*
X173195434Y-165106250D01*
X178745434Y-170656250D02*
X192087500Y-170656250D01*
X165500520Y-165859730D02*
X173306848Y-165859730D01*
X164450000Y-165906250D02*
X165454000Y-165906250D01*
X173306848Y-165859730D02*
X178897118Y-171450000D01*
X165454000Y-165906250D02*
X165500520Y-165859730D01*
X178897118Y-171450000D02*
X190500000Y-171450000D01*
X164450000Y-166706250D02*
X165875000Y-166706250D01*
X165875000Y-166706250D02*
X165860623Y-166691873D01*
X259227908Y-169408490D02*
X266076398Y-162560000D01*
X266076398Y-162560000D02*
X270827500Y-162560000D01*
X202745990Y-169408490D02*
X259227908Y-169408490D01*
X202289058Y-168951558D02*
X202745990Y-169408490D01*
X163372999Y-167579251D02*
X163372999Y-168842851D01*
X163372999Y-168842851D02*
X163598898Y-169068750D01*
X164450000Y-167506250D02*
X163446000Y-167506250D01*
X163446000Y-167506250D02*
X163372999Y-167579251D01*
X163598898Y-169068750D02*
X165893750Y-169068750D01*
X161150000Y-170006250D02*
X161150000Y-168293750D01*
X161150000Y-168293750D02*
X161101782Y-168341968D01*
X161101782Y-168341968D02*
X161101782Y-168344968D01*
X229329834Y-167481250D02*
X240442334Y-156368750D01*
X203200000Y-167481250D02*
X229329834Y-167481250D01*
X302736250Y-156368750D02*
X308927500Y-162560000D01*
X240442334Y-156368750D02*
X302736250Y-156368750D01*
X160350000Y-170006250D02*
X160350000Y-168287500D01*
X160350000Y-168287500D02*
X160337500Y-168275000D01*
X160337500Y-168275000D02*
X157978000Y-168275000D01*
X157978000Y-168275000D02*
X157956250Y-168296750D01*
X319941599Y-154524099D02*
X327977500Y-162560000D01*
X212188401Y-154524099D02*
X319941599Y-154524099D01*
X210343750Y-156368750D02*
X212188401Y-154524099D01*
X63772750Y-134068750D02*
X66229000Y-136525000D01*
X62968750Y-134068750D02*
X63772750Y-134068750D01*
X66229000Y-136525000D02*
X66229000Y-153541500D01*
X71255499Y-158567999D02*
X122055499Y-158567999D01*
X66229000Y-153541500D02*
X71255499Y-158567999D01*
X122055499Y-158567999D02*
X127793750Y-164306250D01*
X145906250Y-158750000D02*
X146050000Y-158606250D01*
X139700000Y-158750000D02*
X145906250Y-158750000D01*
X155476999Y-159683251D02*
X155550000Y-159610250D01*
X155550000Y-159610250D02*
X155550000Y-158606250D01*
X154213399Y-159683251D02*
X155476999Y-159683251D01*
X153950908Y-159420760D02*
X154213399Y-159683251D01*
X146864510Y-159420760D02*
X153950908Y-159420760D01*
X146050000Y-158606250D02*
X146864510Y-159420760D01*
X137187500Y-165906250D02*
X153050000Y-165906250D01*
X132556250Y-161275000D02*
X137187500Y-165906250D01*
X80639750Y-117475000D02*
X80168750Y-117475000D01*
X96043750Y-150812500D02*
X97631250Y-152400000D01*
X125556250Y-152400000D02*
X132556250Y-159400000D01*
X97631250Y-152400000D02*
X125556250Y-152400000D01*
X122381250Y-153987500D02*
X127793750Y-159400000D01*
X82550000Y-145256250D02*
X91281250Y-153987500D01*
X91281250Y-153987500D02*
X122381250Y-153987500D01*
X133225000Y-166706250D02*
X152381250Y-166706250D01*
X127793750Y-161275000D02*
X133225000Y-166706250D01*
X152381250Y-166706250D02*
X153050000Y-166706250D01*
X165274381Y-168306250D02*
X164450000Y-168306250D01*
X167266891Y-166313740D02*
X165274381Y-168306250D01*
X168051240Y-166313740D02*
X167266891Y-166313740D01*
X169212500Y-167475000D02*
X168051240Y-166313740D01*
X169212500Y-168275000D02*
X169212500Y-167475000D01*
D23*
X64281250Y-119075000D02*
X69837500Y-119075000D01*
X73312500Y-115600000D02*
X82981250Y-115600000D01*
X69837500Y-119075000D02*
X73312500Y-115600000D01*
D24*
X80793750Y-116850000D02*
X82981250Y-116850000D01*
X80168750Y-117475000D02*
X80793750Y-116850000D01*
X82610540Y-118470710D02*
X82981250Y-118100000D01*
X82418749Y-118662501D02*
X82610540Y-118470710D01*
X79774999Y-118662501D02*
X82418749Y-118662501D01*
X79375000Y-119062500D02*
X79774999Y-118662501D01*
X81157712Y-121173538D02*
X82981250Y-119350000D01*
X76993750Y-121173538D02*
X81157712Y-121173538D01*
G36*
X146485900Y-167475000D02*
G01*
X146400959Y-167544709D01*
X146375108Y-167576209D01*
X144701216Y-169250102D01*
X144669709Y-169275959D01*
X144605013Y-169354792D01*
X144566551Y-169401658D01*
X144511279Y-169505065D01*
X144489897Y-169545067D01*
X144442694Y-169700675D01*
X144430969Y-169819723D01*
X144426756Y-169862500D01*
X144430750Y-169903051D01*
X144430751Y-171616246D01*
X144339045Y-171753494D01*
X144261024Y-171941852D01*
X144221250Y-172141811D01*
X144221250Y-172345689D01*
X144261024Y-172545648D01*
X144339045Y-172734006D01*
X144452313Y-172903524D01*
X144596476Y-173047687D01*
X144628747Y-173069250D01*
X143795750Y-173069250D01*
X143795750Y-167468250D01*
X146494125Y-167468250D01*
X146485900Y-167475000D01*
X146485900Y-167475000D01*
G37*
X146485900Y-167475000D02*
X146400959Y-167544709D01*
X146375108Y-167576209D01*
X144701216Y-169250102D01*
X144669709Y-169275959D01*
X144605013Y-169354792D01*
X144566551Y-169401658D01*
X144511279Y-169505065D01*
X144489897Y-169545067D01*
X144442694Y-169700675D01*
X144430969Y-169819723D01*
X144426756Y-169862500D01*
X144430750Y-169903051D01*
X144430751Y-171616246D01*
X144339045Y-171753494D01*
X144261024Y-171941852D01*
X144221250Y-172141811D01*
X144221250Y-172345689D01*
X144261024Y-172545648D01*
X144339045Y-172734006D01*
X144452313Y-172903524D01*
X144596476Y-173047687D01*
X144628747Y-173069250D01*
X143795750Y-173069250D01*
X143795750Y-167468250D01*
X146494125Y-167468250D01*
X146485900Y-167475000D01*
G36*
X167464500Y-168148000D02*
G01*
X167484500Y-168148000D01*
X167484500Y-168402000D01*
X167464500Y-168402000D01*
X167464500Y-169451250D01*
X167478875Y-169465625D01*
X167464500Y-169480000D01*
X167464500Y-170529250D01*
X167484500Y-170529250D01*
X167484500Y-170783250D01*
X167464500Y-170783250D01*
X167464500Y-170803250D01*
X167210500Y-170803250D01*
X167210500Y-170783250D01*
X166373750Y-170783250D01*
X166215000Y-170942000D01*
X166211928Y-171356250D01*
X166224188Y-171480732D01*
X166260498Y-171600430D01*
X166319463Y-171710744D01*
X166398815Y-171807435D01*
X166495506Y-171886787D01*
X166506417Y-171892619D01*
X166486024Y-171941852D01*
X166446250Y-172141811D01*
X166446250Y-172345689D01*
X166486024Y-172545648D01*
X166564045Y-172734006D01*
X166677313Y-172903524D01*
X166821476Y-173047687D01*
X166853747Y-173069250D01*
X155330734Y-173069250D01*
X155409774Y-173016437D01*
X155553937Y-172872274D01*
X155667205Y-172702756D01*
X155745226Y-172514398D01*
X155785000Y-172314439D01*
X155785000Y-172110561D01*
X155745226Y-171910602D01*
X155667205Y-171722244D01*
X155575500Y-171584997D01*
X155575500Y-171391250D01*
X155677002Y-171391250D01*
X155677002Y-171251084D01*
X155720506Y-171286787D01*
X155743667Y-171299167D01*
X155835750Y-171391250D01*
X155949337Y-171381704D01*
X155950518Y-171382062D01*
X156075000Y-171394322D01*
X156625000Y-171394322D01*
X156749482Y-171382062D01*
X156750000Y-171381905D01*
X156750518Y-171382062D01*
X156875000Y-171394322D01*
X157425000Y-171394322D01*
X157549482Y-171382062D01*
X157550000Y-171381905D01*
X157550518Y-171382062D01*
X157675000Y-171394322D01*
X158225000Y-171394322D01*
X158349482Y-171382062D01*
X158350000Y-171381905D01*
X158350518Y-171382062D01*
X158475000Y-171394322D01*
X159025000Y-171394322D01*
X159149482Y-171382062D01*
X159150000Y-171381905D01*
X159150518Y-171382062D01*
X159275000Y-171394322D01*
X159825000Y-171394322D01*
X159949482Y-171382062D01*
X159950000Y-171381905D01*
X159950518Y-171382062D01*
X160075000Y-171394322D01*
X160625000Y-171394322D01*
X160749482Y-171382062D01*
X160750000Y-171381905D01*
X160750518Y-171382062D01*
X160875000Y-171394322D01*
X161425000Y-171394322D01*
X161549482Y-171382062D01*
X161550663Y-171381704D01*
X161664250Y-171391250D01*
X161756333Y-171299167D01*
X161779494Y-171286787D01*
X161876185Y-171207435D01*
X161950000Y-171117491D01*
X162023815Y-171207435D01*
X162120506Y-171286787D01*
X162143667Y-171299167D01*
X162235750Y-171391250D01*
X162349337Y-171381704D01*
X162350518Y-171382062D01*
X162475000Y-171394322D01*
X163025000Y-171394322D01*
X163149482Y-171382062D01*
X163269180Y-171345752D01*
X163379494Y-171286787D01*
X163476185Y-171207435D01*
X163555537Y-171110744D01*
X163614502Y-171000430D01*
X163650812Y-170880732D01*
X163663072Y-170756250D01*
X163663072Y-169830750D01*
X165192039Y-169830750D01*
X165233976Y-169872687D01*
X165403494Y-169985955D01*
X165591852Y-170063976D01*
X165791811Y-170103750D01*
X165995689Y-170103750D01*
X166195648Y-170063976D01*
X166212675Y-170056923D01*
X166215000Y-170370500D01*
X166373750Y-170529250D01*
X167210500Y-170529250D01*
X167210500Y-169480000D01*
X167196125Y-169465625D01*
X167210500Y-169451250D01*
X167210500Y-168402000D01*
X167190500Y-168402000D01*
X167190500Y-168148000D01*
X167210500Y-168148000D01*
X167210500Y-168128000D01*
X167464500Y-168128000D01*
X167464500Y-168148000D01*
X167464500Y-168148000D01*
G37*
X167464500Y-168148000D02*
X167484500Y-168148000D01*
X167484500Y-168402000D01*
X167464500Y-168402000D01*
X167464500Y-169451250D01*
X167478875Y-169465625D01*
X167464500Y-169480000D01*
X167464500Y-170529250D01*
X167484500Y-170529250D01*
X167484500Y-170783250D01*
X167464500Y-170783250D01*
X167464500Y-170803250D01*
X167210500Y-170803250D01*
X167210500Y-170783250D01*
X166373750Y-170783250D01*
X166215000Y-170942000D01*
X166211928Y-171356250D01*
X166224188Y-171480732D01*
X166260498Y-171600430D01*
X166319463Y-171710744D01*
X166398815Y-171807435D01*
X166495506Y-171886787D01*
X166506417Y-171892619D01*
X166486024Y-171941852D01*
X166446250Y-172141811D01*
X166446250Y-172345689D01*
X166486024Y-172545648D01*
X166564045Y-172734006D01*
X166677313Y-172903524D01*
X166821476Y-173047687D01*
X166853747Y-173069250D01*
X155330734Y-173069250D01*
X155409774Y-173016437D01*
X155553937Y-172872274D01*
X155667205Y-172702756D01*
X155745226Y-172514398D01*
X155785000Y-172314439D01*
X155785000Y-172110561D01*
X155745226Y-171910602D01*
X155667205Y-171722244D01*
X155575500Y-171584997D01*
X155575500Y-171391250D01*
X155677002Y-171391250D01*
X155677002Y-171251084D01*
X155720506Y-171286787D01*
X155743667Y-171299167D01*
X155835750Y-171391250D01*
X155949337Y-171381704D01*
X155950518Y-171382062D01*
X156075000Y-171394322D01*
X156625000Y-171394322D01*
X156749482Y-171382062D01*
X156750000Y-171381905D01*
X156750518Y-171382062D01*
X156875000Y-171394322D01*
X157425000Y-171394322D01*
X157549482Y-171382062D01*
X157550000Y-171381905D01*
X157550518Y-171382062D01*
X157675000Y-171394322D01*
X158225000Y-171394322D01*
X158349482Y-171382062D01*
X158350000Y-171381905D01*
X158350518Y-171382062D01*
X158475000Y-171394322D01*
X159025000Y-171394322D01*
X159149482Y-171382062D01*
X159150000Y-171381905D01*
X159150518Y-171382062D01*
X159275000Y-171394322D01*
X159825000Y-171394322D01*
X159949482Y-171382062D01*
X159950000Y-171381905D01*
X159950518Y-171382062D01*
X160075000Y-171394322D01*
X160625000Y-171394322D01*
X160749482Y-171382062D01*
X160750000Y-171381905D01*
X160750518Y-171382062D01*
X160875000Y-171394322D01*
X161425000Y-171394322D01*
X161549482Y-171382062D01*
X161550663Y-171381704D01*
X161664250Y-171391250D01*
X161756333Y-171299167D01*
X161779494Y-171286787D01*
X161876185Y-171207435D01*
X161950000Y-171117491D01*
X162023815Y-171207435D01*
X162120506Y-171286787D01*
X162143667Y-171299167D01*
X162235750Y-171391250D01*
X162349337Y-171381704D01*
X162350518Y-171382062D01*
X162475000Y-171394322D01*
X163025000Y-171394322D01*
X163149482Y-171382062D01*
X163269180Y-171345752D01*
X163379494Y-171286787D01*
X163476185Y-171207435D01*
X163555537Y-171110744D01*
X163614502Y-171000430D01*
X163650812Y-170880732D01*
X163663072Y-170756250D01*
X163663072Y-169830750D01*
X165192039Y-169830750D01*
X165233976Y-169872687D01*
X165403494Y-169985955D01*
X165591852Y-170063976D01*
X165791811Y-170103750D01*
X165995689Y-170103750D01*
X166195648Y-170063976D01*
X166212675Y-170056923D01*
X166215000Y-170370500D01*
X166373750Y-170529250D01*
X167210500Y-170529250D01*
X167210500Y-169480000D01*
X167196125Y-169465625D01*
X167210500Y-169451250D01*
X167210500Y-168402000D01*
X167190500Y-168402000D01*
X167190500Y-168148000D01*
X167210500Y-168148000D01*
X167210500Y-168128000D01*
X167464500Y-168128000D01*
X167464500Y-168148000D01*
G36*
X151661928Y-168581250D02*
G01*
X151674188Y-168705732D01*
X151710498Y-168825430D01*
X151769463Y-168935744D01*
X151848815Y-169032435D01*
X151945506Y-169111787D01*
X152055820Y-169170752D01*
X152175518Y-169207062D01*
X152300000Y-169219322D01*
X153800000Y-169219322D01*
X153840962Y-169215288D01*
X153840447Y-169220519D01*
X153776629Y-169239878D01*
X153776566Y-169239897D01*
X153633157Y-169316551D01*
X153538958Y-169393858D01*
X153538955Y-169393861D01*
X153507459Y-169419709D01*
X153481611Y-169451206D01*
X152874057Y-170058760D01*
X149078000Y-170058760D01*
X149078000Y-169879250D01*
X149098000Y-169879250D01*
X149098000Y-169859250D01*
X149352000Y-169859250D01*
X149352000Y-169879250D01*
X150401250Y-169879250D01*
X150560000Y-169720500D01*
X150563072Y-169518750D01*
X150550812Y-169394268D01*
X150514502Y-169274570D01*
X150455537Y-169164256D01*
X150376185Y-169067565D01*
X150298436Y-169003758D01*
X150304792Y-168998542D01*
X150414458Y-168864914D01*
X150495947Y-168712459D01*
X150546128Y-168547035D01*
X150563072Y-168375000D01*
X150563072Y-168331750D01*
X151661928Y-168331750D01*
X151661928Y-168581250D01*
X151661928Y-168581250D01*
G37*
X151661928Y-168581250D02*
X151674188Y-168705732D01*
X151710498Y-168825430D01*
X151769463Y-168935744D01*
X151848815Y-169032435D01*
X151945506Y-169111787D01*
X152055820Y-169170752D01*
X152175518Y-169207062D01*
X152300000Y-169219322D01*
X153800000Y-169219322D01*
X153840962Y-169215288D01*
X153840447Y-169220519D01*
X153776629Y-169239878D01*
X153776566Y-169239897D01*
X153633157Y-169316551D01*
X153538958Y-169393858D01*
X153538955Y-169393861D01*
X153507459Y-169419709D01*
X153481611Y-169451206D01*
X152874057Y-170058760D01*
X149078000Y-170058760D01*
X149078000Y-169879250D01*
X149098000Y-169879250D01*
X149098000Y-169859250D01*
X149352000Y-169859250D01*
X149352000Y-169879250D01*
X150401250Y-169879250D01*
X150560000Y-169720500D01*
X150563072Y-169518750D01*
X150550812Y-169394268D01*
X150514502Y-169274570D01*
X150455537Y-169164256D01*
X150376185Y-169067565D01*
X150298436Y-169003758D01*
X150304792Y-168998542D01*
X150414458Y-168864914D01*
X150495947Y-168712459D01*
X150546128Y-168547035D01*
X150563072Y-168375000D01*
X150563072Y-168331750D01*
X151661928Y-168331750D01*
X151661928Y-168581250D01*
G36*
X156921250Y-168398689D02*
G01*
X156961024Y-168598648D01*
X156969114Y-168618178D01*
X156875000Y-168618178D01*
X156750518Y-168630438D01*
X156750000Y-168630595D01*
X156749482Y-168630438D01*
X156625000Y-168618178D01*
X156075000Y-168618178D01*
X155950518Y-168630438D01*
X155949337Y-168630796D01*
X155835750Y-168621250D01*
X155743667Y-168713333D01*
X155720506Y-168725713D01*
X155623815Y-168805065D01*
X155550000Y-168895009D01*
X155476185Y-168805065D01*
X155379494Y-168725713D01*
X155356333Y-168713333D01*
X155264250Y-168621250D01*
X155150663Y-168630796D01*
X155149482Y-168630438D01*
X155025000Y-168618178D01*
X154475000Y-168618178D01*
X154434038Y-168622212D01*
X154438072Y-168581250D01*
X154438072Y-168331750D01*
X156921250Y-168331750D01*
X156921250Y-168398689D01*
X156921250Y-168398689D01*
G37*
X156921250Y-168398689D02*
X156961024Y-168598648D01*
X156969114Y-168618178D01*
X156875000Y-168618178D01*
X156750518Y-168630438D01*
X156750000Y-168630595D01*
X156749482Y-168630438D01*
X156625000Y-168618178D01*
X156075000Y-168618178D01*
X155950518Y-168630438D01*
X155949337Y-168630796D01*
X155835750Y-168621250D01*
X155743667Y-168713333D01*
X155720506Y-168725713D01*
X155623815Y-168805065D01*
X155550000Y-168895009D01*
X155476185Y-168805065D01*
X155379494Y-168725713D01*
X155356333Y-168713333D01*
X155264250Y-168621250D01*
X155150663Y-168630796D01*
X155149482Y-168630438D01*
X155025000Y-168618178D01*
X154475000Y-168618178D01*
X154434038Y-168622212D01*
X154438072Y-168581250D01*
X154438072Y-168331750D01*
X156921250Y-168331750D01*
X156921250Y-168398689D01*
G36*
X154446251Y-166073566D02*
G01*
X154438072Y-166081745D01*
X154438072Y-165631250D01*
X154425812Y-165506768D01*
X154425454Y-165505587D01*
X154435000Y-165392000D01*
X154342917Y-165299917D01*
X154330537Y-165276756D01*
X154251185Y-165180065D01*
X154161241Y-165106250D01*
X154251185Y-165032435D01*
X154330537Y-164935744D01*
X154342917Y-164912583D01*
X154435000Y-164820500D01*
X154425454Y-164706913D01*
X154425812Y-164705732D01*
X154438072Y-164581250D01*
X154438072Y-164290914D01*
X154446250Y-164288433D01*
X154446251Y-166073566D01*
X154446251Y-166073566D01*
G37*
X154446251Y-166073566D02*
X154438072Y-166081745D01*
X154438072Y-165631250D01*
X154425812Y-165506768D01*
X154425454Y-165505587D01*
X154435000Y-165392000D01*
X154342917Y-165299917D01*
X154330537Y-165276756D01*
X154251185Y-165180065D01*
X154161241Y-165106250D01*
X154251185Y-165032435D01*
X154330537Y-164935744D01*
X154342917Y-164912583D01*
X154435000Y-164820500D01*
X154425454Y-164706913D01*
X154425812Y-164705732D01*
X154438072Y-164581250D01*
X154438072Y-164290914D01*
X154446250Y-164288433D01*
X154446251Y-166073566D01*
G36*
X144970208Y-161348542D02*
G01*
X145103836Y-161458208D01*
X145256291Y-161539697D01*
X145421715Y-161589878D01*
X145593750Y-161606822D01*
X145886888Y-161606822D01*
X145763958Y-161707708D01*
X145654292Y-161841336D01*
X145572803Y-161993791D01*
X145522622Y-162159215D01*
X145505678Y-162331250D01*
X145505678Y-162818750D01*
X145522622Y-162990785D01*
X145572803Y-163156209D01*
X145654292Y-163308664D01*
X145763958Y-163442292D01*
X145770314Y-163447508D01*
X145692565Y-163511315D01*
X145613213Y-163608006D01*
X145554248Y-163718320D01*
X145517938Y-163838018D01*
X145505678Y-163962500D01*
X145508750Y-164164250D01*
X145667500Y-164323000D01*
X146716750Y-164323000D01*
X146716750Y-164303000D01*
X146970750Y-164303000D01*
X146970750Y-164323000D01*
X146990750Y-164323000D01*
X146990750Y-164577000D01*
X146970750Y-164577000D01*
X146970750Y-164597000D01*
X146716750Y-164597000D01*
X146716750Y-164577000D01*
X145667500Y-164577000D01*
X145508750Y-164735750D01*
X145505678Y-164937500D01*
X145517938Y-165061982D01*
X145542894Y-165144250D01*
X143795750Y-165144250D01*
X143795750Y-161306750D01*
X144935910Y-161306750D01*
X144970208Y-161348542D01*
X144970208Y-161348542D01*
G37*
X144970208Y-161348542D02*
X145103836Y-161458208D01*
X145256291Y-161539697D01*
X145421715Y-161589878D01*
X145593750Y-161606822D01*
X145886888Y-161606822D01*
X145763958Y-161707708D01*
X145654292Y-161841336D01*
X145572803Y-161993791D01*
X145522622Y-162159215D01*
X145505678Y-162331250D01*
X145505678Y-162818750D01*
X145522622Y-162990785D01*
X145572803Y-163156209D01*
X145654292Y-163308664D01*
X145763958Y-163442292D01*
X145770314Y-163447508D01*
X145692565Y-163511315D01*
X145613213Y-163608006D01*
X145554248Y-163718320D01*
X145517938Y-163838018D01*
X145505678Y-163962500D01*
X145508750Y-164164250D01*
X145667500Y-164323000D01*
X146716750Y-164323000D01*
X146716750Y-164303000D01*
X146970750Y-164303000D01*
X146970750Y-164323000D01*
X146990750Y-164323000D01*
X146990750Y-164577000D01*
X146970750Y-164577000D01*
X146970750Y-164597000D01*
X146716750Y-164597000D01*
X146716750Y-164577000D01*
X145667500Y-164577000D01*
X145508750Y-164735750D01*
X145505678Y-164937500D01*
X145517938Y-165061982D01*
X145542894Y-165144250D01*
X143795750Y-165144250D01*
X143795750Y-161306750D01*
X144935910Y-161306750D01*
X144970208Y-161348542D01*
G36*
X153685602Y-151013976D02*
G01*
X153885561Y-151053750D01*
X154089439Y-151053750D01*
X154289398Y-151013976D01*
X154469198Y-150939500D01*
X156132485Y-150939500D01*
X156167274Y-151114398D01*
X156240550Y-151291300D01*
X156083000Y-151133750D01*
X155668750Y-151130678D01*
X155544268Y-151142938D01*
X155424570Y-151179248D01*
X155314256Y-151238213D01*
X155217565Y-151317565D01*
X155138213Y-151414256D01*
X155079248Y-151524570D01*
X155042938Y-151644268D01*
X155030678Y-151768750D01*
X155033750Y-151970500D01*
X155192500Y-152129250D01*
X156241750Y-152129250D01*
X156241750Y-152109250D01*
X156495750Y-152109250D01*
X156495750Y-152129250D01*
X157545000Y-152129250D01*
X157703750Y-151970500D01*
X157706822Y-151768750D01*
X157699876Y-151698221D01*
X157822274Y-151616437D01*
X157864211Y-151574500D01*
X160879048Y-151574500D01*
X167579005Y-158274458D01*
X167575000Y-158274428D01*
X167450518Y-158286688D01*
X167330820Y-158322998D01*
X167220506Y-158381963D01*
X167123815Y-158461315D01*
X167044463Y-158558006D01*
X166985498Y-158668320D01*
X166949188Y-158788018D01*
X166936928Y-158912500D01*
X166940000Y-159114250D01*
X167098750Y-159273000D01*
X168148000Y-159273000D01*
X168148000Y-159253000D01*
X168402000Y-159253000D01*
X168402000Y-159273000D01*
X168422000Y-159273000D01*
X168422000Y-159527000D01*
X168402000Y-159527000D01*
X168402000Y-159547000D01*
X168148000Y-159547000D01*
X168148000Y-159527000D01*
X167098750Y-159527000D01*
X166940000Y-159685750D01*
X166936928Y-159887500D01*
X166949188Y-160011982D01*
X166985498Y-160131680D01*
X167044463Y-160241994D01*
X167076269Y-160280750D01*
X165835000Y-160280750D01*
X165835000Y-160179248D01*
X165676252Y-160179248D01*
X165835000Y-160020500D01*
X165825177Y-159903619D01*
X165788265Y-159784105D01*
X165728746Y-159674089D01*
X165648908Y-159577799D01*
X165551818Y-159498934D01*
X165441208Y-159440526D01*
X165321329Y-159404820D01*
X165196787Y-159393186D01*
X164735750Y-159396250D01*
X164577000Y-159555000D01*
X164577000Y-160179250D01*
X164597000Y-160179250D01*
X164597000Y-160193178D01*
X164303000Y-160193178D01*
X164303000Y-160179250D01*
X164323000Y-160179250D01*
X164323000Y-159555000D01*
X164164250Y-159396250D01*
X163703213Y-159393186D01*
X163659028Y-159397314D01*
X163663072Y-159356250D01*
X163663072Y-157856250D01*
X163650812Y-157731768D01*
X163629689Y-157662134D01*
X163635955Y-157652756D01*
X163713976Y-157464398D01*
X163753750Y-157264439D01*
X163753750Y-157060561D01*
X163713976Y-156860602D01*
X163635955Y-156672244D01*
X163522687Y-156502726D01*
X163378524Y-156358563D01*
X163209006Y-156245295D01*
X163020648Y-156167274D01*
X162820689Y-156127500D01*
X162616811Y-156127500D01*
X162416852Y-156167274D01*
X162228494Y-156245295D01*
X162058976Y-156358563D01*
X161923391Y-156494149D01*
X161799762Y-156370520D01*
X161630244Y-156257252D01*
X161579199Y-156236108D01*
X161545197Y-156065166D01*
X161467176Y-155876808D01*
X161353908Y-155707290D01*
X161209745Y-155563127D01*
X161040227Y-155449859D01*
X160851869Y-155371838D01*
X160651910Y-155332064D01*
X160448032Y-155332064D01*
X160248073Y-155371838D01*
X160059715Y-155449859D01*
X160044047Y-155460328D01*
X160040256Y-155457795D01*
X159851898Y-155379774D01*
X159651939Y-155340000D01*
X159448061Y-155340000D01*
X159248102Y-155379774D01*
X159059744Y-155457795D01*
X158890226Y-155571063D01*
X158888210Y-155573079D01*
X157705325Y-154390195D01*
X157706822Y-154375000D01*
X157706822Y-153887500D01*
X157689878Y-153715465D01*
X157639697Y-153550041D01*
X157558208Y-153397586D01*
X157448542Y-153263958D01*
X157442186Y-153258742D01*
X157519935Y-153194935D01*
X157599287Y-153098244D01*
X157658252Y-152987930D01*
X157694562Y-152868232D01*
X157706822Y-152743750D01*
X157703750Y-152542000D01*
X157545000Y-152383250D01*
X156495750Y-152383250D01*
X156495750Y-152403250D01*
X156241750Y-152403250D01*
X156241750Y-152383250D01*
X155192500Y-152383250D01*
X155033750Y-152542000D01*
X155030678Y-152743750D01*
X155042938Y-152868232D01*
X155079248Y-152987930D01*
X155138213Y-153098244D01*
X155217565Y-153194935D01*
X155295314Y-153258742D01*
X155288958Y-153263958D01*
X155274356Y-153281750D01*
X154020681Y-153281750D01*
X153995752Y-153199570D01*
X153992641Y-153193750D01*
X153995752Y-153187930D01*
X154032062Y-153068232D01*
X154044322Y-152943750D01*
X154041250Y-152629500D01*
X153882500Y-152470750D01*
X152833250Y-152470750D01*
X152833250Y-152490750D01*
X152579250Y-152490750D01*
X152579250Y-152470750D01*
X152559250Y-152470750D01*
X152559250Y-152216750D01*
X152579250Y-152216750D01*
X152579250Y-151267500D01*
X152833250Y-151267500D01*
X152833250Y-152216750D01*
X153882500Y-152216750D01*
X154041250Y-152058000D01*
X154044322Y-151743750D01*
X154032062Y-151619268D01*
X153995752Y-151499570D01*
X153936787Y-151389256D01*
X153857435Y-151292565D01*
X153760744Y-151213213D01*
X153650430Y-151154248D01*
X153530732Y-151117938D01*
X153406250Y-151105678D01*
X152992000Y-151108750D01*
X152833250Y-151267500D01*
X152579250Y-151267500D01*
X152420500Y-151108750D01*
X152006250Y-151105678D01*
X151881768Y-151117938D01*
X151762070Y-151154248D01*
X151651756Y-151213213D01*
X151606250Y-151250559D01*
X151560744Y-151213213D01*
X151450430Y-151154248D01*
X151330732Y-151117938D01*
X151206250Y-151105678D01*
X149806250Y-151105678D01*
X149681768Y-151117938D01*
X149562070Y-151154248D01*
X149451756Y-151213213D01*
X149355065Y-151292565D01*
X149275713Y-151389256D01*
X149216748Y-151499570D01*
X149191819Y-151581750D01*
X148064832Y-151581750D01*
X148033208Y-151522586D01*
X147923542Y-151388958D01*
X147789914Y-151279292D01*
X147637459Y-151197803D01*
X147472035Y-151147622D01*
X147300000Y-151130678D01*
X146387500Y-151130678D01*
X146215465Y-151147622D01*
X146050041Y-151197803D01*
X145897586Y-151279292D01*
X145763958Y-151388958D01*
X145654292Y-151522586D01*
X145572803Y-151675041D01*
X145522622Y-151840465D01*
X145505678Y-152012500D01*
X145505678Y-152500000D01*
X145522622Y-152672035D01*
X145572803Y-152837459D01*
X145654292Y-152989914D01*
X145763958Y-153123542D01*
X145770314Y-153128758D01*
X145692565Y-153192565D01*
X145613213Y-153289256D01*
X145554248Y-153399570D01*
X145517938Y-153519268D01*
X145505678Y-153643750D01*
X145508750Y-153845500D01*
X145667500Y-154004250D01*
X146716750Y-154004250D01*
X146716750Y-153984250D01*
X146970750Y-153984250D01*
X146970750Y-154004250D01*
X148020000Y-154004250D01*
X148178750Y-153845500D01*
X148181822Y-153643750D01*
X148169562Y-153519268D01*
X148133252Y-153399570D01*
X148074287Y-153289256D01*
X147994935Y-153192565D01*
X147917186Y-153128758D01*
X147923542Y-153123542D01*
X147938144Y-153105750D01*
X148717249Y-153105750D01*
X148717250Y-154867918D01*
X148713563Y-154905351D01*
X148728276Y-155054729D01*
X148771848Y-155198366D01*
X148842604Y-155330743D01*
X148913970Y-155417702D01*
X148937828Y-155446773D01*
X148966898Y-155470630D01*
X150003778Y-156507511D01*
X149956445Y-156554844D01*
X149843177Y-156724362D01*
X149765156Y-156912720D01*
X149725382Y-157112679D01*
X149725382Y-157316557D01*
X149758273Y-157481914D01*
X149510750Y-157483750D01*
X149352000Y-157642500D01*
X149352000Y-158479250D01*
X150401250Y-158479250D01*
X150560000Y-158320500D01*
X150561373Y-158230310D01*
X150658443Y-158249618D01*
X150717751Y-158249618D01*
X150936734Y-158468601D01*
X150960592Y-158497672D01*
X151076622Y-158592895D01*
X151199847Y-158658760D01*
X147388072Y-158658760D01*
X147388072Y-158362500D01*
X147371128Y-158190465D01*
X147349374Y-158118750D01*
X147886928Y-158118750D01*
X147890000Y-158320500D01*
X148048750Y-158479250D01*
X149098000Y-158479250D01*
X149098000Y-157642500D01*
X148939250Y-157483750D01*
X148525000Y-157480678D01*
X148400518Y-157492938D01*
X148280820Y-157529248D01*
X148170506Y-157588213D01*
X148073815Y-157667565D01*
X147994463Y-157764256D01*
X147935498Y-157874570D01*
X147899188Y-157994268D01*
X147886928Y-158118750D01*
X147349374Y-158118750D01*
X147320947Y-158025041D01*
X147239458Y-157872586D01*
X147129792Y-157738958D01*
X146996164Y-157629292D01*
X146843709Y-157547803D01*
X146678285Y-157497622D01*
X146506250Y-157480678D01*
X145593750Y-157480678D01*
X145421715Y-157497622D01*
X145256291Y-157547803D01*
X145103836Y-157629292D01*
X144970208Y-157738958D01*
X144860542Y-157872586D01*
X144798852Y-157988000D01*
X143795750Y-157988000D01*
X143795750Y-154618750D01*
X145505678Y-154618750D01*
X145517938Y-154743232D01*
X145554248Y-154862930D01*
X145613213Y-154973244D01*
X145692565Y-155069935D01*
X145789256Y-155149287D01*
X145899570Y-155208252D01*
X146019268Y-155244562D01*
X146143750Y-155256822D01*
X146558000Y-155253750D01*
X146716750Y-155095000D01*
X146716750Y-154258250D01*
X146970750Y-154258250D01*
X146970750Y-155095000D01*
X147129500Y-155253750D01*
X147543750Y-155256822D01*
X147668232Y-155244562D01*
X147787930Y-155208252D01*
X147898244Y-155149287D01*
X147994935Y-155069935D01*
X148074287Y-154973244D01*
X148133252Y-154862930D01*
X148169562Y-154743232D01*
X148181822Y-154618750D01*
X148178750Y-154417000D01*
X148020000Y-154258250D01*
X146970750Y-154258250D01*
X146716750Y-154258250D01*
X145667500Y-154258250D01*
X145508750Y-154417000D01*
X145505678Y-154618750D01*
X143795750Y-154618750D01*
X143795750Y-150939500D01*
X153505802Y-150939500D01*
X153685602Y-151013976D01*
X153685602Y-151013976D01*
G37*
X153685602Y-151013976D02*
X153885561Y-151053750D01*
X154089439Y-151053750D01*
X154289398Y-151013976D01*
X154469198Y-150939500D01*
X156132485Y-150939500D01*
X156167274Y-151114398D01*
X156240550Y-151291300D01*
X156083000Y-151133750D01*
X155668750Y-151130678D01*
X155544268Y-151142938D01*
X155424570Y-151179248D01*
X155314256Y-151238213D01*
X155217565Y-151317565D01*
X155138213Y-151414256D01*
X155079248Y-151524570D01*
X155042938Y-151644268D01*
X155030678Y-151768750D01*
X155033750Y-151970500D01*
X155192500Y-152129250D01*
X156241750Y-152129250D01*
X156241750Y-152109250D01*
X156495750Y-152109250D01*
X156495750Y-152129250D01*
X157545000Y-152129250D01*
X157703750Y-151970500D01*
X157706822Y-151768750D01*
X157699876Y-151698221D01*
X157822274Y-151616437D01*
X157864211Y-151574500D01*
X160879048Y-151574500D01*
X167579005Y-158274458D01*
X167575000Y-158274428D01*
X167450518Y-158286688D01*
X167330820Y-158322998D01*
X167220506Y-158381963D01*
X167123815Y-158461315D01*
X167044463Y-158558006D01*
X166985498Y-158668320D01*
X166949188Y-158788018D01*
X166936928Y-158912500D01*
X166940000Y-159114250D01*
X167098750Y-159273000D01*
X168148000Y-159273000D01*
X168148000Y-159253000D01*
X168402000Y-159253000D01*
X168402000Y-159273000D01*
X168422000Y-159273000D01*
X168422000Y-159527000D01*
X168402000Y-159527000D01*
X168402000Y-159547000D01*
X168148000Y-159547000D01*
X168148000Y-159527000D01*
X167098750Y-159527000D01*
X166940000Y-159685750D01*
X166936928Y-159887500D01*
X166949188Y-160011982D01*
X166985498Y-160131680D01*
X167044463Y-160241994D01*
X167076269Y-160280750D01*
X165835000Y-160280750D01*
X165835000Y-160179248D01*
X165676252Y-160179248D01*
X165835000Y-160020500D01*
X165825177Y-159903619D01*
X165788265Y-159784105D01*
X165728746Y-159674089D01*
X165648908Y-159577799D01*
X165551818Y-159498934D01*
X165441208Y-159440526D01*
X165321329Y-159404820D01*
X165196787Y-159393186D01*
X164735750Y-159396250D01*
X164577000Y-159555000D01*
X164577000Y-160179250D01*
X164597000Y-160179250D01*
X164597000Y-160193178D01*
X164303000Y-160193178D01*
X164303000Y-160179250D01*
X164323000Y-160179250D01*
X164323000Y-159555000D01*
X164164250Y-159396250D01*
X163703213Y-159393186D01*
X163659028Y-159397314D01*
X163663072Y-159356250D01*
X163663072Y-157856250D01*
X163650812Y-157731768D01*
X163629689Y-157662134D01*
X163635955Y-157652756D01*
X163713976Y-157464398D01*
X163753750Y-157264439D01*
X163753750Y-157060561D01*
X163713976Y-156860602D01*
X163635955Y-156672244D01*
X163522687Y-156502726D01*
X163378524Y-156358563D01*
X163209006Y-156245295D01*
X163020648Y-156167274D01*
X162820689Y-156127500D01*
X162616811Y-156127500D01*
X162416852Y-156167274D01*
X162228494Y-156245295D01*
X162058976Y-156358563D01*
X161923391Y-156494149D01*
X161799762Y-156370520D01*
X161630244Y-156257252D01*
X161579199Y-156236108D01*
X161545197Y-156065166D01*
X161467176Y-155876808D01*
X161353908Y-155707290D01*
X161209745Y-155563127D01*
X161040227Y-155449859D01*
X160851869Y-155371838D01*
X160651910Y-155332064D01*
X160448032Y-155332064D01*
X160248073Y-155371838D01*
X160059715Y-155449859D01*
X160044047Y-155460328D01*
X160040256Y-155457795D01*
X159851898Y-155379774D01*
X159651939Y-155340000D01*
X159448061Y-155340000D01*
X159248102Y-155379774D01*
X159059744Y-155457795D01*
X158890226Y-155571063D01*
X158888210Y-155573079D01*
X157705325Y-154390195D01*
X157706822Y-154375000D01*
X157706822Y-153887500D01*
X157689878Y-153715465D01*
X157639697Y-153550041D01*
X157558208Y-153397586D01*
X157448542Y-153263958D01*
X157442186Y-153258742D01*
X157519935Y-153194935D01*
X157599287Y-153098244D01*
X157658252Y-152987930D01*
X157694562Y-152868232D01*
X157706822Y-152743750D01*
X157703750Y-152542000D01*
X157545000Y-152383250D01*
X156495750Y-152383250D01*
X156495750Y-152403250D01*
X156241750Y-152403250D01*
X156241750Y-152383250D01*
X155192500Y-152383250D01*
X155033750Y-152542000D01*
X155030678Y-152743750D01*
X155042938Y-152868232D01*
X155079248Y-152987930D01*
X155138213Y-153098244D01*
X155217565Y-153194935D01*
X155295314Y-153258742D01*
X155288958Y-153263958D01*
X155274356Y-153281750D01*
X154020681Y-153281750D01*
X153995752Y-153199570D01*
X153992641Y-153193750D01*
X153995752Y-153187930D01*
X154032062Y-153068232D01*
X154044322Y-152943750D01*
X154041250Y-152629500D01*
X153882500Y-152470750D01*
X152833250Y-152470750D01*
X152833250Y-152490750D01*
X152579250Y-152490750D01*
X152579250Y-152470750D01*
X152559250Y-152470750D01*
X152559250Y-152216750D01*
X152579250Y-152216750D01*
X152579250Y-151267500D01*
X152833250Y-151267500D01*
X152833250Y-152216750D01*
X153882500Y-152216750D01*
X154041250Y-152058000D01*
X154044322Y-151743750D01*
X154032062Y-151619268D01*
X153995752Y-151499570D01*
X153936787Y-151389256D01*
X153857435Y-151292565D01*
X153760744Y-151213213D01*
X153650430Y-151154248D01*
X153530732Y-151117938D01*
X153406250Y-151105678D01*
X152992000Y-151108750D01*
X152833250Y-151267500D01*
X152579250Y-151267500D01*
X152420500Y-151108750D01*
X152006250Y-151105678D01*
X151881768Y-151117938D01*
X151762070Y-151154248D01*
X151651756Y-151213213D01*
X151606250Y-151250559D01*
X151560744Y-151213213D01*
X151450430Y-151154248D01*
X151330732Y-151117938D01*
X151206250Y-151105678D01*
X149806250Y-151105678D01*
X149681768Y-151117938D01*
X149562070Y-151154248D01*
X149451756Y-151213213D01*
X149355065Y-151292565D01*
X149275713Y-151389256D01*
X149216748Y-151499570D01*
X149191819Y-151581750D01*
X148064832Y-151581750D01*
X148033208Y-151522586D01*
X147923542Y-151388958D01*
X147789914Y-151279292D01*
X147637459Y-151197803D01*
X147472035Y-151147622D01*
X147300000Y-151130678D01*
X146387500Y-151130678D01*
X146215465Y-151147622D01*
X146050041Y-151197803D01*
X145897586Y-151279292D01*
X145763958Y-151388958D01*
X145654292Y-151522586D01*
X145572803Y-151675041D01*
X145522622Y-151840465D01*
X145505678Y-152012500D01*
X145505678Y-152500000D01*
X145522622Y-152672035D01*
X145572803Y-152837459D01*
X145654292Y-152989914D01*
X145763958Y-153123542D01*
X145770314Y-153128758D01*
X145692565Y-153192565D01*
X145613213Y-153289256D01*
X145554248Y-153399570D01*
X145517938Y-153519268D01*
X145505678Y-153643750D01*
X145508750Y-153845500D01*
X145667500Y-154004250D01*
X146716750Y-154004250D01*
X146716750Y-153984250D01*
X146970750Y-153984250D01*
X146970750Y-154004250D01*
X148020000Y-154004250D01*
X148178750Y-153845500D01*
X148181822Y-153643750D01*
X148169562Y-153519268D01*
X148133252Y-153399570D01*
X148074287Y-153289256D01*
X147994935Y-153192565D01*
X147917186Y-153128758D01*
X147923542Y-153123542D01*
X147938144Y-153105750D01*
X148717249Y-153105750D01*
X148717250Y-154867918D01*
X148713563Y-154905351D01*
X148728276Y-155054729D01*
X148771848Y-155198366D01*
X148842604Y-155330743D01*
X148913970Y-155417702D01*
X148937828Y-155446773D01*
X148966898Y-155470630D01*
X150003778Y-156507511D01*
X149956445Y-156554844D01*
X149843177Y-156724362D01*
X149765156Y-156912720D01*
X149725382Y-157112679D01*
X149725382Y-157316557D01*
X149758273Y-157481914D01*
X149510750Y-157483750D01*
X149352000Y-157642500D01*
X149352000Y-158479250D01*
X150401250Y-158479250D01*
X150560000Y-158320500D01*
X150561373Y-158230310D01*
X150658443Y-158249618D01*
X150717751Y-158249618D01*
X150936734Y-158468601D01*
X150960592Y-158497672D01*
X151076622Y-158592895D01*
X151199847Y-158658760D01*
X147388072Y-158658760D01*
X147388072Y-158362500D01*
X147371128Y-158190465D01*
X147349374Y-158118750D01*
X147886928Y-158118750D01*
X147890000Y-158320500D01*
X148048750Y-158479250D01*
X149098000Y-158479250D01*
X149098000Y-157642500D01*
X148939250Y-157483750D01*
X148525000Y-157480678D01*
X148400518Y-157492938D01*
X148280820Y-157529248D01*
X148170506Y-157588213D01*
X148073815Y-157667565D01*
X147994463Y-157764256D01*
X147935498Y-157874570D01*
X147899188Y-157994268D01*
X147886928Y-158118750D01*
X147349374Y-158118750D01*
X147320947Y-158025041D01*
X147239458Y-157872586D01*
X147129792Y-157738958D01*
X146996164Y-157629292D01*
X146843709Y-157547803D01*
X146678285Y-157497622D01*
X146506250Y-157480678D01*
X145593750Y-157480678D01*
X145421715Y-157497622D01*
X145256291Y-157547803D01*
X145103836Y-157629292D01*
X144970208Y-157738958D01*
X144860542Y-157872586D01*
X144798852Y-157988000D01*
X143795750Y-157988000D01*
X143795750Y-154618750D01*
X145505678Y-154618750D01*
X145517938Y-154743232D01*
X145554248Y-154862930D01*
X145613213Y-154973244D01*
X145692565Y-155069935D01*
X145789256Y-155149287D01*
X145899570Y-155208252D01*
X146019268Y-155244562D01*
X146143750Y-155256822D01*
X146558000Y-155253750D01*
X146716750Y-155095000D01*
X146716750Y-154258250D01*
X146970750Y-154258250D01*
X146970750Y-155095000D01*
X147129500Y-155253750D01*
X147543750Y-155256822D01*
X147668232Y-155244562D01*
X147787930Y-155208252D01*
X147898244Y-155149287D01*
X147994935Y-155069935D01*
X148074287Y-154973244D01*
X148133252Y-154862930D01*
X148169562Y-154743232D01*
X148181822Y-154618750D01*
X148178750Y-154417000D01*
X148020000Y-154258250D01*
X146970750Y-154258250D01*
X146716750Y-154258250D01*
X145667500Y-154258250D01*
X145508750Y-154417000D01*
X145505678Y-154618750D01*
X143795750Y-154618750D01*
X143795750Y-150939500D01*
X153505802Y-150939500D01*
X153685602Y-151013976D01*
G36*
X150633250Y-153916750D02*
G01*
X150653250Y-153916750D01*
X150653250Y-154170750D01*
X150633250Y-154170750D01*
X150633250Y-154190750D01*
X150379250Y-154190750D01*
X150379250Y-154170750D01*
X150359250Y-154170750D01*
X150359250Y-153916750D01*
X150379250Y-153916750D01*
X150379250Y-153896750D01*
X150633250Y-153896750D01*
X150633250Y-153916750D01*
X150633250Y-153916750D01*
G37*
X150633250Y-153916750D02*
X150653250Y-153916750D01*
X150653250Y-154170750D01*
X150633250Y-154170750D01*
X150633250Y-154190750D01*
X150379250Y-154190750D01*
X150379250Y-154170750D01*
X150359250Y-154170750D01*
X150359250Y-153916750D01*
X150379250Y-153916750D01*
X150379250Y-153896750D01*
X150633250Y-153896750D01*
X150633250Y-153916750D01*
G36*
X84553288Y-112872038D02*
G01*
X84442845Y-113006614D01*
X84360778Y-113160150D01*
X84310242Y-113326746D01*
X84293178Y-113500000D01*
X84293178Y-114000000D01*
X84310242Y-114173254D01*
X84360778Y-114339850D01*
X84442845Y-114493386D01*
X84553288Y-114627962D01*
X84687864Y-114738405D01*
X84841400Y-114820472D01*
X85007996Y-114871008D01*
X85181250Y-114888072D01*
X87481250Y-114888072D01*
X87654504Y-114871008D01*
X87821100Y-114820472D01*
X87974636Y-114738405D01*
X88109212Y-114627962D01*
X88219655Y-114493386D01*
X88301722Y-114339850D01*
X88352258Y-114173254D01*
X88369322Y-114000000D01*
X88369322Y-113500000D01*
X88352258Y-113326746D01*
X88301722Y-113160150D01*
X88219655Y-113006614D01*
X88109212Y-112872038D01*
X88069564Y-112839500D01*
X88773000Y-112839500D01*
X88773000Y-122110500D01*
X88069564Y-122110500D01*
X88109212Y-122077962D01*
X88219655Y-121943386D01*
X88301722Y-121789850D01*
X88352258Y-121623254D01*
X88369322Y-121450000D01*
X88369322Y-120950000D01*
X88352258Y-120776746D01*
X88301722Y-120610150D01*
X88219655Y-120456614D01*
X88109212Y-120322038D01*
X87974636Y-120211595D01*
X87821100Y-120129528D01*
X87654504Y-120078992D01*
X87481250Y-120061928D01*
X85181250Y-120061928D01*
X85007996Y-120078992D01*
X84841400Y-120129528D01*
X84687864Y-120211595D01*
X84553288Y-120322038D01*
X84442845Y-120456614D01*
X84360778Y-120610150D01*
X84310242Y-120776746D01*
X84293178Y-120950000D01*
X84293178Y-121450000D01*
X84310242Y-121623254D01*
X84360778Y-121789850D01*
X84442845Y-121943386D01*
X84553288Y-122077962D01*
X84592936Y-122110500D01*
X81883250Y-122110500D01*
X81883250Y-121525630D01*
X83120809Y-120288072D01*
X83681250Y-120288072D01*
X83834995Y-120272929D01*
X83982832Y-120228084D01*
X84119079Y-120155258D01*
X84238501Y-120057251D01*
X84336508Y-119937829D01*
X84409334Y-119801582D01*
X84454179Y-119653745D01*
X84469322Y-119500000D01*
X84469322Y-119200000D01*
X84454179Y-119046255D01*
X84409334Y-118898418D01*
X84336508Y-118762171D01*
X84306003Y-118725000D01*
X84336508Y-118687829D01*
X84409334Y-118551582D01*
X84454179Y-118403745D01*
X84469322Y-118250000D01*
X84469322Y-117950000D01*
X84454179Y-117796255D01*
X84409334Y-117648418D01*
X84336508Y-117512171D01*
X84306003Y-117475000D01*
X84336508Y-117437829D01*
X84409334Y-117301582D01*
X84454179Y-117153745D01*
X84469322Y-117000000D01*
X84469322Y-116700000D01*
X84454179Y-116546255D01*
X84409334Y-116398418D01*
X84343994Y-116276175D01*
X84361787Y-116254494D01*
X84420752Y-116144180D01*
X84457062Y-116024482D01*
X84469322Y-115900000D01*
X84466250Y-115885750D01*
X84307500Y-115727000D01*
X83108250Y-115727000D01*
X83108250Y-115747000D01*
X82854250Y-115747000D01*
X82854250Y-115727000D01*
X82834250Y-115727000D01*
X82834250Y-115473000D01*
X82854250Y-115473000D01*
X82854250Y-114823750D01*
X83108250Y-114823750D01*
X83108250Y-115473000D01*
X84307500Y-115473000D01*
X84466250Y-115314250D01*
X84469322Y-115300000D01*
X84457062Y-115175518D01*
X84420752Y-115055820D01*
X84361787Y-114945506D01*
X84282435Y-114848815D01*
X84185744Y-114769463D01*
X84075430Y-114710498D01*
X83955732Y-114674188D01*
X83831250Y-114661928D01*
X83267000Y-114665000D01*
X83108250Y-114823750D01*
X82854250Y-114823750D01*
X82695500Y-114665000D01*
X82131250Y-114661928D01*
X82006768Y-114674188D01*
X81887070Y-114710498D01*
X81883250Y-114712540D01*
X81883250Y-112839500D01*
X84592936Y-112839500D01*
X84553288Y-112872038D01*
X84553288Y-112872038D01*
G37*
X84553288Y-112872038D02*
X84442845Y-113006614D01*
X84360778Y-113160150D01*
X84310242Y-113326746D01*
X84293178Y-113500000D01*
X84293178Y-114000000D01*
X84310242Y-114173254D01*
X84360778Y-114339850D01*
X84442845Y-114493386D01*
X84553288Y-114627962D01*
X84687864Y-114738405D01*
X84841400Y-114820472D01*
X85007996Y-114871008D01*
X85181250Y-114888072D01*
X87481250Y-114888072D01*
X87654504Y-114871008D01*
X87821100Y-114820472D01*
X87974636Y-114738405D01*
X88109212Y-114627962D01*
X88219655Y-114493386D01*
X88301722Y-114339850D01*
X88352258Y-114173254D01*
X88369322Y-114000000D01*
X88369322Y-113500000D01*
X88352258Y-113326746D01*
X88301722Y-113160150D01*
X88219655Y-113006614D01*
X88109212Y-112872038D01*
X88069564Y-112839500D01*
X88773000Y-112839500D01*
X88773000Y-122110500D01*
X88069564Y-122110500D01*
X88109212Y-122077962D01*
X88219655Y-121943386D01*
X88301722Y-121789850D01*
X88352258Y-121623254D01*
X88369322Y-121450000D01*
X88369322Y-120950000D01*
X88352258Y-120776746D01*
X88301722Y-120610150D01*
X88219655Y-120456614D01*
X88109212Y-120322038D01*
X87974636Y-120211595D01*
X87821100Y-120129528D01*
X87654504Y-120078992D01*
X87481250Y-120061928D01*
X85181250Y-120061928D01*
X85007996Y-120078992D01*
X84841400Y-120129528D01*
X84687864Y-120211595D01*
X84553288Y-120322038D01*
X84442845Y-120456614D01*
X84360778Y-120610150D01*
X84310242Y-120776746D01*
X84293178Y-120950000D01*
X84293178Y-121450000D01*
X84310242Y-121623254D01*
X84360778Y-121789850D01*
X84442845Y-121943386D01*
X84553288Y-122077962D01*
X84592936Y-122110500D01*
X81883250Y-122110500D01*
X81883250Y-121525630D01*
X83120809Y-120288072D01*
X83681250Y-120288072D01*
X83834995Y-120272929D01*
X83982832Y-120228084D01*
X84119079Y-120155258D01*
X84238501Y-120057251D01*
X84336508Y-119937829D01*
X84409334Y-119801582D01*
X84454179Y-119653745D01*
X84469322Y-119500000D01*
X84469322Y-119200000D01*
X84454179Y-119046255D01*
X84409334Y-118898418D01*
X84336508Y-118762171D01*
X84306003Y-118725000D01*
X84336508Y-118687829D01*
X84409334Y-118551582D01*
X84454179Y-118403745D01*
X84469322Y-118250000D01*
X84469322Y-117950000D01*
X84454179Y-117796255D01*
X84409334Y-117648418D01*
X84336508Y-117512171D01*
X84306003Y-117475000D01*
X84336508Y-117437829D01*
X84409334Y-117301582D01*
X84454179Y-117153745D01*
X84469322Y-117000000D01*
X84469322Y-116700000D01*
X84454179Y-116546255D01*
X84409334Y-116398418D01*
X84343994Y-116276175D01*
X84361787Y-116254494D01*
X84420752Y-116144180D01*
X84457062Y-116024482D01*
X84469322Y-115900000D01*
X84466250Y-115885750D01*
X84307500Y-115727000D01*
X83108250Y-115727000D01*
X83108250Y-115747000D01*
X82854250Y-115747000D01*
X82854250Y-115727000D01*
X82834250Y-115727000D01*
X82834250Y-115473000D01*
X82854250Y-115473000D01*
X82854250Y-114823750D01*
X83108250Y-114823750D01*
X83108250Y-115473000D01*
X84307500Y-115473000D01*
X84466250Y-115314250D01*
X84469322Y-115300000D01*
X84457062Y-115175518D01*
X84420752Y-115055820D01*
X84361787Y-114945506D01*
X84282435Y-114848815D01*
X84185744Y-114769463D01*
X84075430Y-114710498D01*
X83955732Y-114674188D01*
X83831250Y-114661928D01*
X83267000Y-114665000D01*
X83108250Y-114823750D01*
X82854250Y-114823750D01*
X82695500Y-114665000D01*
X82131250Y-114661928D01*
X82006768Y-114674188D01*
X81887070Y-114710498D01*
X81883250Y-114712540D01*
X81883250Y-112839500D01*
X84592936Y-112839500D01*
X84553288Y-112872038D01*
M02*
