M48
; DRILL file {KiCad (5.1.4)-1} date 7/11/2026 4:25:38 PM
; FORMAT={-:-/ absolute / inch / decimal}
; #@! TF.CreationDate,2026-07-11T16:25:38-07:00
; #@! TF.GenerationSoftware,Kicad,Pcbnew,(5.1.4)-1
; #@! TF.FileFunction,NonPlated,1,2,NPTH
FMAT,2
INCH
T1C0.0689
T2C0.1200
T3C0.1570
%
G90
G05
T1
X3.1125Y-3.5
X3.5125Y-3.5
X12.8625Y-6.5
X13.2625Y-6.5
X7.1437Y-6.5
X7.5438Y-6.5
X10.6125Y-3.5
X11.0125Y-3.5
X6.8625Y-5.75
X7.2625Y-5.75
X6.675Y-5.0
X7.075Y-5.0
X8.925Y-5.0
X9.325Y-5.0
X10.9875Y-4.25
X11.3875Y-4.25
X2.6437Y-5.0
X3.0437Y-5.0
X5.3625Y-5.75
X5.7625Y-5.75
X5.925Y-5.0
X6.325Y-5.0
X4.6125Y-5.75
X5.0125Y-5.75
X9.675Y-5.0
X10.075Y-5.0
X4.425Y-5.0
X4.825Y-5.0
X11.7375Y-4.25
X12.1375Y-4.25
X6.1125Y-5.75
X6.5125Y-5.75
X2.7375Y-5.75
X3.1375Y-5.75
X10.425Y-5.0
X10.825Y-5.0
X3.675Y-5.0
X4.075Y-5.0
X3.8625Y-5.75
X4.2625Y-5.75
X5.175Y-5.0
X5.575Y-5.0
X7.425Y-5.0
X7.825Y-5.0
X10.2375Y-4.25
X10.6375Y-4.25
X9.4875Y-4.25
X9.8875Y-4.25
X8.175Y-5.0
X8.575Y-5.0
X8.7375Y-4.25
X9.1375Y-4.25
X12.3937Y-5.0
X12.7937Y-5.0
X12.675Y-4.25
X13.075Y-4.25
X11.175Y-5.0
X11.575Y-5.0
X4.3312Y-6.5
X4.7313Y-6.5
X8.3625Y-5.75
X8.7625Y-5.75
X7.6125Y-5.75
X8.0125Y-5.75
X12.8625Y-5.75
X13.2625Y-5.75
X10.6125Y-6.5
X11.0125Y-6.5
X11.3625Y-5.75
X11.7625Y-5.75
X2.4562Y-6.5
X2.8562Y-6.5
X9.1125Y-5.75
X9.5125Y-5.75
X11.3625Y-6.5
X11.7625Y-6.5
X9.8625Y-5.75
X10.2625Y-5.75
X10.6125Y-5.75
X11.0125Y-5.75
X9.8625Y-6.5
X10.2625Y-6.5
X3.3937Y-6.5
X3.7937Y-6.5
X12.1125Y-5.75
X12.5125Y-5.75
X12.1125Y-6.5
X12.5125Y-6.5
X5.7375Y-4.25
X6.1375Y-4.25
X4.2375Y-4.25
X4.6375Y-4.25
X2.55Y-4.25
X2.95Y-4.25
X11.3625Y-3.5
X11.7625Y-3.5
X9.8625Y-3.5
X10.2625Y-3.5
X6.4875Y-4.25
X6.8875Y-4.25
X7.2375Y-4.25
X7.6375Y-4.25
X9.1125Y-3.5
X9.5125Y-3.5
X8.3625Y-3.5
X8.7625Y-3.5
X12.4875Y-3.5
X12.8875Y-3.5
X7.6125Y-3.5
X8.0125Y-3.5
X6.1125Y-3.5
X6.5125Y-3.5
X5.3625Y-3.5
X5.7625Y-3.5
X4.6125Y-3.5
X5.0125Y-3.5
X4.9875Y-4.25
X5.3875Y-4.25
X3.8625Y-3.5
X4.2625Y-3.5
X7.9875Y-4.25
X8.3875Y-4.25
X3.4875Y-4.25
X3.8875Y-4.25
X6.8625Y-3.5
X7.2625Y-3.5
X2.3625Y-3.5
X2.7625Y-3.5
T2
X5.3753Y-6.775
X9.3123Y-6.775
X2.4675Y-5.475
X3.4075Y-5.475
X12.1237Y-4.725
X13.0637Y-4.725
X12.2175Y-3.225
X13.1575Y-3.225
T3
X3.3125Y-3.5
X13.0625Y-6.5
X5.3753Y-6.175
X7.3438Y-6.5
X9.3123Y-6.175
X10.8125Y-3.5
X7.0625Y-5.75
X6.875Y-5.0
X9.125Y-5.0
X11.1875Y-4.25
X2.8438Y-5.0
X5.5625Y-5.75
X6.125Y-5.0
X4.8125Y-5.75
X9.875Y-5.0
X4.625Y-5.0
X11.9375Y-4.25
X6.3125Y-5.75
X2.4675Y-6.075
X2.9375Y-5.75
X3.4075Y-6.075
X10.625Y-5.0
X3.875Y-5.0
X4.0625Y-5.75
X5.375Y-5.0
X7.625Y-5.0
X10.4375Y-4.25
X9.6875Y-4.25
X8.375Y-5.0
X8.9375Y-4.25
X12.1237Y-5.325
X12.5938Y-5.0
X13.0637Y-5.325
X12.875Y-4.25
X11.375Y-5.0
X4.5312Y-6.5
X8.5625Y-5.75
X7.8125Y-5.75
X13.0625Y-5.75
X10.8125Y-6.5
X11.5625Y-5.75
X2.6562Y-6.5
X9.3125Y-5.75
X11.5625Y-6.5
X10.0625Y-5.75
X10.8125Y-5.75
X10.0625Y-6.5
X3.5938Y-6.5
X12.3125Y-5.75
X12.3125Y-6.5
X5.9375Y-4.25
X4.4375Y-4.25
X2.75Y-4.25
X11.5625Y-3.5
X10.0625Y-3.5
X6.6875Y-4.25
X7.4375Y-4.25
X9.3125Y-3.5
X8.5625Y-3.5
X12.2175Y-3.825
X12.6875Y-3.5
X13.1575Y-3.825
X7.8125Y-3.5
X6.3125Y-3.5
X5.5625Y-3.5
X4.8125Y-3.5
X5.1875Y-4.25
X4.0625Y-3.5
X8.1875Y-4.25
X3.6875Y-4.25
X7.0625Y-3.5
X2.5625Y-3.5
T0
M30
