M48
; DRILL file {KiCad (5.1.4)-1} date 7/11/2026 11:54:43 PM
; FORMAT={-:-/ absolute / inch / decimal}
; #@! TF.CreationDate,2026-07-11T23:54:43-07:00
; #@! TF.GenerationSoftware,Kicad,Pcbnew,(5.1.4)-1
; #@! TF.FileFunction,Plated,1,2,PTH
FMAT,2
INCH
T1C0.0157
T2C0.0579
%
G90
G05
T1
X2.9688Y-5.1875
X3.0312Y-4.7706
X3.125Y-4.6875
X3.1562Y-4.625
X3.25Y-5.7188
X3.6875Y-5.7188
X3.7812Y-5.9375
X3.875Y-5.9062
X5.0312Y-6.4688
X5.0625Y-6.8125
X5.5Y-6.25
X5.5Y-6.375
X5.5312Y-5.9375
X5.5312Y-6.7812
X5.625Y-6.1562
X5.7188Y-6.7812
X5.9354Y-6.1896
X5.9375Y-5.875
X5.9375Y-6.3125
X5.9375Y-6.3668
X5.9375Y-6.4061
X5.9697Y-6.3428
X6.0312Y-6.2188
X6.0625Y-5.9062
X6.0819Y-6.5002
X6.0925Y-6.78
X6.1236Y-6.6483
X6.1875Y-5.9375
X6.2188Y-6.6259
X6.2812Y-4.375
X6.2815Y-6.1565
X6.3209Y-6.1562
X6.3426Y-6.6278
X6.3438Y-5.125
X6.3441Y-6.188
X6.375Y-3.9375
X6.375Y-6.3116
X6.4062Y-6.1875
X6.5299Y-6.5627
X6.5312Y-6.6562
X6.5938Y-6.7812
X6.7188Y-6.4062
X6.7188Y-6.4062
X7.5Y-6.75
X7.5Y-6.75
X7.5625Y-6.7188
X7.5625Y-6.7188
X7.7188Y-6.5
X7.9641Y-6.6516
X8.0Y-6.5938
X8.2812Y-6.1562
T2
X5.7875Y-4.15
X5.8391Y-4.0925
X6.0359Y-4.0728
X6.0375Y-4.05
X11.4125Y-3.4
X11.4641Y-3.3425
X11.6609Y-3.3228
X11.6625Y-3.3
X9.9125Y-3.4
X9.9641Y-3.3425
X10.1609Y-3.3228
X10.1625Y-3.3
X9.1625Y-3.4
X9.2141Y-3.3425
X9.4109Y-3.3228
X9.4125Y-3.3
X2.6Y-4.15
X2.6516Y-4.0925
X2.8484Y-4.0728
X2.85Y-4.05
X8.4125Y-3.4
X8.4641Y-3.3425
X8.6609Y-3.3228
X8.6625Y-3.3
X6.9125Y-3.4
X6.9641Y-3.3425
X7.1609Y-3.3228
X7.1625Y-3.3
X12.5375Y-3.4
X12.5891Y-3.3425
X12.7859Y-3.3228
X12.7875Y-3.3
X7.6625Y-3.4
X7.7141Y-3.3425
X7.9109Y-3.3228
X7.9125Y-3.3
X5.0375Y-4.15
X5.0891Y-4.0925
X5.2859Y-4.0728
X5.2875Y-4.05
X6.1625Y-3.4
X6.2141Y-3.3425
X6.4109Y-3.3228
X6.4125Y-3.3
X5.4125Y-3.4
X5.4641Y-3.3425
X5.6609Y-3.3228
X5.6625Y-3.3
X8.0375Y-4.15
X8.0891Y-4.0925
X8.2859Y-4.0728
X8.2875Y-4.05
X4.2875Y-4.15
X4.3391Y-4.0925
X4.5359Y-4.0728
X4.5375Y-4.05
X4.6625Y-3.4
X4.7141Y-3.3425
X4.9109Y-3.3228
X4.9125Y-3.3
X3.9125Y-3.4
X3.9641Y-3.3425
X4.1609Y-3.3228
X4.1625Y-3.3
X9.5375Y-4.15
X9.5891Y-4.0925
X9.7859Y-4.0728
X9.7875Y-4.05
X2.4125Y-3.4
X2.4641Y-3.3425
X2.6609Y-3.3228
X2.6625Y-3.3
X6.5375Y-4.15
X6.5891Y-4.0925
X6.7859Y-4.0728
X6.7875Y-4.05
X7.2875Y-4.15
X7.3391Y-4.0925
X7.5359Y-4.0728
X7.5375Y-4.05
X3.5375Y-4.15
X3.5891Y-4.0925
X3.7859Y-4.0728
X3.7875Y-4.05
X8.7875Y-4.15
X8.8391Y-4.0925
X9.0359Y-4.0728
X9.0375Y-4.05
X12.4437Y-4.9
X12.4953Y-4.8425
X12.6922Y-4.8228
X12.6937Y-4.8
X6.725Y-4.9
X6.7766Y-4.8425
X6.9734Y-4.8228
X6.975Y-4.8
X5.225Y-4.9
X5.2766Y-4.8425
X5.4734Y-4.8228
X5.475Y-4.8
X6.9125Y-5.65
X6.9641Y-5.5925
X7.1609Y-5.5728
X7.1625Y-5.55
X8.225Y-4.9
X8.2766Y-4.8425
X8.4734Y-4.8228
X8.475Y-4.8
X2.6938Y-4.9
X2.7453Y-4.8425
X2.9422Y-4.8228
X2.9438Y-4.8
X6.1625Y-5.65
X6.2141Y-5.5925
X6.4109Y-5.5728
X6.4125Y-5.55
X4.6625Y-5.65
X4.7141Y-5.5925
X4.9109Y-5.5728
X4.9125Y-5.55
X11.225Y-4.9
X11.2766Y-4.8425
X11.4734Y-4.8228
X11.475Y-4.8
X9.725Y-4.9
X9.7766Y-4.8425
X9.9734Y-4.8228
X9.975Y-4.8
X12.725Y-4.15
X12.7766Y-4.0925
X12.9734Y-4.0728
X12.975Y-4.05
X11.0375Y-4.15
X11.0891Y-4.0925
X11.2859Y-4.0728
X11.2875Y-4.05
X11.7875Y-4.15
X11.8391Y-4.0925
X12.0359Y-4.0728
X12.0375Y-4.05
X4.475Y-4.9
X4.5266Y-4.8425
X4.7234Y-4.8228
X4.725Y-4.8
X3.9125Y-5.65
X3.9641Y-5.5925
X4.1609Y-5.5728
X4.1625Y-5.55
X10.2875Y-4.15
X10.3391Y-4.0925
X10.5359Y-4.0728
X10.5375Y-4.05
X5.4125Y-5.65
X5.4641Y-5.5925
X5.6609Y-5.5728
X5.6625Y-5.55
X10.475Y-4.9
X10.5266Y-4.8425
X10.7234Y-4.8228
X10.725Y-4.8
X8.975Y-4.9
X9.0266Y-4.8425
X9.2234Y-4.8228
X9.225Y-4.8
X2.7875Y-5.65
X2.8391Y-5.5925
X3.0359Y-5.5728
X3.0375Y-5.55
X7.475Y-4.9
X7.5266Y-4.8425
X7.7234Y-4.8228
X7.725Y-4.8
X3.725Y-4.9
X3.7766Y-4.8425
X3.9734Y-4.8228
X3.975Y-4.8
X5.975Y-4.9
X6.0266Y-4.8425
X6.2234Y-4.8228
X6.225Y-4.8
X7.6625Y-5.65
X7.7141Y-5.5925
X7.9109Y-5.5728
X7.9125Y-5.55
X3.1625Y-3.4
X3.2141Y-3.3425
X3.4109Y-3.3228
X3.4125Y-3.3
X8.4125Y-5.65
X8.4641Y-5.5925
X8.6609Y-5.5728
X8.6625Y-5.55
X7.1937Y-6.4
X7.2453Y-6.3425
X7.4422Y-6.3228
X7.4437Y-6.3
X10.6625Y-3.4
X10.7141Y-3.3425
X10.9109Y-3.3228
X10.9125Y-3.3
X12.1625Y-6.4
X12.2141Y-6.3425
X12.4109Y-6.3228
X12.4125Y-6.3
X3.4438Y-6.4
X3.4953Y-6.3425
X3.6922Y-6.3228
X3.6938Y-6.3
X2.5063Y-6.4
X2.5578Y-6.3425
X2.7547Y-6.3228
X2.7563Y-6.3
X9.9125Y-6.4
X9.9641Y-6.3425
X10.1609Y-6.3228
X10.1625Y-6.3
X12.9125Y-6.4
X12.9641Y-6.3425
X13.1609Y-6.3228
X13.1625Y-6.3
X4.3812Y-6.4
X4.4328Y-6.3425
X4.6297Y-6.3228
X4.6312Y-6.3
X12.9125Y-5.65
X12.9641Y-5.5925
X13.1609Y-5.5728
X13.1625Y-5.55
X12.1625Y-5.65
X12.2141Y-5.5925
X12.4109Y-5.5728
X12.4125Y-5.55
X11.4125Y-6.4
X11.4641Y-6.3425
X11.6609Y-6.3228
X11.6625Y-6.3
X11.4125Y-5.65
X11.4641Y-5.5925
X11.6609Y-5.5728
X11.6625Y-5.55
X10.6625Y-6.4
X10.7141Y-6.3425
X10.9109Y-6.3228
X10.9125Y-6.3
X10.6625Y-5.65
X10.7141Y-5.5925
X10.9109Y-5.5728
X10.9125Y-5.55
X9.9125Y-5.65
X9.9641Y-5.5925
X10.1609Y-5.5728
X10.1625Y-5.55
X9.1625Y-5.65
X9.2141Y-5.5925
X9.4109Y-5.5728
X9.4125Y-5.55
T0
M30
