G04 #@! TF.GenerationSoftware,KiCad,Pcbnew,(5.1.4)-1*
G04 #@! TF.CreationDate,2026-07-11T23:54:40-07:00*
G04 #@! TF.ProjectId,taro60,7461726f-3630-42e6-9b69-6361645f7063,rev?*
G04 #@! TF.SameCoordinates,Original*
G04 #@! TF.FileFunction,Paste,Bot*
G04 #@! TF.FilePolarity,Positive*
%FSLAX46Y46*%
G04 Gerber Fmt 4.6, Leading zero omitted, Abs format (unit mm)*
G04 Created by KiCad (PCBNEW (5.1.4)-1) date 2026-07-11 23:54:40*
%MOMM*%
%LPD*%
G04 APERTURE LIST*
%ADD10C,0.100000*%
%ADD11C,0.600000*%
%ADD12C,1.000000*%
%ADD13R,1.400000X1.200000*%
%ADD14R,0.550000X1.500000*%
%ADD15R,1.500000X0.550000*%
%ADD16R,1.100000X1.800000*%
%ADD17C,0.975000*%
%ADD18C,1.250000*%
%ADD19R,1.200000X0.900000*%
G04 APERTURE END LIST*
D10*
G36*
X83695953Y-119050722D02*
G01*
X83710514Y-119052882D01*
X83724793Y-119056459D01*
X83738653Y-119061418D01*
X83751960Y-119067712D01*
X83764586Y-119075280D01*
X83776409Y-119084048D01*
X83787316Y-119093934D01*
X83797202Y-119104841D01*
X83805970Y-119116664D01*
X83813538Y-119129290D01*
X83819832Y-119142597D01*
X83824791Y-119156457D01*
X83828368Y-119170736D01*
X83830528Y-119185297D01*
X83831250Y-119200000D01*
X83831250Y-119500000D01*
X83830528Y-119514703D01*
X83828368Y-119529264D01*
X83824791Y-119543543D01*
X83819832Y-119557403D01*
X83813538Y-119570710D01*
X83805970Y-119583336D01*
X83797202Y-119595159D01*
X83787316Y-119606066D01*
X83776409Y-119615952D01*
X83764586Y-119624720D01*
X83751960Y-119632288D01*
X83738653Y-119638582D01*
X83724793Y-119643541D01*
X83710514Y-119647118D01*
X83695953Y-119649278D01*
X83681250Y-119650000D01*
X82281250Y-119650000D01*
X82266547Y-119649278D01*
X82251986Y-119647118D01*
X82237707Y-119643541D01*
X82223847Y-119638582D01*
X82210540Y-119632288D01*
X82197914Y-119624720D01*
X82186091Y-119615952D01*
X82175184Y-119606066D01*
X82165298Y-119595159D01*
X82156530Y-119583336D01*
X82148962Y-119570710D01*
X82142668Y-119557403D01*
X82137709Y-119543543D01*
X82134132Y-119529264D01*
X82131972Y-119514703D01*
X82131250Y-119500000D01*
X82131250Y-119200000D01*
X82131972Y-119185297D01*
X82134132Y-119170736D01*
X82137709Y-119156457D01*
X82142668Y-119142597D01*
X82148962Y-119129290D01*
X82156530Y-119116664D01*
X82165298Y-119104841D01*
X82175184Y-119093934D01*
X82186091Y-119084048D01*
X82197914Y-119075280D01*
X82210540Y-119067712D01*
X82223847Y-119061418D01*
X82237707Y-119056459D01*
X82251986Y-119052882D01*
X82266547Y-119050722D01*
X82281250Y-119050000D01*
X83681250Y-119050000D01*
X83695953Y-119050722D01*
X83695953Y-119050722D01*
G37*
D11*
X82981250Y-119350000D03*
D10*
G36*
X83695953Y-117800722D02*
G01*
X83710514Y-117802882D01*
X83724793Y-117806459D01*
X83738653Y-117811418D01*
X83751960Y-117817712D01*
X83764586Y-117825280D01*
X83776409Y-117834048D01*
X83787316Y-117843934D01*
X83797202Y-117854841D01*
X83805970Y-117866664D01*
X83813538Y-117879290D01*
X83819832Y-117892597D01*
X83824791Y-117906457D01*
X83828368Y-117920736D01*
X83830528Y-117935297D01*
X83831250Y-117950000D01*
X83831250Y-118250000D01*
X83830528Y-118264703D01*
X83828368Y-118279264D01*
X83824791Y-118293543D01*
X83819832Y-118307403D01*
X83813538Y-118320710D01*
X83805970Y-118333336D01*
X83797202Y-118345159D01*
X83787316Y-118356066D01*
X83776409Y-118365952D01*
X83764586Y-118374720D01*
X83751960Y-118382288D01*
X83738653Y-118388582D01*
X83724793Y-118393541D01*
X83710514Y-118397118D01*
X83695953Y-118399278D01*
X83681250Y-118400000D01*
X82281250Y-118400000D01*
X82266547Y-118399278D01*
X82251986Y-118397118D01*
X82237707Y-118393541D01*
X82223847Y-118388582D01*
X82210540Y-118382288D01*
X82197914Y-118374720D01*
X82186091Y-118365952D01*
X82175184Y-118356066D01*
X82165298Y-118345159D01*
X82156530Y-118333336D01*
X82148962Y-118320710D01*
X82142668Y-118307403D01*
X82137709Y-118293543D01*
X82134132Y-118279264D01*
X82131972Y-118264703D01*
X82131250Y-118250000D01*
X82131250Y-117950000D01*
X82131972Y-117935297D01*
X82134132Y-117920736D01*
X82137709Y-117906457D01*
X82142668Y-117892597D01*
X82148962Y-117879290D01*
X82156530Y-117866664D01*
X82165298Y-117854841D01*
X82175184Y-117843934D01*
X82186091Y-117834048D01*
X82197914Y-117825280D01*
X82210540Y-117817712D01*
X82223847Y-117811418D01*
X82237707Y-117806459D01*
X82251986Y-117802882D01*
X82266547Y-117800722D01*
X82281250Y-117800000D01*
X83681250Y-117800000D01*
X83695953Y-117800722D01*
X83695953Y-117800722D01*
G37*
D11*
X82981250Y-118100000D03*
D10*
G36*
X83695953Y-116550722D02*
G01*
X83710514Y-116552882D01*
X83724793Y-116556459D01*
X83738653Y-116561418D01*
X83751960Y-116567712D01*
X83764586Y-116575280D01*
X83776409Y-116584048D01*
X83787316Y-116593934D01*
X83797202Y-116604841D01*
X83805970Y-116616664D01*
X83813538Y-116629290D01*
X83819832Y-116642597D01*
X83824791Y-116656457D01*
X83828368Y-116670736D01*
X83830528Y-116685297D01*
X83831250Y-116700000D01*
X83831250Y-117000000D01*
X83830528Y-117014703D01*
X83828368Y-117029264D01*
X83824791Y-117043543D01*
X83819832Y-117057403D01*
X83813538Y-117070710D01*
X83805970Y-117083336D01*
X83797202Y-117095159D01*
X83787316Y-117106066D01*
X83776409Y-117115952D01*
X83764586Y-117124720D01*
X83751960Y-117132288D01*
X83738653Y-117138582D01*
X83724793Y-117143541D01*
X83710514Y-117147118D01*
X83695953Y-117149278D01*
X83681250Y-117150000D01*
X82281250Y-117150000D01*
X82266547Y-117149278D01*
X82251986Y-117147118D01*
X82237707Y-117143541D01*
X82223847Y-117138582D01*
X82210540Y-117132288D01*
X82197914Y-117124720D01*
X82186091Y-117115952D01*
X82175184Y-117106066D01*
X82165298Y-117095159D01*
X82156530Y-117083336D01*
X82148962Y-117070710D01*
X82142668Y-117057403D01*
X82137709Y-117043543D01*
X82134132Y-117029264D01*
X82131972Y-117014703D01*
X82131250Y-117000000D01*
X82131250Y-116700000D01*
X82131972Y-116685297D01*
X82134132Y-116670736D01*
X82137709Y-116656457D01*
X82142668Y-116642597D01*
X82148962Y-116629290D01*
X82156530Y-116616664D01*
X82165298Y-116604841D01*
X82175184Y-116593934D01*
X82186091Y-116584048D01*
X82197914Y-116575280D01*
X82210540Y-116567712D01*
X82223847Y-116561418D01*
X82237707Y-116556459D01*
X82251986Y-116552882D01*
X82266547Y-116550722D01*
X82281250Y-116550000D01*
X83681250Y-116550000D01*
X83695953Y-116550722D01*
X83695953Y-116550722D01*
G37*
D11*
X82981250Y-116850000D03*
D10*
G36*
X83695953Y-115300722D02*
G01*
X83710514Y-115302882D01*
X83724793Y-115306459D01*
X83738653Y-115311418D01*
X83751960Y-115317712D01*
X83764586Y-115325280D01*
X83776409Y-115334048D01*
X83787316Y-115343934D01*
X83797202Y-115354841D01*
X83805970Y-115366664D01*
X83813538Y-115379290D01*
X83819832Y-115392597D01*
X83824791Y-115406457D01*
X83828368Y-115420736D01*
X83830528Y-115435297D01*
X83831250Y-115450000D01*
X83831250Y-115750000D01*
X83830528Y-115764703D01*
X83828368Y-115779264D01*
X83824791Y-115793543D01*
X83819832Y-115807403D01*
X83813538Y-115820710D01*
X83805970Y-115833336D01*
X83797202Y-115845159D01*
X83787316Y-115856066D01*
X83776409Y-115865952D01*
X83764586Y-115874720D01*
X83751960Y-115882288D01*
X83738653Y-115888582D01*
X83724793Y-115893541D01*
X83710514Y-115897118D01*
X83695953Y-115899278D01*
X83681250Y-115900000D01*
X82281250Y-115900000D01*
X82266547Y-115899278D01*
X82251986Y-115897118D01*
X82237707Y-115893541D01*
X82223847Y-115888582D01*
X82210540Y-115882288D01*
X82197914Y-115874720D01*
X82186091Y-115865952D01*
X82175184Y-115856066D01*
X82165298Y-115845159D01*
X82156530Y-115833336D01*
X82148962Y-115820710D01*
X82142668Y-115807403D01*
X82137709Y-115793543D01*
X82134132Y-115779264D01*
X82131972Y-115764703D01*
X82131250Y-115750000D01*
X82131250Y-115450000D01*
X82131972Y-115435297D01*
X82134132Y-115420736D01*
X82137709Y-115406457D01*
X82142668Y-115392597D01*
X82148962Y-115379290D01*
X82156530Y-115366664D01*
X82165298Y-115354841D01*
X82175184Y-115343934D01*
X82186091Y-115334048D01*
X82197914Y-115325280D01*
X82210540Y-115317712D01*
X82223847Y-115311418D01*
X82237707Y-115306459D01*
X82251986Y-115302882D01*
X82266547Y-115300722D01*
X82281250Y-115300000D01*
X83681250Y-115300000D01*
X83695953Y-115300722D01*
X83695953Y-115300722D01*
G37*
D11*
X82981250Y-115600000D03*
D10*
G36*
X87505754Y-120701204D02*
G01*
X87530023Y-120704804D01*
X87553821Y-120710765D01*
X87576921Y-120719030D01*
X87599099Y-120729520D01*
X87620143Y-120742133D01*
X87639848Y-120756747D01*
X87658027Y-120773223D01*
X87674503Y-120791402D01*
X87689117Y-120811107D01*
X87701730Y-120832151D01*
X87712220Y-120854329D01*
X87720485Y-120877429D01*
X87726446Y-120901227D01*
X87730046Y-120925496D01*
X87731250Y-120950000D01*
X87731250Y-121450000D01*
X87730046Y-121474504D01*
X87726446Y-121498773D01*
X87720485Y-121522571D01*
X87712220Y-121545671D01*
X87701730Y-121567849D01*
X87689117Y-121588893D01*
X87674503Y-121608598D01*
X87658027Y-121626777D01*
X87639848Y-121643253D01*
X87620143Y-121657867D01*
X87599099Y-121670480D01*
X87576921Y-121680970D01*
X87553821Y-121689235D01*
X87530023Y-121695196D01*
X87505754Y-121698796D01*
X87481250Y-121700000D01*
X85181250Y-121700000D01*
X85156746Y-121698796D01*
X85132477Y-121695196D01*
X85108679Y-121689235D01*
X85085579Y-121680970D01*
X85063401Y-121670480D01*
X85042357Y-121657867D01*
X85022652Y-121643253D01*
X85004473Y-121626777D01*
X84987997Y-121608598D01*
X84973383Y-121588893D01*
X84960770Y-121567849D01*
X84950280Y-121545671D01*
X84942015Y-121522571D01*
X84936054Y-121498773D01*
X84932454Y-121474504D01*
X84931250Y-121450000D01*
X84931250Y-120950000D01*
X84932454Y-120925496D01*
X84936054Y-120901227D01*
X84942015Y-120877429D01*
X84950280Y-120854329D01*
X84960770Y-120832151D01*
X84973383Y-120811107D01*
X84987997Y-120791402D01*
X85004473Y-120773223D01*
X85022652Y-120756747D01*
X85042357Y-120742133D01*
X85063401Y-120729520D01*
X85085579Y-120719030D01*
X85108679Y-120710765D01*
X85132477Y-120704804D01*
X85156746Y-120701204D01*
X85181250Y-120700000D01*
X87481250Y-120700000D01*
X87505754Y-120701204D01*
X87505754Y-120701204D01*
G37*
D12*
X86331250Y-121200000D03*
D10*
G36*
X87505754Y-113251204D02*
G01*
X87530023Y-113254804D01*
X87553821Y-113260765D01*
X87576921Y-113269030D01*
X87599099Y-113279520D01*
X87620143Y-113292133D01*
X87639848Y-113306747D01*
X87658027Y-113323223D01*
X87674503Y-113341402D01*
X87689117Y-113361107D01*
X87701730Y-113382151D01*
X87712220Y-113404329D01*
X87720485Y-113427429D01*
X87726446Y-113451227D01*
X87730046Y-113475496D01*
X87731250Y-113500000D01*
X87731250Y-114000000D01*
X87730046Y-114024504D01*
X87726446Y-114048773D01*
X87720485Y-114072571D01*
X87712220Y-114095671D01*
X87701730Y-114117849D01*
X87689117Y-114138893D01*
X87674503Y-114158598D01*
X87658027Y-114176777D01*
X87639848Y-114193253D01*
X87620143Y-114207867D01*
X87599099Y-114220480D01*
X87576921Y-114230970D01*
X87553821Y-114239235D01*
X87530023Y-114245196D01*
X87505754Y-114248796D01*
X87481250Y-114250000D01*
X85181250Y-114250000D01*
X85156746Y-114248796D01*
X85132477Y-114245196D01*
X85108679Y-114239235D01*
X85085579Y-114230970D01*
X85063401Y-114220480D01*
X85042357Y-114207867D01*
X85022652Y-114193253D01*
X85004473Y-114176777D01*
X84987997Y-114158598D01*
X84973383Y-114138893D01*
X84960770Y-114117849D01*
X84950280Y-114095671D01*
X84942015Y-114072571D01*
X84936054Y-114048773D01*
X84932454Y-114024504D01*
X84931250Y-114000000D01*
X84931250Y-113500000D01*
X84932454Y-113475496D01*
X84936054Y-113451227D01*
X84942015Y-113427429D01*
X84950280Y-113404329D01*
X84960770Y-113382151D01*
X84973383Y-113361107D01*
X84987997Y-113341402D01*
X85004473Y-113323223D01*
X85022652Y-113306747D01*
X85042357Y-113292133D01*
X85063401Y-113279520D01*
X85085579Y-113269030D01*
X85108679Y-113260765D01*
X85132477Y-113254804D01*
X85156746Y-113251204D01*
X85181250Y-113250000D01*
X87481250Y-113250000D01*
X87505754Y-113251204D01*
X87505754Y-113251204D01*
G37*
D12*
X86331250Y-113750000D03*
D13*
X152706250Y-152343750D03*
X150506250Y-152343750D03*
X150506250Y-154043750D03*
X152706250Y-154043750D03*
D14*
X154750000Y-170006250D03*
X155550000Y-170006250D03*
X156350000Y-170006250D03*
X157150000Y-170006250D03*
X157950000Y-170006250D03*
X158750000Y-170006250D03*
X159550000Y-170006250D03*
X160350000Y-170006250D03*
X161150000Y-170006250D03*
X161950000Y-170006250D03*
X162750000Y-170006250D03*
D15*
X164450000Y-168306250D03*
X164450000Y-167506250D03*
X164450000Y-166706250D03*
X164450000Y-165906250D03*
X164450000Y-165106250D03*
X164450000Y-164306250D03*
X164450000Y-163506250D03*
X164450000Y-162706250D03*
X164450000Y-161906250D03*
X164450000Y-161106250D03*
X164450000Y-160306250D03*
D14*
X162750000Y-158606250D03*
X161950000Y-158606250D03*
X161150000Y-158606250D03*
X160350000Y-158606250D03*
X159550000Y-158606250D03*
X158750000Y-158606250D03*
X157950000Y-158606250D03*
X157150000Y-158606250D03*
X156350000Y-158606250D03*
X155550000Y-158606250D03*
X154750000Y-158606250D03*
D15*
X153050000Y-160306250D03*
X153050000Y-161106250D03*
X153050000Y-161906250D03*
X153050000Y-162706250D03*
X153050000Y-163506250D03*
X153050000Y-164306250D03*
X153050000Y-165106250D03*
X153050000Y-165906250D03*
X153050000Y-166706250D03*
X153050000Y-167506250D03*
X153050000Y-168306250D03*
D16*
X59268750Y-134068750D03*
X62968750Y-127868750D03*
X62968750Y-134068750D03*
X59268750Y-127868750D03*
D10*
G36*
X169480142Y-167576174D02*
G01*
X169503803Y-167579684D01*
X169527007Y-167585496D01*
X169549529Y-167593554D01*
X169571153Y-167603782D01*
X169591670Y-167616079D01*
X169610883Y-167630329D01*
X169628607Y-167646393D01*
X169644671Y-167664117D01*
X169658921Y-167683330D01*
X169671218Y-167703847D01*
X169681446Y-167725471D01*
X169689504Y-167747993D01*
X169695316Y-167771197D01*
X169698826Y-167794858D01*
X169700000Y-167818750D01*
X169700000Y-168731250D01*
X169698826Y-168755142D01*
X169695316Y-168778803D01*
X169689504Y-168802007D01*
X169681446Y-168824529D01*
X169671218Y-168846153D01*
X169658921Y-168866670D01*
X169644671Y-168885883D01*
X169628607Y-168903607D01*
X169610883Y-168919671D01*
X169591670Y-168933921D01*
X169571153Y-168946218D01*
X169549529Y-168956446D01*
X169527007Y-168964504D01*
X169503803Y-168970316D01*
X169480142Y-168973826D01*
X169456250Y-168975000D01*
X168968750Y-168975000D01*
X168944858Y-168973826D01*
X168921197Y-168970316D01*
X168897993Y-168964504D01*
X168875471Y-168956446D01*
X168853847Y-168946218D01*
X168833330Y-168933921D01*
X168814117Y-168919671D01*
X168796393Y-168903607D01*
X168780329Y-168885883D01*
X168766079Y-168866670D01*
X168753782Y-168846153D01*
X168743554Y-168824529D01*
X168735496Y-168802007D01*
X168729684Y-168778803D01*
X168726174Y-168755142D01*
X168725000Y-168731250D01*
X168725000Y-167818750D01*
X168726174Y-167794858D01*
X168729684Y-167771197D01*
X168735496Y-167747993D01*
X168743554Y-167725471D01*
X168753782Y-167703847D01*
X168766079Y-167683330D01*
X168780329Y-167664117D01*
X168796393Y-167646393D01*
X168814117Y-167630329D01*
X168833330Y-167616079D01*
X168853847Y-167603782D01*
X168875471Y-167593554D01*
X168897993Y-167585496D01*
X168921197Y-167579684D01*
X168944858Y-167576174D01*
X168968750Y-167575000D01*
X169456250Y-167575000D01*
X169480142Y-167576174D01*
X169480142Y-167576174D01*
G37*
D17*
X169212500Y-168275000D03*
D10*
G36*
X167605142Y-167576174D02*
G01*
X167628803Y-167579684D01*
X167652007Y-167585496D01*
X167674529Y-167593554D01*
X167696153Y-167603782D01*
X167716670Y-167616079D01*
X167735883Y-167630329D01*
X167753607Y-167646393D01*
X167769671Y-167664117D01*
X167783921Y-167683330D01*
X167796218Y-167703847D01*
X167806446Y-167725471D01*
X167814504Y-167747993D01*
X167820316Y-167771197D01*
X167823826Y-167794858D01*
X167825000Y-167818750D01*
X167825000Y-168731250D01*
X167823826Y-168755142D01*
X167820316Y-168778803D01*
X167814504Y-168802007D01*
X167806446Y-168824529D01*
X167796218Y-168846153D01*
X167783921Y-168866670D01*
X167769671Y-168885883D01*
X167753607Y-168903607D01*
X167735883Y-168919671D01*
X167716670Y-168933921D01*
X167696153Y-168946218D01*
X167674529Y-168956446D01*
X167652007Y-168964504D01*
X167628803Y-168970316D01*
X167605142Y-168973826D01*
X167581250Y-168975000D01*
X167093750Y-168975000D01*
X167069858Y-168973826D01*
X167046197Y-168970316D01*
X167022993Y-168964504D01*
X167000471Y-168956446D01*
X166978847Y-168946218D01*
X166958330Y-168933921D01*
X166939117Y-168919671D01*
X166921393Y-168903607D01*
X166905329Y-168885883D01*
X166891079Y-168866670D01*
X166878782Y-168846153D01*
X166868554Y-168824529D01*
X166860496Y-168802007D01*
X166854684Y-168778803D01*
X166851174Y-168755142D01*
X166850000Y-168731250D01*
X166850000Y-167818750D01*
X166851174Y-167794858D01*
X166854684Y-167771197D01*
X166860496Y-167747993D01*
X166868554Y-167725471D01*
X166878782Y-167703847D01*
X166891079Y-167683330D01*
X166905329Y-167664117D01*
X166921393Y-167646393D01*
X166939117Y-167630329D01*
X166958330Y-167616079D01*
X166978847Y-167603782D01*
X167000471Y-167593554D01*
X167022993Y-167585496D01*
X167046197Y-167579684D01*
X167069858Y-167576174D01*
X167093750Y-167575000D01*
X167581250Y-167575000D01*
X167605142Y-167576174D01*
X167605142Y-167576174D01*
G37*
D17*
X167337500Y-168275000D03*
D10*
G36*
X128273892Y-158913674D02*
G01*
X128297553Y-158917184D01*
X128320757Y-158922996D01*
X128343279Y-158931054D01*
X128364903Y-158941282D01*
X128385420Y-158953579D01*
X128404633Y-158967829D01*
X128422357Y-158983893D01*
X128438421Y-159001617D01*
X128452671Y-159020830D01*
X128464968Y-159041347D01*
X128475196Y-159062971D01*
X128483254Y-159085493D01*
X128489066Y-159108697D01*
X128492576Y-159132358D01*
X128493750Y-159156250D01*
X128493750Y-159643750D01*
X128492576Y-159667642D01*
X128489066Y-159691303D01*
X128483254Y-159714507D01*
X128475196Y-159737029D01*
X128464968Y-159758653D01*
X128452671Y-159779170D01*
X128438421Y-159798383D01*
X128422357Y-159816107D01*
X128404633Y-159832171D01*
X128385420Y-159846421D01*
X128364903Y-159858718D01*
X128343279Y-159868946D01*
X128320757Y-159877004D01*
X128297553Y-159882816D01*
X128273892Y-159886326D01*
X128250000Y-159887500D01*
X127337500Y-159887500D01*
X127313608Y-159886326D01*
X127289947Y-159882816D01*
X127266743Y-159877004D01*
X127244221Y-159868946D01*
X127222597Y-159858718D01*
X127202080Y-159846421D01*
X127182867Y-159832171D01*
X127165143Y-159816107D01*
X127149079Y-159798383D01*
X127134829Y-159779170D01*
X127122532Y-159758653D01*
X127112304Y-159737029D01*
X127104246Y-159714507D01*
X127098434Y-159691303D01*
X127094924Y-159667642D01*
X127093750Y-159643750D01*
X127093750Y-159156250D01*
X127094924Y-159132358D01*
X127098434Y-159108697D01*
X127104246Y-159085493D01*
X127112304Y-159062971D01*
X127122532Y-159041347D01*
X127134829Y-159020830D01*
X127149079Y-159001617D01*
X127165143Y-158983893D01*
X127182867Y-158967829D01*
X127202080Y-158953579D01*
X127222597Y-158941282D01*
X127244221Y-158931054D01*
X127266743Y-158922996D01*
X127289947Y-158917184D01*
X127313608Y-158913674D01*
X127337500Y-158912500D01*
X128250000Y-158912500D01*
X128273892Y-158913674D01*
X128273892Y-158913674D01*
G37*
D17*
X127793750Y-159400000D03*
D10*
G36*
X128273892Y-160788674D02*
G01*
X128297553Y-160792184D01*
X128320757Y-160797996D01*
X128343279Y-160806054D01*
X128364903Y-160816282D01*
X128385420Y-160828579D01*
X128404633Y-160842829D01*
X128422357Y-160858893D01*
X128438421Y-160876617D01*
X128452671Y-160895830D01*
X128464968Y-160916347D01*
X128475196Y-160937971D01*
X128483254Y-160960493D01*
X128489066Y-160983697D01*
X128492576Y-161007358D01*
X128493750Y-161031250D01*
X128493750Y-161518750D01*
X128492576Y-161542642D01*
X128489066Y-161566303D01*
X128483254Y-161589507D01*
X128475196Y-161612029D01*
X128464968Y-161633653D01*
X128452671Y-161654170D01*
X128438421Y-161673383D01*
X128422357Y-161691107D01*
X128404633Y-161707171D01*
X128385420Y-161721421D01*
X128364903Y-161733718D01*
X128343279Y-161743946D01*
X128320757Y-161752004D01*
X128297553Y-161757816D01*
X128273892Y-161761326D01*
X128250000Y-161762500D01*
X127337500Y-161762500D01*
X127313608Y-161761326D01*
X127289947Y-161757816D01*
X127266743Y-161752004D01*
X127244221Y-161743946D01*
X127222597Y-161733718D01*
X127202080Y-161721421D01*
X127182867Y-161707171D01*
X127165143Y-161691107D01*
X127149079Y-161673383D01*
X127134829Y-161654170D01*
X127122532Y-161633653D01*
X127112304Y-161612029D01*
X127104246Y-161589507D01*
X127098434Y-161566303D01*
X127094924Y-161542642D01*
X127093750Y-161518750D01*
X127093750Y-161031250D01*
X127094924Y-161007358D01*
X127098434Y-160983697D01*
X127104246Y-160960493D01*
X127112304Y-160937971D01*
X127122532Y-160916347D01*
X127134829Y-160895830D01*
X127149079Y-160876617D01*
X127165143Y-160858893D01*
X127182867Y-160842829D01*
X127202080Y-160828579D01*
X127222597Y-160816282D01*
X127244221Y-160806054D01*
X127266743Y-160797996D01*
X127289947Y-160792184D01*
X127313608Y-160788674D01*
X127337500Y-160787500D01*
X128250000Y-160787500D01*
X128273892Y-160788674D01*
X128273892Y-160788674D01*
G37*
D17*
X127793750Y-161275000D03*
D10*
G36*
X133036392Y-160788674D02*
G01*
X133060053Y-160792184D01*
X133083257Y-160797996D01*
X133105779Y-160806054D01*
X133127403Y-160816282D01*
X133147920Y-160828579D01*
X133167133Y-160842829D01*
X133184857Y-160858893D01*
X133200921Y-160876617D01*
X133215171Y-160895830D01*
X133227468Y-160916347D01*
X133237696Y-160937971D01*
X133245754Y-160960493D01*
X133251566Y-160983697D01*
X133255076Y-161007358D01*
X133256250Y-161031250D01*
X133256250Y-161518750D01*
X133255076Y-161542642D01*
X133251566Y-161566303D01*
X133245754Y-161589507D01*
X133237696Y-161612029D01*
X133227468Y-161633653D01*
X133215171Y-161654170D01*
X133200921Y-161673383D01*
X133184857Y-161691107D01*
X133167133Y-161707171D01*
X133147920Y-161721421D01*
X133127403Y-161733718D01*
X133105779Y-161743946D01*
X133083257Y-161752004D01*
X133060053Y-161757816D01*
X133036392Y-161761326D01*
X133012500Y-161762500D01*
X132100000Y-161762500D01*
X132076108Y-161761326D01*
X132052447Y-161757816D01*
X132029243Y-161752004D01*
X132006721Y-161743946D01*
X131985097Y-161733718D01*
X131964580Y-161721421D01*
X131945367Y-161707171D01*
X131927643Y-161691107D01*
X131911579Y-161673383D01*
X131897329Y-161654170D01*
X131885032Y-161633653D01*
X131874804Y-161612029D01*
X131866746Y-161589507D01*
X131860934Y-161566303D01*
X131857424Y-161542642D01*
X131856250Y-161518750D01*
X131856250Y-161031250D01*
X131857424Y-161007358D01*
X131860934Y-160983697D01*
X131866746Y-160960493D01*
X131874804Y-160937971D01*
X131885032Y-160916347D01*
X131897329Y-160895830D01*
X131911579Y-160876617D01*
X131927643Y-160858893D01*
X131945367Y-160842829D01*
X131964580Y-160828579D01*
X131985097Y-160816282D01*
X132006721Y-160806054D01*
X132029243Y-160797996D01*
X132052447Y-160792184D01*
X132076108Y-160788674D01*
X132100000Y-160787500D01*
X133012500Y-160787500D01*
X133036392Y-160788674D01*
X133036392Y-160788674D01*
G37*
D17*
X132556250Y-161275000D03*
D10*
G36*
X133036392Y-158913674D02*
G01*
X133060053Y-158917184D01*
X133083257Y-158922996D01*
X133105779Y-158931054D01*
X133127403Y-158941282D01*
X133147920Y-158953579D01*
X133167133Y-158967829D01*
X133184857Y-158983893D01*
X133200921Y-159001617D01*
X133215171Y-159020830D01*
X133227468Y-159041347D01*
X133237696Y-159062971D01*
X133245754Y-159085493D01*
X133251566Y-159108697D01*
X133255076Y-159132358D01*
X133256250Y-159156250D01*
X133256250Y-159643750D01*
X133255076Y-159667642D01*
X133251566Y-159691303D01*
X133245754Y-159714507D01*
X133237696Y-159737029D01*
X133227468Y-159758653D01*
X133215171Y-159779170D01*
X133200921Y-159798383D01*
X133184857Y-159816107D01*
X133167133Y-159832171D01*
X133147920Y-159846421D01*
X133127403Y-159858718D01*
X133105779Y-159868946D01*
X133083257Y-159877004D01*
X133060053Y-159882816D01*
X133036392Y-159886326D01*
X133012500Y-159887500D01*
X132100000Y-159887500D01*
X132076108Y-159886326D01*
X132052447Y-159882816D01*
X132029243Y-159877004D01*
X132006721Y-159868946D01*
X131985097Y-159858718D01*
X131964580Y-159846421D01*
X131945367Y-159832171D01*
X131927643Y-159816107D01*
X131911579Y-159798383D01*
X131897329Y-159779170D01*
X131885032Y-159758653D01*
X131874804Y-159737029D01*
X131866746Y-159714507D01*
X131860934Y-159691303D01*
X131857424Y-159667642D01*
X131856250Y-159643750D01*
X131856250Y-159156250D01*
X131857424Y-159132358D01*
X131860934Y-159108697D01*
X131866746Y-159085493D01*
X131874804Y-159062971D01*
X131885032Y-159041347D01*
X131897329Y-159020830D01*
X131911579Y-159001617D01*
X131927643Y-158983893D01*
X131945367Y-158967829D01*
X131964580Y-158953579D01*
X131985097Y-158941282D01*
X132006721Y-158931054D01*
X132029243Y-158922996D01*
X132052447Y-158917184D01*
X132076108Y-158913674D01*
X132100000Y-158912500D01*
X133012500Y-158912500D01*
X133036392Y-158913674D01*
X133036392Y-158913674D01*
G37*
D17*
X132556250Y-159400000D03*
D10*
G36*
X146530142Y-158119924D02*
G01*
X146553803Y-158123434D01*
X146577007Y-158129246D01*
X146599529Y-158137304D01*
X146621153Y-158147532D01*
X146641670Y-158159829D01*
X146660883Y-158174079D01*
X146678607Y-158190143D01*
X146694671Y-158207867D01*
X146708921Y-158227080D01*
X146721218Y-158247597D01*
X146731446Y-158269221D01*
X146739504Y-158291743D01*
X146745316Y-158314947D01*
X146748826Y-158338608D01*
X146750000Y-158362500D01*
X146750000Y-158850000D01*
X146748826Y-158873892D01*
X146745316Y-158897553D01*
X146739504Y-158920757D01*
X146731446Y-158943279D01*
X146721218Y-158964903D01*
X146708921Y-158985420D01*
X146694671Y-159004633D01*
X146678607Y-159022357D01*
X146660883Y-159038421D01*
X146641670Y-159052671D01*
X146621153Y-159064968D01*
X146599529Y-159075196D01*
X146577007Y-159083254D01*
X146553803Y-159089066D01*
X146530142Y-159092576D01*
X146506250Y-159093750D01*
X145593750Y-159093750D01*
X145569858Y-159092576D01*
X145546197Y-159089066D01*
X145522993Y-159083254D01*
X145500471Y-159075196D01*
X145478847Y-159064968D01*
X145458330Y-159052671D01*
X145439117Y-159038421D01*
X145421393Y-159022357D01*
X145405329Y-159004633D01*
X145391079Y-158985420D01*
X145378782Y-158964903D01*
X145368554Y-158943279D01*
X145360496Y-158920757D01*
X145354684Y-158897553D01*
X145351174Y-158873892D01*
X145350000Y-158850000D01*
X145350000Y-158362500D01*
X145351174Y-158338608D01*
X145354684Y-158314947D01*
X145360496Y-158291743D01*
X145368554Y-158269221D01*
X145378782Y-158247597D01*
X145391079Y-158227080D01*
X145405329Y-158207867D01*
X145421393Y-158190143D01*
X145439117Y-158174079D01*
X145458330Y-158159829D01*
X145478847Y-158147532D01*
X145500471Y-158137304D01*
X145522993Y-158129246D01*
X145546197Y-158123434D01*
X145569858Y-158119924D01*
X145593750Y-158118750D01*
X146506250Y-158118750D01*
X146530142Y-158119924D01*
X146530142Y-158119924D01*
G37*
D17*
X146050000Y-158606250D03*
D10*
G36*
X146530142Y-159994924D02*
G01*
X146553803Y-159998434D01*
X146577007Y-160004246D01*
X146599529Y-160012304D01*
X146621153Y-160022532D01*
X146641670Y-160034829D01*
X146660883Y-160049079D01*
X146678607Y-160065143D01*
X146694671Y-160082867D01*
X146708921Y-160102080D01*
X146721218Y-160122597D01*
X146731446Y-160144221D01*
X146739504Y-160166743D01*
X146745316Y-160189947D01*
X146748826Y-160213608D01*
X146750000Y-160237500D01*
X146750000Y-160725000D01*
X146748826Y-160748892D01*
X146745316Y-160772553D01*
X146739504Y-160795757D01*
X146731446Y-160818279D01*
X146721218Y-160839903D01*
X146708921Y-160860420D01*
X146694671Y-160879633D01*
X146678607Y-160897357D01*
X146660883Y-160913421D01*
X146641670Y-160927671D01*
X146621153Y-160939968D01*
X146599529Y-160950196D01*
X146577007Y-160958254D01*
X146553803Y-160964066D01*
X146530142Y-160967576D01*
X146506250Y-160968750D01*
X145593750Y-160968750D01*
X145569858Y-160967576D01*
X145546197Y-160964066D01*
X145522993Y-160958254D01*
X145500471Y-160950196D01*
X145478847Y-160939968D01*
X145458330Y-160927671D01*
X145439117Y-160913421D01*
X145421393Y-160897357D01*
X145405329Y-160879633D01*
X145391079Y-160860420D01*
X145378782Y-160839903D01*
X145368554Y-160818279D01*
X145360496Y-160795757D01*
X145354684Y-160772553D01*
X145351174Y-160748892D01*
X145350000Y-160725000D01*
X145350000Y-160237500D01*
X145351174Y-160213608D01*
X145354684Y-160189947D01*
X145360496Y-160166743D01*
X145368554Y-160144221D01*
X145378782Y-160122597D01*
X145391079Y-160102080D01*
X145405329Y-160082867D01*
X145421393Y-160065143D01*
X145439117Y-160049079D01*
X145458330Y-160034829D01*
X145478847Y-160022532D01*
X145500471Y-160012304D01*
X145522993Y-160004246D01*
X145546197Y-159998434D01*
X145569858Y-159994924D01*
X145593750Y-159993750D01*
X146506250Y-159993750D01*
X146530142Y-159994924D01*
X146530142Y-159994924D01*
G37*
D17*
X146050000Y-160481250D03*
D10*
G36*
X86374504Y-131326204D02*
G01*
X86398773Y-131329804D01*
X86422571Y-131335765D01*
X86445671Y-131344030D01*
X86467849Y-131354520D01*
X86488893Y-131367133D01*
X86508598Y-131381747D01*
X86526777Y-131398223D01*
X86543253Y-131416402D01*
X86557867Y-131436107D01*
X86570480Y-131457151D01*
X86580970Y-131479329D01*
X86589235Y-131502429D01*
X86595196Y-131526227D01*
X86598796Y-131550496D01*
X86600000Y-131575000D01*
X86600000Y-132325000D01*
X86598796Y-132349504D01*
X86595196Y-132373773D01*
X86589235Y-132397571D01*
X86580970Y-132420671D01*
X86570480Y-132442849D01*
X86557867Y-132463893D01*
X86543253Y-132483598D01*
X86526777Y-132501777D01*
X86508598Y-132518253D01*
X86488893Y-132532867D01*
X86467849Y-132545480D01*
X86445671Y-132555970D01*
X86422571Y-132564235D01*
X86398773Y-132570196D01*
X86374504Y-132573796D01*
X86350000Y-132575000D01*
X85100000Y-132575000D01*
X85075496Y-132573796D01*
X85051227Y-132570196D01*
X85027429Y-132564235D01*
X85004329Y-132555970D01*
X84982151Y-132545480D01*
X84961107Y-132532867D01*
X84941402Y-132518253D01*
X84923223Y-132501777D01*
X84906747Y-132483598D01*
X84892133Y-132463893D01*
X84879520Y-132442849D01*
X84869030Y-132420671D01*
X84860765Y-132397571D01*
X84854804Y-132373773D01*
X84851204Y-132349504D01*
X84850000Y-132325000D01*
X84850000Y-131575000D01*
X84851204Y-131550496D01*
X84854804Y-131526227D01*
X84860765Y-131502429D01*
X84869030Y-131479329D01*
X84879520Y-131457151D01*
X84892133Y-131436107D01*
X84906747Y-131416402D01*
X84923223Y-131398223D01*
X84941402Y-131381747D01*
X84961107Y-131367133D01*
X84982151Y-131354520D01*
X85004329Y-131344030D01*
X85027429Y-131335765D01*
X85051227Y-131329804D01*
X85075496Y-131326204D01*
X85100000Y-131325000D01*
X86350000Y-131325000D01*
X86374504Y-131326204D01*
X86374504Y-131326204D01*
G37*
D18*
X85725000Y-131950000D03*
D10*
G36*
X86374504Y-134126204D02*
G01*
X86398773Y-134129804D01*
X86422571Y-134135765D01*
X86445671Y-134144030D01*
X86467849Y-134154520D01*
X86488893Y-134167133D01*
X86508598Y-134181747D01*
X86526777Y-134198223D01*
X86543253Y-134216402D01*
X86557867Y-134236107D01*
X86570480Y-134257151D01*
X86580970Y-134279329D01*
X86589235Y-134302429D01*
X86595196Y-134326227D01*
X86598796Y-134350496D01*
X86600000Y-134375000D01*
X86600000Y-135125000D01*
X86598796Y-135149504D01*
X86595196Y-135173773D01*
X86589235Y-135197571D01*
X86580970Y-135220671D01*
X86570480Y-135242849D01*
X86557867Y-135263893D01*
X86543253Y-135283598D01*
X86526777Y-135301777D01*
X86508598Y-135318253D01*
X86488893Y-135332867D01*
X86467849Y-135345480D01*
X86445671Y-135355970D01*
X86422571Y-135364235D01*
X86398773Y-135370196D01*
X86374504Y-135373796D01*
X86350000Y-135375000D01*
X85100000Y-135375000D01*
X85075496Y-135373796D01*
X85051227Y-135370196D01*
X85027429Y-135364235D01*
X85004329Y-135355970D01*
X84982151Y-135345480D01*
X84961107Y-135332867D01*
X84941402Y-135318253D01*
X84923223Y-135301777D01*
X84906747Y-135283598D01*
X84892133Y-135263893D01*
X84879520Y-135242849D01*
X84869030Y-135220671D01*
X84860765Y-135197571D01*
X84854804Y-135173773D01*
X84851204Y-135149504D01*
X84850000Y-135125000D01*
X84850000Y-134375000D01*
X84851204Y-134350496D01*
X84854804Y-134326227D01*
X84860765Y-134302429D01*
X84869030Y-134279329D01*
X84879520Y-134257151D01*
X84892133Y-134236107D01*
X84906747Y-134216402D01*
X84923223Y-134198223D01*
X84941402Y-134181747D01*
X84961107Y-134167133D01*
X84982151Y-134154520D01*
X85004329Y-134144030D01*
X85027429Y-134135765D01*
X85051227Y-134129804D01*
X85075496Y-134126204D01*
X85100000Y-134125000D01*
X86350000Y-134125000D01*
X86374504Y-134126204D01*
X86374504Y-134126204D01*
G37*
D18*
X85725000Y-134750000D03*
D19*
X339725000Y-163450000D03*
X339725000Y-166750000D03*
X320675000Y-163450000D03*
X320675000Y-166750000D03*
X301625000Y-163450000D03*
X301625000Y-166750000D03*
X282575000Y-163450000D03*
X282575000Y-166750000D03*
X263525000Y-163450000D03*
X263525000Y-166750000D03*
X198437500Y-163450000D03*
X198437500Y-166750000D03*
X123825000Y-163450000D03*
X123825000Y-166750000D03*
X100012500Y-163450000D03*
X100012500Y-166750000D03*
X76200000Y-163450000D03*
X76200000Y-166750000D03*
X339725000Y-144400000D03*
X339725000Y-147700000D03*
X320675000Y-144400000D03*
X320675000Y-147700000D03*
X301625000Y-144400000D03*
X301625000Y-147700000D03*
X282575000Y-144400000D03*
X282575000Y-147700000D03*
X263525000Y-144400000D03*
X263525000Y-147700000D03*
X244475000Y-144400000D03*
X244475000Y-147700000D03*
X225425000Y-144400000D03*
X225425000Y-147700000D03*
X206375000Y-144400000D03*
X206375000Y-147700000D03*
X187325000Y-144400000D03*
X187325000Y-147700000D03*
X168275000Y-144400000D03*
X168275000Y-147700000D03*
X149225000Y-144400000D03*
X149225000Y-147700000D03*
X130175000Y-144400000D03*
X130175000Y-147700000D03*
X111125000Y-144400000D03*
X111125000Y-147700000D03*
X86518750Y-144400000D03*
X86518750Y-147700000D03*
X329406250Y-125350000D03*
X329406250Y-128650000D03*
X296862500Y-125350000D03*
X296862500Y-128650000D03*
X277812500Y-125350000D03*
X277812500Y-128650000D03*
X258762500Y-125350000D03*
X258762500Y-128650000D03*
X239712500Y-125350000D03*
X239712500Y-128650000D03*
X220662500Y-125350000D03*
X220662500Y-128650000D03*
X201612500Y-125350000D03*
X201612500Y-128650000D03*
X182562500Y-125350000D03*
X182562500Y-128650000D03*
X163512500Y-125350000D03*
X163512500Y-128650000D03*
X144462500Y-125350000D03*
X144462500Y-128650000D03*
X125412500Y-125350000D03*
X125412500Y-128650000D03*
X106362500Y-125350000D03*
X106362500Y-128650000D03*
X81756250Y-125350000D03*
X81756250Y-128650000D03*
X336550000Y-106237500D03*
X336550000Y-109537500D03*
X311150000Y-106300000D03*
X311150000Y-109600000D03*
X292100000Y-106300000D03*
X292100000Y-109600000D03*
X273050000Y-106300000D03*
X273050000Y-109600000D03*
X254000000Y-106300000D03*
X254000000Y-109600000D03*
X234950000Y-106300000D03*
X234950000Y-109600000D03*
X215900000Y-106300000D03*
X215900000Y-109600000D03*
X196850000Y-106300000D03*
X196850000Y-109600000D03*
X177800000Y-106300000D03*
X177800000Y-109600000D03*
X158750000Y-106300000D03*
X158750000Y-109600000D03*
X139700000Y-106300000D03*
X139700000Y-109600000D03*
X120650000Y-106300000D03*
X120650000Y-109600000D03*
X101600000Y-106300000D03*
X101600000Y-109600000D03*
X80168750Y-106300000D03*
X80168750Y-109600000D03*
X330993750Y-87250000D03*
X330993750Y-90550000D03*
X301625000Y-87250000D03*
X301625000Y-90550000D03*
X282575000Y-87250000D03*
X282575000Y-90550000D03*
X263525000Y-87250000D03*
X263525000Y-90550000D03*
X244475000Y-87250000D03*
X244475000Y-90550000D03*
X225425000Y-87250000D03*
X225425000Y-90550000D03*
X206375000Y-87250000D03*
X206375000Y-90550000D03*
X187325000Y-87250000D03*
X187325000Y-90550000D03*
X168275000Y-87250000D03*
X168275000Y-90550000D03*
X149225000Y-87250000D03*
X149225000Y-90550000D03*
X130175000Y-87250000D03*
X130175000Y-90550000D03*
X111125000Y-87250000D03*
X111125000Y-90550000D03*
X92075000Y-87250000D03*
X92075000Y-90550000D03*
X73025000Y-87250000D03*
X73025000Y-90550000D03*
D10*
G36*
X149705142Y-169519924D02*
G01*
X149728803Y-169523434D01*
X149752007Y-169529246D01*
X149774529Y-169537304D01*
X149796153Y-169547532D01*
X149816670Y-169559829D01*
X149835883Y-169574079D01*
X149853607Y-169590143D01*
X149869671Y-169607867D01*
X149883921Y-169627080D01*
X149896218Y-169647597D01*
X149906446Y-169669221D01*
X149914504Y-169691743D01*
X149920316Y-169714947D01*
X149923826Y-169738608D01*
X149925000Y-169762500D01*
X149925000Y-170250000D01*
X149923826Y-170273892D01*
X149920316Y-170297553D01*
X149914504Y-170320757D01*
X149906446Y-170343279D01*
X149896218Y-170364903D01*
X149883921Y-170385420D01*
X149869671Y-170404633D01*
X149853607Y-170422357D01*
X149835883Y-170438421D01*
X149816670Y-170452671D01*
X149796153Y-170464968D01*
X149774529Y-170475196D01*
X149752007Y-170483254D01*
X149728803Y-170489066D01*
X149705142Y-170492576D01*
X149681250Y-170493750D01*
X148768750Y-170493750D01*
X148744858Y-170492576D01*
X148721197Y-170489066D01*
X148697993Y-170483254D01*
X148675471Y-170475196D01*
X148653847Y-170464968D01*
X148633330Y-170452671D01*
X148614117Y-170438421D01*
X148596393Y-170422357D01*
X148580329Y-170404633D01*
X148566079Y-170385420D01*
X148553782Y-170364903D01*
X148543554Y-170343279D01*
X148535496Y-170320757D01*
X148529684Y-170297553D01*
X148526174Y-170273892D01*
X148525000Y-170250000D01*
X148525000Y-169762500D01*
X148526174Y-169738608D01*
X148529684Y-169714947D01*
X148535496Y-169691743D01*
X148543554Y-169669221D01*
X148553782Y-169647597D01*
X148566079Y-169627080D01*
X148580329Y-169607867D01*
X148596393Y-169590143D01*
X148614117Y-169574079D01*
X148633330Y-169559829D01*
X148653847Y-169547532D01*
X148675471Y-169537304D01*
X148697993Y-169529246D01*
X148721197Y-169523434D01*
X148744858Y-169519924D01*
X148768750Y-169518750D01*
X149681250Y-169518750D01*
X149705142Y-169519924D01*
X149705142Y-169519924D01*
G37*
D17*
X149225000Y-170006250D03*
D10*
G36*
X149705142Y-167644924D02*
G01*
X149728803Y-167648434D01*
X149752007Y-167654246D01*
X149774529Y-167662304D01*
X149796153Y-167672532D01*
X149816670Y-167684829D01*
X149835883Y-167699079D01*
X149853607Y-167715143D01*
X149869671Y-167732867D01*
X149883921Y-167752080D01*
X149896218Y-167772597D01*
X149906446Y-167794221D01*
X149914504Y-167816743D01*
X149920316Y-167839947D01*
X149923826Y-167863608D01*
X149925000Y-167887500D01*
X149925000Y-168375000D01*
X149923826Y-168398892D01*
X149920316Y-168422553D01*
X149914504Y-168445757D01*
X149906446Y-168468279D01*
X149896218Y-168489903D01*
X149883921Y-168510420D01*
X149869671Y-168529633D01*
X149853607Y-168547357D01*
X149835883Y-168563421D01*
X149816670Y-168577671D01*
X149796153Y-168589968D01*
X149774529Y-168600196D01*
X149752007Y-168608254D01*
X149728803Y-168614066D01*
X149705142Y-168617576D01*
X149681250Y-168618750D01*
X148768750Y-168618750D01*
X148744858Y-168617576D01*
X148721197Y-168614066D01*
X148697993Y-168608254D01*
X148675471Y-168600196D01*
X148653847Y-168589968D01*
X148633330Y-168577671D01*
X148614117Y-168563421D01*
X148596393Y-168547357D01*
X148580329Y-168529633D01*
X148566079Y-168510420D01*
X148553782Y-168489903D01*
X148543554Y-168468279D01*
X148535496Y-168445757D01*
X148529684Y-168422553D01*
X148526174Y-168398892D01*
X148525000Y-168375000D01*
X148525000Y-167887500D01*
X148526174Y-167863608D01*
X148529684Y-167839947D01*
X148535496Y-167816743D01*
X148543554Y-167794221D01*
X148553782Y-167772597D01*
X148566079Y-167752080D01*
X148580329Y-167732867D01*
X148596393Y-167715143D01*
X148614117Y-167699079D01*
X148633330Y-167684829D01*
X148653847Y-167672532D01*
X148675471Y-167662304D01*
X148697993Y-167654246D01*
X148721197Y-167648434D01*
X148744858Y-167644924D01*
X148768750Y-167643750D01*
X149681250Y-167643750D01*
X149705142Y-167644924D01*
X149705142Y-167644924D01*
G37*
D17*
X149225000Y-168131250D03*
D10*
G36*
X167605142Y-169957424D02*
G01*
X167628803Y-169960934D01*
X167652007Y-169966746D01*
X167674529Y-169974804D01*
X167696153Y-169985032D01*
X167716670Y-169997329D01*
X167735883Y-170011579D01*
X167753607Y-170027643D01*
X167769671Y-170045367D01*
X167783921Y-170064580D01*
X167796218Y-170085097D01*
X167806446Y-170106721D01*
X167814504Y-170129243D01*
X167820316Y-170152447D01*
X167823826Y-170176108D01*
X167825000Y-170200000D01*
X167825000Y-171112500D01*
X167823826Y-171136392D01*
X167820316Y-171160053D01*
X167814504Y-171183257D01*
X167806446Y-171205779D01*
X167796218Y-171227403D01*
X167783921Y-171247920D01*
X167769671Y-171267133D01*
X167753607Y-171284857D01*
X167735883Y-171300921D01*
X167716670Y-171315171D01*
X167696153Y-171327468D01*
X167674529Y-171337696D01*
X167652007Y-171345754D01*
X167628803Y-171351566D01*
X167605142Y-171355076D01*
X167581250Y-171356250D01*
X167093750Y-171356250D01*
X167069858Y-171355076D01*
X167046197Y-171351566D01*
X167022993Y-171345754D01*
X167000471Y-171337696D01*
X166978847Y-171327468D01*
X166958330Y-171315171D01*
X166939117Y-171300921D01*
X166921393Y-171284857D01*
X166905329Y-171267133D01*
X166891079Y-171247920D01*
X166878782Y-171227403D01*
X166868554Y-171205779D01*
X166860496Y-171183257D01*
X166854684Y-171160053D01*
X166851174Y-171136392D01*
X166850000Y-171112500D01*
X166850000Y-170200000D01*
X166851174Y-170176108D01*
X166854684Y-170152447D01*
X166860496Y-170129243D01*
X166868554Y-170106721D01*
X166878782Y-170085097D01*
X166891079Y-170064580D01*
X166905329Y-170045367D01*
X166921393Y-170027643D01*
X166939117Y-170011579D01*
X166958330Y-169997329D01*
X166978847Y-169985032D01*
X167000471Y-169974804D01*
X167022993Y-169966746D01*
X167046197Y-169960934D01*
X167069858Y-169957424D01*
X167093750Y-169956250D01*
X167581250Y-169956250D01*
X167605142Y-169957424D01*
X167605142Y-169957424D01*
G37*
D17*
X167337500Y-170656250D03*
D10*
G36*
X169480142Y-169957424D02*
G01*
X169503803Y-169960934D01*
X169527007Y-169966746D01*
X169549529Y-169974804D01*
X169571153Y-169985032D01*
X169591670Y-169997329D01*
X169610883Y-170011579D01*
X169628607Y-170027643D01*
X169644671Y-170045367D01*
X169658921Y-170064580D01*
X169671218Y-170085097D01*
X169681446Y-170106721D01*
X169689504Y-170129243D01*
X169695316Y-170152447D01*
X169698826Y-170176108D01*
X169700000Y-170200000D01*
X169700000Y-171112500D01*
X169698826Y-171136392D01*
X169695316Y-171160053D01*
X169689504Y-171183257D01*
X169681446Y-171205779D01*
X169671218Y-171227403D01*
X169658921Y-171247920D01*
X169644671Y-171267133D01*
X169628607Y-171284857D01*
X169610883Y-171300921D01*
X169591670Y-171315171D01*
X169571153Y-171327468D01*
X169549529Y-171337696D01*
X169527007Y-171345754D01*
X169503803Y-171351566D01*
X169480142Y-171355076D01*
X169456250Y-171356250D01*
X168968750Y-171356250D01*
X168944858Y-171355076D01*
X168921197Y-171351566D01*
X168897993Y-171345754D01*
X168875471Y-171337696D01*
X168853847Y-171327468D01*
X168833330Y-171315171D01*
X168814117Y-171300921D01*
X168796393Y-171284857D01*
X168780329Y-171267133D01*
X168766079Y-171247920D01*
X168753782Y-171227403D01*
X168743554Y-171205779D01*
X168735496Y-171183257D01*
X168729684Y-171160053D01*
X168726174Y-171136392D01*
X168725000Y-171112500D01*
X168725000Y-170200000D01*
X168726174Y-170176108D01*
X168729684Y-170152447D01*
X168735496Y-170129243D01*
X168743554Y-170106721D01*
X168753782Y-170085097D01*
X168766079Y-170064580D01*
X168780329Y-170045367D01*
X168796393Y-170027643D01*
X168814117Y-170011579D01*
X168833330Y-169997329D01*
X168853847Y-169985032D01*
X168875471Y-169974804D01*
X168897993Y-169966746D01*
X168921197Y-169960934D01*
X168944858Y-169957424D01*
X168968750Y-169956250D01*
X169456250Y-169956250D01*
X169480142Y-169957424D01*
X169480142Y-169957424D01*
G37*
D17*
X169212500Y-170656250D03*
D10*
G36*
X168755142Y-158913674D02*
G01*
X168778803Y-158917184D01*
X168802007Y-158922996D01*
X168824529Y-158931054D01*
X168846153Y-158941282D01*
X168866670Y-158953579D01*
X168885883Y-158967829D01*
X168903607Y-158983893D01*
X168919671Y-159001617D01*
X168933921Y-159020830D01*
X168946218Y-159041347D01*
X168956446Y-159062971D01*
X168964504Y-159085493D01*
X168970316Y-159108697D01*
X168973826Y-159132358D01*
X168975000Y-159156250D01*
X168975000Y-159643750D01*
X168973826Y-159667642D01*
X168970316Y-159691303D01*
X168964504Y-159714507D01*
X168956446Y-159737029D01*
X168946218Y-159758653D01*
X168933921Y-159779170D01*
X168919671Y-159798383D01*
X168903607Y-159816107D01*
X168885883Y-159832171D01*
X168866670Y-159846421D01*
X168846153Y-159858718D01*
X168824529Y-159868946D01*
X168802007Y-159877004D01*
X168778803Y-159882816D01*
X168755142Y-159886326D01*
X168731250Y-159887500D01*
X167818750Y-159887500D01*
X167794858Y-159886326D01*
X167771197Y-159882816D01*
X167747993Y-159877004D01*
X167725471Y-159868946D01*
X167703847Y-159858718D01*
X167683330Y-159846421D01*
X167664117Y-159832171D01*
X167646393Y-159816107D01*
X167630329Y-159798383D01*
X167616079Y-159779170D01*
X167603782Y-159758653D01*
X167593554Y-159737029D01*
X167585496Y-159714507D01*
X167579684Y-159691303D01*
X167576174Y-159667642D01*
X167575000Y-159643750D01*
X167575000Y-159156250D01*
X167576174Y-159132358D01*
X167579684Y-159108697D01*
X167585496Y-159085493D01*
X167593554Y-159062971D01*
X167603782Y-159041347D01*
X167616079Y-159020830D01*
X167630329Y-159001617D01*
X167646393Y-158983893D01*
X167664117Y-158967829D01*
X167683330Y-158953579D01*
X167703847Y-158941282D01*
X167725471Y-158931054D01*
X167747993Y-158922996D01*
X167771197Y-158917184D01*
X167794858Y-158913674D01*
X167818750Y-158912500D01*
X168731250Y-158912500D01*
X168755142Y-158913674D01*
X168755142Y-158913674D01*
G37*
D17*
X168275000Y-159400000D03*
D10*
G36*
X168755142Y-160788674D02*
G01*
X168778803Y-160792184D01*
X168802007Y-160797996D01*
X168824529Y-160806054D01*
X168846153Y-160816282D01*
X168866670Y-160828579D01*
X168885883Y-160842829D01*
X168903607Y-160858893D01*
X168919671Y-160876617D01*
X168933921Y-160895830D01*
X168946218Y-160916347D01*
X168956446Y-160937971D01*
X168964504Y-160960493D01*
X168970316Y-160983697D01*
X168973826Y-161007358D01*
X168975000Y-161031250D01*
X168975000Y-161518750D01*
X168973826Y-161542642D01*
X168970316Y-161566303D01*
X168964504Y-161589507D01*
X168956446Y-161612029D01*
X168946218Y-161633653D01*
X168933921Y-161654170D01*
X168919671Y-161673383D01*
X168903607Y-161691107D01*
X168885883Y-161707171D01*
X168866670Y-161721421D01*
X168846153Y-161733718D01*
X168824529Y-161743946D01*
X168802007Y-161752004D01*
X168778803Y-161757816D01*
X168755142Y-161761326D01*
X168731250Y-161762500D01*
X167818750Y-161762500D01*
X167794858Y-161761326D01*
X167771197Y-161757816D01*
X167747993Y-161752004D01*
X167725471Y-161743946D01*
X167703847Y-161733718D01*
X167683330Y-161721421D01*
X167664117Y-161707171D01*
X167646393Y-161691107D01*
X167630329Y-161673383D01*
X167616079Y-161654170D01*
X167603782Y-161633653D01*
X167593554Y-161612029D01*
X167585496Y-161589507D01*
X167579684Y-161566303D01*
X167576174Y-161542642D01*
X167575000Y-161518750D01*
X167575000Y-161031250D01*
X167576174Y-161007358D01*
X167579684Y-160983697D01*
X167585496Y-160960493D01*
X167593554Y-160937971D01*
X167603782Y-160916347D01*
X167616079Y-160895830D01*
X167630329Y-160876617D01*
X167646393Y-160858893D01*
X167664117Y-160842829D01*
X167683330Y-160828579D01*
X167703847Y-160816282D01*
X167725471Y-160806054D01*
X167747993Y-160797996D01*
X167771197Y-160792184D01*
X167794858Y-160788674D01*
X167818750Y-160787500D01*
X168731250Y-160787500D01*
X168755142Y-160788674D01*
X168755142Y-160788674D01*
G37*
D17*
X168275000Y-161275000D03*
D10*
G36*
X149705142Y-158119924D02*
G01*
X149728803Y-158123434D01*
X149752007Y-158129246D01*
X149774529Y-158137304D01*
X149796153Y-158147532D01*
X149816670Y-158159829D01*
X149835883Y-158174079D01*
X149853607Y-158190143D01*
X149869671Y-158207867D01*
X149883921Y-158227080D01*
X149896218Y-158247597D01*
X149906446Y-158269221D01*
X149914504Y-158291743D01*
X149920316Y-158314947D01*
X149923826Y-158338608D01*
X149925000Y-158362500D01*
X149925000Y-158850000D01*
X149923826Y-158873892D01*
X149920316Y-158897553D01*
X149914504Y-158920757D01*
X149906446Y-158943279D01*
X149896218Y-158964903D01*
X149883921Y-158985420D01*
X149869671Y-159004633D01*
X149853607Y-159022357D01*
X149835883Y-159038421D01*
X149816670Y-159052671D01*
X149796153Y-159064968D01*
X149774529Y-159075196D01*
X149752007Y-159083254D01*
X149728803Y-159089066D01*
X149705142Y-159092576D01*
X149681250Y-159093750D01*
X148768750Y-159093750D01*
X148744858Y-159092576D01*
X148721197Y-159089066D01*
X148697993Y-159083254D01*
X148675471Y-159075196D01*
X148653847Y-159064968D01*
X148633330Y-159052671D01*
X148614117Y-159038421D01*
X148596393Y-159022357D01*
X148580329Y-159004633D01*
X148566079Y-158985420D01*
X148553782Y-158964903D01*
X148543554Y-158943279D01*
X148535496Y-158920757D01*
X148529684Y-158897553D01*
X148526174Y-158873892D01*
X148525000Y-158850000D01*
X148525000Y-158362500D01*
X148526174Y-158338608D01*
X148529684Y-158314947D01*
X148535496Y-158291743D01*
X148543554Y-158269221D01*
X148553782Y-158247597D01*
X148566079Y-158227080D01*
X148580329Y-158207867D01*
X148596393Y-158190143D01*
X148614117Y-158174079D01*
X148633330Y-158159829D01*
X148653847Y-158147532D01*
X148675471Y-158137304D01*
X148697993Y-158129246D01*
X148721197Y-158123434D01*
X148744858Y-158119924D01*
X148768750Y-158118750D01*
X149681250Y-158118750D01*
X149705142Y-158119924D01*
X149705142Y-158119924D01*
G37*
D17*
X149225000Y-158606250D03*
D10*
G36*
X149705142Y-159994924D02*
G01*
X149728803Y-159998434D01*
X149752007Y-160004246D01*
X149774529Y-160012304D01*
X149796153Y-160022532D01*
X149816670Y-160034829D01*
X149835883Y-160049079D01*
X149853607Y-160065143D01*
X149869671Y-160082867D01*
X149883921Y-160102080D01*
X149896218Y-160122597D01*
X149906446Y-160144221D01*
X149914504Y-160166743D01*
X149920316Y-160189947D01*
X149923826Y-160213608D01*
X149925000Y-160237500D01*
X149925000Y-160725000D01*
X149923826Y-160748892D01*
X149920316Y-160772553D01*
X149914504Y-160795757D01*
X149906446Y-160818279D01*
X149896218Y-160839903D01*
X149883921Y-160860420D01*
X149869671Y-160879633D01*
X149853607Y-160897357D01*
X149835883Y-160913421D01*
X149816670Y-160927671D01*
X149796153Y-160939968D01*
X149774529Y-160950196D01*
X149752007Y-160958254D01*
X149728803Y-160964066D01*
X149705142Y-160967576D01*
X149681250Y-160968750D01*
X148768750Y-160968750D01*
X148744858Y-160967576D01*
X148721197Y-160964066D01*
X148697993Y-160958254D01*
X148675471Y-160950196D01*
X148653847Y-160939968D01*
X148633330Y-160927671D01*
X148614117Y-160913421D01*
X148596393Y-160897357D01*
X148580329Y-160879633D01*
X148566079Y-160860420D01*
X148553782Y-160839903D01*
X148543554Y-160818279D01*
X148535496Y-160795757D01*
X148529684Y-160772553D01*
X148526174Y-160748892D01*
X148525000Y-160725000D01*
X148525000Y-160237500D01*
X148526174Y-160213608D01*
X148529684Y-160189947D01*
X148535496Y-160166743D01*
X148543554Y-160144221D01*
X148553782Y-160122597D01*
X148566079Y-160102080D01*
X148580329Y-160082867D01*
X148596393Y-160065143D01*
X148614117Y-160049079D01*
X148633330Y-160034829D01*
X148653847Y-160022532D01*
X148675471Y-160012304D01*
X148697993Y-160004246D01*
X148721197Y-159998434D01*
X148744858Y-159994924D01*
X148768750Y-159993750D01*
X149681250Y-159993750D01*
X149705142Y-159994924D01*
X149705142Y-159994924D01*
G37*
D17*
X149225000Y-160481250D03*
D10*
G36*
X147323892Y-163963674D02*
G01*
X147347553Y-163967184D01*
X147370757Y-163972996D01*
X147393279Y-163981054D01*
X147414903Y-163991282D01*
X147435420Y-164003579D01*
X147454633Y-164017829D01*
X147472357Y-164033893D01*
X147488421Y-164051617D01*
X147502671Y-164070830D01*
X147514968Y-164091347D01*
X147525196Y-164112971D01*
X147533254Y-164135493D01*
X147539066Y-164158697D01*
X147542576Y-164182358D01*
X147543750Y-164206250D01*
X147543750Y-164693750D01*
X147542576Y-164717642D01*
X147539066Y-164741303D01*
X147533254Y-164764507D01*
X147525196Y-164787029D01*
X147514968Y-164808653D01*
X147502671Y-164829170D01*
X147488421Y-164848383D01*
X147472357Y-164866107D01*
X147454633Y-164882171D01*
X147435420Y-164896421D01*
X147414903Y-164908718D01*
X147393279Y-164918946D01*
X147370757Y-164927004D01*
X147347553Y-164932816D01*
X147323892Y-164936326D01*
X147300000Y-164937500D01*
X146387500Y-164937500D01*
X146363608Y-164936326D01*
X146339947Y-164932816D01*
X146316743Y-164927004D01*
X146294221Y-164918946D01*
X146272597Y-164908718D01*
X146252080Y-164896421D01*
X146232867Y-164882171D01*
X146215143Y-164866107D01*
X146199079Y-164848383D01*
X146184829Y-164829170D01*
X146172532Y-164808653D01*
X146162304Y-164787029D01*
X146154246Y-164764507D01*
X146148434Y-164741303D01*
X146144924Y-164717642D01*
X146143750Y-164693750D01*
X146143750Y-164206250D01*
X146144924Y-164182358D01*
X146148434Y-164158697D01*
X146154246Y-164135493D01*
X146162304Y-164112971D01*
X146172532Y-164091347D01*
X146184829Y-164070830D01*
X146199079Y-164051617D01*
X146215143Y-164033893D01*
X146232867Y-164017829D01*
X146252080Y-164003579D01*
X146272597Y-163991282D01*
X146294221Y-163981054D01*
X146316743Y-163972996D01*
X146339947Y-163967184D01*
X146363608Y-163963674D01*
X146387500Y-163962500D01*
X147300000Y-163962500D01*
X147323892Y-163963674D01*
X147323892Y-163963674D01*
G37*
D17*
X146843750Y-164450000D03*
D10*
G36*
X147323892Y-162088674D02*
G01*
X147347553Y-162092184D01*
X147370757Y-162097996D01*
X147393279Y-162106054D01*
X147414903Y-162116282D01*
X147435420Y-162128579D01*
X147454633Y-162142829D01*
X147472357Y-162158893D01*
X147488421Y-162176617D01*
X147502671Y-162195830D01*
X147514968Y-162216347D01*
X147525196Y-162237971D01*
X147533254Y-162260493D01*
X147539066Y-162283697D01*
X147542576Y-162307358D01*
X147543750Y-162331250D01*
X147543750Y-162818750D01*
X147542576Y-162842642D01*
X147539066Y-162866303D01*
X147533254Y-162889507D01*
X147525196Y-162912029D01*
X147514968Y-162933653D01*
X147502671Y-162954170D01*
X147488421Y-162973383D01*
X147472357Y-162991107D01*
X147454633Y-163007171D01*
X147435420Y-163021421D01*
X147414903Y-163033718D01*
X147393279Y-163043946D01*
X147370757Y-163052004D01*
X147347553Y-163057816D01*
X147323892Y-163061326D01*
X147300000Y-163062500D01*
X146387500Y-163062500D01*
X146363608Y-163061326D01*
X146339947Y-163057816D01*
X146316743Y-163052004D01*
X146294221Y-163043946D01*
X146272597Y-163033718D01*
X146252080Y-163021421D01*
X146232867Y-163007171D01*
X146215143Y-162991107D01*
X146199079Y-162973383D01*
X146184829Y-162954170D01*
X146172532Y-162933653D01*
X146162304Y-162912029D01*
X146154246Y-162889507D01*
X146148434Y-162866303D01*
X146144924Y-162842642D01*
X146143750Y-162818750D01*
X146143750Y-162331250D01*
X146144924Y-162307358D01*
X146148434Y-162283697D01*
X146154246Y-162260493D01*
X146162304Y-162237971D01*
X146172532Y-162216347D01*
X146184829Y-162195830D01*
X146199079Y-162176617D01*
X146215143Y-162158893D01*
X146232867Y-162142829D01*
X146252080Y-162128579D01*
X146272597Y-162116282D01*
X146294221Y-162106054D01*
X146316743Y-162097996D01*
X146339947Y-162092184D01*
X146363608Y-162088674D01*
X146387500Y-162087500D01*
X147300000Y-162087500D01*
X147323892Y-162088674D01*
X147323892Y-162088674D01*
G37*
D17*
X146843750Y-162575000D03*
D10*
G36*
X147323892Y-153644924D02*
G01*
X147347553Y-153648434D01*
X147370757Y-153654246D01*
X147393279Y-153662304D01*
X147414903Y-153672532D01*
X147435420Y-153684829D01*
X147454633Y-153699079D01*
X147472357Y-153715143D01*
X147488421Y-153732867D01*
X147502671Y-153752080D01*
X147514968Y-153772597D01*
X147525196Y-153794221D01*
X147533254Y-153816743D01*
X147539066Y-153839947D01*
X147542576Y-153863608D01*
X147543750Y-153887500D01*
X147543750Y-154375000D01*
X147542576Y-154398892D01*
X147539066Y-154422553D01*
X147533254Y-154445757D01*
X147525196Y-154468279D01*
X147514968Y-154489903D01*
X147502671Y-154510420D01*
X147488421Y-154529633D01*
X147472357Y-154547357D01*
X147454633Y-154563421D01*
X147435420Y-154577671D01*
X147414903Y-154589968D01*
X147393279Y-154600196D01*
X147370757Y-154608254D01*
X147347553Y-154614066D01*
X147323892Y-154617576D01*
X147300000Y-154618750D01*
X146387500Y-154618750D01*
X146363608Y-154617576D01*
X146339947Y-154614066D01*
X146316743Y-154608254D01*
X146294221Y-154600196D01*
X146272597Y-154589968D01*
X146252080Y-154577671D01*
X146232867Y-154563421D01*
X146215143Y-154547357D01*
X146199079Y-154529633D01*
X146184829Y-154510420D01*
X146172532Y-154489903D01*
X146162304Y-154468279D01*
X146154246Y-154445757D01*
X146148434Y-154422553D01*
X146144924Y-154398892D01*
X146143750Y-154375000D01*
X146143750Y-153887500D01*
X146144924Y-153863608D01*
X146148434Y-153839947D01*
X146154246Y-153816743D01*
X146162304Y-153794221D01*
X146172532Y-153772597D01*
X146184829Y-153752080D01*
X146199079Y-153732867D01*
X146215143Y-153715143D01*
X146232867Y-153699079D01*
X146252080Y-153684829D01*
X146272597Y-153672532D01*
X146294221Y-153662304D01*
X146316743Y-153654246D01*
X146339947Y-153648434D01*
X146363608Y-153644924D01*
X146387500Y-153643750D01*
X147300000Y-153643750D01*
X147323892Y-153644924D01*
X147323892Y-153644924D01*
G37*
D17*
X146843750Y-154131250D03*
D10*
G36*
X147323892Y-151769924D02*
G01*
X147347553Y-151773434D01*
X147370757Y-151779246D01*
X147393279Y-151787304D01*
X147414903Y-151797532D01*
X147435420Y-151809829D01*
X147454633Y-151824079D01*
X147472357Y-151840143D01*
X147488421Y-151857867D01*
X147502671Y-151877080D01*
X147514968Y-151897597D01*
X147525196Y-151919221D01*
X147533254Y-151941743D01*
X147539066Y-151964947D01*
X147542576Y-151988608D01*
X147543750Y-152012500D01*
X147543750Y-152500000D01*
X147542576Y-152523892D01*
X147539066Y-152547553D01*
X147533254Y-152570757D01*
X147525196Y-152593279D01*
X147514968Y-152614903D01*
X147502671Y-152635420D01*
X147488421Y-152654633D01*
X147472357Y-152672357D01*
X147454633Y-152688421D01*
X147435420Y-152702671D01*
X147414903Y-152714968D01*
X147393279Y-152725196D01*
X147370757Y-152733254D01*
X147347553Y-152739066D01*
X147323892Y-152742576D01*
X147300000Y-152743750D01*
X146387500Y-152743750D01*
X146363608Y-152742576D01*
X146339947Y-152739066D01*
X146316743Y-152733254D01*
X146294221Y-152725196D01*
X146272597Y-152714968D01*
X146252080Y-152702671D01*
X146232867Y-152688421D01*
X146215143Y-152672357D01*
X146199079Y-152654633D01*
X146184829Y-152635420D01*
X146172532Y-152614903D01*
X146162304Y-152593279D01*
X146154246Y-152570757D01*
X146148434Y-152547553D01*
X146144924Y-152523892D01*
X146143750Y-152500000D01*
X146143750Y-152012500D01*
X146144924Y-151988608D01*
X146148434Y-151964947D01*
X146154246Y-151941743D01*
X146162304Y-151919221D01*
X146172532Y-151897597D01*
X146184829Y-151877080D01*
X146199079Y-151857867D01*
X146215143Y-151840143D01*
X146232867Y-151824079D01*
X146252080Y-151809829D01*
X146272597Y-151797532D01*
X146294221Y-151787304D01*
X146316743Y-151779246D01*
X146339947Y-151773434D01*
X146363608Y-151769924D01*
X146387500Y-151768750D01*
X147300000Y-151768750D01*
X147323892Y-151769924D01*
X147323892Y-151769924D01*
G37*
D17*
X146843750Y-152256250D03*
D10*
G36*
X156848892Y-151769924D02*
G01*
X156872553Y-151773434D01*
X156895757Y-151779246D01*
X156918279Y-151787304D01*
X156939903Y-151797532D01*
X156960420Y-151809829D01*
X156979633Y-151824079D01*
X156997357Y-151840143D01*
X157013421Y-151857867D01*
X157027671Y-151877080D01*
X157039968Y-151897597D01*
X157050196Y-151919221D01*
X157058254Y-151941743D01*
X157064066Y-151964947D01*
X157067576Y-151988608D01*
X157068750Y-152012500D01*
X157068750Y-152500000D01*
X157067576Y-152523892D01*
X157064066Y-152547553D01*
X157058254Y-152570757D01*
X157050196Y-152593279D01*
X157039968Y-152614903D01*
X157027671Y-152635420D01*
X157013421Y-152654633D01*
X156997357Y-152672357D01*
X156979633Y-152688421D01*
X156960420Y-152702671D01*
X156939903Y-152714968D01*
X156918279Y-152725196D01*
X156895757Y-152733254D01*
X156872553Y-152739066D01*
X156848892Y-152742576D01*
X156825000Y-152743750D01*
X155912500Y-152743750D01*
X155888608Y-152742576D01*
X155864947Y-152739066D01*
X155841743Y-152733254D01*
X155819221Y-152725196D01*
X155797597Y-152714968D01*
X155777080Y-152702671D01*
X155757867Y-152688421D01*
X155740143Y-152672357D01*
X155724079Y-152654633D01*
X155709829Y-152635420D01*
X155697532Y-152614903D01*
X155687304Y-152593279D01*
X155679246Y-152570757D01*
X155673434Y-152547553D01*
X155669924Y-152523892D01*
X155668750Y-152500000D01*
X155668750Y-152012500D01*
X155669924Y-151988608D01*
X155673434Y-151964947D01*
X155679246Y-151941743D01*
X155687304Y-151919221D01*
X155697532Y-151897597D01*
X155709829Y-151877080D01*
X155724079Y-151857867D01*
X155740143Y-151840143D01*
X155757867Y-151824079D01*
X155777080Y-151809829D01*
X155797597Y-151797532D01*
X155819221Y-151787304D01*
X155841743Y-151779246D01*
X155864947Y-151773434D01*
X155888608Y-151769924D01*
X155912500Y-151768750D01*
X156825000Y-151768750D01*
X156848892Y-151769924D01*
X156848892Y-151769924D01*
G37*
D17*
X156368750Y-152256250D03*
D10*
G36*
X156848892Y-153644924D02*
G01*
X156872553Y-153648434D01*
X156895757Y-153654246D01*
X156918279Y-153662304D01*
X156939903Y-153672532D01*
X156960420Y-153684829D01*
X156979633Y-153699079D01*
X156997357Y-153715143D01*
X157013421Y-153732867D01*
X157027671Y-153752080D01*
X157039968Y-153772597D01*
X157050196Y-153794221D01*
X157058254Y-153816743D01*
X157064066Y-153839947D01*
X157067576Y-153863608D01*
X157068750Y-153887500D01*
X157068750Y-154375000D01*
X157067576Y-154398892D01*
X157064066Y-154422553D01*
X157058254Y-154445757D01*
X157050196Y-154468279D01*
X157039968Y-154489903D01*
X157027671Y-154510420D01*
X157013421Y-154529633D01*
X156997357Y-154547357D01*
X156979633Y-154563421D01*
X156960420Y-154577671D01*
X156939903Y-154589968D01*
X156918279Y-154600196D01*
X156895757Y-154608254D01*
X156872553Y-154614066D01*
X156848892Y-154617576D01*
X156825000Y-154618750D01*
X155912500Y-154618750D01*
X155888608Y-154617576D01*
X155864947Y-154614066D01*
X155841743Y-154608254D01*
X155819221Y-154600196D01*
X155797597Y-154589968D01*
X155777080Y-154577671D01*
X155757867Y-154563421D01*
X155740143Y-154547357D01*
X155724079Y-154529633D01*
X155709829Y-154510420D01*
X155697532Y-154489903D01*
X155687304Y-154468279D01*
X155679246Y-154445757D01*
X155673434Y-154422553D01*
X155669924Y-154398892D01*
X155668750Y-154375000D01*
X155668750Y-153887500D01*
X155669924Y-153863608D01*
X155673434Y-153839947D01*
X155679246Y-153816743D01*
X155687304Y-153794221D01*
X155697532Y-153772597D01*
X155709829Y-153752080D01*
X155724079Y-153732867D01*
X155740143Y-153715143D01*
X155757867Y-153699079D01*
X155777080Y-153684829D01*
X155797597Y-153672532D01*
X155819221Y-153662304D01*
X155841743Y-153654246D01*
X155864947Y-153648434D01*
X155888608Y-153644924D01*
X155912500Y-153643750D01*
X156825000Y-153643750D01*
X156848892Y-153644924D01*
X156848892Y-153644924D01*
G37*
D17*
X156368750Y-154131250D03*
M02*
